%TF.GenerationSoftware,KiCad,Pcbnew,9.0.8*%
%TF.CreationDate,2026-05-04T13:59:55-06:00*%
%TF.ProjectId,jack2bluetooth,6a61636b-3262-46c7-9565-746f6f74682e,v3.1*%
%TF.SameCoordinates,Original*%
%TF.FileFunction,Other,ECO1*%
%FSLAX46Y46*%
G04 Gerber Fmt 4.6, Leading zero omitted, Abs format (unit mm)*
G04 Created by KiCad (PCBNEW 9.0.8) date 2026-05-04 13:59:55*
%MOMM*%
%LPD*%
G01*
G04 APERTURE LIST*
%ADD10C,0.150000*%
G04 APERTURE END LIST*
D10*
X107750000Y-95750000D02*
G75*
G02*
X100750000Y-95750000I-3500000J0D01*
G01*
X100750000Y-95750000D02*
G75*
G02*
X107750000Y-95750000I3500000J0D01*
G01*
X186500000Y-26750000D02*
G75*
G02*
X179500000Y-26750000I-3500000J0D01*
G01*
X179500000Y-26750000D02*
G75*
G02*
X186500000Y-26750000I3500000J0D01*
G01*
X107750000Y-26750000D02*
G75*
G02*
X100750000Y-26750000I-3500000J0D01*
G01*
X100750000Y-26750000D02*
G75*
G02*
X107750000Y-26750000I3500000J0D01*
G01*
X186500000Y-95750000D02*
G75*
G02*
X179500000Y-95750000I-3500000J0D01*
G01*
X179500000Y-95750000D02*
G75*
G02*
X186500000Y-95750000I3500000J0D01*
G01*
X119857143Y-103638152D02*
X119857143Y-104304819D01*
X119619048Y-103257200D02*
X119380953Y-103971485D01*
X119380953Y-103971485D02*
X120000000Y-103971485D01*
X120809524Y-103304819D02*
X120619048Y-103304819D01*
X120619048Y-103304819D02*
X120523810Y-103352438D01*
X120523810Y-103352438D02*
X120476191Y-103400057D01*
X120476191Y-103400057D02*
X120380953Y-103542914D01*
X120380953Y-103542914D02*
X120333334Y-103733390D01*
X120333334Y-103733390D02*
X120333334Y-104114342D01*
X120333334Y-104114342D02*
X120380953Y-104209580D01*
X120380953Y-104209580D02*
X120428572Y-104257200D01*
X120428572Y-104257200D02*
X120523810Y-104304819D01*
X120523810Y-104304819D02*
X120714286Y-104304819D01*
X120714286Y-104304819D02*
X120809524Y-104257200D01*
X120809524Y-104257200D02*
X120857143Y-104209580D01*
X120857143Y-104209580D02*
X120904762Y-104114342D01*
X120904762Y-104114342D02*
X120904762Y-103876247D01*
X120904762Y-103876247D02*
X120857143Y-103781009D01*
X120857143Y-103781009D02*
X120809524Y-103733390D01*
X120809524Y-103733390D02*
X120714286Y-103685771D01*
X120714286Y-103685771D02*
X120523810Y-103685771D01*
X120523810Y-103685771D02*
X120428572Y-103733390D01*
X120428572Y-103733390D02*
X120380953Y-103781009D01*
X120380953Y-103781009D02*
X120333334Y-103876247D01*
X121333334Y-104209580D02*
X121380953Y-104257200D01*
X121380953Y-104257200D02*
X121333334Y-104304819D01*
X121333334Y-104304819D02*
X121285715Y-104257200D01*
X121285715Y-104257200D02*
X121333334Y-104209580D01*
X121333334Y-104209580D02*
X121333334Y-104304819D01*
X122285714Y-103304819D02*
X121809524Y-103304819D01*
X121809524Y-103304819D02*
X121761905Y-103781009D01*
X121761905Y-103781009D02*
X121809524Y-103733390D01*
X121809524Y-103733390D02*
X121904762Y-103685771D01*
X121904762Y-103685771D02*
X122142857Y-103685771D01*
X122142857Y-103685771D02*
X122238095Y-103733390D01*
X122238095Y-103733390D02*
X122285714Y-103781009D01*
X122285714Y-103781009D02*
X122333333Y-103876247D01*
X122333333Y-103876247D02*
X122333333Y-104114342D01*
X122333333Y-104114342D02*
X122285714Y-104209580D01*
X122285714Y-104209580D02*
X122238095Y-104257200D01*
X122238095Y-104257200D02*
X122142857Y-104304819D01*
X122142857Y-104304819D02*
X121904762Y-104304819D01*
X121904762Y-104304819D02*
X121809524Y-104257200D01*
X121809524Y-104257200D02*
X121761905Y-104209580D01*
X122952381Y-103304819D02*
X123047619Y-103304819D01*
X123047619Y-103304819D02*
X123142857Y-103352438D01*
X123142857Y-103352438D02*
X123190476Y-103400057D01*
X123190476Y-103400057D02*
X123238095Y-103495295D01*
X123238095Y-103495295D02*
X123285714Y-103685771D01*
X123285714Y-103685771D02*
X123285714Y-103923866D01*
X123285714Y-103923866D02*
X123238095Y-104114342D01*
X123238095Y-104114342D02*
X123190476Y-104209580D01*
X123190476Y-104209580D02*
X123142857Y-104257200D01*
X123142857Y-104257200D02*
X123047619Y-104304819D01*
X123047619Y-104304819D02*
X122952381Y-104304819D01*
X122952381Y-104304819D02*
X122857143Y-104257200D01*
X122857143Y-104257200D02*
X122809524Y-104209580D01*
X122809524Y-104209580D02*
X122761905Y-104114342D01*
X122761905Y-104114342D02*
X122714286Y-103923866D01*
X122714286Y-103923866D02*
X122714286Y-103685771D01*
X122714286Y-103685771D02*
X122761905Y-103495295D01*
X122761905Y-103495295D02*
X122809524Y-103400057D01*
X122809524Y-103400057D02*
X122857143Y-103352438D01*
X122857143Y-103352438D02*
X122952381Y-103304819D01*
X123904762Y-103304819D02*
X124000000Y-103304819D01*
X124000000Y-103304819D02*
X124095238Y-103352438D01*
X124095238Y-103352438D02*
X124142857Y-103400057D01*
X124142857Y-103400057D02*
X124190476Y-103495295D01*
X124190476Y-103495295D02*
X124238095Y-103685771D01*
X124238095Y-103685771D02*
X124238095Y-103923866D01*
X124238095Y-103923866D02*
X124190476Y-104114342D01*
X124190476Y-104114342D02*
X124142857Y-104209580D01*
X124142857Y-104209580D02*
X124095238Y-104257200D01*
X124095238Y-104257200D02*
X124000000Y-104304819D01*
X124000000Y-104304819D02*
X123904762Y-104304819D01*
X123904762Y-104304819D02*
X123809524Y-104257200D01*
X123809524Y-104257200D02*
X123761905Y-104209580D01*
X123761905Y-104209580D02*
X123714286Y-104114342D01*
X123714286Y-104114342D02*
X123666667Y-103923866D01*
X123666667Y-103923866D02*
X123666667Y-103685771D01*
X123666667Y-103685771D02*
X123714286Y-103495295D01*
X123714286Y-103495295D02*
X123761905Y-103400057D01*
X123761905Y-103400057D02*
X123809524Y-103352438D01*
X123809524Y-103352438D02*
X123904762Y-103304819D01*
X124857143Y-103304819D02*
X124952381Y-103304819D01*
X124952381Y-103304819D02*
X125047619Y-103352438D01*
X125047619Y-103352438D02*
X125095238Y-103400057D01*
X125095238Y-103400057D02*
X125142857Y-103495295D01*
X125142857Y-103495295D02*
X125190476Y-103685771D01*
X125190476Y-103685771D02*
X125190476Y-103923866D01*
X125190476Y-103923866D02*
X125142857Y-104114342D01*
X125142857Y-104114342D02*
X125095238Y-104209580D01*
X125095238Y-104209580D02*
X125047619Y-104257200D01*
X125047619Y-104257200D02*
X124952381Y-104304819D01*
X124952381Y-104304819D02*
X124857143Y-104304819D01*
X124857143Y-104304819D02*
X124761905Y-104257200D01*
X124761905Y-104257200D02*
X124714286Y-104209580D01*
X124714286Y-104209580D02*
X124666667Y-104114342D01*
X124666667Y-104114342D02*
X124619048Y-103923866D01*
X124619048Y-103923866D02*
X124619048Y-103685771D01*
X124619048Y-103685771D02*
X124666667Y-103495295D01*
X124666667Y-103495295D02*
X124714286Y-103400057D01*
X124714286Y-103400057D02*
X124761905Y-103352438D01*
X124761905Y-103352438D02*
X124857143Y-103304819D01*
X126380953Y-104304819D02*
X126380953Y-103638152D01*
X126380953Y-103733390D02*
X126428572Y-103685771D01*
X126428572Y-103685771D02*
X126523810Y-103638152D01*
X126523810Y-103638152D02*
X126666667Y-103638152D01*
X126666667Y-103638152D02*
X126761905Y-103685771D01*
X126761905Y-103685771D02*
X126809524Y-103781009D01*
X126809524Y-103781009D02*
X126809524Y-104304819D01*
X126809524Y-103781009D02*
X126857143Y-103685771D01*
X126857143Y-103685771D02*
X126952381Y-103638152D01*
X126952381Y-103638152D02*
X127095238Y-103638152D01*
X127095238Y-103638152D02*
X127190477Y-103685771D01*
X127190477Y-103685771D02*
X127238096Y-103781009D01*
X127238096Y-103781009D02*
X127238096Y-104304819D01*
X127714286Y-104304819D02*
X127714286Y-103638152D01*
X127714286Y-103733390D02*
X127761905Y-103685771D01*
X127761905Y-103685771D02*
X127857143Y-103638152D01*
X127857143Y-103638152D02*
X128000000Y-103638152D01*
X128000000Y-103638152D02*
X128095238Y-103685771D01*
X128095238Y-103685771D02*
X128142857Y-103781009D01*
X128142857Y-103781009D02*
X128142857Y-104304819D01*
X128142857Y-103781009D02*
X128190476Y-103685771D01*
X128190476Y-103685771D02*
X128285714Y-103638152D01*
X128285714Y-103638152D02*
X128428571Y-103638152D01*
X128428571Y-103638152D02*
X128523810Y-103685771D01*
X128523810Y-103685771D02*
X128571429Y-103781009D01*
X128571429Y-103781009D02*
X128571429Y-104304819D01*
X147250000Y-84500000D02*
X147250000Y-105586420D01*
X100750000Y-105586420D02*
X100750000Y-84525000D01*
X147250000Y-105000000D02*
X100750000Y-105000000D01*
X147250000Y-105000000D02*
X146123496Y-105586421D01*
X147250000Y-105000000D02*
X146123496Y-104413579D01*
X100750000Y-105000000D02*
X101876504Y-104413579D01*
X100750000Y-105000000D02*
X101876504Y-105586421D01*
X94304819Y-65916665D02*
X94304819Y-65249999D01*
X94304819Y-65249999D02*
X95304819Y-65678570D01*
X94304819Y-64440475D02*
X94304819Y-64630951D01*
X94304819Y-64630951D02*
X94352438Y-64726189D01*
X94352438Y-64726189D02*
X94400057Y-64773808D01*
X94400057Y-64773808D02*
X94542914Y-64869046D01*
X94542914Y-64869046D02*
X94733390Y-64916665D01*
X94733390Y-64916665D02*
X95114342Y-64916665D01*
X95114342Y-64916665D02*
X95209580Y-64869046D01*
X95209580Y-64869046D02*
X95257200Y-64821427D01*
X95257200Y-64821427D02*
X95304819Y-64726189D01*
X95304819Y-64726189D02*
X95304819Y-64535713D01*
X95304819Y-64535713D02*
X95257200Y-64440475D01*
X95257200Y-64440475D02*
X95209580Y-64392856D01*
X95209580Y-64392856D02*
X95114342Y-64345237D01*
X95114342Y-64345237D02*
X94876247Y-64345237D01*
X94876247Y-64345237D02*
X94781009Y-64392856D01*
X94781009Y-64392856D02*
X94733390Y-64440475D01*
X94733390Y-64440475D02*
X94685771Y-64535713D01*
X94685771Y-64535713D02*
X94685771Y-64726189D01*
X94685771Y-64726189D02*
X94733390Y-64821427D01*
X94733390Y-64821427D02*
X94781009Y-64869046D01*
X94781009Y-64869046D02*
X94876247Y-64916665D01*
X95209580Y-63916665D02*
X95257200Y-63869046D01*
X95257200Y-63869046D02*
X95304819Y-63916665D01*
X95304819Y-63916665D02*
X95257200Y-63964284D01*
X95257200Y-63964284D02*
X95209580Y-63916665D01*
X95209580Y-63916665D02*
X95304819Y-63916665D01*
X94304819Y-63249999D02*
X94304819Y-63154761D01*
X94304819Y-63154761D02*
X94352438Y-63059523D01*
X94352438Y-63059523D02*
X94400057Y-63011904D01*
X94400057Y-63011904D02*
X94495295Y-62964285D01*
X94495295Y-62964285D02*
X94685771Y-62916666D01*
X94685771Y-62916666D02*
X94923866Y-62916666D01*
X94923866Y-62916666D02*
X95114342Y-62964285D01*
X95114342Y-62964285D02*
X95209580Y-63011904D01*
X95209580Y-63011904D02*
X95257200Y-63059523D01*
X95257200Y-63059523D02*
X95304819Y-63154761D01*
X95304819Y-63154761D02*
X95304819Y-63249999D01*
X95304819Y-63249999D02*
X95257200Y-63345237D01*
X95257200Y-63345237D02*
X95209580Y-63392856D01*
X95209580Y-63392856D02*
X95114342Y-63440475D01*
X95114342Y-63440475D02*
X94923866Y-63488094D01*
X94923866Y-63488094D02*
X94685771Y-63488094D01*
X94685771Y-63488094D02*
X94495295Y-63440475D01*
X94495295Y-63440475D02*
X94400057Y-63392856D01*
X94400057Y-63392856D02*
X94352438Y-63345237D01*
X94352438Y-63345237D02*
X94304819Y-63249999D01*
X94304819Y-62297618D02*
X94304819Y-62202380D01*
X94304819Y-62202380D02*
X94352438Y-62107142D01*
X94352438Y-62107142D02*
X94400057Y-62059523D01*
X94400057Y-62059523D02*
X94495295Y-62011904D01*
X94495295Y-62011904D02*
X94685771Y-61964285D01*
X94685771Y-61964285D02*
X94923866Y-61964285D01*
X94923866Y-61964285D02*
X95114342Y-62011904D01*
X95114342Y-62011904D02*
X95209580Y-62059523D01*
X95209580Y-62059523D02*
X95257200Y-62107142D01*
X95257200Y-62107142D02*
X95304819Y-62202380D01*
X95304819Y-62202380D02*
X95304819Y-62297618D01*
X95304819Y-62297618D02*
X95257200Y-62392856D01*
X95257200Y-62392856D02*
X95209580Y-62440475D01*
X95209580Y-62440475D02*
X95114342Y-62488094D01*
X95114342Y-62488094D02*
X94923866Y-62535713D01*
X94923866Y-62535713D02*
X94685771Y-62535713D01*
X94685771Y-62535713D02*
X94495295Y-62488094D01*
X94495295Y-62488094D02*
X94400057Y-62440475D01*
X94400057Y-62440475D02*
X94352438Y-62392856D01*
X94352438Y-62392856D02*
X94304819Y-62297618D01*
X94304819Y-61345237D02*
X94304819Y-61249999D01*
X94304819Y-61249999D02*
X94352438Y-61154761D01*
X94352438Y-61154761D02*
X94400057Y-61107142D01*
X94400057Y-61107142D02*
X94495295Y-61059523D01*
X94495295Y-61059523D02*
X94685771Y-61011904D01*
X94685771Y-61011904D02*
X94923866Y-61011904D01*
X94923866Y-61011904D02*
X95114342Y-61059523D01*
X95114342Y-61059523D02*
X95209580Y-61107142D01*
X95209580Y-61107142D02*
X95257200Y-61154761D01*
X95257200Y-61154761D02*
X95304819Y-61249999D01*
X95304819Y-61249999D02*
X95304819Y-61345237D01*
X95304819Y-61345237D02*
X95257200Y-61440475D01*
X95257200Y-61440475D02*
X95209580Y-61488094D01*
X95209580Y-61488094D02*
X95114342Y-61535713D01*
X95114342Y-61535713D02*
X94923866Y-61583332D01*
X94923866Y-61583332D02*
X94685771Y-61583332D01*
X94685771Y-61583332D02*
X94495295Y-61535713D01*
X94495295Y-61535713D02*
X94400057Y-61488094D01*
X94400057Y-61488094D02*
X94352438Y-61440475D01*
X94352438Y-61440475D02*
X94304819Y-61345237D01*
X94304819Y-60392856D02*
X94304819Y-60297618D01*
X94304819Y-60297618D02*
X94352438Y-60202380D01*
X94352438Y-60202380D02*
X94400057Y-60154761D01*
X94400057Y-60154761D02*
X94495295Y-60107142D01*
X94495295Y-60107142D02*
X94685771Y-60059523D01*
X94685771Y-60059523D02*
X94923866Y-60059523D01*
X94923866Y-60059523D02*
X95114342Y-60107142D01*
X95114342Y-60107142D02*
X95209580Y-60154761D01*
X95209580Y-60154761D02*
X95257200Y-60202380D01*
X95257200Y-60202380D02*
X95304819Y-60297618D01*
X95304819Y-60297618D02*
X95304819Y-60392856D01*
X95304819Y-60392856D02*
X95257200Y-60488094D01*
X95257200Y-60488094D02*
X95209580Y-60535713D01*
X95209580Y-60535713D02*
X95114342Y-60583332D01*
X95114342Y-60583332D02*
X94923866Y-60630951D01*
X94923866Y-60630951D02*
X94685771Y-60630951D01*
X94685771Y-60630951D02*
X94495295Y-60583332D01*
X94495295Y-60583332D02*
X94400057Y-60535713D01*
X94400057Y-60535713D02*
X94352438Y-60488094D01*
X94352438Y-60488094D02*
X94304819Y-60392856D01*
X95304819Y-58869046D02*
X94638152Y-58869046D01*
X94733390Y-58869046D02*
X94685771Y-58821427D01*
X94685771Y-58821427D02*
X94638152Y-58726189D01*
X94638152Y-58726189D02*
X94638152Y-58583332D01*
X94638152Y-58583332D02*
X94685771Y-58488094D01*
X94685771Y-58488094D02*
X94781009Y-58440475D01*
X94781009Y-58440475D02*
X95304819Y-58440475D01*
X94781009Y-58440475D02*
X94685771Y-58392856D01*
X94685771Y-58392856D02*
X94638152Y-58297618D01*
X94638152Y-58297618D02*
X94638152Y-58154761D01*
X94638152Y-58154761D02*
X94685771Y-58059522D01*
X94685771Y-58059522D02*
X94781009Y-58011903D01*
X94781009Y-58011903D02*
X95304819Y-58011903D01*
X95304819Y-57535713D02*
X94638152Y-57535713D01*
X94733390Y-57535713D02*
X94685771Y-57488094D01*
X94685771Y-57488094D02*
X94638152Y-57392856D01*
X94638152Y-57392856D02*
X94638152Y-57249999D01*
X94638152Y-57249999D02*
X94685771Y-57154761D01*
X94685771Y-57154761D02*
X94781009Y-57107142D01*
X94781009Y-57107142D02*
X95304819Y-57107142D01*
X94781009Y-57107142D02*
X94685771Y-57059523D01*
X94685771Y-57059523D02*
X94638152Y-56964285D01*
X94638152Y-56964285D02*
X94638152Y-56821428D01*
X94638152Y-56821428D02*
X94685771Y-56726189D01*
X94685771Y-56726189D02*
X94781009Y-56678570D01*
X94781009Y-56678570D02*
X95304819Y-56678570D01*
X100250000Y-99250000D02*
X95413580Y-99250000D01*
X95413580Y-23250000D02*
X100250000Y-23250000D01*
X96000000Y-99250000D02*
X96000000Y-23250000D01*
X96000000Y-99250000D02*
X95413579Y-98123496D01*
X96000000Y-99250000D02*
X96586421Y-98123496D01*
X96000000Y-23250000D02*
X96586421Y-24376504D01*
X96000000Y-23250000D02*
X95413579Y-24376504D01*
X166232143Y-103638152D02*
X166232143Y-104304819D01*
X165994048Y-103257200D02*
X165755953Y-103971485D01*
X165755953Y-103971485D02*
X166375000Y-103971485D01*
X167184524Y-103304819D02*
X166994048Y-103304819D01*
X166994048Y-103304819D02*
X166898810Y-103352438D01*
X166898810Y-103352438D02*
X166851191Y-103400057D01*
X166851191Y-103400057D02*
X166755953Y-103542914D01*
X166755953Y-103542914D02*
X166708334Y-103733390D01*
X166708334Y-103733390D02*
X166708334Y-104114342D01*
X166708334Y-104114342D02*
X166755953Y-104209580D01*
X166755953Y-104209580D02*
X166803572Y-104257200D01*
X166803572Y-104257200D02*
X166898810Y-104304819D01*
X166898810Y-104304819D02*
X167089286Y-104304819D01*
X167089286Y-104304819D02*
X167184524Y-104257200D01*
X167184524Y-104257200D02*
X167232143Y-104209580D01*
X167232143Y-104209580D02*
X167279762Y-104114342D01*
X167279762Y-104114342D02*
X167279762Y-103876247D01*
X167279762Y-103876247D02*
X167232143Y-103781009D01*
X167232143Y-103781009D02*
X167184524Y-103733390D01*
X167184524Y-103733390D02*
X167089286Y-103685771D01*
X167089286Y-103685771D02*
X166898810Y-103685771D01*
X166898810Y-103685771D02*
X166803572Y-103733390D01*
X166803572Y-103733390D02*
X166755953Y-103781009D01*
X166755953Y-103781009D02*
X166708334Y-103876247D01*
X167708334Y-104209580D02*
X167755953Y-104257200D01*
X167755953Y-104257200D02*
X167708334Y-104304819D01*
X167708334Y-104304819D02*
X167660715Y-104257200D01*
X167660715Y-104257200D02*
X167708334Y-104209580D01*
X167708334Y-104209580D02*
X167708334Y-104304819D01*
X168136905Y-103400057D02*
X168184524Y-103352438D01*
X168184524Y-103352438D02*
X168279762Y-103304819D01*
X168279762Y-103304819D02*
X168517857Y-103304819D01*
X168517857Y-103304819D02*
X168613095Y-103352438D01*
X168613095Y-103352438D02*
X168660714Y-103400057D01*
X168660714Y-103400057D02*
X168708333Y-103495295D01*
X168708333Y-103495295D02*
X168708333Y-103590533D01*
X168708333Y-103590533D02*
X168660714Y-103733390D01*
X168660714Y-103733390D02*
X168089286Y-104304819D01*
X168089286Y-104304819D02*
X168708333Y-104304819D01*
X169613095Y-103304819D02*
X169136905Y-103304819D01*
X169136905Y-103304819D02*
X169089286Y-103781009D01*
X169089286Y-103781009D02*
X169136905Y-103733390D01*
X169136905Y-103733390D02*
X169232143Y-103685771D01*
X169232143Y-103685771D02*
X169470238Y-103685771D01*
X169470238Y-103685771D02*
X169565476Y-103733390D01*
X169565476Y-103733390D02*
X169613095Y-103781009D01*
X169613095Y-103781009D02*
X169660714Y-103876247D01*
X169660714Y-103876247D02*
X169660714Y-104114342D01*
X169660714Y-104114342D02*
X169613095Y-104209580D01*
X169613095Y-104209580D02*
X169565476Y-104257200D01*
X169565476Y-104257200D02*
X169470238Y-104304819D01*
X169470238Y-104304819D02*
X169232143Y-104304819D01*
X169232143Y-104304819D02*
X169136905Y-104257200D01*
X169136905Y-104257200D02*
X169089286Y-104209580D01*
X170279762Y-103304819D02*
X170375000Y-103304819D01*
X170375000Y-103304819D02*
X170470238Y-103352438D01*
X170470238Y-103352438D02*
X170517857Y-103400057D01*
X170517857Y-103400057D02*
X170565476Y-103495295D01*
X170565476Y-103495295D02*
X170613095Y-103685771D01*
X170613095Y-103685771D02*
X170613095Y-103923866D01*
X170613095Y-103923866D02*
X170565476Y-104114342D01*
X170565476Y-104114342D02*
X170517857Y-104209580D01*
X170517857Y-104209580D02*
X170470238Y-104257200D01*
X170470238Y-104257200D02*
X170375000Y-104304819D01*
X170375000Y-104304819D02*
X170279762Y-104304819D01*
X170279762Y-104304819D02*
X170184524Y-104257200D01*
X170184524Y-104257200D02*
X170136905Y-104209580D01*
X170136905Y-104209580D02*
X170089286Y-104114342D01*
X170089286Y-104114342D02*
X170041667Y-103923866D01*
X170041667Y-103923866D02*
X170041667Y-103685771D01*
X170041667Y-103685771D02*
X170089286Y-103495295D01*
X170089286Y-103495295D02*
X170136905Y-103400057D01*
X170136905Y-103400057D02*
X170184524Y-103352438D01*
X170184524Y-103352438D02*
X170279762Y-103304819D01*
X171232143Y-103304819D02*
X171327381Y-103304819D01*
X171327381Y-103304819D02*
X171422619Y-103352438D01*
X171422619Y-103352438D02*
X171470238Y-103400057D01*
X171470238Y-103400057D02*
X171517857Y-103495295D01*
X171517857Y-103495295D02*
X171565476Y-103685771D01*
X171565476Y-103685771D02*
X171565476Y-103923866D01*
X171565476Y-103923866D02*
X171517857Y-104114342D01*
X171517857Y-104114342D02*
X171470238Y-104209580D01*
X171470238Y-104209580D02*
X171422619Y-104257200D01*
X171422619Y-104257200D02*
X171327381Y-104304819D01*
X171327381Y-104304819D02*
X171232143Y-104304819D01*
X171232143Y-104304819D02*
X171136905Y-104257200D01*
X171136905Y-104257200D02*
X171089286Y-104209580D01*
X171089286Y-104209580D02*
X171041667Y-104114342D01*
X171041667Y-104114342D02*
X170994048Y-103923866D01*
X170994048Y-103923866D02*
X170994048Y-103685771D01*
X170994048Y-103685771D02*
X171041667Y-103495295D01*
X171041667Y-103495295D02*
X171089286Y-103400057D01*
X171089286Y-103400057D02*
X171136905Y-103352438D01*
X171136905Y-103352438D02*
X171232143Y-103304819D01*
X172755953Y-104304819D02*
X172755953Y-103638152D01*
X172755953Y-103733390D02*
X172803572Y-103685771D01*
X172803572Y-103685771D02*
X172898810Y-103638152D01*
X172898810Y-103638152D02*
X173041667Y-103638152D01*
X173041667Y-103638152D02*
X173136905Y-103685771D01*
X173136905Y-103685771D02*
X173184524Y-103781009D01*
X173184524Y-103781009D02*
X173184524Y-104304819D01*
X173184524Y-103781009D02*
X173232143Y-103685771D01*
X173232143Y-103685771D02*
X173327381Y-103638152D01*
X173327381Y-103638152D02*
X173470238Y-103638152D01*
X173470238Y-103638152D02*
X173565477Y-103685771D01*
X173565477Y-103685771D02*
X173613096Y-103781009D01*
X173613096Y-103781009D02*
X173613096Y-104304819D01*
X174089286Y-104304819D02*
X174089286Y-103638152D01*
X174089286Y-103733390D02*
X174136905Y-103685771D01*
X174136905Y-103685771D02*
X174232143Y-103638152D01*
X174232143Y-103638152D02*
X174375000Y-103638152D01*
X174375000Y-103638152D02*
X174470238Y-103685771D01*
X174470238Y-103685771D02*
X174517857Y-103781009D01*
X174517857Y-103781009D02*
X174517857Y-104304819D01*
X174517857Y-103781009D02*
X174565476Y-103685771D01*
X174565476Y-103685771D02*
X174660714Y-103638152D01*
X174660714Y-103638152D02*
X174803571Y-103638152D01*
X174803571Y-103638152D02*
X174898810Y-103685771D01*
X174898810Y-103685771D02*
X174946429Y-103781009D01*
X174946429Y-103781009D02*
X174946429Y-104304819D01*
X147250000Y-84500000D02*
X147250000Y-105586420D01*
X193500000Y-105586420D02*
X193500000Y-84500000D01*
X147250000Y-105000000D02*
X193500000Y-105000000D01*
X147250000Y-105000000D02*
X148376504Y-104413579D01*
X147250000Y-105000000D02*
X148376504Y-105586421D01*
X193500000Y-105000000D02*
X192373496Y-105586421D01*
X193500000Y-105000000D02*
X192373496Y-104413579D01*
X139196429Y-100733390D02*
X139101191Y-100685771D01*
X139101191Y-100685771D02*
X139053572Y-100638152D01*
X139053572Y-100638152D02*
X139005953Y-100542914D01*
X139005953Y-100542914D02*
X139005953Y-100495295D01*
X139005953Y-100495295D02*
X139053572Y-100400057D01*
X139053572Y-100400057D02*
X139101191Y-100352438D01*
X139101191Y-100352438D02*
X139196429Y-100304819D01*
X139196429Y-100304819D02*
X139386905Y-100304819D01*
X139386905Y-100304819D02*
X139482143Y-100352438D01*
X139482143Y-100352438D02*
X139529762Y-100400057D01*
X139529762Y-100400057D02*
X139577381Y-100495295D01*
X139577381Y-100495295D02*
X139577381Y-100542914D01*
X139577381Y-100542914D02*
X139529762Y-100638152D01*
X139529762Y-100638152D02*
X139482143Y-100685771D01*
X139482143Y-100685771D02*
X139386905Y-100733390D01*
X139386905Y-100733390D02*
X139196429Y-100733390D01*
X139196429Y-100733390D02*
X139101191Y-100781009D01*
X139101191Y-100781009D02*
X139053572Y-100828628D01*
X139053572Y-100828628D02*
X139005953Y-100923866D01*
X139005953Y-100923866D02*
X139005953Y-101114342D01*
X139005953Y-101114342D02*
X139053572Y-101209580D01*
X139053572Y-101209580D02*
X139101191Y-101257200D01*
X139101191Y-101257200D02*
X139196429Y-101304819D01*
X139196429Y-101304819D02*
X139386905Y-101304819D01*
X139386905Y-101304819D02*
X139482143Y-101257200D01*
X139482143Y-101257200D02*
X139529762Y-101209580D01*
X139529762Y-101209580D02*
X139577381Y-101114342D01*
X139577381Y-101114342D02*
X139577381Y-100923866D01*
X139577381Y-100923866D02*
X139529762Y-100828628D01*
X139529762Y-100828628D02*
X139482143Y-100781009D01*
X139482143Y-100781009D02*
X139386905Y-100733390D01*
X140482143Y-100304819D02*
X140005953Y-100304819D01*
X140005953Y-100304819D02*
X139958334Y-100781009D01*
X139958334Y-100781009D02*
X140005953Y-100733390D01*
X140005953Y-100733390D02*
X140101191Y-100685771D01*
X140101191Y-100685771D02*
X140339286Y-100685771D01*
X140339286Y-100685771D02*
X140434524Y-100733390D01*
X140434524Y-100733390D02*
X140482143Y-100781009D01*
X140482143Y-100781009D02*
X140529762Y-100876247D01*
X140529762Y-100876247D02*
X140529762Y-101114342D01*
X140529762Y-101114342D02*
X140482143Y-101209580D01*
X140482143Y-101209580D02*
X140434524Y-101257200D01*
X140434524Y-101257200D02*
X140339286Y-101304819D01*
X140339286Y-101304819D02*
X140101191Y-101304819D01*
X140101191Y-101304819D02*
X140005953Y-101257200D01*
X140005953Y-101257200D02*
X139958334Y-101209580D01*
X140958334Y-101209580D02*
X141005953Y-101257200D01*
X141005953Y-101257200D02*
X140958334Y-101304819D01*
X140958334Y-101304819D02*
X140910715Y-101257200D01*
X140910715Y-101257200D02*
X140958334Y-101209580D01*
X140958334Y-101209580D02*
X140958334Y-101304819D01*
X141339286Y-100304819D02*
X142005952Y-100304819D01*
X142005952Y-100304819D02*
X141577381Y-101304819D01*
X142863095Y-100304819D02*
X142386905Y-100304819D01*
X142386905Y-100304819D02*
X142339286Y-100781009D01*
X142339286Y-100781009D02*
X142386905Y-100733390D01*
X142386905Y-100733390D02*
X142482143Y-100685771D01*
X142482143Y-100685771D02*
X142720238Y-100685771D01*
X142720238Y-100685771D02*
X142815476Y-100733390D01*
X142815476Y-100733390D02*
X142863095Y-100781009D01*
X142863095Y-100781009D02*
X142910714Y-100876247D01*
X142910714Y-100876247D02*
X142910714Y-101114342D01*
X142910714Y-101114342D02*
X142863095Y-101209580D01*
X142863095Y-101209580D02*
X142815476Y-101257200D01*
X142815476Y-101257200D02*
X142720238Y-101304819D01*
X142720238Y-101304819D02*
X142482143Y-101304819D01*
X142482143Y-101304819D02*
X142386905Y-101257200D01*
X142386905Y-101257200D02*
X142339286Y-101209580D01*
X143529762Y-100304819D02*
X143625000Y-100304819D01*
X143625000Y-100304819D02*
X143720238Y-100352438D01*
X143720238Y-100352438D02*
X143767857Y-100400057D01*
X143767857Y-100400057D02*
X143815476Y-100495295D01*
X143815476Y-100495295D02*
X143863095Y-100685771D01*
X143863095Y-100685771D02*
X143863095Y-100923866D01*
X143863095Y-100923866D02*
X143815476Y-101114342D01*
X143815476Y-101114342D02*
X143767857Y-101209580D01*
X143767857Y-101209580D02*
X143720238Y-101257200D01*
X143720238Y-101257200D02*
X143625000Y-101304819D01*
X143625000Y-101304819D02*
X143529762Y-101304819D01*
X143529762Y-101304819D02*
X143434524Y-101257200D01*
X143434524Y-101257200D02*
X143386905Y-101209580D01*
X143386905Y-101209580D02*
X143339286Y-101114342D01*
X143339286Y-101114342D02*
X143291667Y-100923866D01*
X143291667Y-100923866D02*
X143291667Y-100685771D01*
X143291667Y-100685771D02*
X143339286Y-100495295D01*
X143339286Y-100495295D02*
X143386905Y-100400057D01*
X143386905Y-100400057D02*
X143434524Y-100352438D01*
X143434524Y-100352438D02*
X143529762Y-100304819D01*
X144482143Y-100304819D02*
X144577381Y-100304819D01*
X144577381Y-100304819D02*
X144672619Y-100352438D01*
X144672619Y-100352438D02*
X144720238Y-100400057D01*
X144720238Y-100400057D02*
X144767857Y-100495295D01*
X144767857Y-100495295D02*
X144815476Y-100685771D01*
X144815476Y-100685771D02*
X144815476Y-100923866D01*
X144815476Y-100923866D02*
X144767857Y-101114342D01*
X144767857Y-101114342D02*
X144720238Y-101209580D01*
X144720238Y-101209580D02*
X144672619Y-101257200D01*
X144672619Y-101257200D02*
X144577381Y-101304819D01*
X144577381Y-101304819D02*
X144482143Y-101304819D01*
X144482143Y-101304819D02*
X144386905Y-101257200D01*
X144386905Y-101257200D02*
X144339286Y-101209580D01*
X144339286Y-101209580D02*
X144291667Y-101114342D01*
X144291667Y-101114342D02*
X144244048Y-100923866D01*
X144244048Y-100923866D02*
X144244048Y-100685771D01*
X144244048Y-100685771D02*
X144291667Y-100495295D01*
X144291667Y-100495295D02*
X144339286Y-100400057D01*
X144339286Y-100400057D02*
X144386905Y-100352438D01*
X144386905Y-100352438D02*
X144482143Y-100304819D01*
X146005953Y-101304819D02*
X146005953Y-100638152D01*
X146005953Y-100733390D02*
X146053572Y-100685771D01*
X146053572Y-100685771D02*
X146148810Y-100638152D01*
X146148810Y-100638152D02*
X146291667Y-100638152D01*
X146291667Y-100638152D02*
X146386905Y-100685771D01*
X146386905Y-100685771D02*
X146434524Y-100781009D01*
X146434524Y-100781009D02*
X146434524Y-101304819D01*
X146434524Y-100781009D02*
X146482143Y-100685771D01*
X146482143Y-100685771D02*
X146577381Y-100638152D01*
X146577381Y-100638152D02*
X146720238Y-100638152D01*
X146720238Y-100638152D02*
X146815477Y-100685771D01*
X146815477Y-100685771D02*
X146863096Y-100781009D01*
X146863096Y-100781009D02*
X146863096Y-101304819D01*
X147339286Y-101304819D02*
X147339286Y-100638152D01*
X147339286Y-100733390D02*
X147386905Y-100685771D01*
X147386905Y-100685771D02*
X147482143Y-100638152D01*
X147482143Y-100638152D02*
X147625000Y-100638152D01*
X147625000Y-100638152D02*
X147720238Y-100685771D01*
X147720238Y-100685771D02*
X147767857Y-100781009D01*
X147767857Y-100781009D02*
X147767857Y-101304819D01*
X147767857Y-100781009D02*
X147815476Y-100685771D01*
X147815476Y-100685771D02*
X147910714Y-100638152D01*
X147910714Y-100638152D02*
X148053571Y-100638152D01*
X148053571Y-100638152D02*
X148148810Y-100685771D01*
X148148810Y-100685771D02*
X148196429Y-100781009D01*
X148196429Y-100781009D02*
X148196429Y-101304819D01*
X100750000Y-99750000D02*
X100750000Y-102586420D01*
X186500000Y-102586420D02*
X186500000Y-99900000D01*
X100750000Y-102000000D02*
X186500000Y-102000000D01*
X100750000Y-102000000D02*
X101876504Y-101413579D01*
X100750000Y-102000000D02*
X101876504Y-102586421D01*
X186500000Y-102000000D02*
X185373496Y-102586421D01*
X186500000Y-102000000D02*
X185373496Y-101413579D01*
M02*
