%TF.GenerationSoftware,KiCad,Pcbnew,9.0.8*%
%TF.CreationDate,2026-05-04T13:59:55-06:00*%
%TF.ProjectId,jack2bluetooth,6a61636b-3262-46c7-9565-746f6f74682e,v3.1*%
%TF.SameCoordinates,Original*%
%TF.FileFunction,Legend,Bot*%
%TF.FilePolarity,Positive*%
%FSLAX46Y46*%
G04 Gerber Fmt 4.6, Leading zero omitted, Abs format (unit mm)*
G04 Created by KiCad (PCBNEW 9.0.8) date 2026-05-04 13:59:55*
%MOMM*%
%LPD*%
G01*
G04 APERTURE LIST*
%ADD10C,0.153000*%
%ADD11C,0.120000*%
%ADD12C,0.100000*%
G04 APERTURE END LIST*
D10*
X124654146Y-31827914D02*
X124606527Y-31685057D01*
X124606527Y-31685057D02*
X124558908Y-31637438D01*
X124558908Y-31637438D02*
X124463670Y-31589819D01*
X124463670Y-31589819D02*
X124320813Y-31589819D01*
X124320813Y-31589819D02*
X124225575Y-31637438D01*
X124225575Y-31637438D02*
X124177956Y-31685057D01*
X124177956Y-31685057D02*
X124130336Y-31780295D01*
X124130336Y-31780295D02*
X124130336Y-32161247D01*
X124130336Y-32161247D02*
X125130336Y-32161247D01*
X125130336Y-32161247D02*
X125130336Y-31827914D01*
X125130336Y-31827914D02*
X125082717Y-31732676D01*
X125082717Y-31732676D02*
X125035098Y-31685057D01*
X125035098Y-31685057D02*
X124939860Y-31637438D01*
X124939860Y-31637438D02*
X124844622Y-31637438D01*
X124844622Y-31637438D02*
X124749384Y-31685057D01*
X124749384Y-31685057D02*
X124701765Y-31732676D01*
X124701765Y-31732676D02*
X124654146Y-31827914D01*
X124654146Y-31827914D02*
X124654146Y-32161247D01*
X124416051Y-31208866D02*
X124416051Y-30732676D01*
X124130336Y-31304104D02*
X125130336Y-30970771D01*
X125130336Y-30970771D02*
X124130336Y-30637438D01*
X125130336Y-30446961D02*
X125130336Y-29875533D01*
X124130336Y-30161247D02*
X125130336Y-30161247D01*
X125130336Y-29685056D02*
X125130336Y-29113628D01*
X124130336Y-29399342D02*
X125130336Y-29399342D01*
X124177956Y-28827913D02*
X124130336Y-28685056D01*
X124130336Y-28685056D02*
X124130336Y-28446961D01*
X124130336Y-28446961D02*
X124177956Y-28351723D01*
X124177956Y-28351723D02*
X124225575Y-28304104D01*
X124225575Y-28304104D02*
X124320813Y-28256485D01*
X124320813Y-28256485D02*
X124416051Y-28256485D01*
X124416051Y-28256485D02*
X124511289Y-28304104D01*
X124511289Y-28304104D02*
X124558908Y-28351723D01*
X124558908Y-28351723D02*
X124606527Y-28446961D01*
X124606527Y-28446961D02*
X124654146Y-28637437D01*
X124654146Y-28637437D02*
X124701765Y-28732675D01*
X124701765Y-28732675D02*
X124749384Y-28780294D01*
X124749384Y-28780294D02*
X124844622Y-28827913D01*
X124844622Y-28827913D02*
X124939860Y-28827913D01*
X124939860Y-28827913D02*
X125035098Y-28780294D01*
X125035098Y-28780294D02*
X125082717Y-28732675D01*
X125082717Y-28732675D02*
X125130336Y-28637437D01*
X125130336Y-28637437D02*
X125130336Y-28399342D01*
X125130336Y-28399342D02*
X125082717Y-28256485D01*
X136380336Y-31411247D02*
X137380336Y-31411247D01*
X137380336Y-31411247D02*
X137380336Y-31030295D01*
X137380336Y-31030295D02*
X137332717Y-30935057D01*
X137332717Y-30935057D02*
X137285098Y-30887438D01*
X137285098Y-30887438D02*
X137189860Y-30839819D01*
X137189860Y-30839819D02*
X137047003Y-30839819D01*
X137047003Y-30839819D02*
X136951765Y-30887438D01*
X136951765Y-30887438D02*
X136904146Y-30935057D01*
X136904146Y-30935057D02*
X136856527Y-31030295D01*
X136856527Y-31030295D02*
X136856527Y-31411247D01*
X136427956Y-30458866D02*
X136380336Y-30316009D01*
X136380336Y-30316009D02*
X136380336Y-30077914D01*
X136380336Y-30077914D02*
X136427956Y-29982676D01*
X136427956Y-29982676D02*
X136475575Y-29935057D01*
X136475575Y-29935057D02*
X136570813Y-29887438D01*
X136570813Y-29887438D02*
X136666051Y-29887438D01*
X136666051Y-29887438D02*
X136761289Y-29935057D01*
X136761289Y-29935057D02*
X136808908Y-29982676D01*
X136808908Y-29982676D02*
X136856527Y-30077914D01*
X136856527Y-30077914D02*
X136904146Y-30268390D01*
X136904146Y-30268390D02*
X136951765Y-30363628D01*
X136951765Y-30363628D02*
X136999384Y-30411247D01*
X136999384Y-30411247D02*
X137094622Y-30458866D01*
X137094622Y-30458866D02*
X137189860Y-30458866D01*
X137189860Y-30458866D02*
X137285098Y-30411247D01*
X137285098Y-30411247D02*
X137332717Y-30363628D01*
X137332717Y-30363628D02*
X137380336Y-30268390D01*
X137380336Y-30268390D02*
X137380336Y-30030295D01*
X137380336Y-30030295D02*
X137332717Y-29887438D01*
X136904146Y-29458866D02*
X136904146Y-29125533D01*
X136380336Y-28982676D02*
X136380336Y-29458866D01*
X136380336Y-29458866D02*
X137380336Y-29458866D01*
X137380336Y-29458866D02*
X137380336Y-28982676D01*
X136380336Y-28077914D02*
X136380336Y-28554104D01*
X136380336Y-28554104D02*
X137380336Y-28554104D01*
X162582717Y-35637438D02*
X162630336Y-35732676D01*
X162630336Y-35732676D02*
X162630336Y-35875533D01*
X162630336Y-35875533D02*
X162582717Y-36018390D01*
X162582717Y-36018390D02*
X162487479Y-36113628D01*
X162487479Y-36113628D02*
X162392241Y-36161247D01*
X162392241Y-36161247D02*
X162201765Y-36208866D01*
X162201765Y-36208866D02*
X162058908Y-36208866D01*
X162058908Y-36208866D02*
X161868432Y-36161247D01*
X161868432Y-36161247D02*
X161773194Y-36113628D01*
X161773194Y-36113628D02*
X161677956Y-36018390D01*
X161677956Y-36018390D02*
X161630336Y-35875533D01*
X161630336Y-35875533D02*
X161630336Y-35780295D01*
X161630336Y-35780295D02*
X161677956Y-35637438D01*
X161677956Y-35637438D02*
X161725575Y-35589819D01*
X161725575Y-35589819D02*
X162058908Y-35589819D01*
X162058908Y-35589819D02*
X162058908Y-35780295D01*
X161630336Y-35161247D02*
X162630336Y-35161247D01*
X162630336Y-35161247D02*
X161630336Y-34589819D01*
X161630336Y-34589819D02*
X162630336Y-34589819D01*
X161630336Y-34113628D02*
X162630336Y-34113628D01*
X162630336Y-34113628D02*
X162630336Y-33875533D01*
X162630336Y-33875533D02*
X162582717Y-33732676D01*
X162582717Y-33732676D02*
X162487479Y-33637438D01*
X162487479Y-33637438D02*
X162392241Y-33589819D01*
X162392241Y-33589819D02*
X162201765Y-33542200D01*
X162201765Y-33542200D02*
X162058908Y-33542200D01*
X162058908Y-33542200D02*
X161868432Y-33589819D01*
X161868432Y-33589819D02*
X161773194Y-33637438D01*
X161773194Y-33637438D02*
X161677956Y-33732676D01*
X161677956Y-33732676D02*
X161630336Y-33875533D01*
X161630336Y-33875533D02*
X161630336Y-34113628D01*
X139832717Y-30887438D02*
X139880336Y-30982676D01*
X139880336Y-30982676D02*
X139880336Y-31125533D01*
X139880336Y-31125533D02*
X139832717Y-31268390D01*
X139832717Y-31268390D02*
X139737479Y-31363628D01*
X139737479Y-31363628D02*
X139642241Y-31411247D01*
X139642241Y-31411247D02*
X139451765Y-31458866D01*
X139451765Y-31458866D02*
X139308908Y-31458866D01*
X139308908Y-31458866D02*
X139118432Y-31411247D01*
X139118432Y-31411247D02*
X139023194Y-31363628D01*
X139023194Y-31363628D02*
X138927956Y-31268390D01*
X138927956Y-31268390D02*
X138880336Y-31125533D01*
X138880336Y-31125533D02*
X138880336Y-31030295D01*
X138880336Y-31030295D02*
X138927956Y-30887438D01*
X138927956Y-30887438D02*
X138975575Y-30839819D01*
X138975575Y-30839819D02*
X139308908Y-30839819D01*
X139308908Y-30839819D02*
X139308908Y-31030295D01*
X138880336Y-30411247D02*
X139880336Y-30411247D01*
X139880336Y-30411247D02*
X138880336Y-29839819D01*
X138880336Y-29839819D02*
X139880336Y-29839819D01*
X138880336Y-29363628D02*
X139880336Y-29363628D01*
X139880336Y-29363628D02*
X139880336Y-29125533D01*
X139880336Y-29125533D02*
X139832717Y-28982676D01*
X139832717Y-28982676D02*
X139737479Y-28887438D01*
X139737479Y-28887438D02*
X139642241Y-28839819D01*
X139642241Y-28839819D02*
X139451765Y-28792200D01*
X139451765Y-28792200D02*
X139308908Y-28792200D01*
X139308908Y-28792200D02*
X139118432Y-28839819D01*
X139118432Y-28839819D02*
X139023194Y-28887438D01*
X139023194Y-28887438D02*
X138927956Y-28982676D01*
X138927956Y-28982676D02*
X138880336Y-29125533D01*
X138880336Y-29125533D02*
X138880336Y-29363628D01*
X164797003Y-37161247D02*
X164130336Y-37161247D01*
X164701765Y-37161247D02*
X164749384Y-37113628D01*
X164749384Y-37113628D02*
X164797003Y-37018390D01*
X164797003Y-37018390D02*
X164797003Y-36875533D01*
X164797003Y-36875533D02*
X164749384Y-36780295D01*
X164749384Y-36780295D02*
X164654146Y-36732676D01*
X164654146Y-36732676D02*
X164130336Y-36732676D01*
X164035098Y-35589819D02*
X164082717Y-35685057D01*
X164082717Y-35685057D02*
X164177956Y-35780295D01*
X164177956Y-35780295D02*
X164320813Y-35923152D01*
X164320813Y-35923152D02*
X164368432Y-36018390D01*
X164368432Y-36018390D02*
X164368432Y-36113628D01*
X164130336Y-36066009D02*
X164177956Y-36161247D01*
X164177956Y-36161247D02*
X164273194Y-36256485D01*
X164273194Y-36256485D02*
X164463670Y-36304104D01*
X164463670Y-36304104D02*
X164797003Y-36304104D01*
X164797003Y-36304104D02*
X164987479Y-36256485D01*
X164987479Y-36256485D02*
X165082717Y-36161247D01*
X165082717Y-36161247D02*
X165130336Y-36066009D01*
X165130336Y-36066009D02*
X165130336Y-35875533D01*
X165130336Y-35875533D02*
X165082717Y-35780295D01*
X165082717Y-35780295D02*
X164987479Y-35685057D01*
X164987479Y-35685057D02*
X164797003Y-35637438D01*
X164797003Y-35637438D02*
X164463670Y-35637438D01*
X164463670Y-35637438D02*
X164273194Y-35685057D01*
X164273194Y-35685057D02*
X164177956Y-35780295D01*
X164177956Y-35780295D02*
X164130336Y-35875533D01*
X164130336Y-35875533D02*
X164130336Y-36066009D01*
X165130336Y-35018390D02*
X165130336Y-34827914D01*
X165130336Y-34827914D02*
X165082717Y-34732676D01*
X165082717Y-34732676D02*
X164987479Y-34637438D01*
X164987479Y-34637438D02*
X164797003Y-34589819D01*
X164797003Y-34589819D02*
X164463670Y-34589819D01*
X164463670Y-34589819D02*
X164273194Y-34637438D01*
X164273194Y-34637438D02*
X164177956Y-34732676D01*
X164177956Y-34732676D02*
X164130336Y-34827914D01*
X164130336Y-34827914D02*
X164130336Y-35018390D01*
X164130336Y-35018390D02*
X164177956Y-35113628D01*
X164177956Y-35113628D02*
X164273194Y-35208866D01*
X164273194Y-35208866D02*
X164463670Y-35256485D01*
X164463670Y-35256485D02*
X164797003Y-35256485D01*
X164797003Y-35256485D02*
X164987479Y-35208866D01*
X164987479Y-35208866D02*
X165082717Y-35113628D01*
X165082717Y-35113628D02*
X165130336Y-35018390D01*
X164130336Y-34161247D02*
X165130336Y-34161247D01*
X165130336Y-34161247D02*
X164130336Y-33589819D01*
X164130336Y-33589819D02*
X165130336Y-33589819D01*
X129904146Y-31077914D02*
X129856527Y-30935057D01*
X129856527Y-30935057D02*
X129808908Y-30887438D01*
X129808908Y-30887438D02*
X129713670Y-30839819D01*
X129713670Y-30839819D02*
X129570813Y-30839819D01*
X129570813Y-30839819D02*
X129475575Y-30887438D01*
X129475575Y-30887438D02*
X129427956Y-30935057D01*
X129427956Y-30935057D02*
X129380336Y-31030295D01*
X129380336Y-31030295D02*
X129380336Y-31411247D01*
X129380336Y-31411247D02*
X130380336Y-31411247D01*
X130380336Y-31411247D02*
X130380336Y-31077914D01*
X130380336Y-31077914D02*
X130332717Y-30982676D01*
X130332717Y-30982676D02*
X130285098Y-30935057D01*
X130285098Y-30935057D02*
X130189860Y-30887438D01*
X130189860Y-30887438D02*
X130094622Y-30887438D01*
X130094622Y-30887438D02*
X129999384Y-30935057D01*
X129999384Y-30935057D02*
X129951765Y-30982676D01*
X129951765Y-30982676D02*
X129904146Y-31077914D01*
X129904146Y-31077914D02*
X129904146Y-31411247D01*
X129666051Y-30458866D02*
X129666051Y-29982676D01*
X129380336Y-30554104D02*
X130380336Y-30220771D01*
X130380336Y-30220771D02*
X129380336Y-29887438D01*
X130380336Y-29696961D02*
X130380336Y-29125533D01*
X129380336Y-29411247D02*
X130380336Y-29411247D01*
X129761289Y-28792199D02*
X129761289Y-28030295D01*
X129380336Y-28411247D02*
X130142241Y-28411247D01*
X133880336Y-31411247D02*
X134880336Y-31411247D01*
X134880336Y-31411247D02*
X134880336Y-31030295D01*
X134880336Y-31030295D02*
X134832717Y-30935057D01*
X134832717Y-30935057D02*
X134785098Y-30887438D01*
X134785098Y-30887438D02*
X134689860Y-30839819D01*
X134689860Y-30839819D02*
X134547003Y-30839819D01*
X134547003Y-30839819D02*
X134451765Y-30887438D01*
X134451765Y-30887438D02*
X134404146Y-30935057D01*
X134404146Y-30935057D02*
X134356527Y-31030295D01*
X134356527Y-31030295D02*
X134356527Y-31411247D01*
X134880336Y-30220771D02*
X134880336Y-30030295D01*
X134880336Y-30030295D02*
X134832717Y-29935057D01*
X134832717Y-29935057D02*
X134737479Y-29839819D01*
X134737479Y-29839819D02*
X134547003Y-29792200D01*
X134547003Y-29792200D02*
X134213670Y-29792200D01*
X134213670Y-29792200D02*
X134023194Y-29839819D01*
X134023194Y-29839819D02*
X133927956Y-29935057D01*
X133927956Y-29935057D02*
X133880336Y-30030295D01*
X133880336Y-30030295D02*
X133880336Y-30220771D01*
X133880336Y-30220771D02*
X133927956Y-30316009D01*
X133927956Y-30316009D02*
X134023194Y-30411247D01*
X134023194Y-30411247D02*
X134213670Y-30458866D01*
X134213670Y-30458866D02*
X134547003Y-30458866D01*
X134547003Y-30458866D02*
X134737479Y-30411247D01*
X134737479Y-30411247D02*
X134832717Y-30316009D01*
X134832717Y-30316009D02*
X134880336Y-30220771D01*
X133927956Y-29411247D02*
X133880336Y-29268390D01*
X133880336Y-29268390D02*
X133880336Y-29030295D01*
X133880336Y-29030295D02*
X133927956Y-28935057D01*
X133927956Y-28935057D02*
X133975575Y-28887438D01*
X133975575Y-28887438D02*
X134070813Y-28839819D01*
X134070813Y-28839819D02*
X134166051Y-28839819D01*
X134166051Y-28839819D02*
X134261289Y-28887438D01*
X134261289Y-28887438D02*
X134308908Y-28935057D01*
X134308908Y-28935057D02*
X134356527Y-29030295D01*
X134356527Y-29030295D02*
X134404146Y-29220771D01*
X134404146Y-29220771D02*
X134451765Y-29316009D01*
X134451765Y-29316009D02*
X134499384Y-29363628D01*
X134499384Y-29363628D02*
X134594622Y-29411247D01*
X134594622Y-29411247D02*
X134689860Y-29411247D01*
X134689860Y-29411247D02*
X134785098Y-29363628D01*
X134785098Y-29363628D02*
X134832717Y-29316009D01*
X134832717Y-29316009D02*
X134880336Y-29220771D01*
X134880336Y-29220771D02*
X134880336Y-28982676D01*
X134880336Y-28982676D02*
X134832717Y-28839819D01*
X133880336Y-27887438D02*
X133880336Y-28458866D01*
X133880336Y-28173152D02*
X134880336Y-28173152D01*
X134880336Y-28173152D02*
X134737479Y-28268390D01*
X134737479Y-28268390D02*
X134642241Y-28363628D01*
X134642241Y-28363628D02*
X134594622Y-28458866D01*
X127832717Y-30887438D02*
X127880336Y-30982676D01*
X127880336Y-30982676D02*
X127880336Y-31125533D01*
X127880336Y-31125533D02*
X127832717Y-31268390D01*
X127832717Y-31268390D02*
X127737479Y-31363628D01*
X127737479Y-31363628D02*
X127642241Y-31411247D01*
X127642241Y-31411247D02*
X127451765Y-31458866D01*
X127451765Y-31458866D02*
X127308908Y-31458866D01*
X127308908Y-31458866D02*
X127118432Y-31411247D01*
X127118432Y-31411247D02*
X127023194Y-31363628D01*
X127023194Y-31363628D02*
X126927956Y-31268390D01*
X126927956Y-31268390D02*
X126880336Y-31125533D01*
X126880336Y-31125533D02*
X126880336Y-31030295D01*
X126880336Y-31030295D02*
X126927956Y-30887438D01*
X126927956Y-30887438D02*
X126975575Y-30839819D01*
X126975575Y-30839819D02*
X127308908Y-30839819D01*
X127308908Y-30839819D02*
X127308908Y-31030295D01*
X126880336Y-30411247D02*
X127880336Y-30411247D01*
X127880336Y-30411247D02*
X126880336Y-29839819D01*
X126880336Y-29839819D02*
X127880336Y-29839819D01*
X126880336Y-29363628D02*
X127880336Y-29363628D01*
X127880336Y-29363628D02*
X127880336Y-29125533D01*
X127880336Y-29125533D02*
X127832717Y-28982676D01*
X127832717Y-28982676D02*
X127737479Y-28887438D01*
X127737479Y-28887438D02*
X127642241Y-28839819D01*
X127642241Y-28839819D02*
X127451765Y-28792200D01*
X127451765Y-28792200D02*
X127308908Y-28792200D01*
X127308908Y-28792200D02*
X127118432Y-28839819D01*
X127118432Y-28839819D02*
X127023194Y-28887438D01*
X127023194Y-28887438D02*
X126927956Y-28982676D01*
X126927956Y-28982676D02*
X126880336Y-29125533D01*
X126880336Y-29125533D02*
X126880336Y-29363628D01*
X119988094Y-39954663D02*
X119988094Y-38954663D01*
X119988094Y-38954663D02*
X119749999Y-38954663D01*
X119749999Y-38954663D02*
X119607142Y-39002282D01*
X119607142Y-39002282D02*
X119511904Y-39097520D01*
X119511904Y-39097520D02*
X119464285Y-39192758D01*
X119464285Y-39192758D02*
X119416666Y-39383234D01*
X119416666Y-39383234D02*
X119416666Y-39526091D01*
X119416666Y-39526091D02*
X119464285Y-39716567D01*
X119464285Y-39716567D02*
X119511904Y-39811805D01*
X119511904Y-39811805D02*
X119607142Y-39907044D01*
X119607142Y-39907044D02*
X119749999Y-39954663D01*
X119749999Y-39954663D02*
X119988094Y-39954663D01*
X119083332Y-38954663D02*
X118416666Y-38954663D01*
X118416666Y-38954663D02*
X118845237Y-39954663D01*
X132157044Y-77666667D02*
X132204663Y-77809524D01*
X132204663Y-77809524D02*
X132204663Y-78047619D01*
X132204663Y-78047619D02*
X132157044Y-78142857D01*
X132157044Y-78142857D02*
X132109424Y-78190476D01*
X132109424Y-78190476D02*
X132014186Y-78238095D01*
X132014186Y-78238095D02*
X131918948Y-78238095D01*
X131918948Y-78238095D02*
X131823710Y-78190476D01*
X131823710Y-78190476D02*
X131776091Y-78142857D01*
X131776091Y-78142857D02*
X131728472Y-78047619D01*
X131728472Y-78047619D02*
X131680853Y-77857143D01*
X131680853Y-77857143D02*
X131633234Y-77761905D01*
X131633234Y-77761905D02*
X131585615Y-77714286D01*
X131585615Y-77714286D02*
X131490377Y-77666667D01*
X131490377Y-77666667D02*
X131395139Y-77666667D01*
X131395139Y-77666667D02*
X131299901Y-77714286D01*
X131299901Y-77714286D02*
X131252282Y-77761905D01*
X131252282Y-77761905D02*
X131204663Y-77857143D01*
X131204663Y-77857143D02*
X131204663Y-78095238D01*
X131204663Y-78095238D02*
X131252282Y-78238095D01*
X131204663Y-78571429D02*
X132204663Y-78809524D01*
X132204663Y-78809524D02*
X131490377Y-79000000D01*
X131490377Y-79000000D02*
X132204663Y-79190476D01*
X132204663Y-79190476D02*
X131204663Y-79428572D01*
X132204663Y-80333333D02*
X132204663Y-79761905D01*
X132204663Y-80047619D02*
X131204663Y-80047619D01*
X131204663Y-80047619D02*
X131347520Y-79952381D01*
X131347520Y-79952381D02*
X131442758Y-79857143D01*
X131442758Y-79857143D02*
X131490377Y-79761905D01*
X115079544Y-50121667D02*
X115127163Y-50264524D01*
X115127163Y-50264524D02*
X115127163Y-50502619D01*
X115127163Y-50502619D02*
X115079544Y-50597857D01*
X115079544Y-50597857D02*
X115031924Y-50645476D01*
X115031924Y-50645476D02*
X114936686Y-50693095D01*
X114936686Y-50693095D02*
X114841448Y-50693095D01*
X114841448Y-50693095D02*
X114746210Y-50645476D01*
X114746210Y-50645476D02*
X114698591Y-50597857D01*
X114698591Y-50597857D02*
X114650972Y-50502619D01*
X114650972Y-50502619D02*
X114603353Y-50312143D01*
X114603353Y-50312143D02*
X114555734Y-50216905D01*
X114555734Y-50216905D02*
X114508115Y-50169286D01*
X114508115Y-50169286D02*
X114412877Y-50121667D01*
X114412877Y-50121667D02*
X114317639Y-50121667D01*
X114317639Y-50121667D02*
X114222401Y-50169286D01*
X114222401Y-50169286D02*
X114174782Y-50216905D01*
X114174782Y-50216905D02*
X114127163Y-50312143D01*
X114127163Y-50312143D02*
X114127163Y-50550238D01*
X114127163Y-50550238D02*
X114174782Y-50693095D01*
X114127163Y-51026429D02*
X115127163Y-51264524D01*
X115127163Y-51264524D02*
X114412877Y-51455000D01*
X114412877Y-51455000D02*
X115127163Y-51645476D01*
X115127163Y-51645476D02*
X114127163Y-51883572D01*
X114127163Y-52740714D02*
X114127163Y-52264524D01*
X114127163Y-52264524D02*
X114603353Y-52216905D01*
X114603353Y-52216905D02*
X114555734Y-52264524D01*
X114555734Y-52264524D02*
X114508115Y-52359762D01*
X114508115Y-52359762D02*
X114508115Y-52597857D01*
X114508115Y-52597857D02*
X114555734Y-52693095D01*
X114555734Y-52693095D02*
X114603353Y-52740714D01*
X114603353Y-52740714D02*
X114698591Y-52788333D01*
X114698591Y-52788333D02*
X114936686Y-52788333D01*
X114936686Y-52788333D02*
X115031924Y-52740714D01*
X115031924Y-52740714D02*
X115079544Y-52693095D01*
X115079544Y-52693095D02*
X115127163Y-52597857D01*
X115127163Y-52597857D02*
X115127163Y-52359762D01*
X115127163Y-52359762D02*
X115079544Y-52264524D01*
X115079544Y-52264524D02*
X115031924Y-52216905D01*
X151738094Y-28704663D02*
X151738094Y-27704663D01*
X151738094Y-27704663D02*
X151499999Y-27704663D01*
X151499999Y-27704663D02*
X151357142Y-27752282D01*
X151357142Y-27752282D02*
X151261904Y-27847520D01*
X151261904Y-27847520D02*
X151214285Y-27942758D01*
X151214285Y-27942758D02*
X151166666Y-28133234D01*
X151166666Y-28133234D02*
X151166666Y-28276091D01*
X151166666Y-28276091D02*
X151214285Y-28466567D01*
X151214285Y-28466567D02*
X151261904Y-28561805D01*
X151261904Y-28561805D02*
X151357142Y-28657044D01*
X151357142Y-28657044D02*
X151499999Y-28704663D01*
X151499999Y-28704663D02*
X151738094Y-28704663D01*
X150595237Y-28133234D02*
X150690475Y-28085615D01*
X150690475Y-28085615D02*
X150738094Y-28037996D01*
X150738094Y-28037996D02*
X150785713Y-27942758D01*
X150785713Y-27942758D02*
X150785713Y-27895139D01*
X150785713Y-27895139D02*
X150738094Y-27799901D01*
X150738094Y-27799901D02*
X150690475Y-27752282D01*
X150690475Y-27752282D02*
X150595237Y-27704663D01*
X150595237Y-27704663D02*
X150404761Y-27704663D01*
X150404761Y-27704663D02*
X150309523Y-27752282D01*
X150309523Y-27752282D02*
X150261904Y-27799901D01*
X150261904Y-27799901D02*
X150214285Y-27895139D01*
X150214285Y-27895139D02*
X150214285Y-27942758D01*
X150214285Y-27942758D02*
X150261904Y-28037996D01*
X150261904Y-28037996D02*
X150309523Y-28085615D01*
X150309523Y-28085615D02*
X150404761Y-28133234D01*
X150404761Y-28133234D02*
X150595237Y-28133234D01*
X150595237Y-28133234D02*
X150690475Y-28180853D01*
X150690475Y-28180853D02*
X150738094Y-28228472D01*
X150738094Y-28228472D02*
X150785713Y-28323710D01*
X150785713Y-28323710D02*
X150785713Y-28514186D01*
X150785713Y-28514186D02*
X150738094Y-28609424D01*
X150738094Y-28609424D02*
X150690475Y-28657044D01*
X150690475Y-28657044D02*
X150595237Y-28704663D01*
X150595237Y-28704663D02*
X150404761Y-28704663D01*
X150404761Y-28704663D02*
X150309523Y-28657044D01*
X150309523Y-28657044D02*
X150261904Y-28609424D01*
X150261904Y-28609424D02*
X150214285Y-28514186D01*
X150214285Y-28514186D02*
X150214285Y-28323710D01*
X150214285Y-28323710D02*
X150261904Y-28228472D01*
X150261904Y-28228472D02*
X150309523Y-28180853D01*
X150309523Y-28180853D02*
X150404761Y-28133234D01*
X112238094Y-28954663D02*
X112238094Y-27954663D01*
X112238094Y-27954663D02*
X111999999Y-27954663D01*
X111999999Y-27954663D02*
X111857142Y-28002282D01*
X111857142Y-28002282D02*
X111761904Y-28097520D01*
X111761904Y-28097520D02*
X111714285Y-28192758D01*
X111714285Y-28192758D02*
X111666666Y-28383234D01*
X111666666Y-28383234D02*
X111666666Y-28526091D01*
X111666666Y-28526091D02*
X111714285Y-28716567D01*
X111714285Y-28716567D02*
X111761904Y-28811805D01*
X111761904Y-28811805D02*
X111857142Y-28907044D01*
X111857142Y-28907044D02*
X111999999Y-28954663D01*
X111999999Y-28954663D02*
X112238094Y-28954663D01*
X111285713Y-28049901D02*
X111238094Y-28002282D01*
X111238094Y-28002282D02*
X111142856Y-27954663D01*
X111142856Y-27954663D02*
X110904761Y-27954663D01*
X110904761Y-27954663D02*
X110809523Y-28002282D01*
X110809523Y-28002282D02*
X110761904Y-28049901D01*
X110761904Y-28049901D02*
X110714285Y-28145139D01*
X110714285Y-28145139D02*
X110714285Y-28240377D01*
X110714285Y-28240377D02*
X110761904Y-28383234D01*
X110761904Y-28383234D02*
X111333332Y-28954663D01*
X111333332Y-28954663D02*
X110714285Y-28954663D01*
X151738094Y-25704663D02*
X151738094Y-24704663D01*
X151738094Y-24704663D02*
X151499999Y-24704663D01*
X151499999Y-24704663D02*
X151357142Y-24752282D01*
X151357142Y-24752282D02*
X151261904Y-24847520D01*
X151261904Y-24847520D02*
X151214285Y-24942758D01*
X151214285Y-24942758D02*
X151166666Y-25133234D01*
X151166666Y-25133234D02*
X151166666Y-25276091D01*
X151166666Y-25276091D02*
X151214285Y-25466567D01*
X151214285Y-25466567D02*
X151261904Y-25561805D01*
X151261904Y-25561805D02*
X151357142Y-25657044D01*
X151357142Y-25657044D02*
X151499999Y-25704663D01*
X151499999Y-25704663D02*
X151738094Y-25704663D01*
X150214285Y-25704663D02*
X150785713Y-25704663D01*
X150499999Y-25704663D02*
X150499999Y-24704663D01*
X150499999Y-24704663D02*
X150595237Y-24847520D01*
X150595237Y-24847520D02*
X150690475Y-24942758D01*
X150690475Y-24942758D02*
X150785713Y-24990377D01*
X163157044Y-77666667D02*
X163204663Y-77809524D01*
X163204663Y-77809524D02*
X163204663Y-78047619D01*
X163204663Y-78047619D02*
X163157044Y-78142857D01*
X163157044Y-78142857D02*
X163109424Y-78190476D01*
X163109424Y-78190476D02*
X163014186Y-78238095D01*
X163014186Y-78238095D02*
X162918948Y-78238095D01*
X162918948Y-78238095D02*
X162823710Y-78190476D01*
X162823710Y-78190476D02*
X162776091Y-78142857D01*
X162776091Y-78142857D02*
X162728472Y-78047619D01*
X162728472Y-78047619D02*
X162680853Y-77857143D01*
X162680853Y-77857143D02*
X162633234Y-77761905D01*
X162633234Y-77761905D02*
X162585615Y-77714286D01*
X162585615Y-77714286D02*
X162490377Y-77666667D01*
X162490377Y-77666667D02*
X162395139Y-77666667D01*
X162395139Y-77666667D02*
X162299901Y-77714286D01*
X162299901Y-77714286D02*
X162252282Y-77761905D01*
X162252282Y-77761905D02*
X162204663Y-77857143D01*
X162204663Y-77857143D02*
X162204663Y-78095238D01*
X162204663Y-78095238D02*
X162252282Y-78238095D01*
X162204663Y-78571429D02*
X163204663Y-78809524D01*
X163204663Y-78809524D02*
X162490377Y-79000000D01*
X162490377Y-79000000D02*
X163204663Y-79190476D01*
X163204663Y-79190476D02*
X162204663Y-79428572D01*
X162204663Y-79714286D02*
X162204663Y-80333333D01*
X162204663Y-80333333D02*
X162585615Y-80000000D01*
X162585615Y-80000000D02*
X162585615Y-80142857D01*
X162585615Y-80142857D02*
X162633234Y-80238095D01*
X162633234Y-80238095D02*
X162680853Y-80285714D01*
X162680853Y-80285714D02*
X162776091Y-80333333D01*
X162776091Y-80333333D02*
X163014186Y-80333333D01*
X163014186Y-80333333D02*
X163109424Y-80285714D01*
X163109424Y-80285714D02*
X163157044Y-80238095D01*
X163157044Y-80238095D02*
X163204663Y-80142857D01*
X163204663Y-80142857D02*
X163204663Y-79857143D01*
X163204663Y-79857143D02*
X163157044Y-79761905D01*
X163157044Y-79761905D02*
X163109424Y-79714286D01*
X147657044Y-78166667D02*
X147704663Y-78309524D01*
X147704663Y-78309524D02*
X147704663Y-78547619D01*
X147704663Y-78547619D02*
X147657044Y-78642857D01*
X147657044Y-78642857D02*
X147609424Y-78690476D01*
X147609424Y-78690476D02*
X147514186Y-78738095D01*
X147514186Y-78738095D02*
X147418948Y-78738095D01*
X147418948Y-78738095D02*
X147323710Y-78690476D01*
X147323710Y-78690476D02*
X147276091Y-78642857D01*
X147276091Y-78642857D02*
X147228472Y-78547619D01*
X147228472Y-78547619D02*
X147180853Y-78357143D01*
X147180853Y-78357143D02*
X147133234Y-78261905D01*
X147133234Y-78261905D02*
X147085615Y-78214286D01*
X147085615Y-78214286D02*
X146990377Y-78166667D01*
X146990377Y-78166667D02*
X146895139Y-78166667D01*
X146895139Y-78166667D02*
X146799901Y-78214286D01*
X146799901Y-78214286D02*
X146752282Y-78261905D01*
X146752282Y-78261905D02*
X146704663Y-78357143D01*
X146704663Y-78357143D02*
X146704663Y-78595238D01*
X146704663Y-78595238D02*
X146752282Y-78738095D01*
X146704663Y-79071429D02*
X147704663Y-79309524D01*
X147704663Y-79309524D02*
X146990377Y-79500000D01*
X146990377Y-79500000D02*
X147704663Y-79690476D01*
X147704663Y-79690476D02*
X146704663Y-79928572D01*
X146799901Y-80261905D02*
X146752282Y-80309524D01*
X146752282Y-80309524D02*
X146704663Y-80404762D01*
X146704663Y-80404762D02*
X146704663Y-80642857D01*
X146704663Y-80642857D02*
X146752282Y-80738095D01*
X146752282Y-80738095D02*
X146799901Y-80785714D01*
X146799901Y-80785714D02*
X146895139Y-80833333D01*
X146895139Y-80833333D02*
X146990377Y-80833333D01*
X146990377Y-80833333D02*
X147133234Y-80785714D01*
X147133234Y-80785714D02*
X147704663Y-80214286D01*
X147704663Y-80214286D02*
X147704663Y-80833333D01*
X120238094Y-63954663D02*
X120238094Y-62954663D01*
X120238094Y-62954663D02*
X119999999Y-62954663D01*
X119999999Y-62954663D02*
X119857142Y-63002282D01*
X119857142Y-63002282D02*
X119761904Y-63097520D01*
X119761904Y-63097520D02*
X119714285Y-63192758D01*
X119714285Y-63192758D02*
X119666666Y-63383234D01*
X119666666Y-63383234D02*
X119666666Y-63526091D01*
X119666666Y-63526091D02*
X119714285Y-63716567D01*
X119714285Y-63716567D02*
X119761904Y-63811805D01*
X119761904Y-63811805D02*
X119857142Y-63907044D01*
X119857142Y-63907044D02*
X119999999Y-63954663D01*
X119999999Y-63954663D02*
X120238094Y-63954663D01*
X118809523Y-63287996D02*
X118809523Y-63954663D01*
X119047618Y-62907044D02*
X119285713Y-63621329D01*
X119285713Y-63621329D02*
X118666666Y-63621329D01*
D11*
%TO.C,D7*%
X114390000Y-38450000D02*
X114390000Y-40370000D01*
X114390000Y-40370000D02*
X117250000Y-40370000D01*
X117250000Y-38450000D02*
X114390000Y-38450000D01*
%TO.C,SW1*%
X128500000Y-76750000D02*
X128500000Y-81250000D01*
X131000000Y-82500000D02*
X132500000Y-82500000D01*
X132500000Y-75500000D02*
X131000000Y-75500000D01*
X135000000Y-81250000D02*
X135000000Y-76750000D01*
%TO.C,SW7*%
D12*
X157000000Y-29400000D02*
X167500000Y-29400000D01*
X167500000Y-23600000D01*
X157000000Y-23600000D01*
X157000000Y-29400000D01*
%TO.C,SW5*%
X113372500Y-46205000D02*
X119172500Y-46205000D01*
X119172500Y-56705000D01*
X113372500Y-56705000D01*
X113372500Y-46205000D01*
D11*
%TO.C,D8*%
X153250000Y-29210000D02*
X156110000Y-29210000D01*
X156110000Y-27290000D02*
X153250000Y-27290000D01*
X156110000Y-29210000D02*
X156110000Y-27290000D01*
%TO.C,D2*%
X109750000Y-25540000D02*
X112610000Y-25540000D01*
X112610000Y-25540000D02*
X112610000Y-27460000D01*
X112610000Y-27460000D02*
X109750000Y-27460000D01*
%TO.C,D1*%
X153250000Y-26210000D02*
X156110000Y-26210000D01*
X156110000Y-24290000D02*
X153250000Y-24290000D01*
X156110000Y-26210000D02*
X156110000Y-24290000D01*
%TO.C,SW3*%
X159500000Y-76750000D02*
X159500000Y-81250000D01*
X162000000Y-82500000D02*
X163500000Y-82500000D01*
X163500000Y-75500000D02*
X162000000Y-75500000D01*
X166000000Y-81250000D02*
X166000000Y-76750000D01*
%TO.C,SW2*%
X144000000Y-76750000D02*
X144000000Y-81250000D01*
X146500000Y-82500000D02*
X148000000Y-82500000D01*
X148000000Y-75500000D02*
X146500000Y-75500000D01*
X150500000Y-81250000D02*
X150500000Y-76750000D01*
%TO.C,D4*%
X114390000Y-62540000D02*
X114390000Y-64460000D01*
X114390000Y-64460000D02*
X117250000Y-64460000D01*
X117250000Y-62540000D02*
X114390000Y-62540000D01*
%TD*%
M02*
