M48
; DRILL file {KiCad 9.0.7} date 2026-03-17T14:38:53-0600
; FORMAT={-:-/ absolute / metric / decimal}
; #@! TF.CreationDate,2026-03-17T14:38:53-06:00
; #@! TF.GenerationSoftware,Kicad,Pcbnew,9.0.7
; #@! TF.FileFunction,Plated,1,4,PTH
FMAT,2
METRIC
; #@! TA.AperFunction,Plated,PTH,ViaDrill
T1C0.500
; #@! TA.AperFunction,Plated,PTH,ComponentDrill
T2C0.600
; #@! TA.AperFunction,Plated,PTH,ComponentDrill
T3C0.800
; #@! TA.AperFunction,Plated,PTH,ComponentDrill
T4C1.000
; #@! TA.AperFunction,Plated,PTH,ComponentDrill
T5C1.100
; #@! TA.AperFunction,Plated,PTH,ComponentDrill
T6C1.440
; #@! TA.AperFunction,Plated,PTH,ComponentDrill
T7C1.700
%
G90
G05
T1
X102.0Y-32.0
X102.0Y-34.25
X103.5Y-71.25
X103.75Y-45.5
X103.75Y-49.75
X103.75Y-55.5
X103.75Y-79.25
X103.75Y-83.25
X103.75Y-88.5
X107.0Y-83.0
X107.5Y-32.0
X107.5Y-34.25
X108.5Y-79.5
X108.5Y-90.0
X108.75Y-55.5
X108.75Y-71.25
X109.0Y-32.0
X109.0Y-34.25
X109.0Y-49.5
X109.75Y-28.0
X110.25Y-86.25
X110.5Y-32.0
X110.5Y-34.25
X110.75Y-93.75
X111.25Y-55.75
X111.25Y-83.25
X111.5Y-71.5
X111.5Y-76.5
X112.0Y-47.0
X112.0Y-58.5
X112.25Y-32.0
X112.25Y-34.25
X113.5Y-68.0
X113.5Y-71.25
X113.5Y-85.25
X113.5Y-96.0
X115.75Y-34.25
X116.0Y-32.0
X116.25Y-87.75
X117.0Y-36.0
X117.0Y-44.0
X117.25Y-87.0
X117.63Y-95.4
X118.25Y-87.75
X119.248Y-87.084
X119.75Y-51.25
X120.0Y-32.0
X120.25Y-56.0
X120.25Y-82.75
X121.5Y-64.0
X121.5Y-82.75
X121.75Y-47.25
X122.0Y-59.25
X122.0Y-68.5
X122.25Y-26.5
X122.5Y-90.0
X122.75Y-37.25
X122.75Y-93.25
X123.0Y-78.0
X123.0Y-85.0
X123.75Y-84.0
X124.25Y-50.25
X124.5Y-80.25
X125.0Y-35.5
X125.25Y-39.75
X125.75Y-74.25
X126.5Y-45.5
X126.5Y-66.0
X126.624Y-70.626
X127.25Y-56.75
X127.5Y-37.25
X127.75Y-90.0
X128.0Y-30.012
X129.0Y-80.0
X129.5Y-51.25
X129.5Y-59.5
X129.75Y-63.5
X130.0Y-87.75
X130.5Y-38.5
X130.5Y-46.0
X130.5Y-69.0
X131.0Y-30.012
X131.5Y-42.25
X132.0Y-26.5
X133.0Y-45.75
X133.75Y-87.75
X134.0Y-85.0
X134.5Y-35.75
X134.75Y-53.5
X134.75Y-66.0
X135.0Y-69.0
X136.25Y-39.75
X136.25Y-47.5
X136.5Y-51.25
X136.5Y-57.0
X136.5Y-62.0
X138.0Y-29.75
X138.25Y-44.0
X138.25Y-53.5
X138.25Y-66.0
X138.25Y-90.0
X138.312Y-59.25
X138.5Y-88.0
X139.25Y-69.0
X139.25Y-79.25
X140.25Y-55.75
X140.5Y-62.75
X141.25Y-66.25
X141.5Y-28.0
X141.5Y-40.25
X141.5Y-46.5
X142.0Y-90.25
X143.0Y-36.25
X143.25Y-66.5
X144.0Y-59.0
X144.5Y-80.0
X144.75Y-26.75
X145.0Y-49.0
X145.25Y-40.25
X145.5Y-32.75
X145.5Y-66.25
X146.5Y-91.5
X147.0Y-25.75
X147.25Y-88.0
X147.5Y-66.5
X148.0Y-36.25
X148.25Y-92.35
X149.0Y-32.25
X149.0Y-45.5
X149.5Y-84.0
X150.5Y-43.0
X150.75Y-32.75
X151.25Y-96.75
X151.438Y-56.5
X151.438Y-58.5
X151.5Y-40.25
X151.75Y-25.5
X151.75Y-27.5
X151.75Y-88.25
X152.0Y-37.35
X152.0Y-45.5
X152.0Y-54.0
X152.25Y-70.5
X152.463Y-72.75
X152.5Y-39.0
X152.75Y-79.25
X153.812Y-63.625
X154.5Y-43.0
X154.5Y-89.5
X154.938Y-56.5
X154.938Y-58.5
X155.0Y-60.75
X156.25Y-34.0
X156.75Y-48.5
X156.75Y-49.849
X156.75Y-54.75
X156.75Y-88.0
X156.812Y-62.375
X156.812Y-65.125
X157.5Y-29.5
X157.5Y-59.625
X157.75Y-39.0
X159.5Y-49.75
X159.5Y-61.25
X159.75Y-54.75
X160.0Y-70.75
X160.25Y-56.75
X160.25Y-59.25
X160.75Y-48.5
X160.75Y-65.0
X161.0Y-35.0
X162.25Y-28.75
X163.5Y-53.25
X163.5Y-96.75
X163.75Y-42.75
X163.75Y-58.0
X164.0Y-73.0
X164.75Y-77.75
X165.0Y-46.25
X165.0Y-79.0
X165.0Y-80.25
X165.25Y-59.25
X165.75Y-38.25
X166.0Y-89.5
X166.5Y-93.25
X167.25Y-73.0
X167.25Y-86.5
X167.5Y-60.25
X167.5Y-94.5
X167.75Y-55.25
X168.0Y-36.0
X168.0Y-53.25
X168.25Y-90.5
X168.75Y-41.5
X169.75Y-63.0
X169.75Y-79.0
X169.75Y-80.25
X169.75Y-90.0
X170.0Y-47.5
X170.75Y-58.0
X171.0Y-66.25
X171.0Y-69.25
X171.75Y-77.75
X172.0Y-75.5
X172.25Y-55.75
X172.5Y-63.0
X173.0Y-81.5
X173.25Y-26.0
X173.5Y-51.25
X173.5Y-90.25
X174.25Y-81.5
X174.75Y-44.75
X174.75Y-47.5
X174.75Y-60.25
X174.75Y-85.25
X175.75Y-53.0
X175.75Y-61.5
X175.77Y-76.75
X175.77Y-78.15
X175.77Y-79.55
X176.75Y-36.5
X177.17Y-76.75
X177.17Y-78.15
X177.17Y-79.55
X177.25Y-65.0
X177.25Y-66.5
X177.25Y-86.5
X177.75Y-47.5
X178.0Y-72.75
X178.5Y-75.25
X178.5Y-82.0
X178.57Y-76.75
X178.57Y-78.15
X178.57Y-79.55
X178.75Y-36.0
X178.75Y-94.25
X179.75Y-39.75
X179.75Y-52.5
X179.75Y-86.5
X180.75Y-61.0
X181.5Y-49.75
X182.25Y-53.5
X182.429Y-89.819
X182.5Y-44.5
X182.75Y-32.0
X182.75Y-37.0
X182.963Y-66.15
X183.0Y-51.0
X183.7Y-89.75
X183.75Y-58.75
X184.75Y-91.25
X185.0Y-66.25
T3
X165.5Y-96.75
X167.5Y-96.75
T4
X114.67Y-26.5
X117.21Y-26.5
X119.75Y-26.5
X124.71Y-26.5
X127.25Y-26.5
X129.79Y-26.5
X131.09Y-96.75
X133.63Y-96.75
X134.25Y-26.5
X136.17Y-96.75
X136.79Y-26.5
X138.71Y-96.75
X139.33Y-26.5
X141.25Y-96.75
X143.79Y-96.75
X146.33Y-96.75
X148.87Y-96.75
X153.71Y-96.75
X156.25Y-96.75
X158.79Y-96.75
X161.33Y-96.75
X161.975Y-31.75
X164.515Y-31.75
X171.71Y-96.75
X174.25Y-96.75
X176.79Y-96.75
T5
X129.5Y-75.75
X129.5Y-82.25
X134.0Y-75.75
X134.0Y-82.25
X137.25Y-75.75
X137.25Y-82.25
X141.75Y-75.75
X141.75Y-82.25
X145.0Y-75.75
X145.0Y-82.25
X149.5Y-75.75
X149.5Y-82.25
X152.75Y-75.75
X152.75Y-82.25
X157.25Y-75.75
X157.25Y-82.25
X160.5Y-75.75
X160.5Y-82.25
X165.0Y-75.75
X165.0Y-82.25
T6
X103.65Y-63.76
X108.65Y-67.36
X111.75Y-62.16
T7
X103.35Y-39.76
X108.25Y-37.91
X108.25Y-41.61
X110.25Y-39.76
T2
G00X169.07Y-25.72
M15
G01X169.07Y-24.92
M16
G05
G00X169.07Y-30.05
M15
G01X169.07Y-28.95
M16
G05
G00X177.71Y-25.72
M15
G01X177.71Y-24.92
M16
G05
G00X177.71Y-30.05
M15
G01X177.71Y-28.95
M16
G05
T4
G00X116.272Y-47.905
M15
G01X116.272Y-49.005
M16
G05
G00X116.272Y-50.905
M15
G01X116.272Y-52.005
M16
G05
G00X116.272Y-53.905
M15
G01X116.272Y-55.005
M16
G05
G00X158.7Y-26.5
M15
G01X159.8Y-26.5
M16
G05
G00X161.7Y-26.5
M15
G01X162.8Y-26.5
M16
G05
G00X164.7Y-26.5
M15
G01X165.8Y-26.5
M16
G05
M30
