%TF.GenerationSoftware,KiCad,Pcbnew,8.0.9-8.0.9-0~ubuntu24.04.1*%
%TF.CreationDate,2025-02-24T19:38:21+01:00*%
%TF.ProjectId,jack2bluetooth,6a61636b-3262-46c7-9565-746f6f74682e,v3.0*%
%TF.SameCoordinates,Original*%
%TF.FileFunction,Copper,L1,Top*%
%TF.FilePolarity,Positive*%
%FSLAX46Y46*%
G04 Gerber Fmt 4.6, Leading zero omitted, Abs format (unit mm)*
G04 Created by KiCad (PCBNEW 8.0.9-8.0.9-0~ubuntu24.04.1) date 2025-02-24 19:38:21*
%MOMM*%
%LPD*%
G01*
G04 APERTURE LIST*
G04 Aperture macros list*
%AMRoundRect*
0 Rectangle with rounded corners*
0 $1 Rounding radius*
0 $2 $3 $4 $5 $6 $7 $8 $9 X,Y pos of 4 corners*
0 Add a 4 corners polygon primitive as box body*
4,1,4,$2,$3,$4,$5,$6,$7,$8,$9,$2,$3,0*
0 Add four circle primitives for the rounded corners*
1,1,$1+$1,$2,$3*
1,1,$1+$1,$4,$5*
1,1,$1+$1,$6,$7*
1,1,$1+$1,$8,$9*
0 Add four rect primitives between the rounded corners*
20,1,$1+$1,$2,$3,$4,$5,0*
20,1,$1+$1,$4,$5,$6,$7,0*
20,1,$1+$1,$6,$7,$8,$9,0*
20,1,$1+$1,$8,$9,$2,$3,0*%
G04 Aperture macros list end*
%TA.AperFunction,SMDPad,CuDef*%
%ADD10RoundRect,0.250000X0.450000X-0.350000X0.450000X0.350000X-0.450000X0.350000X-0.450000X-0.350000X0*%
%TD*%
%TA.AperFunction,SMDPad,CuDef*%
%ADD11RoundRect,0.250000X0.275000X0.350000X-0.275000X0.350000X-0.275000X-0.350000X0.275000X-0.350000X0*%
%TD*%
%TA.AperFunction,SMDPad,CuDef*%
%ADD12RoundRect,0.250000X-0.350000X-0.450000X0.350000X-0.450000X0.350000X0.450000X-0.350000X0.450000X0*%
%TD*%
%TA.AperFunction,SMDPad,CuDef*%
%ADD13RoundRect,0.250000X0.337500X0.475000X-0.337500X0.475000X-0.337500X-0.475000X0.337500X-0.475000X0*%
%TD*%
%TA.AperFunction,SMDPad,CuDef*%
%ADD14R,0.850000X0.300000*%
%TD*%
%TA.AperFunction,SMDPad,CuDef*%
%ADD15R,0.300000X0.850000*%
%TD*%
%TA.AperFunction,SMDPad,CuDef*%
%ADD16R,3.550000X3.550000*%
%TD*%
%TA.AperFunction,SMDPad,CuDef*%
%ADD17RoundRect,0.250000X0.475000X-0.337500X0.475000X0.337500X-0.475000X0.337500X-0.475000X-0.337500X0*%
%TD*%
%TA.AperFunction,SMDPad,CuDef*%
%ADD18RoundRect,0.250000X-0.450000X0.350000X-0.450000X-0.350000X0.450000X-0.350000X0.450000X0.350000X0*%
%TD*%
%TA.AperFunction,ComponentPad*%
%ADD19R,1.700000X1.700000*%
%TD*%
%TA.AperFunction,ComponentPad*%
%ADD20O,1.700000X1.700000*%
%TD*%
%TA.AperFunction,SMDPad,CuDef*%
%ADD21R,1.150000X0.600000*%
%TD*%
%TA.AperFunction,SMDPad,CuDef*%
%ADD22RoundRect,0.250000X0.350000X0.450000X-0.350000X0.450000X-0.350000X-0.450000X0.350000X-0.450000X0*%
%TD*%
%TA.AperFunction,SMDPad,CuDef*%
%ADD23RoundRect,0.250000X-0.337500X-0.475000X0.337500X-0.475000X0.337500X0.475000X-0.337500X0.475000X0*%
%TD*%
%TA.AperFunction,SMDPad,CuDef*%
%ADD24RoundRect,0.250000X-0.475000X0.337500X-0.475000X-0.337500X0.475000X-0.337500X0.475000X0.337500X0*%
%TD*%
%TA.AperFunction,SMDPad,CuDef*%
%ADD25RoundRect,0.150000X0.425000X-0.150000X0.425000X0.150000X-0.425000X0.150000X-0.425000X-0.150000X0*%
%TD*%
%TA.AperFunction,SMDPad,CuDef*%
%ADD26RoundRect,0.075000X0.500000X-0.075000X0.500000X0.075000X-0.500000X0.075000X-0.500000X-0.075000X0*%
%TD*%
%TA.AperFunction,HeatsinkPad*%
%ADD27O,2.100000X1.000000*%
%TD*%
%TA.AperFunction,HeatsinkPad*%
%ADD28O,1.800000X1.000000*%
%TD*%
%TA.AperFunction,SMDPad,CuDef*%
%ADD29RoundRect,0.218750X-0.218750X-0.381250X0.218750X-0.381250X0.218750X0.381250X-0.218750X0.381250X0*%
%TD*%
%TA.AperFunction,ComponentPad*%
%ADD30R,3.225000X3.225000*%
%TD*%
%TA.AperFunction,ComponentPad*%
%ADD31C,3.225000*%
%TD*%
%TA.AperFunction,ComponentPad*%
%ADD32C,2.295000*%
%TD*%
%TA.AperFunction,SMDPad,CuDef*%
%ADD33R,1.100000X1.500000*%
%TD*%
%TA.AperFunction,SMDPad,CuDef*%
%ADD34R,1.250000X0.600000*%
%TD*%
%TA.AperFunction,SMDPad,CuDef*%
%ADD35RoundRect,0.175000X0.325000X-0.175000X0.325000X0.175000X-0.325000X0.175000X-0.325000X-0.175000X0*%
%TD*%
%TA.AperFunction,SMDPad,CuDef*%
%ADD36RoundRect,0.150000X0.150000X-0.200000X0.150000X0.200000X-0.150000X0.200000X-0.150000X-0.200000X0*%
%TD*%
%TA.AperFunction,SMDPad,CuDef*%
%ADD37R,0.800000X0.300000*%
%TD*%
%TA.AperFunction,SMDPad,CuDef*%
%ADD38R,0.300000X0.800000*%
%TD*%
%TA.AperFunction,SMDPad,CuDef*%
%ADD39R,2.800000X2.800000*%
%TD*%
%TA.AperFunction,ComponentPad*%
%ADD40C,2.000000*%
%TD*%
%TA.AperFunction,SMDPad,CuDef*%
%ADD41RoundRect,0.175000X-0.175000X-0.325000X0.175000X-0.325000X0.175000X0.325000X-0.175000X0.325000X0*%
%TD*%
%TA.AperFunction,SMDPad,CuDef*%
%ADD42RoundRect,0.150000X-0.200000X-0.150000X0.200000X-0.150000X0.200000X0.150000X-0.200000X0.150000X0*%
%TD*%
%TA.AperFunction,SMDPad,CuDef*%
%ADD43R,0.900000X1.500000*%
%TD*%
%TA.AperFunction,SMDPad,CuDef*%
%ADD44R,0.800000X0.800000*%
%TD*%
%TA.AperFunction,ComponentPad*%
%ADD45R,2.500000X2.550000*%
%TD*%
%TA.AperFunction,ComponentPad*%
%ADD46C,2.500000*%
%TD*%
%TA.AperFunction,SMDPad,CuDef*%
%ADD47R,1.200000X0.600000*%
%TD*%
%TA.AperFunction,ComponentPad*%
%ADD48O,1.500000X2.600000*%
%TD*%
%TA.AperFunction,ViaPad*%
%ADD49C,1.000000*%
%TD*%
%TA.AperFunction,ViaPad*%
%ADD50C,0.800000*%
%TD*%
%TA.AperFunction,Conductor*%
%ADD51C,0.500000*%
%TD*%
%TA.AperFunction,Conductor*%
%ADD52C,0.300000*%
%TD*%
%TA.AperFunction,Conductor*%
%ADD53C,0.200000*%
%TD*%
%TA.AperFunction,Conductor*%
%ADD54C,0.340000*%
%TD*%
G04 APERTURE END LIST*
D10*
%TO.P,R37,1*%
%TO.N,Net-(IC4-FB)*%
X196750000Y-124750000D03*
%TO.P,R37,2*%
%TO.N,BAT-*%
X196750000Y-122750000D03*
%TD*%
D11*
%TO.P,L1,1,1*%
%TO.N,/SW*%
X218900000Y-148000000D03*
%TO.P,L1,2,2*%
%TO.N,SYSTEM*%
X216600000Y-148000000D03*
%TD*%
D12*
%TO.P,R3,1*%
%TO.N,BAT-*%
X211500000Y-140750000D03*
%TO.P,R3,2*%
%TO.N,IO5*%
X213500000Y-140750000D03*
%TD*%
D13*
%TO.P,C7,1*%
%TO.N,+1V8*%
X197000000Y-106150000D03*
%TO.P,C7,2*%
%TO.N,BAT-*%
X194925000Y-106150000D03*
%TD*%
D14*
%TO.P,IC1,1,MCLK*%
%TO.N,IO19*%
X196230000Y-109650000D03*
%TO.P,IC1,2,BCLK*%
%TO.N,IO20*%
X196230000Y-110150000D03*
%TO.P,IC1,3,WCLK*%
%TO.N,IO21*%
X196230000Y-110650000D03*
%TO.P,IC1,4,DIN*%
%TO.N,IO22*%
X196230000Y-111150000D03*
%TO.P,IC1,5,DOUT*%
%TO.N,IO23*%
X196230000Y-111650000D03*
%TO.P,IC1,6,DVSS*%
%TO.N,BAT-*%
X196230000Y-112150000D03*
%TO.P,IC1,7,IOVDD*%
%TO.N,+3.3V*%
X196230000Y-112650000D03*
%TO.P,IC1,8,SCL*%
%TO.N,IO7*%
X196230000Y-113150000D03*
D15*
%TO.P,IC1,9,SDA*%
%TO.N,IO6*%
X196930000Y-113850000D03*
%TO.P,IC1,10,MIC1LP/LINE1LP*%
%TO.N,unconnected-(IC1-MIC1LP{slash}LINE1LP-Pad10)*%
X197430000Y-113850000D03*
%TO.P,IC1,11,MIC1LM/LINE1LM*%
%TO.N,unconnected-(IC1-MIC1LM{slash}LINE1LM-Pad11)*%
X197930000Y-113850000D03*
%TO.P,IC1,12,MIC1RP/LINE1RP*%
%TO.N,unconnected-(IC1-MIC1RP{slash}LINE1RP-Pad12)*%
X198430000Y-113850000D03*
%TO.P,IC1,13,MIC1RM/LINE1RM*%
%TO.N,unconnected-(IC1-MIC1RM{slash}LINE1RM-Pad13)*%
X198930000Y-113850000D03*
%TO.P,IC1,14,MIC2L/LINE2L/MICDET*%
%TO.N,LINE2L*%
X199430000Y-113850000D03*
%TO.P,IC1,15,MICBIAS*%
%TO.N,unconnected-(IC1-MICBIAS-Pad15)*%
X199930000Y-113850000D03*
%TO.P,IC1,16,MIC2R/LINE2R*%
%TO.N,LINE2R*%
X200430000Y-113850000D03*
D14*
%TO.P,IC1,17,AVSS1*%
%TO.N,GNDA*%
X201130000Y-113150000D03*
%TO.P,IC1,18,DRVDD_1*%
%TO.N,+3.3VA*%
X201130000Y-112650000D03*
%TO.P,IC1,19,HPLOUT*%
%TO.N,HPLOUT*%
X201130000Y-112150000D03*
%TO.P,IC1,20,HPLCOM*%
%TO.N,HPLCOM*%
X201130000Y-111650000D03*
%TO.P,IC1,21,DRVSS*%
%TO.N,GNDA*%
X201130000Y-111150000D03*
%TO.P,IC1,22,HPRCOM*%
%TO.N,HPRCOM*%
X201130000Y-110650000D03*
%TO.P,IC1,23,HPROUT*%
%TO.N,HPROUT*%
X201130000Y-110150000D03*
%TO.P,IC1,24,DRVDD_2*%
%TO.N,+3.3VA*%
X201130000Y-109650000D03*
D15*
%TO.P,IC1,25,AVDD*%
X200430000Y-108950000D03*
%TO.P,IC1,26,AVSS2*%
%TO.N,GNDA*%
X199930000Y-108950000D03*
%TO.P,IC1,27,LEFT_LOP*%
%TO.N,unconnected-(IC1-LEFT_LOP-Pad27)*%
X199430000Y-108950000D03*
%TO.P,IC1,28,LEFT_LOM*%
%TO.N,unconnected-(IC1-LEFT_LOM-Pad28)*%
X198930000Y-108950000D03*
%TO.P,IC1,29,RIGHT_LOP*%
%TO.N,unconnected-(IC1-RIGHT_LOP-Pad29)*%
X198430000Y-108950000D03*
%TO.P,IC1,30,RIGHT_LOM*%
%TO.N,unconnected-(IC1-RIGHT_LOM-Pad30)*%
X197930000Y-108950000D03*
%TO.P,IC1,31,~{RESET}*%
%TO.N,IO18*%
X197430000Y-108950000D03*
%TO.P,IC1,32,DVDD*%
%TO.N,+1V8*%
X196930000Y-108950000D03*
D16*
%TO.P,IC1,33,EP*%
%TO.N,GNDA*%
X198680000Y-111400000D03*
%TD*%
D13*
%TO.P,C32,1*%
%TO.N,SYSTEM*%
X194287500Y-129250000D03*
%TO.P,C32,2*%
%TO.N,BAT-*%
X192212500Y-129250000D03*
%TD*%
D17*
%TO.P,C8,1*%
%TO.N,jack25_right*%
X221250000Y-127787500D03*
%TO.P,C8,2*%
%TO.N,LINE2R*%
X221250000Y-125712500D03*
%TD*%
%TO.P,C18,1*%
%TO.N,+3.3VA*%
X207630000Y-108650000D03*
%TO.P,C18,2*%
%TO.N,GNDA*%
X207630000Y-106575000D03*
%TD*%
D18*
%TO.P,R10,1*%
%TO.N,LINE2L*%
X224750000Y-130250000D03*
%TO.P,R10,2*%
%TO.N,jack25_left*%
X224750000Y-132250000D03*
%TD*%
D13*
%TO.P,C4,1*%
%TO.N,+1V8*%
X197000000Y-102650000D03*
%TO.P,C4,2*%
%TO.N,BAT-*%
X194925000Y-102650000D03*
%TD*%
D18*
%TO.P,R9,1*%
%TO.N,LINE2R*%
X224712500Y-125750000D03*
%TO.P,R9,2*%
%TO.N,jack25_right*%
X224712500Y-127750000D03*
%TD*%
D19*
%TO.P,JP5,1,A*%
%TO.N,HPLOUT*%
X214400000Y-115600000D03*
D20*
%TO.P,JP5,2,B*%
%TO.N,Net-(JP4-B)*%
X216940000Y-115600000D03*
%TD*%
D21*
%TO.P,Q1,1,G*%
%TO.N,IO2*%
X170300000Y-102040000D03*
%TO.P,Q1,2,S*%
%TO.N,+3.3V*%
X170300000Y-103960000D03*
%TO.P,Q1,3,D*%
%TO.N,lcd_blk*%
X172500000Y-103000000D03*
%TD*%
D22*
%TO.P,R39,1*%
%TO.N,Net-(R38-Pad2)*%
X202750000Y-146750000D03*
%TO.P,R39,2*%
%TO.N,Net-(IC5-FB)*%
X200750000Y-146750000D03*
%TD*%
D23*
%TO.P,C30,1*%
%TO.N,mcu_enable*%
X162712500Y-133250000D03*
%TO.P,C30,2*%
%TO.N,BAT-*%
X164787500Y-133250000D03*
%TD*%
D17*
%TO.P,C9,1*%
%TO.N,jack25_left*%
X221250000Y-132287500D03*
%TO.P,C9,2*%
%TO.N,LINE2L*%
X221250000Y-130212500D03*
%TD*%
%TO.P,C16,1*%
%TO.N,BAT-*%
X223750000Y-150037500D03*
%TO.P,C16,2*%
%TO.N,REGN*%
X223750000Y-147962500D03*
%TD*%
D10*
%TO.P,R4,1*%
%TO.N,VCC*%
X224750000Y-136750000D03*
%TO.P,R4,2*%
%TO.N,Net-(D1-A)*%
X224750000Y-134750000D03*
%TD*%
D17*
%TO.P,C14,1*%
%TO.N,+3.3VA*%
X204130000Y-108650000D03*
%TO.P,C14,2*%
%TO.N,GNDA*%
X204130000Y-106575000D03*
%TD*%
D13*
%TO.P,C33,1*%
%TO.N,SYSTEM*%
X197825000Y-151250000D03*
%TO.P,C33,2*%
%TO.N,BAT-*%
X195750000Y-151250000D03*
%TD*%
D17*
%TO.P,C11,1*%
%TO.N,nQON*%
X168000000Y-103787500D03*
%TO.P,C11,2*%
%TO.N,BAT-*%
X168000000Y-101712500D03*
%TD*%
D12*
%TO.P,R1,1*%
%TO.N,BAT-*%
X176500000Y-140750000D03*
%TO.P,R1,2*%
%TO.N,IO4*%
X178500000Y-140750000D03*
%TD*%
D17*
%TO.P,C26,1*%
%TO.N,BAT-*%
X218750000Y-145287500D03*
%TO.P,C26,2*%
%TO.N,SYSTEM*%
X218750000Y-143212500D03*
%TD*%
D24*
%TO.P,C21,1*%
%TO.N,Net-(JP4-B)*%
X222000000Y-111000000D03*
%TO.P,C21,2*%
%TO.N,jack35_left*%
X222000000Y-113075000D03*
%TD*%
D22*
%TO.P,R14,1*%
%TO.N,BATTS*%
X207000000Y-150750000D03*
%TO.P,R14,2*%
%TO.N,BAT-*%
X205000000Y-150750000D03*
%TD*%
D12*
%TO.P,R23,1*%
%TO.N,GNDA*%
X210750000Y-129500000D03*
%TO.P,R23,2*%
%TO.N,BAT-*%
X212750000Y-129500000D03*
%TD*%
D22*
%TO.P,R38,1*%
%TO.N,+3.3V*%
X207000000Y-146750000D03*
%TO.P,R38,2*%
%TO.N,Net-(R38-Pad2)*%
X205000000Y-146750000D03*
%TD*%
D24*
%TO.P,C25,1*%
%TO.N,IO1*%
X221000000Y-121212500D03*
%TO.P,C25,2*%
%TO.N,BAT-*%
X221000000Y-123287500D03*
%TD*%
D25*
%TO.P,J2,A1,GND*%
%TO.N,BAT-*%
X233245000Y-142840000D03*
%TO.P,J2,A4,VBUS*%
%TO.N,VCC*%
X233245000Y-142040000D03*
D26*
%TO.P,J2,A5,CC1*%
%TO.N,Net-(J2-CC1)*%
X233245000Y-140890000D03*
%TO.P,J2,A6,D+*%
%TO.N,USB_DP*%
X233245000Y-139890000D03*
%TO.P,J2,A7,D-*%
%TO.N,USB_DN*%
X233245000Y-139390000D03*
%TO.P,J2,A8,SBU1*%
%TO.N,unconnected-(J2-SBU1-PadA8)*%
X233245000Y-138390000D03*
D25*
%TO.P,J2,A9,VBUS*%
%TO.N,VCC*%
X233245000Y-137240000D03*
%TO.P,J2,A12,GND*%
%TO.N,BAT-*%
X233245000Y-136440000D03*
%TO.P,J2,B1,GND*%
X233245000Y-136440000D03*
%TO.P,J2,B4,VBUS*%
%TO.N,VCC*%
X233245000Y-137240000D03*
D26*
%TO.P,J2,B5,CC2*%
%TO.N,Net-(J2-CC2)*%
X233245000Y-137890000D03*
%TO.P,J2,B6,D+*%
%TO.N,USB_DP*%
X233245000Y-138890000D03*
%TO.P,J2,B7,D-*%
%TO.N,USB_DN*%
X233245000Y-140390000D03*
%TO.P,J2,B8,SBU2*%
%TO.N,unconnected-(J2-SBU2-PadB8)*%
X233245000Y-141390000D03*
D25*
%TO.P,J2,B9,VBUS*%
%TO.N,VCC*%
X233245000Y-142040000D03*
%TO.P,J2,B12,GND*%
%TO.N,BAT-*%
X233245000Y-142840000D03*
D27*
%TO.P,J2,S1,SHIELD*%
X233820000Y-143960000D03*
D28*
X238000000Y-143960000D03*
D27*
X233820000Y-135320000D03*
D28*
X238000000Y-135320000D03*
%TD*%
D23*
%TO.P,C3,1*%
%TO.N,+3.3V*%
X211462500Y-138250000D03*
%TO.P,C3,2*%
%TO.N,IO5*%
X213537500Y-138250000D03*
%TD*%
D24*
%TO.P,C19,1*%
%TO.N,+3.3VA*%
X207630000Y-113612500D03*
%TO.P,C19,2*%
%TO.N,GNDA*%
X207630000Y-115687500D03*
%TD*%
D10*
%TO.P,R15,1*%
%TO.N,REGN*%
X229000000Y-150000000D03*
%TO.P,R15,2*%
%TO.N,Net-(IC2-PMID_GOOD)*%
X229000000Y-148000000D03*
%TD*%
D29*
%TO.P,L3,1,1*%
%TO.N,+3.3V*%
X190937500Y-148750000D03*
%TO.P,L3,2,2*%
%TO.N,/3V3_SW*%
X193062500Y-148750000D03*
%TD*%
D22*
%TO.P,R6,1*%
%TO.N,BAT-*%
X235750000Y-146500000D03*
%TO.P,R6,2*%
%TO.N,Net-(J2-CC1)*%
X233750000Y-146500000D03*
%TD*%
D30*
%TO.P,J4,1,1*%
%TO.N,GNDA*%
X237350000Y-110750000D03*
D31*
%TO.P,J4,2,2*%
%TO.N,jack35_left*%
X230550000Y-110750000D03*
%TO.P,J4,3,3*%
%TO.N,jack35_right*%
X234450000Y-115750000D03*
D32*
%TO.P,J4,4,4*%
%TO.N,unconnected-(J4-Pad4)*%
X228650000Y-115550000D03*
%TD*%
D23*
%TO.P,C37,1*%
%TO.N,+3.3V*%
X190925000Y-151250000D03*
%TO.P,C37,2*%
%TO.N,BAT-*%
X193000000Y-151250000D03*
%TD*%
D17*
%TO.P,C6,1*%
%TO.N,+3.3V*%
X193130000Y-114287500D03*
%TO.P,C6,2*%
%TO.N,BAT-*%
X193130000Y-112212500D03*
%TD*%
D13*
%TO.P,C12,1*%
%TO.N,+3.3VA*%
X201167500Y-106150000D03*
%TO.P,C12,2*%
%TO.N,GNDA*%
X199092500Y-106150000D03*
%TD*%
D22*
%TO.P,R5,1*%
%TO.N,Net-(J2-CC2)*%
X230250000Y-136000000D03*
%TO.P,R5,2*%
%TO.N,BAT-*%
X228250000Y-136000000D03*
%TD*%
D12*
%TO.P,R19,1*%
%TO.N,IO7*%
X168250000Y-136500000D03*
%TO.P,R19,2*%
%TO.N,+3.3V*%
X170250000Y-136500000D03*
%TD*%
D33*
%TO.P,IC6,1,COM_1*%
%TO.N,IO9*%
X205040000Y-135100000D03*
%TO.P,IC6,2,COM_2*%
%TO.N,IO8*%
X202500000Y-135100000D03*
%TO.P,IC6,3,NO_2*%
%TO.N,BAT-*%
X202500000Y-144000000D03*
%TO.P,IC6,4,NO_1*%
X205040000Y-144000000D03*
%TD*%
D18*
%TO.P,R36,1*%
%TO.N,+1V8*%
X194250000Y-121000000D03*
%TO.P,R36,2*%
%TO.N,Net-(IC4-FB)*%
X194250000Y-123000000D03*
%TD*%
D22*
%TO.P,R11,1*%
%TO.N,SYSTEM*%
X191500000Y-122500000D03*
%TO.P,R11,2*%
%TO.N,Net-(D8-A)*%
X189500000Y-122500000D03*
%TD*%
D19*
%TO.P,JP3,1,A*%
%TO.N,HPRCOM*%
X214400000Y-109600000D03*
D20*
%TO.P,JP3,2,B*%
%TO.N,Net-(JP2-B)*%
X216940000Y-109600000D03*
%TD*%
D34*
%TO.P,IC4,1,EN*%
%TO.N,SYSTEM*%
X191750000Y-125050000D03*
%TO.P,IC4,2,GND*%
%TO.N,BAT-*%
X191750000Y-126000000D03*
%TO.P,IC4,3,SW*%
%TO.N,/1V8_SW*%
X191750000Y-126950000D03*
%TO.P,IC4,4,VIN*%
%TO.N,SYSTEM*%
X194250000Y-126950000D03*
%TO.P,IC4,5,PG*%
%TO.N,Net-(IC4-PG)*%
X194250000Y-126000000D03*
%TO.P,IC4,6,FB*%
%TO.N,Net-(IC4-FB)*%
X194250000Y-125050000D03*
%TD*%
D35*
%TO.P,D5,1,GND*%
%TO.N,BAT-*%
X228450000Y-140500000D03*
D36*
%TO.P,D5,2,I/O1*%
%TO.N,USB_DN*%
X230150000Y-140500000D03*
%TO.P,D5,3,I/O2*%
%TO.N,USB_DP*%
X230150000Y-138500000D03*
%TO.P,D5,4,VCC*%
%TO.N,VCC*%
X228250000Y-138500000D03*
%TD*%
D17*
%TO.P,C20,1*%
%TO.N,Net-(JP2-B)*%
X222000000Y-109000000D03*
%TO.P,C20,2*%
%TO.N,jack35_right*%
X222000000Y-106925000D03*
%TD*%
D22*
%TO.P,R40,1*%
%TO.N,Net-(IC5-FB)*%
X193000000Y-146250000D03*
%TO.P,R40,2*%
%TO.N,BAT-*%
X191000000Y-146250000D03*
%TD*%
D29*
%TO.P,L2,1,1*%
%TO.N,+1V8*%
X187187500Y-127250000D03*
%TO.P,L2,2,2*%
%TO.N,/1V8_SW*%
X189312500Y-127250000D03*
%TD*%
D19*
%TO.P,JP4,1,A*%
%TO.N,HPLCOM*%
X214400000Y-112600000D03*
D20*
%TO.P,JP4,2,B*%
%TO.N,Net-(JP4-B)*%
X216940000Y-112600000D03*
%TD*%
D23*
%TO.P,C17,1*%
%TO.N,VCC*%
X226962500Y-145712500D03*
%TO.P,C17,2*%
%TO.N,BAT-*%
X229037500Y-145712500D03*
%TD*%
D37*
%TO.P,IC2,1,VAC*%
%TO.N,VCC*%
X224750000Y-144712500D03*
%TO.P,IC2,2,PSEL*%
%TO.N,PSEL*%
X224750000Y-144212500D03*
%TO.P,IC2,3,PMID_GOOD*%
%TO.N,Net-(IC2-PMID_GOOD)*%
X224750000Y-143712500D03*
%TO.P,IC2,4,STAT*%
%TO.N,STAT*%
X224750000Y-143212500D03*
%TO.P,IC2,5,SCL*%
%TO.N,IO7*%
X224750000Y-142712500D03*
%TO.P,IC2,6,SDA*%
%TO.N,IO6*%
X224750000Y-142212500D03*
D38*
%TO.P,IC2,7,/INT*%
%TO.N,IO10*%
X224000000Y-141462500D03*
%TO.P,IC2,8,NC*%
%TO.N,unconnected-(IC2-NC-Pad8)*%
X223500000Y-141462500D03*
%TO.P,IC2,9,/CE*%
%TO.N,IO11*%
X223000000Y-141462500D03*
%TO.P,IC2,10,BATSNS*%
%TO.N,BAT+*%
X222500000Y-141462500D03*
%TO.P,IC2,11,TS*%
%TO.N,BATTS*%
X222000000Y-141462500D03*
%TO.P,IC2,12,/QON*%
%TO.N,nQON*%
X221500000Y-141462500D03*
D37*
%TO.P,IC2,13,BAT_1*%
%TO.N,BAT+*%
X220750000Y-142212500D03*
%TO.P,IC2,14,BAT_2*%
X220750000Y-142712500D03*
%TO.P,IC2,15,SYS_1*%
%TO.N,SYSTEM*%
X220750000Y-143212500D03*
%TO.P,IC2,16,SYS_2*%
X220750000Y-143712500D03*
%TO.P,IC2,17,PGND_1*%
%TO.N,BAT-*%
X220750000Y-144212500D03*
%TO.P,IC2,18,PGND_2*%
X220750000Y-144712500D03*
D38*
%TO.P,IC2,19,SW_1*%
%TO.N,/SW*%
X221500000Y-145462500D03*
%TO.P,IC2,20,SW_2*%
X222000000Y-145462500D03*
%TO.P,IC2,21,BTST*%
%TO.N,/BTST*%
X222500000Y-145462500D03*
%TO.P,IC2,22,REGN*%
%TO.N,REGN*%
X223000000Y-145462500D03*
%TO.P,IC2,23,PMID*%
%TO.N,Net-(IC2-PMID)*%
X223500000Y-145462500D03*
%TO.P,IC2,24,VBUS*%
%TO.N,VCC*%
X224000000Y-145462500D03*
D39*
%TO.P,IC2,25,EP*%
%TO.N,BAT-*%
X222750000Y-143462500D03*
%TD*%
D19*
%TO.P,JP1,1,A*%
%TO.N,Net-(JP1-A)*%
X232725000Y-132500000D03*
D20*
%TO.P,JP1,2,C*%
%TO.N,PSEL*%
X235265000Y-132500000D03*
%TO.P,JP1,3,B*%
%TO.N,BAT-*%
X237805000Y-132500000D03*
%TD*%
D19*
%TO.P,JP2,1,A*%
%TO.N,HPROUT*%
X214400000Y-106600000D03*
D20*
%TO.P,JP2,2,B*%
%TO.N,Net-(JP2-B)*%
X216940000Y-106600000D03*
%TD*%
D18*
%TO.P,R16,1*%
%TO.N,jack35_right*%
X224750000Y-107000000D03*
%TO.P,R16,2*%
%TO.N,Net-(JP2-B)*%
X224750000Y-109000000D03*
%TD*%
D40*
%TO.P,SW6,1,1*%
%TO.N,BAT-*%
X184000000Y-143000000D03*
X184000000Y-136500000D03*
%TO.P,SW6,2,2*%
%TO.N,mcu_enable*%
X188500000Y-143000000D03*
X188500000Y-136500000D03*
%TD*%
D18*
%TO.P,R25,1*%
%TO.N,+3.3VA*%
X207250000Y-125000000D03*
%TO.P,R25,2*%
%TO.N,Net-(U1-FB)*%
X207250000Y-127000000D03*
%TD*%
D13*
%TO.P,C13,1*%
%TO.N,+3.3VA*%
X201167500Y-102650000D03*
%TO.P,C13,2*%
%TO.N,GNDA*%
X199092500Y-102650000D03*
%TD*%
%TO.P,C27,1*%
%TO.N,+3.3V*%
X160575000Y-130500000D03*
%TO.P,C27,2*%
%TO.N,BAT-*%
X158500000Y-130500000D03*
%TD*%
D18*
%TO.P,R35,1*%
%TO.N,Net-(IC5-PG)*%
X200750000Y-148750000D03*
%TO.P,R35,2*%
%TO.N,SYSTEM*%
X200750000Y-150750000D03*
%TD*%
D12*
%TO.P,R13,1*%
%TO.N,REGN*%
X205000000Y-148750000D03*
%TO.P,R13,2*%
%TO.N,BATTS*%
X207000000Y-148750000D03*
%TD*%
%TO.P,R26,1*%
%TO.N,Net-(U1-FB)*%
X205010000Y-129250000D03*
%TO.P,R26,2*%
%TO.N,GNDA*%
X207010000Y-129250000D03*
%TD*%
%TO.P,R2,1*%
%TO.N,BAT-*%
X194000000Y-140750000D03*
%TO.P,R2,2*%
%TO.N,IO0*%
X196000000Y-140750000D03*
%TD*%
D19*
%TO.P,J3,1,Pin_1*%
%TO.N,VCC*%
X173000000Y-150750000D03*
D20*
%TO.P,J3,2,Pin_2*%
%TO.N,IO16*%
X170460000Y-150750000D03*
%TO.P,J3,3,Pin_3*%
%TO.N,IO17*%
X167920000Y-150750000D03*
%TO.P,J3,4,Pin_4*%
%TO.N,BAT-*%
X165380000Y-150750000D03*
%TD*%
D19*
%TO.P,J6,1,Pin_1*%
%TO.N,IO4*%
X159250000Y-137420000D03*
D20*
%TO.P,J6,2,Pin_2*%
%TO.N,IO5*%
X159250000Y-139960000D03*
%TO.P,J6,3,Pin_3*%
%TO.N,IO6*%
X159250000Y-142500000D03*
%TO.P,J6,4,Pin_4*%
%TO.N,IO7*%
X159250000Y-145040000D03*
%TD*%
D12*
%TO.P,R33,1*%
%TO.N,Net-(IC4-PG)*%
X189500000Y-120000000D03*
%TO.P,R33,2*%
%TO.N,SYSTEM*%
X191500000Y-120000000D03*
%TD*%
D22*
%TO.P,R24,1*%
%TO.N,+3.3V*%
X164750000Y-130500000D03*
%TO.P,R24,2*%
%TO.N,mcu_enable*%
X162750000Y-130500000D03*
%TD*%
D34*
%TO.P,IC5,1,EN*%
%TO.N,SYSTEM*%
X195500000Y-147100000D03*
%TO.P,IC5,2,GND*%
%TO.N,BAT-*%
X195500000Y-148050000D03*
%TO.P,IC5,3,SW*%
%TO.N,/3V3_SW*%
X195500000Y-149000000D03*
%TO.P,IC5,4,VIN*%
%TO.N,SYSTEM*%
X198000000Y-149000000D03*
%TO.P,IC5,5,PG*%
%TO.N,Net-(IC5-PG)*%
X198000000Y-148050000D03*
%TO.P,IC5,6,FB*%
%TO.N,Net-(IC5-FB)*%
X198000000Y-147100000D03*
%TD*%
D41*
%TO.P,D6,1,GND*%
%TO.N,BAT-*%
X168250000Y-145200000D03*
D42*
%TO.P,D6,2,I/O1*%
%TO.N,IO17*%
X168250000Y-146900000D03*
%TO.P,D6,3,I/O2*%
%TO.N,IO16*%
X170250000Y-146900000D03*
%TO.P,D6,4,VCC*%
%TO.N,VCC*%
X170250000Y-145000000D03*
%TD*%
D10*
%TO.P,R17,1*%
%TO.N,jack35_left*%
X224750000Y-113037500D03*
%TO.P,R17,2*%
%TO.N,Net-(JP4-B)*%
X224750000Y-111037500D03*
%TD*%
D23*
%TO.P,C1,1*%
%TO.N,+3.3V*%
X176462500Y-138500000D03*
%TO.P,C1,2*%
%TO.N,IO4*%
X178537500Y-138500000D03*
%TD*%
D13*
%TO.P,C29,1*%
%TO.N,mcu_enable*%
X187287500Y-146250000D03*
%TO.P,C29,2*%
%TO.N,BAT-*%
X185212500Y-146250000D03*
%TD*%
D23*
%TO.P,C2,1*%
%TO.N,+3.3V*%
X193962500Y-138250000D03*
%TO.P,C2,2*%
%TO.N,IO0*%
X196037500Y-138250000D03*
%TD*%
D43*
%TO.P,IC3,1,GND_1*%
%TO.N,BAT-*%
X159000000Y-127000000D03*
%TO.P,IC3,2,3V3*%
%TO.N,+3.3V*%
X160270000Y-127000000D03*
%TO.P,IC3,3,EN*%
%TO.N,mcu_enable*%
X161540000Y-127000000D03*
%TO.P,IC3,4,IO4*%
%TO.N,IO4*%
X162810000Y-127000000D03*
%TO.P,IC3,5,IO5*%
%TO.N,IO5*%
X164080000Y-127000000D03*
%TO.P,IC3,6,IO6*%
%TO.N,IO6*%
X165350000Y-127000000D03*
%TO.P,IC3,7,IO7*%
%TO.N,IO7*%
X166620000Y-127000000D03*
%TO.P,IC3,8,IO0*%
%TO.N,IO0*%
X167890000Y-127000000D03*
%TO.P,IC3,9,IO1*%
%TO.N,IO1*%
X169160000Y-127000000D03*
%TO.P,IC3,10,IO8*%
%TO.N,IO8*%
X170430000Y-127000000D03*
%TO.P,IC3,11,IO10*%
%TO.N,IO10*%
X171700000Y-127000000D03*
%TO.P,IC3,12,IO11*%
%TO.N,IO11*%
X172970000Y-127000000D03*
%TO.P,IC3,13,IO12*%
%TO.N,USB_DN*%
X174240000Y-127000000D03*
%TO.P,IC3,14,IO13*%
%TO.N,USB_DP*%
X175510000Y-127000000D03*
%TO.P,IC3,15,IO9*%
%TO.N,IO9*%
X175510000Y-109500000D03*
%TO.P,IC3,16,IO18*%
%TO.N,IO18*%
X174240000Y-109500000D03*
%TO.P,IC3,17,IO19*%
%TO.N,IO19*%
X172970000Y-109500000D03*
%TO.P,IC3,18,IO20*%
%TO.N,IO20*%
X171700000Y-109500000D03*
%TO.P,IC3,19,IO21*%
%TO.N,IO21*%
X170430000Y-109500000D03*
%TO.P,IC3,20,IO22*%
%TO.N,IO22*%
X169160000Y-109500000D03*
%TO.P,IC3,21,IO23*%
%TO.N,IO23*%
X167890000Y-109500000D03*
%TO.P,IC3,22,NC*%
%TO.N,unconnected-(IC3-NC-Pad22)*%
X166620000Y-109500000D03*
%TO.P,IC3,23,IO15*%
%TO.N,IO15*%
X165350000Y-109500000D03*
%TO.P,IC3,24,RXD0*%
%TO.N,IO17*%
X164080000Y-109500000D03*
%TO.P,IC3,25,TXD0*%
%TO.N,IO16*%
X162810000Y-109500000D03*
%TO.P,IC3,26,IO3*%
%TO.N,IO3*%
X161540000Y-109500000D03*
%TO.P,IC3,27,IO2*%
%TO.N,IO2*%
X160270000Y-109500000D03*
%TO.P,IC3,28,GND_2*%
%TO.N,BAT-*%
X159000000Y-109500000D03*
D44*
%TO.P,IC3,29,GND_3*%
X164720000Y-119755000D03*
%TO.P,IC3,30,GND_4*%
X163470000Y-121005000D03*
%TO.P,IC3,31,GND_5*%
X164720000Y-121005000D03*
%TO.P,IC3,32,GND_6*%
X165970000Y-121005000D03*
%TO.P,IC3,33,GND_7*%
X165970000Y-119755000D03*
%TO.P,IC3,34,GND_8*%
X165970000Y-118505000D03*
%TO.P,IC3,35,GND_9*%
X164720000Y-118505000D03*
%TO.P,IC3,36,GND_10*%
X163470000Y-118505000D03*
%TO.P,IC3,37,GND_11*%
X163470000Y-119755000D03*
%TD*%
D17*
%TO.P,C22,1*%
%TO.N,BAT-*%
X226500000Y-150037500D03*
%TO.P,C22,2*%
%TO.N,Net-(IC2-PMID)*%
X226500000Y-147962500D03*
%TD*%
D18*
%TO.P,R29,1*%
%TO.N,IO11*%
X173750000Y-130750000D03*
%TO.P,R29,2*%
%TO.N,+3.3V*%
X173750000Y-132750000D03*
%TD*%
D23*
%TO.P,C36,1*%
%TO.N,+1V8*%
X187212500Y-124750000D03*
%TO.P,C36,2*%
%TO.N,BAT-*%
X189287500Y-124750000D03*
%TD*%
D17*
%TO.P,C23,1*%
%TO.N,/BTST*%
X221000000Y-150037500D03*
%TO.P,C23,2*%
%TO.N,/SW*%
X221000000Y-147962500D03*
%TD*%
D18*
%TO.P,R21,1*%
%TO.N,IO8*%
X168750000Y-130750000D03*
%TO.P,R21,2*%
%TO.N,+3.3V*%
X168750000Y-132750000D03*
%TD*%
D22*
%TO.P,R18,1*%
%TO.N,IO9*%
X173250000Y-105750000D03*
%TO.P,R18,2*%
%TO.N,+3.3V*%
X171250000Y-105750000D03*
%TD*%
D18*
%TO.P,R32,1*%
%TO.N,IO10*%
X171250000Y-130750000D03*
%TO.P,R32,2*%
%TO.N,+3.3V*%
X171250000Y-132750000D03*
%TD*%
D12*
%TO.P,R34,1*%
%TO.N,IO2*%
X167500000Y-105750000D03*
%TO.P,R34,2*%
%TO.N,+3.3V*%
X169500000Y-105750000D03*
%TD*%
D24*
%TO.P,C28,1*%
%TO.N,SYSTEM*%
X200000000Y-124462500D03*
%TO.P,C28,2*%
%TO.N,BAT-*%
X200000000Y-126537500D03*
%TD*%
D13*
%TO.P,C10,1*%
%TO.N,BAT+*%
X214537500Y-148000000D03*
%TO.P,C10,2*%
%TO.N,BAT-*%
X212462500Y-148000000D03*
%TD*%
D17*
%TO.P,C5,1*%
%TO.N,+3.3V*%
X189630000Y-114287500D03*
%TO.P,C5,2*%
%TO.N,BAT-*%
X189630000Y-112212500D03*
%TD*%
D22*
%TO.P,R20,1*%
%TO.N,IO6*%
X166000000Y-136500000D03*
%TO.P,R20,2*%
%TO.N,+3.3V*%
X164000000Y-136500000D03*
%TD*%
D45*
%TO.P,J1,1,SLEEVE*%
%TO.N,GNDA*%
X237775000Y-126500000D03*
D46*
%TO.P,J1,2,TIP_1*%
%TO.N,jack25_left*%
X232875000Y-124650000D03*
%TO.P,J1,3,TIP_2*%
X232875000Y-128350000D03*
%TO.P,J1,4,RING*%
%TO.N,jack25_right*%
X230875000Y-126500000D03*
%TD*%
D47*
%TO.P,U1,1,IN*%
%TO.N,SYSTEM*%
X202500000Y-125100000D03*
%TO.P,U1,2,GND*%
%TO.N,BAT-*%
X202500000Y-126050000D03*
%TO.P,U1,3,EN*%
%TO.N,SYSTEM*%
X202500000Y-127000000D03*
%TO.P,U1,4,FB*%
%TO.N,Net-(U1-FB)*%
X205000000Y-127000000D03*
%TO.P,U1,5,OUT*%
%TO.N,+3.3VA*%
X205000000Y-125100000D03*
%TD*%
D24*
%TO.P,C15,1*%
%TO.N,+3.3VA*%
X204130000Y-113612500D03*
%TO.P,C15,2*%
%TO.N,GNDA*%
X204130000Y-115687500D03*
%TD*%
D12*
%TO.P,R12,1*%
%TO.N,REGN*%
X228250000Y-132750000D03*
%TO.P,R12,2*%
%TO.N,Net-(JP1-A)*%
X230250000Y-132750000D03*
%TD*%
D18*
%TO.P,R22,1*%
%TO.N,Net-(SW5-A)*%
X221000000Y-117000000D03*
%TO.P,R22,2*%
%TO.N,+3.3V*%
X221000000Y-119000000D03*
%TD*%
D23*
%TO.P,C31,1*%
%TO.N,+3.3VA*%
X205212500Y-122750000D03*
%TO.P,C31,2*%
%TO.N,GNDA*%
X207287500Y-122750000D03*
%TD*%
D13*
%TO.P,C24,1*%
%TO.N,+3.3V*%
X160537500Y-133250000D03*
%TO.P,C24,2*%
%TO.N,BAT-*%
X158462500Y-133250000D03*
%TD*%
D19*
%TO.P,J9,1,Pin_1*%
%TO.N,lcd_blk*%
X192410000Y-103250000D03*
D20*
%TO.P,J9,2,Pin_2*%
%TO.N,BAT-*%
X189870000Y-103250000D03*
%TO.P,J9,3,Pin_3*%
%TO.N,IO17*%
X187330000Y-103250000D03*
%TO.P,J9,4,Pin_4*%
%TO.N,IO15*%
X184790000Y-103250000D03*
%TO.P,J9,5,Pin_5*%
%TO.N,IO16*%
X182250000Y-103250000D03*
%TO.P,J9,6,Pin_6*%
%TO.N,IO3*%
X179710000Y-103250000D03*
%TO.P,J9,7,Pin_7*%
%TO.N,BAT-*%
X177170000Y-103250000D03*
%TO.P,J9,8,Pin_8*%
%TO.N,lcd_blk*%
X174630000Y-103250000D03*
%TD*%
D40*
%TO.P,SW1,1,1*%
%TO.N,IO4*%
X179750000Y-143000000D03*
X179750000Y-136500000D03*
%TO.P,SW1,2,2*%
%TO.N,+3.3V*%
X175250000Y-143000000D03*
X175250000Y-136500000D03*
%TD*%
D48*
%TO.P,SW5,1,A*%
%TO.N,Net-(SW5-A)*%
X224000000Y-116750000D03*
%TO.P,SW5,2,B*%
%TO.N,IO1*%
X224000000Y-119750000D03*
%TO.P,SW5,3,C*%
%TO.N,BAT-*%
X224000000Y-122750000D03*
%TD*%
D19*
%TO.P,J5,1,Pin_1*%
%TO.N,BATTS*%
X209725000Y-150800000D03*
D20*
%TO.P,J5,2,Pin_2*%
%TO.N,BAT-*%
X212265000Y-150800000D03*
%TO.P,J5,3,Pin_3*%
%TO.N,BAT+*%
X214805000Y-150800000D03*
%TD*%
D19*
%TO.P,J7,1,Pin_1*%
%TO.N,BAT-*%
X165000000Y-102460000D03*
D20*
%TO.P,J7,2,Pin_2*%
%TO.N,nQON*%
X165000000Y-105000000D03*
%TD*%
D40*
%TO.P,SW3,1,1*%
%TO.N,IO5*%
X214750000Y-143000000D03*
X214750000Y-136500000D03*
%TO.P,SW3,2,2*%
%TO.N,+3.3V*%
X210250000Y-143000000D03*
X210250000Y-136500000D03*
%TD*%
%TO.P,SW2,1,1*%
%TO.N,IO0*%
X197250000Y-143000000D03*
X197250000Y-136500000D03*
%TO.P,SW2,2,2*%
%TO.N,+3.3V*%
X192750000Y-143000000D03*
X192750000Y-136500000D03*
%TD*%
D49*
%TO.N,IO8*%
X200875000Y-136375000D03*
X200500000Y-119750000D03*
X170430000Y-127000000D03*
%TO.N,IO9*%
X173000000Y-105750000D03*
X199250000Y-116750000D03*
X205040000Y-135100000D03*
X175500000Y-114750000D03*
X175510000Y-109500000D03*
D50*
%TO.N,IO11*%
X220750000Y-139200000D03*
D49*
X172970000Y-127000000D03*
D50*
%TO.N,IO10*%
X219750000Y-138500000D03*
D49*
X171700000Y-127000000D03*
%TO.N,IO4*%
X162749365Y-126939365D03*
X166098959Y-123098959D03*
%TO.N,IO5*%
X167648959Y-122648959D03*
X163985406Y-126905406D03*
%TO.N,IO0*%
X167890000Y-127000000D03*
%TO.N,IO7*%
X193750000Y-116000000D03*
X176745066Y-118772852D03*
D50*
X225750000Y-141750000D03*
D49*
%TO.N,IO1*%
X200625000Y-118375000D03*
%TO.N,IO6*%
X195000000Y-116000000D03*
D50*
X225250000Y-140750000D03*
D49*
X176998335Y-117599882D03*
%TO.N,IO17*%
X167000000Y-143250000D03*
X164080000Y-109500000D03*
%TO.N,IO16*%
X166000000Y-142000000D03*
X162810000Y-109500000D03*
%TO.N,IO15*%
X165350000Y-109500000D03*
%TO.N,mcu_enable*%
X168500000Y-139250000D03*
X165000000Y-135150000D03*
%TO.N,GNDA*%
X199092500Y-103500000D03*
D50*
X203200000Y-111150000D03*
D49*
X210750000Y-129400000D03*
X204000000Y-115750000D03*
X208500000Y-123750000D03*
X199092500Y-106150000D03*
X207630000Y-115687500D03*
X207750000Y-106500000D03*
X204130000Y-106575000D03*
D50*
X199800000Y-111200000D03*
D49*
%TO.N,+3.3V*%
X221000000Y-119000000D03*
X160500000Y-133250000D03*
X171148959Y-132851041D03*
X164750000Y-130500000D03*
X190925000Y-149500000D03*
X168951041Y-132548959D03*
X193130000Y-114287500D03*
X170250000Y-104000000D03*
X160537500Y-130500000D03*
X170250000Y-136500000D03*
X189750000Y-114250000D03*
%TO.N,BAT-*%
X158500000Y-130500000D03*
X212750000Y-129400000D03*
X219000000Y-145287500D03*
X191000000Y-146250000D03*
X168225000Y-101750000D03*
X211500000Y-140750000D03*
X228250000Y-136000000D03*
X226500000Y-150037500D03*
X189500000Y-112250000D03*
X185212500Y-146250000D03*
X212500000Y-148000000D03*
X189287500Y-124750000D03*
X176500000Y-140750000D03*
X196750000Y-122750000D03*
X205020000Y-144000000D03*
X192212500Y-129250000D03*
X200000000Y-126300000D03*
X194250000Y-151250000D03*
X164850000Y-119755000D03*
X194925000Y-103075000D03*
X202500000Y-144135000D03*
X222750000Y-143500000D03*
X193130000Y-112212500D03*
X164787500Y-133250000D03*
X158500000Y-133250000D03*
X168100000Y-145200000D03*
X194000000Y-140750000D03*
X223750000Y-150000000D03*
X228500000Y-141750000D03*
X194925000Y-106150000D03*
X159000000Y-109500000D03*
X205000000Y-150750000D03*
%TO.N,+1V8*%
X187250000Y-127250000D03*
X197000000Y-103075000D03*
X187212500Y-124750000D03*
X194250000Y-121000000D03*
D50*
X196000000Y-108750000D03*
D49*
X197000000Y-106150000D03*
%TO.N,REGN*%
X228250000Y-132750000D03*
X223750000Y-147962500D03*
X205000000Y-148750000D03*
%TO.N,VCC*%
X230250000Y-142750000D03*
X225001041Y-137001041D03*
X170400000Y-145000000D03*
X231250000Y-137500000D03*
%TO.N,SYSTEM*%
X191500000Y-121250000D03*
X216600000Y-145500000D03*
X198000000Y-149400000D03*
X194287500Y-129250000D03*
X200000000Y-124500000D03*
D50*
%TO.N,STAT*%
X226650000Y-141000000D03*
D49*
%TO.N,Net-(D8-A)*%
X186421933Y-122500000D03*
%TO.N,+3.3VA*%
X201167500Y-103500000D03*
X207500000Y-108750000D03*
X207250000Y-125000000D03*
X204130000Y-108650000D03*
X204000000Y-113750000D03*
X201167500Y-106150000D03*
X207630000Y-113612500D03*
D50*
%TO.N,BATTS*%
X220250000Y-140750000D03*
D49*
%TO.N,Net-(IC2-PMID_GOOD)*%
X229000000Y-148000000D03*
D50*
X226500000Y-143750000D03*
%TO.N,PSEL*%
X225750000Y-144500000D03*
%TO.N,nQON*%
X218750000Y-141250000D03*
D49*
%TO.N,Net-(D1-A)*%
X224750000Y-134750000D03*
%TD*%
D51*
%TO.N,Net-(SW5-A)*%
X223750000Y-117000000D02*
X224000000Y-116750000D01*
X221000000Y-117000000D02*
X223750000Y-117000000D01*
D52*
%TO.N,Net-(J2-CC1)*%
X233923120Y-140890000D02*
X233245000Y-140890000D01*
X235220000Y-145030000D02*
X235220000Y-142186880D01*
X235220000Y-142186880D02*
X233923120Y-140890000D01*
X233750000Y-146500000D02*
X235220000Y-145030000D01*
%TO.N,Net-(J2-CC2)*%
X231780000Y-134470000D02*
X230250000Y-136000000D01*
X234722082Y-134470000D02*
X231780000Y-134470000D01*
X235500000Y-136421357D02*
X235500000Y-135247918D01*
X235500000Y-135247918D02*
X234722082Y-134470000D01*
X233245000Y-137890000D02*
X234031357Y-137890000D01*
X234031357Y-137890000D02*
X235500000Y-136421357D01*
%TO.N,IO8*%
X200875000Y-136375000D02*
X201225000Y-136375000D01*
X173365000Y-123015000D02*
X181442107Y-123015000D01*
X168750000Y-130750000D02*
X170430000Y-129070000D01*
X186207106Y-118250000D02*
X198750000Y-118250000D01*
X198750000Y-118250000D02*
X200250000Y-119750000D01*
X181735000Y-122722106D02*
X186207106Y-118250000D01*
X181735000Y-122722107D02*
X181735000Y-122722106D01*
X170430000Y-125950000D02*
X173365000Y-123015000D01*
X200250000Y-119750000D02*
X200500000Y-119750000D01*
X170430000Y-129070000D02*
X170430000Y-127000000D01*
X170430000Y-127000000D02*
X170430000Y-125950000D01*
X201225000Y-136375000D02*
X202500000Y-135100000D01*
X181442107Y-123015000D02*
X181735000Y-122722107D01*
%TO.N,IO9*%
X175800267Y-114750000D02*
X178300267Y-117250000D01*
X175500000Y-114750000D02*
X175800267Y-114750000D01*
X198750000Y-117250000D02*
X199250000Y-116750000D01*
X178300267Y-117250000D02*
X189000000Y-117250000D01*
X189000000Y-117250000D02*
X198750000Y-117250000D01*
%TO.N,IO2*%
X162470000Y-106250000D02*
X167000000Y-106250000D01*
X169375000Y-104080456D02*
X169375000Y-102965000D01*
X167500000Y-105750000D02*
X167705456Y-105750000D01*
X167705456Y-105750000D02*
X169375000Y-104080456D01*
X160270000Y-108450000D02*
X162470000Y-106250000D01*
X160270000Y-109500000D02*
X160270000Y-108450000D01*
X169375000Y-102965000D02*
X170300000Y-102040000D01*
X167000000Y-106250000D02*
X167500000Y-105750000D01*
D53*
%TO.N,IO11*%
X223000000Y-140406498D02*
X221793502Y-139200000D01*
X223000000Y-141462500D02*
X223000000Y-140406498D01*
D52*
X173750000Y-130750000D02*
X172970000Y-129970000D01*
D53*
X220750000Y-139200000D02*
X220700000Y-139200000D01*
D52*
X172970000Y-129970000D02*
X172970000Y-127000000D01*
D53*
X221793502Y-139200000D02*
X220750000Y-139200000D01*
%TO.N,IO10*%
X219750000Y-138500000D02*
X221659188Y-138500000D01*
X224000000Y-140840812D02*
X224000000Y-141462500D01*
X221659188Y-138500000D02*
X224000000Y-140840812D01*
D52*
X171250000Y-130750000D02*
X171750000Y-130250000D01*
X171750000Y-130250000D02*
X171750000Y-127050000D01*
X171750000Y-127050000D02*
X171700000Y-127000000D01*
%TO.N,IO20*%
X177664214Y-111750000D02*
X178971320Y-110442893D01*
X171700000Y-109500000D02*
X171700000Y-110550000D01*
X171700000Y-110550000D02*
X172900000Y-111750000D01*
X194750000Y-109500000D02*
X195400000Y-110150000D01*
X178971320Y-110442893D02*
X179914213Y-109500000D01*
X195400000Y-110150000D02*
X196230000Y-110150000D01*
X172900000Y-111750000D02*
X177664214Y-111750000D01*
X179914213Y-109500000D02*
X194750000Y-109500000D01*
%TO.N,IO4*%
X178537500Y-141787500D02*
X178537500Y-138500000D01*
X179750000Y-143000000D02*
X178537500Y-141787500D01*
X162749365Y-126448553D02*
X166098959Y-123098959D01*
X179750000Y-136500000D02*
X179750000Y-137287500D01*
X162749365Y-126939365D02*
X162749365Y-126448553D01*
X162749365Y-126939365D02*
X162810000Y-127000000D01*
X179750000Y-137287500D02*
X178537500Y-138500000D01*
%TO.N,IO5*%
X163985406Y-126905406D02*
X164080000Y-127000000D01*
X213500000Y-138287500D02*
X213537500Y-138250000D01*
X213500000Y-140750000D02*
X213500000Y-138287500D01*
X163985406Y-126414594D02*
X163985406Y-126905406D01*
X213500000Y-140750000D02*
X213500000Y-141750000D01*
X213500000Y-141750000D02*
X214750000Y-143000000D01*
X213537500Y-138250000D02*
X213537500Y-137712500D01*
X167648959Y-122751041D02*
X163985406Y-126414594D01*
X213537500Y-137712500D02*
X214750000Y-136500000D01*
X167648959Y-122648959D02*
X167648959Y-122751041D01*
%TO.N,IO22*%
X178078427Y-112750000D02*
X180328427Y-110500000D01*
X194000000Y-110500000D02*
X194650000Y-111150000D01*
X180328427Y-110500000D02*
X194000000Y-110500000D01*
X169160000Y-109500000D02*
X169160000Y-109987106D01*
X171922894Y-112750000D02*
X178078427Y-112750000D01*
X194650000Y-111150000D02*
X196230000Y-111150000D01*
X169160000Y-109987106D02*
X171922894Y-112750000D01*
%TO.N,IO0*%
X196000000Y-140750000D02*
X196000000Y-141750000D01*
X197250000Y-136500000D02*
X197250000Y-137037500D01*
X196037500Y-140712500D02*
X196000000Y-140750000D01*
X196037500Y-138250000D02*
X196037500Y-140712500D01*
X197250000Y-137037500D02*
X196037500Y-138250000D01*
X196000000Y-141750000D02*
X197250000Y-143000000D01*
%TO.N,IO21*%
X196230000Y-110650000D02*
X194857106Y-110650000D01*
X177871321Y-112250000D02*
X172130000Y-112250000D01*
X194857106Y-110650000D02*
X194207106Y-110000000D01*
X194207106Y-110000000D02*
X180121321Y-110000000D01*
X180121321Y-110000000D02*
X177871321Y-112250000D01*
X170430000Y-110550000D02*
X170430000Y-109500000D01*
X172130000Y-112250000D02*
X170430000Y-110550000D01*
%TO.N,IO19*%
X172970000Y-110470000D02*
X173750000Y-111250000D01*
X173750000Y-111250000D02*
X177457107Y-111250000D01*
X177457107Y-111250000D02*
X179707107Y-109000000D01*
X195650000Y-109650000D02*
X196230000Y-109650000D01*
X195000000Y-109000000D02*
X195650000Y-109650000D01*
X179707107Y-109000000D02*
X195000000Y-109000000D01*
X172970000Y-109500000D02*
X172970000Y-110470000D01*
%TO.N,IO7*%
X166620000Y-126465000D02*
X174312148Y-118772852D01*
X166620000Y-127000000D02*
X166620000Y-126465000D01*
X166620000Y-134870000D02*
X166620000Y-127000000D01*
X168250000Y-136500000D02*
X168250000Y-136750000D01*
X174312148Y-118772852D02*
X176745066Y-118772852D01*
X167790000Y-136500000D02*
X168250000Y-136500000D01*
X225450000Y-142712500D02*
X225750000Y-142412500D01*
X196230000Y-113520000D02*
X196230000Y-113150000D01*
X159250000Y-145040000D02*
X167790000Y-136500000D01*
X224750000Y-142712500D02*
X225450000Y-142712500D01*
X168250000Y-136500000D02*
X166620000Y-134870000D01*
X225750000Y-142412500D02*
X225750000Y-141750000D01*
X193750000Y-116000000D02*
X196230000Y-113520000D01*
%TO.N,IO1*%
X173015000Y-122515000D02*
X169160000Y-126370000D01*
X186000000Y-117750000D02*
X181235000Y-122515000D01*
X200625000Y-118375000D02*
X200000000Y-117750000D01*
D51*
X221000000Y-121212500D02*
X222537500Y-121212500D01*
D52*
X181235000Y-122515000D02*
X173015000Y-122515000D01*
X200000000Y-117750000D02*
X186000000Y-117750000D01*
X169160000Y-126370000D02*
X169160000Y-127000000D01*
D51*
X222537500Y-121212500D02*
X224000000Y-119750000D01*
D52*
%TO.N,IO18*%
X174240000Y-110550000D02*
X174440000Y-110750000D01*
X174440000Y-110750000D02*
X177250000Y-110750000D01*
X177250000Y-110750000D02*
X180250000Y-107750000D01*
X197000000Y-107750000D02*
X197430000Y-108180000D01*
X180250000Y-107750000D02*
X197000000Y-107750000D01*
X197430000Y-108180000D02*
X197430000Y-108950000D01*
X174240000Y-109500000D02*
X174240000Y-110550000D01*
%TO.N,jack35_left*%
X226986000Y-111736000D02*
X226624000Y-111736000D01*
X222000000Y-113075000D02*
X226425000Y-113075000D01*
X227876000Y-110416000D02*
X227250000Y-110416000D01*
X226986000Y-110416000D02*
X226624000Y-110416000D01*
X226425000Y-113075000D02*
X227250000Y-112250000D01*
X227250000Y-109360000D02*
X227250000Y-109000000D01*
X226360000Y-110152000D02*
X226360000Y-110020000D01*
X227250000Y-110416000D02*
X226986000Y-110416000D01*
X226624000Y-109756000D02*
X226986000Y-109756000D01*
X228140000Y-110812000D02*
X228140000Y-110680000D01*
X228000000Y-108250000D02*
X229000000Y-108250000D01*
X226624000Y-111076000D02*
X226986000Y-111076000D01*
X230550000Y-109800000D02*
X230550000Y-110750000D01*
X227250000Y-112250000D02*
X227250000Y-112000000D01*
X229000000Y-108250000D02*
X230550000Y-109800000D01*
X227250000Y-109000000D02*
X228000000Y-108250000D01*
X227250000Y-109492000D02*
X227250000Y-109360000D01*
X227250000Y-111076000D02*
X227876000Y-111076000D01*
X226986000Y-111076000D02*
X227250000Y-111076000D01*
X226360000Y-111472000D02*
X226360000Y-111340000D01*
X226986000Y-109756000D02*
G75*
G03*
X227250000Y-109492000I0J264000D01*
G01*
X227876000Y-111076000D02*
G75*
G03*
X228140000Y-110812000I0J264000D01*
G01*
X226360000Y-110020000D02*
G75*
G02*
X226624000Y-109756000I264000J0D01*
G01*
X228140000Y-110680000D02*
G75*
G03*
X227876000Y-110416000I-264000J0D01*
G01*
X226624000Y-111736000D02*
G75*
G02*
X226360000Y-111472000I0J264000D01*
G01*
X227250000Y-112000000D02*
G75*
G03*
X226986000Y-111736000I-264000J0D01*
G01*
X226624000Y-110416000D02*
G75*
G02*
X226360000Y-110152000I0J264000D01*
G01*
X226360000Y-111340000D02*
G75*
G02*
X226624000Y-111076000I264000J0D01*
G01*
%TO.N,jack35_right*%
X229500395Y-106925000D02*
X234450000Y-111874605D01*
X234450000Y-111874605D02*
X234450000Y-115750000D01*
X222000000Y-106925000D02*
X229500395Y-106925000D01*
%TO.N,IO6*%
X224750000Y-141250000D02*
X225250000Y-140750000D01*
X196900000Y-113850000D02*
X195000000Y-115750000D01*
X165350000Y-126250000D02*
X165350000Y-127000000D01*
X159250000Y-142500000D02*
X160000000Y-142500000D01*
X176998335Y-117599882D02*
X174000118Y-117599882D01*
X166000000Y-136500000D02*
X166000000Y-128100000D01*
X196930000Y-113850000D02*
X196900000Y-113850000D01*
X166000000Y-128100000D02*
X165350000Y-127450000D01*
X166000000Y-137000000D02*
X166000000Y-136500000D01*
X165350000Y-127450000D02*
X165350000Y-127000000D01*
X174000118Y-117599882D02*
X165350000Y-126250000D01*
X160000000Y-142500000D02*
X166000000Y-136500000D01*
X224750000Y-142212500D02*
X224750000Y-141250000D01*
%TO.N,IO23*%
X196230000Y-111650000D02*
X194442894Y-111650000D01*
X193792894Y-111000000D02*
X180535533Y-111000000D01*
X194442894Y-111650000D02*
X193792894Y-111000000D01*
X180535533Y-111000000D02*
X178285533Y-113250000D01*
X178285533Y-113250000D02*
X171010000Y-113250000D01*
X171010000Y-113250000D02*
X167890000Y-110130000D01*
X167890000Y-110130000D02*
X167890000Y-109500000D01*
%TO.N,IO17*%
X178207107Y-108000000D02*
X179707107Y-106500000D01*
X167920000Y-147230000D02*
X168250000Y-146900000D01*
X164080000Y-108450000D02*
X164530000Y-108000000D01*
X179707107Y-106500000D02*
X184080000Y-106500000D01*
X164530000Y-108000000D02*
X178207107Y-108000000D01*
X168250000Y-146900000D02*
X168950000Y-146200000D01*
X167920000Y-150750000D02*
X167920000Y-147230000D01*
X168950000Y-144200000D02*
X168000000Y-143250000D01*
X164080000Y-109500000D02*
X164080000Y-108450000D01*
X168950000Y-146200000D02*
X168950000Y-144200000D01*
X184080000Y-106500000D02*
X187330000Y-103250000D01*
X168000000Y-143250000D02*
X167000000Y-143250000D01*
%TO.N,IO16*%
X164180000Y-107500000D02*
X178000000Y-107500000D01*
X162810000Y-108870000D02*
X164180000Y-107500000D01*
X170460000Y-147110000D02*
X170250000Y-146900000D01*
X162810000Y-109500000D02*
X162810000Y-108870000D01*
X170460000Y-150750000D02*
X170460000Y-147110000D01*
X167457106Y-142000000D02*
X166000000Y-142000000D01*
X178000000Y-107500000D02*
X182250000Y-103250000D01*
X170250000Y-146900000D02*
X169550000Y-146200000D01*
X169550000Y-146200000D02*
X169550000Y-144092894D01*
X169550000Y-144092894D02*
X167457106Y-142000000D01*
D54*
%TO.N,USB_DN*%
X174240000Y-127490000D02*
X176790000Y-130040000D01*
D52*
X232566880Y-140390000D02*
X232320000Y-140143120D01*
X232320000Y-139636880D02*
X232566880Y-139390000D01*
X232566880Y-139390000D02*
X233245000Y-139390000D01*
D54*
X218491716Y-133520000D02*
X224731716Y-139760000D01*
D52*
X230260000Y-140390000D02*
X233245000Y-140390000D01*
X232320000Y-140143120D02*
X232320000Y-139636880D01*
D54*
X187006324Y-133520000D02*
X218491716Y-133520000D01*
X229410000Y-139760000D02*
X230150000Y-140500000D01*
X224731716Y-139760000D02*
X229410000Y-139760000D01*
X174240000Y-127000000D02*
X174240000Y-127490000D01*
D52*
X233245000Y-140390000D02*
X232566880Y-140390000D01*
X230150000Y-140500000D02*
X230260000Y-140390000D01*
D54*
X183526324Y-130040000D02*
X187006324Y-133520000D01*
X176790000Y-130040000D02*
X183526324Y-130040000D01*
%TO.N,USB_DP*%
X224955392Y-139220000D02*
X229430000Y-139220000D01*
X181592796Y-129500000D02*
X181730796Y-129500000D01*
D52*
X232500000Y-138890000D02*
X232360000Y-138750000D01*
D54*
X183750000Y-129500000D02*
X187230000Y-132980000D01*
D52*
X233245000Y-138890000D02*
X233923120Y-138890000D01*
D54*
X181316796Y-128776000D02*
X181316796Y-129224000D01*
X175510000Y-127010000D02*
X178000000Y-129500000D01*
D52*
X233923120Y-138890000D02*
X234250000Y-139216880D01*
X175510000Y-127000000D02*
X175510000Y-127010000D01*
D54*
X181730796Y-129500000D02*
X181743702Y-129500000D01*
X180626796Y-129224000D02*
X180626796Y-128776000D01*
X178000000Y-129500000D02*
X180350796Y-129500000D01*
X187230000Y-132980000D02*
X218715392Y-132980000D01*
D52*
X233923120Y-139890000D02*
X233245000Y-139890000D01*
D54*
X181743702Y-129500000D02*
X183750000Y-129500000D01*
D52*
X234250000Y-139563120D02*
X233923120Y-139890000D01*
X232360000Y-138750000D02*
X230400000Y-138750000D01*
D54*
X229430000Y-139220000D02*
X230150000Y-138500000D01*
X180902796Y-128500000D02*
X181040796Y-128500000D01*
D52*
X234250000Y-139216880D02*
X234250000Y-139563120D01*
D54*
X218715392Y-132980000D02*
X224955392Y-139220000D01*
D52*
X230400000Y-138750000D02*
X230150000Y-138500000D01*
X233245000Y-138890000D02*
X232500000Y-138890000D01*
D54*
X181040796Y-128500000D02*
G75*
G02*
X181316800Y-128776000I4J-276000D01*
G01*
X181316796Y-129224000D02*
G75*
G03*
X181592796Y-129500004I276004J0D01*
G01*
X180350796Y-129500000D02*
G75*
G03*
X180626800Y-129224000I4J276000D01*
G01*
X180626796Y-128776000D02*
G75*
G02*
X180902796Y-128499996I276004J0D01*
G01*
D52*
%TO.N,mcu_enable*%
X187287500Y-144212500D02*
X188500000Y-143000000D01*
X187287500Y-146250000D02*
X187287500Y-144212500D01*
X162712500Y-130537500D02*
X162750000Y-130500000D01*
X188500000Y-136500000D02*
X188500000Y-143000000D01*
X162712500Y-133250000D02*
X163100000Y-133250000D01*
X161540000Y-129290000D02*
X162750000Y-130500000D01*
X186212500Y-147325000D02*
X176575000Y-147325000D01*
X161540000Y-127000000D02*
X161540000Y-129290000D01*
X163100000Y-133250000D02*
X165000000Y-135150000D01*
X162712500Y-133250000D02*
X162712500Y-130537500D01*
X187287500Y-146250000D02*
X186212500Y-147325000D01*
X176575000Y-147325000D02*
X168500000Y-139250000D01*
D51*
%TO.N,GNDA*%
X199092500Y-107092500D02*
X199092500Y-102650000D01*
X203687500Y-115687500D02*
X201250000Y-113250000D01*
X237350000Y-110750000D02*
X237927000Y-111327000D01*
X208400000Y-123862500D02*
X208400000Y-127860000D01*
D52*
X199930000Y-108950000D02*
X199930000Y-107930000D01*
D51*
X199092500Y-107092500D02*
X199500000Y-107500000D01*
D52*
X201130000Y-111150000D02*
X203200000Y-111150000D01*
D51*
X204130000Y-115687500D02*
X207630000Y-115687500D01*
X207287500Y-122750000D02*
X208400000Y-123862500D01*
X199092500Y-106150000D02*
X199092500Y-107092500D01*
X209500000Y-129250000D02*
X210500000Y-129250000D01*
X208400000Y-127860000D02*
X207010000Y-129250000D01*
X209650000Y-129400000D02*
X209500000Y-129250000D01*
X207010000Y-129250000D02*
X209500000Y-129250000D01*
D52*
X199930000Y-107930000D02*
X199500000Y-107500000D01*
D51*
X210750000Y-129400000D02*
X209650000Y-129400000D01*
X237927000Y-111327000D02*
X237927000Y-126348000D01*
X210500000Y-129250000D02*
X210750000Y-129500000D01*
X201250000Y-113250000D02*
X201130000Y-113250000D01*
X237927000Y-126348000D02*
X237775000Y-126500000D01*
X204130000Y-106575000D02*
X207630000Y-106575000D01*
X204130000Y-115687500D02*
X203687500Y-115687500D01*
%TO.N,+3.3V*%
X171250000Y-105700000D02*
X170300000Y-104750000D01*
X160575000Y-130500000D02*
X160250000Y-130175000D01*
D52*
X196230000Y-112650000D02*
X194767500Y-112650000D01*
D51*
X169500000Y-105750000D02*
X171250000Y-105750000D01*
X176000000Y-138500000D02*
X175250000Y-137750000D01*
X190925000Y-151250000D02*
X190925000Y-148762500D01*
X171250000Y-105750000D02*
X171250000Y-105700000D01*
X170300000Y-104750000D02*
X170300000Y-103960000D01*
X207000000Y-147000000D02*
X207250000Y-147000000D01*
X160537500Y-133250000D02*
X160537500Y-130537500D01*
X190925000Y-148762500D02*
X190937500Y-148750000D01*
X160500000Y-133212500D02*
X160537500Y-133250000D01*
X175250000Y-137750000D02*
X175250000Y-136500000D01*
X207000000Y-146250000D02*
X210250000Y-143000000D01*
X193962500Y-137712500D02*
X192750000Y-136500000D01*
X170300000Y-104950000D02*
X170300000Y-104750000D01*
X211462500Y-138250000D02*
X211462500Y-137712500D01*
D52*
X194767500Y-112650000D02*
X193130000Y-114287500D01*
D51*
X175250000Y-136500000D02*
X175250000Y-134250000D01*
X169500000Y-105750000D02*
X170300000Y-104950000D01*
X163787500Y-136500000D02*
X160537500Y-133250000D01*
X160250000Y-127020000D02*
X160270000Y-127000000D01*
X160250000Y-130175000D02*
X160250000Y-127020000D01*
X211462500Y-137712500D02*
X210250000Y-136500000D01*
X189630000Y-114287500D02*
X193130000Y-114287500D01*
X176462500Y-138500000D02*
X176000000Y-138500000D01*
X193962500Y-138250000D02*
X193962500Y-137712500D01*
X168750000Y-132750000D02*
X173750000Y-132750000D01*
X160537500Y-130537500D02*
X160575000Y-130500000D01*
X207000000Y-146750000D02*
X207000000Y-146250000D01*
X164000000Y-136500000D02*
X163787500Y-136500000D01*
X175250000Y-134250000D02*
X173750000Y-132750000D01*
D52*
%TO.N,jack25_left*%
X221250000Y-132287500D02*
X224712500Y-132287500D01*
X224750000Y-132250000D02*
X228000000Y-129000000D01*
X224712500Y-132287500D02*
X224750000Y-132250000D01*
X232225000Y-129000000D02*
X232875000Y-128350000D01*
X228000000Y-129000000D02*
X232225000Y-129000000D01*
X232875000Y-124650000D02*
X232875000Y-128350000D01*
D51*
%TO.N,BAT-*%
X219725000Y-144312500D02*
X220750000Y-144312500D01*
X192825000Y-126200000D02*
X192625000Y-126000000D01*
X165970000Y-118505000D02*
X165970000Y-121005000D01*
X163470000Y-121005000D02*
X163470000Y-121280000D01*
D52*
X196230000Y-112150000D02*
X193192500Y-112150000D01*
D51*
X194925000Y-102650000D02*
X194925000Y-106150000D01*
X212500000Y-148000000D02*
X212500000Y-150565000D01*
X168250000Y-145200000D02*
X165380000Y-148070000D01*
X221000000Y-123287500D02*
X223462500Y-123287500D01*
X223462500Y-123287500D02*
X224000000Y-122750000D01*
X163470000Y-121280000D02*
X159000000Y-125750000D01*
X233245000Y-136440000D02*
X233245000Y-135895000D01*
X212500000Y-150565000D02*
X212265000Y-150800000D01*
X158462500Y-130537500D02*
X159000000Y-130000000D01*
X158462500Y-133250000D02*
X158462500Y-130537500D01*
X232067500Y-145712500D02*
X233820000Y-143960000D01*
X192450000Y-147700000D02*
X194450000Y-147700000D01*
D52*
X193192500Y-112150000D02*
X193130000Y-112212500D01*
D51*
X212462500Y-150712500D02*
X212500000Y-150750000D01*
X165970000Y-121005000D02*
X163470000Y-121005000D01*
X165970000Y-119755000D02*
X163470000Y-119755000D01*
X192825000Y-128637500D02*
X192825000Y-126200000D01*
X233245000Y-142840000D02*
X233245000Y-143385000D01*
X163470000Y-121005000D02*
X163470000Y-118505000D01*
X189630000Y-112212500D02*
X193130000Y-112212500D01*
X159000000Y-130000000D02*
X159000000Y-127000000D01*
X164850000Y-119755000D02*
X165970000Y-119755000D01*
X165380000Y-148070000D02*
X165380000Y-150750000D01*
X205020000Y-144000000D02*
X202480000Y-144000000D01*
X193000000Y-151250000D02*
X195750000Y-151250000D01*
X191750000Y-126000000D02*
X190537500Y-126000000D01*
X229037500Y-145712500D02*
X232067500Y-145712500D01*
X194450000Y-147700000D02*
X194800000Y-148050000D01*
X235750000Y-146210000D02*
X238000000Y-143960000D01*
X191000000Y-146250000D02*
X192450000Y-147700000D01*
X200000000Y-126537500D02*
X200487500Y-126050000D01*
X235750000Y-146500000D02*
X235750000Y-146210000D01*
X220750000Y-144712500D02*
X219325000Y-144712500D01*
X190537500Y-126000000D02*
X189287500Y-124750000D01*
X192212500Y-129250000D02*
X192825000Y-128637500D01*
X200487500Y-126050000D02*
X202500000Y-126050000D01*
X194800000Y-148050000D02*
X195500000Y-148050000D01*
X159000000Y-125750000D02*
X159000000Y-127000000D01*
X228450000Y-141450000D02*
X228500000Y-141500000D01*
X219325000Y-144712500D02*
X218750000Y-145287500D01*
X233245000Y-143385000D02*
X233820000Y-143960000D01*
X228450000Y-140500000D02*
X228450000Y-141450000D01*
X163470000Y-118505000D02*
X165970000Y-118505000D01*
X212750000Y-129400000D02*
X212646878Y-129400000D01*
X218750000Y-145287500D02*
X219725000Y-144312500D01*
X192625000Y-126000000D02*
X191750000Y-126000000D01*
X233245000Y-135895000D02*
X233820000Y-135320000D01*
X183750000Y-136250000D02*
X184000000Y-136500000D01*
X164720000Y-118505000D02*
X164720000Y-121005000D01*
D52*
%TO.N,jack25_right*%
X230000000Y-122750000D02*
X228500000Y-122750000D01*
X230875000Y-123625000D02*
X230000000Y-122750000D01*
X228500000Y-122750000D02*
X227750000Y-123500000D01*
X226212500Y-127787500D02*
X221250000Y-127787500D01*
X230875000Y-126500000D02*
X230875000Y-123625000D01*
X227750000Y-123500000D02*
X227750000Y-126250000D01*
X227750000Y-126250000D02*
X226212500Y-127787500D01*
%TO.N,IO3*%
X161540000Y-109500000D02*
X161540000Y-108450000D01*
X175960000Y-107000000D02*
X179710000Y-103250000D01*
X161540000Y-108450000D02*
X162990000Y-107000000D01*
X162990000Y-107000000D02*
X175960000Y-107000000D01*
D51*
%TO.N,+1V8*%
X187187500Y-127250000D02*
X187187500Y-124775000D01*
D52*
X196000000Y-108750000D02*
X196200000Y-108950000D01*
D51*
X187187500Y-124775000D02*
X187212500Y-124750000D01*
D52*
X196200000Y-108950000D02*
X196930000Y-108950000D01*
D51*
X197000000Y-106150000D02*
X197000000Y-102650000D01*
D52*
%TO.N,LINE2R*%
X224712500Y-125750000D02*
X216707106Y-125750000D01*
X204500000Y-118750000D02*
X200430000Y-114680000D01*
X209707107Y-118750000D02*
X204500000Y-118750000D01*
X210000000Y-119042894D02*
X210000000Y-119042893D01*
X210000000Y-119042893D02*
X209707107Y-118750000D01*
X216707106Y-125750000D02*
X210000000Y-119042894D01*
X200430000Y-114680000D02*
X200430000Y-113850000D01*
%TO.N,LINE2L*%
X199430000Y-114430000D02*
X199430000Y-113850000D01*
X220500000Y-130250000D02*
X209500000Y-119250000D01*
X224750000Y-130250000D02*
X220500000Y-130250000D01*
X204250000Y-119250000D02*
X199430000Y-114430000D01*
X209500000Y-119250000D02*
X204250000Y-119250000D01*
%TO.N,BAT+*%
X222500000Y-141462500D02*
X222500000Y-140676104D01*
D51*
X220650000Y-142612500D02*
X220750000Y-142612500D01*
X220500000Y-142175000D02*
X217978122Y-142175000D01*
X220500000Y-142462500D02*
X220650000Y-142612500D01*
X220712500Y-142175000D02*
X220500000Y-142175000D01*
X214537500Y-145615622D02*
X214537500Y-148000000D01*
X217978122Y-142175000D02*
X214537500Y-145615622D01*
X214537500Y-150532500D02*
X214805000Y-150800000D01*
X220500000Y-142175000D02*
X220500000Y-142462500D01*
X220750000Y-142212500D02*
X220712500Y-142175000D01*
D52*
X222500000Y-140676104D02*
X221823896Y-140000000D01*
X221823896Y-140000000D02*
X218939339Y-140000000D01*
X218939339Y-140000000D02*
X217978122Y-140961217D01*
D51*
X214537500Y-148000000D02*
X214537500Y-150532500D01*
D52*
X217978122Y-140961217D02*
X217978122Y-142175000D01*
%TO.N,REGN*%
X223000000Y-145462500D02*
X223000000Y-147212500D01*
X227900000Y-148900000D02*
X229000000Y-150000000D01*
X223750000Y-147962500D02*
X224687500Y-148900000D01*
X223000000Y-147212500D02*
X223750000Y-147962500D01*
X224687500Y-148900000D02*
X227900000Y-148900000D01*
%TO.N,VCC*%
X226000000Y-145462500D02*
X226712500Y-145462500D01*
D51*
X231250000Y-137500000D02*
X229250000Y-137500000D01*
D52*
X224750000Y-144712500D02*
X224750000Y-144981250D01*
X226712500Y-145462500D02*
X226962500Y-145712500D01*
D51*
X170250000Y-145000000D02*
X173000000Y-147750000D01*
D52*
X224000000Y-145462500D02*
X224018750Y-145481250D01*
X224250000Y-145712500D02*
X224000000Y-145462500D01*
D51*
X231560000Y-142040000D02*
X233245000Y-142040000D01*
D52*
X224000000Y-145462500D02*
X226000000Y-145462500D01*
D51*
X230900000Y-142700000D02*
X230850000Y-142750000D01*
X233245000Y-137240000D02*
X231510000Y-137240000D01*
X173000000Y-147750000D02*
X173000000Y-150750000D01*
X230250000Y-142750000D02*
X229925000Y-142750000D01*
D52*
X225018750Y-145250000D02*
X226500000Y-145250000D01*
X226500000Y-145250000D02*
X226962500Y-145712500D01*
D51*
X224750000Y-136750000D02*
X226500000Y-136750000D01*
X230850000Y-142750000D02*
X231560000Y-142040000D01*
X230250000Y-142750000D02*
X230850000Y-142750000D01*
D52*
X224750000Y-144981250D02*
X225018750Y-145250000D01*
D51*
X229250000Y-137500000D02*
X228250000Y-138500000D01*
D52*
X226962500Y-145712500D02*
X224250000Y-145712500D01*
D51*
X229925000Y-142750000D02*
X226962500Y-145712500D01*
D52*
X224750000Y-145162500D02*
X224750000Y-144712500D01*
X224018750Y-145481250D02*
X224431250Y-145481250D01*
X224431250Y-145481250D02*
X224750000Y-145162500D01*
D51*
X226500000Y-136750000D02*
X228250000Y-138500000D01*
D52*
%TO.N,Net-(IC2-PMID)*%
X223500000Y-146044544D02*
X225417956Y-147962500D01*
X225417956Y-147962500D02*
X226500000Y-147962500D01*
X223500000Y-145462500D02*
X223500000Y-146044544D01*
%TO.N,/BTST*%
X222500000Y-148537500D02*
X221000000Y-150037500D01*
X222500000Y-145462500D02*
X222500000Y-148537500D01*
D51*
%TO.N,/SW*%
X220962500Y-148000000D02*
X221000000Y-147962500D01*
D52*
X221000000Y-147500000D02*
X221500000Y-147000000D01*
D51*
X221500000Y-147462500D02*
X221500000Y-147000000D01*
X221500000Y-147000000D02*
X221900000Y-146600000D01*
X221500000Y-145462500D02*
X221500000Y-147462500D01*
X221500000Y-145462500D02*
X221900000Y-145462500D01*
D52*
X221000000Y-147962500D02*
X221000000Y-147500000D01*
D51*
X221900000Y-146600000D02*
X221900000Y-145462500D01*
D52*
X222000000Y-146962500D02*
X221000000Y-147962500D01*
D51*
X218900000Y-148000000D02*
X220962500Y-148000000D01*
D52*
X222000000Y-145462500D02*
X222000000Y-146962500D01*
D51*
X221500000Y-147462500D02*
X221000000Y-147962500D01*
%TO.N,SYSTEM*%
X216600000Y-145500000D02*
X216600000Y-145362500D01*
X218850000Y-143312500D02*
X220750000Y-143312500D01*
X198000000Y-127575000D02*
X201925000Y-127575000D01*
X194912500Y-127087500D02*
X197512500Y-127087500D01*
X197250000Y-149000000D02*
X198000000Y-149000000D01*
X201862500Y-124462500D02*
X202500000Y-125100000D01*
X202500000Y-127000000D02*
X203105000Y-127000000D01*
X191750000Y-122750000D02*
X191500000Y-122500000D01*
X191750000Y-125050000D02*
X191750000Y-122750000D01*
X198000000Y-151075000D02*
X197825000Y-151250000D01*
X191500000Y-122500000D02*
X191500000Y-120000000D01*
X201925000Y-127575000D02*
X202500000Y-127000000D01*
X203800000Y-125800000D02*
X203100000Y-125100000D01*
X194287500Y-129250000D02*
X194287500Y-126987500D01*
X203100000Y-125100000D02*
X202500000Y-125100000D01*
X194650000Y-127350000D02*
X194875000Y-127575000D01*
X196925000Y-147650000D02*
X196925000Y-148675000D01*
X196925000Y-148675000D02*
X197250000Y-149000000D01*
X194287500Y-126987500D02*
X194250000Y-126950000D01*
X216600000Y-145362500D02*
X218750000Y-143212500D01*
X199000000Y-149000000D02*
X200750000Y-150750000D01*
X197512500Y-127087500D02*
X198000000Y-127575000D01*
X218750000Y-143212500D02*
X218850000Y-143312500D01*
X203105000Y-127000000D02*
X203800000Y-126305000D01*
X195500000Y-147100000D02*
X196375000Y-147100000D01*
X198000000Y-149400000D02*
X198000000Y-151075000D01*
X216600000Y-148000000D02*
X216600000Y-145500000D01*
X200000000Y-124462500D02*
X201862500Y-124462500D01*
X197512500Y-126950000D02*
X197512500Y-127087500D01*
X218750000Y-143212500D02*
X218962500Y-143212500D01*
X194250000Y-126950000D02*
X194650000Y-127350000D01*
X196375000Y-147100000D02*
X196925000Y-147650000D01*
X194650000Y-127350000D02*
X194912500Y-127087500D01*
X203800000Y-126305000D02*
X203800000Y-125800000D01*
X198000000Y-149000000D02*
X198000000Y-149400000D01*
X219362500Y-143612500D02*
X220650000Y-143612500D01*
X198000000Y-149000000D02*
X199000000Y-149000000D01*
X218962500Y-143212500D02*
X219362500Y-143612500D01*
X197512500Y-126950000D02*
X200000000Y-124462500D01*
X194875000Y-127575000D02*
X198000000Y-127575000D01*
X194250000Y-126950000D02*
X197512500Y-126950000D01*
D52*
%TO.N,HPRCOM*%
X202889339Y-110400000D02*
X202639339Y-110650000D01*
X213600000Y-110400000D02*
X214400000Y-109600000D01*
X202889339Y-110400000D02*
X213600000Y-110400000D01*
X202639339Y-110650000D02*
X201130000Y-110650000D01*
%TO.N,STAT*%
X226650000Y-141000000D02*
X226650000Y-142219606D01*
X226650000Y-142219606D02*
X225657106Y-143212500D01*
X225657106Y-143212500D02*
X224750000Y-143212500D01*
D51*
%TO.N,Net-(D8-A)*%
X189500000Y-122500000D02*
X186421933Y-122500000D01*
D52*
%TO.N,HPROUT*%
X201905000Y-110150000D02*
X201130000Y-110150000D01*
X202255000Y-109800000D02*
X201905000Y-110150000D01*
X212700000Y-106600000D02*
X214400000Y-106600000D01*
X209500000Y-109800000D02*
X202255000Y-109800000D01*
X209500000Y-109800000D02*
X212700000Y-106600000D01*
%TO.N,HPLCOM*%
X214300000Y-112650000D02*
X214400000Y-112750000D01*
X213800000Y-112000000D02*
X214400000Y-112600000D01*
X202989339Y-112000000D02*
X213800000Y-112000000D01*
X201130000Y-111650000D02*
X202639339Y-111650000D01*
X202639339Y-111650000D02*
X202989339Y-112000000D01*
D51*
%TO.N,Net-(U1-FB)*%
X205010000Y-127000000D02*
X207250000Y-127000000D01*
X205010000Y-129250000D02*
X205010000Y-127000000D01*
%TO.N,+3.3VA*%
X201167500Y-109512500D02*
X201130000Y-109550000D01*
D52*
X200430000Y-108950000D02*
X201130000Y-109650000D01*
D51*
X204130000Y-113612500D02*
X207630000Y-113612500D01*
X205010000Y-122952500D02*
X205212500Y-122750000D01*
X201167500Y-102650000D02*
X201167500Y-109000000D01*
D52*
X200430000Y-108950000D02*
X200885000Y-108950000D01*
X201130000Y-112650000D02*
X201905000Y-112650000D01*
D51*
X202030000Y-108650000D02*
X201167500Y-109512500D01*
D52*
X200730000Y-109250000D02*
X201167500Y-109250000D01*
X200430000Y-108950000D02*
X200730000Y-109250000D01*
D51*
X201350000Y-108650000D02*
X201250000Y-108750000D01*
D52*
X201905000Y-112650000D02*
X202867500Y-113612500D01*
D51*
X201167500Y-109250000D02*
X201167500Y-109512500D01*
D52*
X201117500Y-108950000D02*
X201167500Y-109000000D01*
D51*
X207630000Y-108650000D02*
X202030000Y-108650000D01*
X201250000Y-108750000D02*
X201167500Y-108667500D01*
D52*
X200885000Y-108950000D02*
X201167500Y-108667500D01*
D51*
X201167500Y-108250000D02*
X201167500Y-102650000D01*
D52*
X200467500Y-108950000D02*
X201167500Y-108250000D01*
D51*
X201167500Y-108667500D02*
X201167500Y-108250000D01*
X205010000Y-125100000D02*
X205010000Y-122952500D01*
X201167500Y-109000000D02*
X201167500Y-109250000D01*
D52*
X200430000Y-108950000D02*
X201117500Y-108950000D01*
X202867500Y-113612500D02*
X204130000Y-113612500D01*
X200430000Y-108950000D02*
X200467500Y-108950000D01*
D51*
X207150000Y-125100000D02*
X207250000Y-125000000D01*
X207630000Y-108650000D02*
X201350000Y-108650000D01*
X205010000Y-125100000D02*
X207150000Y-125100000D01*
D52*
%TO.N,HPLOUT*%
X212500000Y-115600000D02*
X214400000Y-115600000D01*
X209400000Y-112500000D02*
X212500000Y-115600000D01*
X202462107Y-112500000D02*
X209400000Y-112500000D01*
X202112107Y-112150000D02*
X202462107Y-112500000D01*
X201130000Y-112150000D02*
X202112107Y-112150000D01*
%TO.N,BATTS*%
X207250000Y-150500000D02*
X207000000Y-150750000D01*
D53*
X221937500Y-140750000D02*
X220250000Y-140750000D01*
D52*
X207000000Y-148750000D02*
X207000000Y-150750000D01*
X207000000Y-150750000D02*
X209675000Y-150750000D01*
X209675000Y-150750000D02*
X209725000Y-150800000D01*
D53*
X222000000Y-140812500D02*
X221937500Y-140750000D01*
X222000000Y-141462500D02*
X222000000Y-140812500D01*
D52*
%TO.N,Net-(IC2-PMID_GOOD)*%
X224750000Y-143712500D02*
X226462500Y-143712500D01*
X226462500Y-143712500D02*
X226500000Y-143750000D01*
%TO.N,PSEL*%
X225462500Y-144212500D02*
X225750000Y-144500000D01*
X224750000Y-144212500D02*
X225462500Y-144212500D01*
%TO.N,lcd_blk*%
X174630000Y-103250000D02*
X175830000Y-102050000D01*
X175830000Y-102050000D02*
X191210000Y-102050000D01*
X172500000Y-103000000D02*
X174380000Y-103000000D01*
X174380000Y-103000000D02*
X174630000Y-103250000D01*
X191210000Y-102050000D02*
X192410000Y-103250000D01*
%TO.N,nQON*%
X168000000Y-103787500D02*
X166212500Y-103787500D01*
D53*
X221500000Y-141462500D02*
X219250000Y-141462500D01*
X218962500Y-141462500D02*
X218750000Y-141250000D01*
X219250000Y-141462500D02*
X218962500Y-141462500D01*
D52*
X166212500Y-103787500D02*
X165000000Y-105000000D01*
%TO.N,Net-(JP2-B)*%
X221093413Y-109600000D02*
X221400000Y-109600000D01*
X220293973Y-109600000D02*
X221093413Y-109600000D01*
X217000000Y-109600000D02*
X218153973Y-109600000D01*
X219651973Y-109028000D02*
X219651973Y-109172000D01*
X218581973Y-109172000D02*
X218581973Y-109028000D01*
X220079973Y-109600000D02*
X220293973Y-109600000D01*
X221400000Y-109600000D02*
X222000000Y-109000000D01*
X216940000Y-106600000D02*
X216940000Y-109600000D01*
X219009973Y-108600000D02*
X219223973Y-108600000D01*
X216400000Y-106600000D02*
X217000000Y-107200000D01*
X222000000Y-109000000D02*
X224750000Y-109000000D01*
X218581973Y-109028000D02*
G75*
G02*
X219009973Y-108599973I428027J0D01*
G01*
X219651973Y-109172000D02*
G75*
G03*
X220079973Y-109600027I428027J0D01*
G01*
X218153973Y-109600000D02*
G75*
G03*
X218582000Y-109172000I27J428000D01*
G01*
X219223973Y-108600000D02*
G75*
G02*
X219652000Y-109028000I27J-428000D01*
G01*
%TO.N,Net-(JP4-B)*%
X224712500Y-111000000D02*
X224750000Y-111037500D01*
X220400000Y-112600000D02*
X216940000Y-112600000D01*
X216940000Y-112600000D02*
X216940000Y-115600000D01*
X222000000Y-111000000D02*
X224712500Y-111000000D01*
X222000000Y-111000000D02*
X220400000Y-112600000D01*
%TO.N,Net-(JP1-A)*%
X232475000Y-132750000D02*
X232725000Y-132500000D01*
X230250000Y-132750000D02*
X232475000Y-132750000D01*
%TO.N,Net-(R38-Pad2)*%
X202750000Y-146750000D02*
X205000000Y-146750000D01*
D51*
%TO.N,/1V8_SW*%
X191750000Y-126950000D02*
X189612500Y-126950000D01*
X189612500Y-126950000D02*
X189312500Y-127250000D01*
D52*
%TO.N,/3V3_SW*%
X193312500Y-149000000D02*
X193062500Y-148750000D01*
X195500000Y-149000000D02*
X193312500Y-149000000D01*
D51*
%TO.N,Net-(IC4-FB)*%
X194250000Y-125050000D02*
X196450000Y-125050000D01*
X194250000Y-125050000D02*
X194250000Y-123000000D01*
X196450000Y-125050000D02*
X196750000Y-124750000D01*
D52*
%TO.N,Net-(IC4-PG)*%
X189500000Y-120000000D02*
X190750000Y-118750000D01*
X195500000Y-118750000D02*
X197800000Y-121050000D01*
X190750000Y-118750000D02*
X195500000Y-118750000D01*
X197155456Y-126000000D02*
X194250000Y-126000000D01*
X197800000Y-125355456D02*
X197155456Y-126000000D01*
X197800000Y-121050000D02*
X197800000Y-125355456D01*
%TO.N,Net-(IC5-PG)*%
X198000000Y-148050000D02*
X200050000Y-148050000D01*
X200050000Y-148050000D02*
X200750000Y-148750000D01*
%TO.N,Net-(IC5-FB)*%
X197150000Y-146250000D02*
X198000000Y-147100000D01*
X198000000Y-147100000D02*
X200400000Y-147100000D01*
X193000000Y-146250000D02*
X197150000Y-146250000D01*
X200400000Y-147100000D02*
X200750000Y-146750000D01*
%TD*%
M02*
