%TF.GenerationSoftware,KiCad,Pcbnew,8.0.9-8.0.9-0~ubuntu24.04.1*%
%TF.CreationDate,2025-03-18T20:07:28+01:00*%
%TF.ProjectId,jack2bluetooth,6a61636b-3262-46c7-9565-746f6f74682e,v3.0*%
%TF.SameCoordinates,Original*%
%TF.FileFunction,Drillmap*%
%TF.FilePolarity,Positive*%
%FSLAX45Y45*%
G04 Gerber Fmt 4.5, Leading zero omitted, Abs format (unit mm)*
G04 Created by KiCad (PCBNEW 8.0.9-8.0.9-0~ubuntu24.04.1) date 2025-03-18 20:07:28*
%MOMM*%
%LPD*%
G01*
G04 APERTURE LIST*
%ADD10C,0.100000*%
%ADD11C,0.200000*%
%ADD12C,0.120000*%
%ADD13C,0.130000*%
G04 APERTURE END LIST*
D10*
X23900000Y-10300000D02*
G75*
G02*
X23500000Y-10300000I-200000J0D01*
G01*
X23500000Y-10300000D02*
G75*
G02*
X23900000Y-10300000I200000J0D01*
G01*
X15700000Y-10000000D02*
X24000000Y-10000000D01*
X24000000Y-15300000D01*
X15700000Y-15300000D01*
X15700000Y-10000000D01*
X23900000Y-15000000D02*
G75*
G02*
X23500000Y-15000000I-200000J0D01*
G01*
X23500000Y-15000000D02*
G75*
G02*
X23900000Y-15000000I200000J0D01*
G01*
X16200000Y-10300000D02*
G75*
G02*
X15800000Y-10300000I-200000J0D01*
G01*
X15800000Y-10300000D02*
G75*
G02*
X16200000Y-10300000I200000J0D01*
G01*
X16200000Y-15000000D02*
G75*
G02*
X15800000Y-15000000I-200000J0D01*
G01*
X15800000Y-15000000D02*
G75*
G02*
X16200000Y-15000000I200000J0D01*
G01*
D11*
D10*
X23399500Y-13642500D02*
X23464500Y-13707500D01*
X23464500Y-13642500D02*
X23399500Y-13707500D01*
X23399500Y-14220500D02*
X23464500Y-14285500D01*
X23464500Y-14220500D02*
X23399500Y-14285500D01*
D12*
X23597500Y-12650000D02*
G75*
G02*
X23477500Y-12650000I-60000J0D01*
G01*
X23477500Y-12650000D02*
G75*
G02*
X23597500Y-12650000I60000J0D01*
G01*
D13*
X23650000Y-10960000D02*
X23650000Y-11090000D01*
X23585000Y-11025000D02*
X23715000Y-11025000D01*
X23650000Y-11610000D02*
X23650000Y-11740000D01*
X23585000Y-11675000D02*
X23715000Y-11675000D01*
D11*
X15955777Y-15616484D02*
X15955777Y-15416484D01*
X15955777Y-15416484D02*
X16003396Y-15416484D01*
X16003396Y-15416484D02*
X16031967Y-15426008D01*
X16031967Y-15426008D02*
X16051015Y-15445055D01*
X16051015Y-15445055D02*
X16060539Y-15464103D01*
X16060539Y-15464103D02*
X16070062Y-15502198D01*
X16070062Y-15502198D02*
X16070062Y-15530769D01*
X16070062Y-15530769D02*
X16060539Y-15568865D01*
X16060539Y-15568865D02*
X16051015Y-15587912D01*
X16051015Y-15587912D02*
X16031967Y-15606960D01*
X16031967Y-15606960D02*
X16003396Y-15616484D01*
X16003396Y-15616484D02*
X15955777Y-15616484D01*
X16155777Y-15616484D02*
X16155777Y-15483150D01*
X16155777Y-15521246D02*
X16165301Y-15502198D01*
X16165301Y-15502198D02*
X16174824Y-15492674D01*
X16174824Y-15492674D02*
X16193872Y-15483150D01*
X16193872Y-15483150D02*
X16212920Y-15483150D01*
X16279586Y-15616484D02*
X16279586Y-15483150D01*
X16279586Y-15416484D02*
X16270062Y-15426008D01*
X16270062Y-15426008D02*
X16279586Y-15435531D01*
X16279586Y-15435531D02*
X16289110Y-15426008D01*
X16289110Y-15426008D02*
X16279586Y-15416484D01*
X16279586Y-15416484D02*
X16279586Y-15435531D01*
X16403396Y-15616484D02*
X16384348Y-15606960D01*
X16384348Y-15606960D02*
X16374824Y-15587912D01*
X16374824Y-15587912D02*
X16374824Y-15416484D01*
X16508158Y-15616484D02*
X16489110Y-15606960D01*
X16489110Y-15606960D02*
X16479586Y-15587912D01*
X16479586Y-15587912D02*
X16479586Y-15416484D01*
X16736729Y-15616484D02*
X16736729Y-15416484D01*
X16736729Y-15416484D02*
X16803396Y-15559341D01*
X16803396Y-15559341D02*
X16870063Y-15416484D01*
X16870063Y-15416484D02*
X16870063Y-15616484D01*
X17051015Y-15616484D02*
X17051015Y-15511722D01*
X17051015Y-15511722D02*
X17041491Y-15492674D01*
X17041491Y-15492674D02*
X17022444Y-15483150D01*
X17022444Y-15483150D02*
X16984348Y-15483150D01*
X16984348Y-15483150D02*
X16965301Y-15492674D01*
X17051015Y-15606960D02*
X17031967Y-15616484D01*
X17031967Y-15616484D02*
X16984348Y-15616484D01*
X16984348Y-15616484D02*
X16965301Y-15606960D01*
X16965301Y-15606960D02*
X16955777Y-15587912D01*
X16955777Y-15587912D02*
X16955777Y-15568865D01*
X16955777Y-15568865D02*
X16965301Y-15549817D01*
X16965301Y-15549817D02*
X16984348Y-15540293D01*
X16984348Y-15540293D02*
X17031967Y-15540293D01*
X17031967Y-15540293D02*
X17051015Y-15530769D01*
X17146253Y-15483150D02*
X17146253Y-15683150D01*
X17146253Y-15492674D02*
X17165301Y-15483150D01*
X17165301Y-15483150D02*
X17203396Y-15483150D01*
X17203396Y-15483150D02*
X17222444Y-15492674D01*
X17222444Y-15492674D02*
X17231967Y-15502198D01*
X17231967Y-15502198D02*
X17241491Y-15521246D01*
X17241491Y-15521246D02*
X17241491Y-15578388D01*
X17241491Y-15578388D02*
X17231967Y-15597436D01*
X17231967Y-15597436D02*
X17222444Y-15606960D01*
X17222444Y-15606960D02*
X17203396Y-15616484D01*
X17203396Y-15616484D02*
X17165301Y-15616484D01*
X17165301Y-15616484D02*
X17146253Y-15606960D01*
X17327205Y-15597436D02*
X17336729Y-15606960D01*
X17336729Y-15606960D02*
X17327205Y-15616484D01*
X17327205Y-15616484D02*
X17317682Y-15606960D01*
X17317682Y-15606960D02*
X17327205Y-15597436D01*
X17327205Y-15597436D02*
X17327205Y-15616484D01*
X17327205Y-15492674D02*
X17336729Y-15502198D01*
X17336729Y-15502198D02*
X17327205Y-15511722D01*
X17327205Y-15511722D02*
X17317682Y-15502198D01*
X17317682Y-15502198D02*
X17327205Y-15492674D01*
X17327205Y-15492674D02*
X17327205Y-15511722D01*
D10*
X15630000Y-15912500D02*
X15695000Y-15977500D01*
X15695000Y-15912500D02*
X15630000Y-15977500D01*
D11*
X15993872Y-15836484D02*
X16012920Y-15836484D01*
X16012920Y-15836484D02*
X16031967Y-15846008D01*
X16031967Y-15846008D02*
X16041491Y-15855531D01*
X16041491Y-15855531D02*
X16051015Y-15874579D01*
X16051015Y-15874579D02*
X16060539Y-15912674D01*
X16060539Y-15912674D02*
X16060539Y-15960293D01*
X16060539Y-15960293D02*
X16051015Y-15998388D01*
X16051015Y-15998388D02*
X16041491Y-16017436D01*
X16041491Y-16017436D02*
X16031967Y-16026960D01*
X16031967Y-16026960D02*
X16012920Y-16036484D01*
X16012920Y-16036484D02*
X15993872Y-16036484D01*
X15993872Y-16036484D02*
X15974824Y-16026960D01*
X15974824Y-16026960D02*
X15965301Y-16017436D01*
X15965301Y-16017436D02*
X15955777Y-15998388D01*
X15955777Y-15998388D02*
X15946253Y-15960293D01*
X15946253Y-15960293D02*
X15946253Y-15912674D01*
X15946253Y-15912674D02*
X15955777Y-15874579D01*
X15955777Y-15874579D02*
X15965301Y-15855531D01*
X15965301Y-15855531D02*
X15974824Y-15846008D01*
X15974824Y-15846008D02*
X15993872Y-15836484D01*
X16146253Y-16017436D02*
X16155777Y-16026960D01*
X16155777Y-16026960D02*
X16146253Y-16036484D01*
X16146253Y-16036484D02*
X16136729Y-16026960D01*
X16136729Y-16026960D02*
X16146253Y-16017436D01*
X16146253Y-16017436D02*
X16146253Y-16036484D01*
X16327205Y-15836484D02*
X16289110Y-15836484D01*
X16289110Y-15836484D02*
X16270062Y-15846008D01*
X16270062Y-15846008D02*
X16260539Y-15855531D01*
X16260539Y-15855531D02*
X16241491Y-15884103D01*
X16241491Y-15884103D02*
X16231967Y-15922198D01*
X16231967Y-15922198D02*
X16231967Y-15998388D01*
X16231967Y-15998388D02*
X16241491Y-16017436D01*
X16241491Y-16017436D02*
X16251015Y-16026960D01*
X16251015Y-16026960D02*
X16270062Y-16036484D01*
X16270062Y-16036484D02*
X16308158Y-16036484D01*
X16308158Y-16036484D02*
X16327205Y-16026960D01*
X16327205Y-16026960D02*
X16336729Y-16017436D01*
X16336729Y-16017436D02*
X16346253Y-15998388D01*
X16346253Y-15998388D02*
X16346253Y-15950769D01*
X16346253Y-15950769D02*
X16336729Y-15931722D01*
X16336729Y-15931722D02*
X16327205Y-15922198D01*
X16327205Y-15922198D02*
X16308158Y-15912674D01*
X16308158Y-15912674D02*
X16270062Y-15912674D01*
X16270062Y-15912674D02*
X16251015Y-15922198D01*
X16251015Y-15922198D02*
X16241491Y-15931722D01*
X16241491Y-15931722D02*
X16231967Y-15950769D01*
X16527205Y-15836484D02*
X16431967Y-15836484D01*
X16431967Y-15836484D02*
X16422443Y-15931722D01*
X16422443Y-15931722D02*
X16431967Y-15922198D01*
X16431967Y-15922198D02*
X16451015Y-15912674D01*
X16451015Y-15912674D02*
X16498634Y-15912674D01*
X16498634Y-15912674D02*
X16517682Y-15922198D01*
X16517682Y-15922198D02*
X16527205Y-15931722D01*
X16527205Y-15931722D02*
X16536729Y-15950769D01*
X16536729Y-15950769D02*
X16536729Y-15998388D01*
X16536729Y-15998388D02*
X16527205Y-16017436D01*
X16527205Y-16017436D02*
X16517682Y-16026960D01*
X16517682Y-16026960D02*
X16498634Y-16036484D01*
X16498634Y-16036484D02*
X16451015Y-16036484D01*
X16451015Y-16036484D02*
X16431967Y-16026960D01*
X16431967Y-16026960D02*
X16422443Y-16017436D01*
X16660539Y-15836484D02*
X16679586Y-15836484D01*
X16679586Y-15836484D02*
X16698634Y-15846008D01*
X16698634Y-15846008D02*
X16708158Y-15855531D01*
X16708158Y-15855531D02*
X16717682Y-15874579D01*
X16717682Y-15874579D02*
X16727205Y-15912674D01*
X16727205Y-15912674D02*
X16727205Y-15960293D01*
X16727205Y-15960293D02*
X16717682Y-15998388D01*
X16717682Y-15998388D02*
X16708158Y-16017436D01*
X16708158Y-16017436D02*
X16698634Y-16026960D01*
X16698634Y-16026960D02*
X16679586Y-16036484D01*
X16679586Y-16036484D02*
X16660539Y-16036484D01*
X16660539Y-16036484D02*
X16641491Y-16026960D01*
X16641491Y-16026960D02*
X16631967Y-16017436D01*
X16631967Y-16017436D02*
X16622443Y-15998388D01*
X16622443Y-15998388D02*
X16612920Y-15960293D01*
X16612920Y-15960293D02*
X16612920Y-15912674D01*
X16612920Y-15912674D02*
X16622443Y-15874579D01*
X16622443Y-15874579D02*
X16631967Y-15855531D01*
X16631967Y-15855531D02*
X16641491Y-15846008D01*
X16641491Y-15846008D02*
X16660539Y-15836484D01*
X16812920Y-16036484D02*
X16812920Y-15903150D01*
X16812920Y-15922198D02*
X16822444Y-15912674D01*
X16822444Y-15912674D02*
X16841491Y-15903150D01*
X16841491Y-15903150D02*
X16870063Y-15903150D01*
X16870063Y-15903150D02*
X16889110Y-15912674D01*
X16889110Y-15912674D02*
X16898634Y-15931722D01*
X16898634Y-15931722D02*
X16898634Y-16036484D01*
X16898634Y-15931722D02*
X16908158Y-15912674D01*
X16908158Y-15912674D02*
X16927205Y-15903150D01*
X16927205Y-15903150D02*
X16955777Y-15903150D01*
X16955777Y-15903150D02*
X16974825Y-15912674D01*
X16974825Y-15912674D02*
X16984348Y-15931722D01*
X16984348Y-15931722D02*
X16984348Y-16036484D01*
X17079586Y-16036484D02*
X17079586Y-15903150D01*
X17079586Y-15922198D02*
X17089110Y-15912674D01*
X17089110Y-15912674D02*
X17108158Y-15903150D01*
X17108158Y-15903150D02*
X17136729Y-15903150D01*
X17136729Y-15903150D02*
X17155777Y-15912674D01*
X17155777Y-15912674D02*
X17165301Y-15931722D01*
X17165301Y-15931722D02*
X17165301Y-16036484D01*
X17165301Y-15931722D02*
X17174825Y-15912674D01*
X17174825Y-15912674D02*
X17193872Y-15903150D01*
X17193872Y-15903150D02*
X17222444Y-15903150D01*
X17222444Y-15903150D02*
X17241491Y-15912674D01*
X17241491Y-15912674D02*
X17251015Y-15931722D01*
X17251015Y-15931722D02*
X17251015Y-16036484D01*
X17641491Y-15826960D02*
X17470063Y-16084103D01*
X17898634Y-15836484D02*
X17917682Y-15836484D01*
X17917682Y-15836484D02*
X17936729Y-15846008D01*
X17936729Y-15846008D02*
X17946253Y-15855531D01*
X17946253Y-15855531D02*
X17955777Y-15874579D01*
X17955777Y-15874579D02*
X17965301Y-15912674D01*
X17965301Y-15912674D02*
X17965301Y-15960293D01*
X17965301Y-15960293D02*
X17955777Y-15998388D01*
X17955777Y-15998388D02*
X17946253Y-16017436D01*
X17946253Y-16017436D02*
X17936729Y-16026960D01*
X17936729Y-16026960D02*
X17917682Y-16036484D01*
X17917682Y-16036484D02*
X17898634Y-16036484D01*
X17898634Y-16036484D02*
X17879587Y-16026960D01*
X17879587Y-16026960D02*
X17870063Y-16017436D01*
X17870063Y-16017436D02*
X17860539Y-15998388D01*
X17860539Y-15998388D02*
X17851015Y-15960293D01*
X17851015Y-15960293D02*
X17851015Y-15912674D01*
X17851015Y-15912674D02*
X17860539Y-15874579D01*
X17860539Y-15874579D02*
X17870063Y-15855531D01*
X17870063Y-15855531D02*
X17879587Y-15846008D01*
X17879587Y-15846008D02*
X17898634Y-15836484D01*
X18051015Y-16017436D02*
X18060539Y-16026960D01*
X18060539Y-16026960D02*
X18051015Y-16036484D01*
X18051015Y-16036484D02*
X18041491Y-16026960D01*
X18041491Y-16026960D02*
X18051015Y-16017436D01*
X18051015Y-16017436D02*
X18051015Y-16036484D01*
X18184348Y-15836484D02*
X18203396Y-15836484D01*
X18203396Y-15836484D02*
X18222444Y-15846008D01*
X18222444Y-15846008D02*
X18231968Y-15855531D01*
X18231968Y-15855531D02*
X18241491Y-15874579D01*
X18241491Y-15874579D02*
X18251015Y-15912674D01*
X18251015Y-15912674D02*
X18251015Y-15960293D01*
X18251015Y-15960293D02*
X18241491Y-15998388D01*
X18241491Y-15998388D02*
X18231968Y-16017436D01*
X18231968Y-16017436D02*
X18222444Y-16026960D01*
X18222444Y-16026960D02*
X18203396Y-16036484D01*
X18203396Y-16036484D02*
X18184348Y-16036484D01*
X18184348Y-16036484D02*
X18165301Y-16026960D01*
X18165301Y-16026960D02*
X18155777Y-16017436D01*
X18155777Y-16017436D02*
X18146253Y-15998388D01*
X18146253Y-15998388D02*
X18136729Y-15960293D01*
X18136729Y-15960293D02*
X18136729Y-15912674D01*
X18136729Y-15912674D02*
X18146253Y-15874579D01*
X18146253Y-15874579D02*
X18155777Y-15855531D01*
X18155777Y-15855531D02*
X18165301Y-15846008D01*
X18165301Y-15846008D02*
X18184348Y-15836484D01*
X18327206Y-15855531D02*
X18336729Y-15846008D01*
X18336729Y-15846008D02*
X18355777Y-15836484D01*
X18355777Y-15836484D02*
X18403396Y-15836484D01*
X18403396Y-15836484D02*
X18422444Y-15846008D01*
X18422444Y-15846008D02*
X18431968Y-15855531D01*
X18431968Y-15855531D02*
X18441491Y-15874579D01*
X18441491Y-15874579D02*
X18441491Y-15893627D01*
X18441491Y-15893627D02*
X18431968Y-15922198D01*
X18431968Y-15922198D02*
X18317682Y-16036484D01*
X18317682Y-16036484D02*
X18441491Y-16036484D01*
X18622444Y-15836484D02*
X18527206Y-15836484D01*
X18527206Y-15836484D02*
X18517682Y-15931722D01*
X18517682Y-15931722D02*
X18527206Y-15922198D01*
X18527206Y-15922198D02*
X18546253Y-15912674D01*
X18546253Y-15912674D02*
X18593872Y-15912674D01*
X18593872Y-15912674D02*
X18612920Y-15922198D01*
X18612920Y-15922198D02*
X18622444Y-15931722D01*
X18622444Y-15931722D02*
X18631968Y-15950769D01*
X18631968Y-15950769D02*
X18631968Y-15998388D01*
X18631968Y-15998388D02*
X18622444Y-16017436D01*
X18622444Y-16017436D02*
X18612920Y-16026960D01*
X18612920Y-16026960D02*
X18593872Y-16036484D01*
X18593872Y-16036484D02*
X18546253Y-16036484D01*
X18546253Y-16036484D02*
X18527206Y-16026960D01*
X18527206Y-16026960D02*
X18517682Y-16017436D01*
X18803396Y-15836484D02*
X18765301Y-15836484D01*
X18765301Y-15836484D02*
X18746253Y-15846008D01*
X18746253Y-15846008D02*
X18736729Y-15855531D01*
X18736729Y-15855531D02*
X18717682Y-15884103D01*
X18717682Y-15884103D02*
X18708158Y-15922198D01*
X18708158Y-15922198D02*
X18708158Y-15998388D01*
X18708158Y-15998388D02*
X18717682Y-16017436D01*
X18717682Y-16017436D02*
X18727206Y-16026960D01*
X18727206Y-16026960D02*
X18746253Y-16036484D01*
X18746253Y-16036484D02*
X18784349Y-16036484D01*
X18784349Y-16036484D02*
X18803396Y-16026960D01*
X18803396Y-16026960D02*
X18812920Y-16017436D01*
X18812920Y-16017436D02*
X18822444Y-15998388D01*
X18822444Y-15998388D02*
X18822444Y-15950769D01*
X18822444Y-15950769D02*
X18812920Y-15931722D01*
X18812920Y-15931722D02*
X18803396Y-15922198D01*
X18803396Y-15922198D02*
X18784349Y-15912674D01*
X18784349Y-15912674D02*
X18746253Y-15912674D01*
X18746253Y-15912674D02*
X18727206Y-15922198D01*
X18727206Y-15922198D02*
X18717682Y-15931722D01*
X18717682Y-15931722D02*
X18708158Y-15950769D01*
X18898634Y-15836484D02*
X18898634Y-15874579D01*
X18974825Y-15836484D02*
X18974825Y-15874579D01*
X19270063Y-16112674D02*
X19260539Y-16103150D01*
X19260539Y-16103150D02*
X19241491Y-16074579D01*
X19241491Y-16074579D02*
X19231968Y-16055531D01*
X19231968Y-16055531D02*
X19222444Y-16026960D01*
X19222444Y-16026960D02*
X19212920Y-15979341D01*
X19212920Y-15979341D02*
X19212920Y-15941246D01*
X19212920Y-15941246D02*
X19222444Y-15893627D01*
X19222444Y-15893627D02*
X19231968Y-15865055D01*
X19231968Y-15865055D02*
X19241491Y-15846008D01*
X19241491Y-15846008D02*
X19260539Y-15817436D01*
X19260539Y-15817436D02*
X19270063Y-15807912D01*
X19336730Y-15855531D02*
X19346253Y-15846008D01*
X19346253Y-15846008D02*
X19365301Y-15836484D01*
X19365301Y-15836484D02*
X19412920Y-15836484D01*
X19412920Y-15836484D02*
X19431968Y-15846008D01*
X19431968Y-15846008D02*
X19441491Y-15855531D01*
X19441491Y-15855531D02*
X19451015Y-15874579D01*
X19451015Y-15874579D02*
X19451015Y-15893627D01*
X19451015Y-15893627D02*
X19441491Y-15922198D01*
X19441491Y-15922198D02*
X19327206Y-16036484D01*
X19327206Y-16036484D02*
X19451015Y-16036484D01*
X19689111Y-16036484D02*
X19689111Y-15836484D01*
X19774825Y-16036484D02*
X19774825Y-15931722D01*
X19774825Y-15931722D02*
X19765301Y-15912674D01*
X19765301Y-15912674D02*
X19746253Y-15903150D01*
X19746253Y-15903150D02*
X19717682Y-15903150D01*
X19717682Y-15903150D02*
X19698634Y-15912674D01*
X19698634Y-15912674D02*
X19689111Y-15922198D01*
X19898634Y-16036484D02*
X19879587Y-16026960D01*
X19879587Y-16026960D02*
X19870063Y-16017436D01*
X19870063Y-16017436D02*
X19860539Y-15998388D01*
X19860539Y-15998388D02*
X19860539Y-15941246D01*
X19860539Y-15941246D02*
X19870063Y-15922198D01*
X19870063Y-15922198D02*
X19879587Y-15912674D01*
X19879587Y-15912674D02*
X19898634Y-15903150D01*
X19898634Y-15903150D02*
X19927206Y-15903150D01*
X19927206Y-15903150D02*
X19946253Y-15912674D01*
X19946253Y-15912674D02*
X19955777Y-15922198D01*
X19955777Y-15922198D02*
X19965301Y-15941246D01*
X19965301Y-15941246D02*
X19965301Y-15998388D01*
X19965301Y-15998388D02*
X19955777Y-16017436D01*
X19955777Y-16017436D02*
X19946253Y-16026960D01*
X19946253Y-16026960D02*
X19927206Y-16036484D01*
X19927206Y-16036484D02*
X19898634Y-16036484D01*
X20079587Y-16036484D02*
X20060539Y-16026960D01*
X20060539Y-16026960D02*
X20051015Y-16007912D01*
X20051015Y-16007912D02*
X20051015Y-15836484D01*
X20231968Y-16026960D02*
X20212920Y-16036484D01*
X20212920Y-16036484D02*
X20174825Y-16036484D01*
X20174825Y-16036484D02*
X20155777Y-16026960D01*
X20155777Y-16026960D02*
X20146253Y-16007912D01*
X20146253Y-16007912D02*
X20146253Y-15931722D01*
X20146253Y-15931722D02*
X20155777Y-15912674D01*
X20155777Y-15912674D02*
X20174825Y-15903150D01*
X20174825Y-15903150D02*
X20212920Y-15903150D01*
X20212920Y-15903150D02*
X20231968Y-15912674D01*
X20231968Y-15912674D02*
X20241492Y-15931722D01*
X20241492Y-15931722D02*
X20241492Y-15950769D01*
X20241492Y-15950769D02*
X20146253Y-15969817D01*
X20317682Y-16026960D02*
X20336730Y-16036484D01*
X20336730Y-16036484D02*
X20374825Y-16036484D01*
X20374825Y-16036484D02*
X20393873Y-16026960D01*
X20393873Y-16026960D02*
X20403396Y-16007912D01*
X20403396Y-16007912D02*
X20403396Y-15998388D01*
X20403396Y-15998388D02*
X20393873Y-15979341D01*
X20393873Y-15979341D02*
X20374825Y-15969817D01*
X20374825Y-15969817D02*
X20346253Y-15969817D01*
X20346253Y-15969817D02*
X20327206Y-15960293D01*
X20327206Y-15960293D02*
X20317682Y-15941246D01*
X20317682Y-15941246D02*
X20317682Y-15931722D01*
X20317682Y-15931722D02*
X20327206Y-15912674D01*
X20327206Y-15912674D02*
X20346253Y-15903150D01*
X20346253Y-15903150D02*
X20374825Y-15903150D01*
X20374825Y-15903150D02*
X20393873Y-15912674D01*
X20470063Y-16112674D02*
X20479587Y-16103150D01*
X20479587Y-16103150D02*
X20498634Y-16074579D01*
X20498634Y-16074579D02*
X20508158Y-16055531D01*
X20508158Y-16055531D02*
X20517682Y-16026960D01*
X20517682Y-16026960D02*
X20527206Y-15979341D01*
X20527206Y-15979341D02*
X20527206Y-15941246D01*
X20527206Y-15941246D02*
X20517682Y-15893627D01*
X20517682Y-15893627D02*
X20508158Y-15865055D01*
X20508158Y-15865055D02*
X20498634Y-15846008D01*
X20498634Y-15846008D02*
X20479587Y-15817436D01*
X20479587Y-15817436D02*
X20470063Y-15807912D01*
X20831968Y-16112674D02*
X20822444Y-16103150D01*
X20822444Y-16103150D02*
X20803396Y-16074579D01*
X20803396Y-16074579D02*
X20793873Y-16055531D01*
X20793873Y-16055531D02*
X20784349Y-16026960D01*
X20784349Y-16026960D02*
X20774825Y-15979341D01*
X20774825Y-15979341D02*
X20774825Y-15941246D01*
X20774825Y-15941246D02*
X20784349Y-15893627D01*
X20784349Y-15893627D02*
X20793873Y-15865055D01*
X20793873Y-15865055D02*
X20803396Y-15846008D01*
X20803396Y-15846008D02*
X20822444Y-15817436D01*
X20822444Y-15817436D02*
X20831968Y-15807912D01*
X20908158Y-15903150D02*
X20908158Y-16036484D01*
X20908158Y-15922198D02*
X20917682Y-15912674D01*
X20917682Y-15912674D02*
X20936730Y-15903150D01*
X20936730Y-15903150D02*
X20965301Y-15903150D01*
X20965301Y-15903150D02*
X20984349Y-15912674D01*
X20984349Y-15912674D02*
X20993873Y-15931722D01*
X20993873Y-15931722D02*
X20993873Y-16036484D01*
X21117682Y-16036484D02*
X21098634Y-16026960D01*
X21098634Y-16026960D02*
X21089111Y-16017436D01*
X21089111Y-16017436D02*
X21079587Y-15998388D01*
X21079587Y-15998388D02*
X21079587Y-15941246D01*
X21079587Y-15941246D02*
X21089111Y-15922198D01*
X21089111Y-15922198D02*
X21098634Y-15912674D01*
X21098634Y-15912674D02*
X21117682Y-15903150D01*
X21117682Y-15903150D02*
X21146254Y-15903150D01*
X21146254Y-15903150D02*
X21165301Y-15912674D01*
X21165301Y-15912674D02*
X21174825Y-15922198D01*
X21174825Y-15922198D02*
X21184349Y-15941246D01*
X21184349Y-15941246D02*
X21184349Y-15998388D01*
X21184349Y-15998388D02*
X21174825Y-16017436D01*
X21174825Y-16017436D02*
X21165301Y-16026960D01*
X21165301Y-16026960D02*
X21146254Y-16036484D01*
X21146254Y-16036484D02*
X21117682Y-16036484D01*
X21241492Y-15903150D02*
X21317682Y-15903150D01*
X21270063Y-15836484D02*
X21270063Y-16007912D01*
X21270063Y-16007912D02*
X21279587Y-16026960D01*
X21279587Y-16026960D02*
X21298634Y-16036484D01*
X21298634Y-16036484D02*
X21317682Y-16036484D01*
X21536730Y-15903150D02*
X21536730Y-16103150D01*
X21536730Y-15912674D02*
X21555777Y-15903150D01*
X21555777Y-15903150D02*
X21593873Y-15903150D01*
X21593873Y-15903150D02*
X21612920Y-15912674D01*
X21612920Y-15912674D02*
X21622444Y-15922198D01*
X21622444Y-15922198D02*
X21631968Y-15941246D01*
X21631968Y-15941246D02*
X21631968Y-15998388D01*
X21631968Y-15998388D02*
X21622444Y-16017436D01*
X21622444Y-16017436D02*
X21612920Y-16026960D01*
X21612920Y-16026960D02*
X21593873Y-16036484D01*
X21593873Y-16036484D02*
X21555777Y-16036484D01*
X21555777Y-16036484D02*
X21536730Y-16026960D01*
X21746254Y-16036484D02*
X21727206Y-16026960D01*
X21727206Y-16026960D02*
X21717682Y-16007912D01*
X21717682Y-16007912D02*
X21717682Y-15836484D01*
X21908158Y-16036484D02*
X21908158Y-15931722D01*
X21908158Y-15931722D02*
X21898635Y-15912674D01*
X21898635Y-15912674D02*
X21879587Y-15903150D01*
X21879587Y-15903150D02*
X21841492Y-15903150D01*
X21841492Y-15903150D02*
X21822444Y-15912674D01*
X21908158Y-16026960D02*
X21889111Y-16036484D01*
X21889111Y-16036484D02*
X21841492Y-16036484D01*
X21841492Y-16036484D02*
X21822444Y-16026960D01*
X21822444Y-16026960D02*
X21812920Y-16007912D01*
X21812920Y-16007912D02*
X21812920Y-15988865D01*
X21812920Y-15988865D02*
X21822444Y-15969817D01*
X21822444Y-15969817D02*
X21841492Y-15960293D01*
X21841492Y-15960293D02*
X21889111Y-15960293D01*
X21889111Y-15960293D02*
X21908158Y-15950769D01*
X21974825Y-15903150D02*
X22051015Y-15903150D01*
X22003396Y-15836484D02*
X22003396Y-16007912D01*
X22003396Y-16007912D02*
X22012920Y-16026960D01*
X22012920Y-16026960D02*
X22031968Y-16036484D01*
X22031968Y-16036484D02*
X22051015Y-16036484D01*
X22193873Y-16026960D02*
X22174825Y-16036484D01*
X22174825Y-16036484D02*
X22136730Y-16036484D01*
X22136730Y-16036484D02*
X22117682Y-16026960D01*
X22117682Y-16026960D02*
X22108158Y-16007912D01*
X22108158Y-16007912D02*
X22108158Y-15931722D01*
X22108158Y-15931722D02*
X22117682Y-15912674D01*
X22117682Y-15912674D02*
X22136730Y-15903150D01*
X22136730Y-15903150D02*
X22174825Y-15903150D01*
X22174825Y-15903150D02*
X22193873Y-15912674D01*
X22193873Y-15912674D02*
X22203396Y-15931722D01*
X22203396Y-15931722D02*
X22203396Y-15950769D01*
X22203396Y-15950769D02*
X22108158Y-15969817D01*
X22374825Y-16036484D02*
X22374825Y-15836484D01*
X22374825Y-16026960D02*
X22355777Y-16036484D01*
X22355777Y-16036484D02*
X22317682Y-16036484D01*
X22317682Y-16036484D02*
X22298635Y-16026960D01*
X22298635Y-16026960D02*
X22289111Y-16017436D01*
X22289111Y-16017436D02*
X22279587Y-15998388D01*
X22279587Y-15998388D02*
X22279587Y-15941246D01*
X22279587Y-15941246D02*
X22289111Y-15922198D01*
X22289111Y-15922198D02*
X22298635Y-15912674D01*
X22298635Y-15912674D02*
X22317682Y-15903150D01*
X22317682Y-15903150D02*
X22355777Y-15903150D01*
X22355777Y-15903150D02*
X22374825Y-15912674D01*
X22451015Y-16112674D02*
X22460539Y-16103150D01*
X22460539Y-16103150D02*
X22479587Y-16074579D01*
X22479587Y-16074579D02*
X22489111Y-16055531D01*
X22489111Y-16055531D02*
X22498634Y-16026960D01*
X22498634Y-16026960D02*
X22508158Y-15979341D01*
X22508158Y-15979341D02*
X22508158Y-15941246D01*
X22508158Y-15941246D02*
X22498634Y-15893627D01*
X22498634Y-15893627D02*
X22489111Y-15865055D01*
X22489111Y-15865055D02*
X22479587Y-15846008D01*
X22479587Y-15846008D02*
X22460539Y-15817436D01*
X22460539Y-15817436D02*
X22451015Y-15807912D01*
D12*
X15695000Y-16209000D02*
G75*
G02*
X15575000Y-16209000I-60000J0D01*
G01*
X15575000Y-16209000D02*
G75*
G02*
X15695000Y-16209000I60000J0D01*
G01*
D11*
X16060539Y-16300484D02*
X15946253Y-16300484D01*
X16003396Y-16300484D02*
X16003396Y-16100484D01*
X16003396Y-16100484D02*
X15984348Y-16129055D01*
X15984348Y-16129055D02*
X15965301Y-16148103D01*
X15965301Y-16148103D02*
X15946253Y-16157627D01*
X16146253Y-16281436D02*
X16155777Y-16290960D01*
X16155777Y-16290960D02*
X16146253Y-16300484D01*
X16146253Y-16300484D02*
X16136729Y-16290960D01*
X16136729Y-16290960D02*
X16146253Y-16281436D01*
X16146253Y-16281436D02*
X16146253Y-16300484D01*
X16231967Y-16119531D02*
X16241491Y-16110008D01*
X16241491Y-16110008D02*
X16260539Y-16100484D01*
X16260539Y-16100484D02*
X16308158Y-16100484D01*
X16308158Y-16100484D02*
X16327205Y-16110008D01*
X16327205Y-16110008D02*
X16336729Y-16119531D01*
X16336729Y-16119531D02*
X16346253Y-16138579D01*
X16346253Y-16138579D02*
X16346253Y-16157627D01*
X16346253Y-16157627D02*
X16336729Y-16186198D01*
X16336729Y-16186198D02*
X16222443Y-16300484D01*
X16222443Y-16300484D02*
X16346253Y-16300484D01*
X16470062Y-16100484D02*
X16489110Y-16100484D01*
X16489110Y-16100484D02*
X16508158Y-16110008D01*
X16508158Y-16110008D02*
X16517682Y-16119531D01*
X16517682Y-16119531D02*
X16527205Y-16138579D01*
X16527205Y-16138579D02*
X16536729Y-16176674D01*
X16536729Y-16176674D02*
X16536729Y-16224293D01*
X16536729Y-16224293D02*
X16527205Y-16262388D01*
X16527205Y-16262388D02*
X16517682Y-16281436D01*
X16517682Y-16281436D02*
X16508158Y-16290960D01*
X16508158Y-16290960D02*
X16489110Y-16300484D01*
X16489110Y-16300484D02*
X16470062Y-16300484D01*
X16470062Y-16300484D02*
X16451015Y-16290960D01*
X16451015Y-16290960D02*
X16441491Y-16281436D01*
X16441491Y-16281436D02*
X16431967Y-16262388D01*
X16431967Y-16262388D02*
X16422443Y-16224293D01*
X16422443Y-16224293D02*
X16422443Y-16176674D01*
X16422443Y-16176674D02*
X16431967Y-16138579D01*
X16431967Y-16138579D02*
X16441491Y-16119531D01*
X16441491Y-16119531D02*
X16451015Y-16110008D01*
X16451015Y-16110008D02*
X16470062Y-16100484D01*
X16660539Y-16100484D02*
X16679586Y-16100484D01*
X16679586Y-16100484D02*
X16698634Y-16110008D01*
X16698634Y-16110008D02*
X16708158Y-16119531D01*
X16708158Y-16119531D02*
X16717682Y-16138579D01*
X16717682Y-16138579D02*
X16727205Y-16176674D01*
X16727205Y-16176674D02*
X16727205Y-16224293D01*
X16727205Y-16224293D02*
X16717682Y-16262388D01*
X16717682Y-16262388D02*
X16708158Y-16281436D01*
X16708158Y-16281436D02*
X16698634Y-16290960D01*
X16698634Y-16290960D02*
X16679586Y-16300484D01*
X16679586Y-16300484D02*
X16660539Y-16300484D01*
X16660539Y-16300484D02*
X16641491Y-16290960D01*
X16641491Y-16290960D02*
X16631967Y-16281436D01*
X16631967Y-16281436D02*
X16622443Y-16262388D01*
X16622443Y-16262388D02*
X16612920Y-16224293D01*
X16612920Y-16224293D02*
X16612920Y-16176674D01*
X16612920Y-16176674D02*
X16622443Y-16138579D01*
X16622443Y-16138579D02*
X16631967Y-16119531D01*
X16631967Y-16119531D02*
X16641491Y-16110008D01*
X16641491Y-16110008D02*
X16660539Y-16100484D01*
X16812920Y-16300484D02*
X16812920Y-16167150D01*
X16812920Y-16186198D02*
X16822444Y-16176674D01*
X16822444Y-16176674D02*
X16841491Y-16167150D01*
X16841491Y-16167150D02*
X16870063Y-16167150D01*
X16870063Y-16167150D02*
X16889110Y-16176674D01*
X16889110Y-16176674D02*
X16898634Y-16195722D01*
X16898634Y-16195722D02*
X16898634Y-16300484D01*
X16898634Y-16195722D02*
X16908158Y-16176674D01*
X16908158Y-16176674D02*
X16927205Y-16167150D01*
X16927205Y-16167150D02*
X16955777Y-16167150D01*
X16955777Y-16167150D02*
X16974825Y-16176674D01*
X16974825Y-16176674D02*
X16984348Y-16195722D01*
X16984348Y-16195722D02*
X16984348Y-16300484D01*
X17079586Y-16300484D02*
X17079586Y-16167150D01*
X17079586Y-16186198D02*
X17089110Y-16176674D01*
X17089110Y-16176674D02*
X17108158Y-16167150D01*
X17108158Y-16167150D02*
X17136729Y-16167150D01*
X17136729Y-16167150D02*
X17155777Y-16176674D01*
X17155777Y-16176674D02*
X17165301Y-16195722D01*
X17165301Y-16195722D02*
X17165301Y-16300484D01*
X17165301Y-16195722D02*
X17174825Y-16176674D01*
X17174825Y-16176674D02*
X17193872Y-16167150D01*
X17193872Y-16167150D02*
X17222444Y-16167150D01*
X17222444Y-16167150D02*
X17241491Y-16176674D01*
X17241491Y-16176674D02*
X17251015Y-16195722D01*
X17251015Y-16195722D02*
X17251015Y-16300484D01*
X17641491Y-16090960D02*
X17470063Y-16348103D01*
X17898634Y-16100484D02*
X17917682Y-16100484D01*
X17917682Y-16100484D02*
X17936729Y-16110008D01*
X17936729Y-16110008D02*
X17946253Y-16119531D01*
X17946253Y-16119531D02*
X17955777Y-16138579D01*
X17955777Y-16138579D02*
X17965301Y-16176674D01*
X17965301Y-16176674D02*
X17965301Y-16224293D01*
X17965301Y-16224293D02*
X17955777Y-16262388D01*
X17955777Y-16262388D02*
X17946253Y-16281436D01*
X17946253Y-16281436D02*
X17936729Y-16290960D01*
X17936729Y-16290960D02*
X17917682Y-16300484D01*
X17917682Y-16300484D02*
X17898634Y-16300484D01*
X17898634Y-16300484D02*
X17879587Y-16290960D01*
X17879587Y-16290960D02*
X17870063Y-16281436D01*
X17870063Y-16281436D02*
X17860539Y-16262388D01*
X17860539Y-16262388D02*
X17851015Y-16224293D01*
X17851015Y-16224293D02*
X17851015Y-16176674D01*
X17851015Y-16176674D02*
X17860539Y-16138579D01*
X17860539Y-16138579D02*
X17870063Y-16119531D01*
X17870063Y-16119531D02*
X17879587Y-16110008D01*
X17879587Y-16110008D02*
X17898634Y-16100484D01*
X18051015Y-16281436D02*
X18060539Y-16290960D01*
X18060539Y-16290960D02*
X18051015Y-16300484D01*
X18051015Y-16300484D02*
X18041491Y-16290960D01*
X18041491Y-16290960D02*
X18051015Y-16281436D01*
X18051015Y-16281436D02*
X18051015Y-16300484D01*
X18184348Y-16100484D02*
X18203396Y-16100484D01*
X18203396Y-16100484D02*
X18222444Y-16110008D01*
X18222444Y-16110008D02*
X18231968Y-16119531D01*
X18231968Y-16119531D02*
X18241491Y-16138579D01*
X18241491Y-16138579D02*
X18251015Y-16176674D01*
X18251015Y-16176674D02*
X18251015Y-16224293D01*
X18251015Y-16224293D02*
X18241491Y-16262388D01*
X18241491Y-16262388D02*
X18231968Y-16281436D01*
X18231968Y-16281436D02*
X18222444Y-16290960D01*
X18222444Y-16290960D02*
X18203396Y-16300484D01*
X18203396Y-16300484D02*
X18184348Y-16300484D01*
X18184348Y-16300484D02*
X18165301Y-16290960D01*
X18165301Y-16290960D02*
X18155777Y-16281436D01*
X18155777Y-16281436D02*
X18146253Y-16262388D01*
X18146253Y-16262388D02*
X18136729Y-16224293D01*
X18136729Y-16224293D02*
X18136729Y-16176674D01*
X18136729Y-16176674D02*
X18146253Y-16138579D01*
X18146253Y-16138579D02*
X18155777Y-16119531D01*
X18155777Y-16119531D02*
X18165301Y-16110008D01*
X18165301Y-16110008D02*
X18184348Y-16100484D01*
X18422444Y-16167150D02*
X18422444Y-16300484D01*
X18374825Y-16090960D02*
X18327206Y-16233817D01*
X18327206Y-16233817D02*
X18451015Y-16233817D01*
X18508158Y-16100484D02*
X18641491Y-16100484D01*
X18641491Y-16100484D02*
X18555777Y-16300484D01*
X18708158Y-16119531D02*
X18717682Y-16110008D01*
X18717682Y-16110008D02*
X18736729Y-16100484D01*
X18736729Y-16100484D02*
X18784349Y-16100484D01*
X18784349Y-16100484D02*
X18803396Y-16110008D01*
X18803396Y-16110008D02*
X18812920Y-16119531D01*
X18812920Y-16119531D02*
X18822444Y-16138579D01*
X18822444Y-16138579D02*
X18822444Y-16157627D01*
X18822444Y-16157627D02*
X18812920Y-16186198D01*
X18812920Y-16186198D02*
X18698634Y-16300484D01*
X18698634Y-16300484D02*
X18822444Y-16300484D01*
X18898634Y-16100484D02*
X18898634Y-16138579D01*
X18974825Y-16100484D02*
X18974825Y-16138579D01*
X19270063Y-16376674D02*
X19260539Y-16367150D01*
X19260539Y-16367150D02*
X19241491Y-16338579D01*
X19241491Y-16338579D02*
X19231968Y-16319531D01*
X19231968Y-16319531D02*
X19222444Y-16290960D01*
X19222444Y-16290960D02*
X19212920Y-16243341D01*
X19212920Y-16243341D02*
X19212920Y-16205246D01*
X19212920Y-16205246D02*
X19222444Y-16157627D01*
X19222444Y-16157627D02*
X19231968Y-16129055D01*
X19231968Y-16129055D02*
X19241491Y-16110008D01*
X19241491Y-16110008D02*
X19260539Y-16081436D01*
X19260539Y-16081436D02*
X19270063Y-16071912D01*
X19451015Y-16300484D02*
X19336730Y-16300484D01*
X19393872Y-16300484D02*
X19393872Y-16100484D01*
X19393872Y-16100484D02*
X19374825Y-16129055D01*
X19374825Y-16129055D02*
X19355777Y-16148103D01*
X19355777Y-16148103D02*
X19336730Y-16157627D01*
X19689111Y-16300484D02*
X19689111Y-16100484D01*
X19774825Y-16300484D02*
X19774825Y-16195722D01*
X19774825Y-16195722D02*
X19765301Y-16176674D01*
X19765301Y-16176674D02*
X19746253Y-16167150D01*
X19746253Y-16167150D02*
X19717682Y-16167150D01*
X19717682Y-16167150D02*
X19698634Y-16176674D01*
X19698634Y-16176674D02*
X19689111Y-16186198D01*
X19898634Y-16300484D02*
X19879587Y-16290960D01*
X19879587Y-16290960D02*
X19870063Y-16281436D01*
X19870063Y-16281436D02*
X19860539Y-16262388D01*
X19860539Y-16262388D02*
X19860539Y-16205246D01*
X19860539Y-16205246D02*
X19870063Y-16186198D01*
X19870063Y-16186198D02*
X19879587Y-16176674D01*
X19879587Y-16176674D02*
X19898634Y-16167150D01*
X19898634Y-16167150D02*
X19927206Y-16167150D01*
X19927206Y-16167150D02*
X19946253Y-16176674D01*
X19946253Y-16176674D02*
X19955777Y-16186198D01*
X19955777Y-16186198D02*
X19965301Y-16205246D01*
X19965301Y-16205246D02*
X19965301Y-16262388D01*
X19965301Y-16262388D02*
X19955777Y-16281436D01*
X19955777Y-16281436D02*
X19946253Y-16290960D01*
X19946253Y-16290960D02*
X19927206Y-16300484D01*
X19927206Y-16300484D02*
X19898634Y-16300484D01*
X20079587Y-16300484D02*
X20060539Y-16290960D01*
X20060539Y-16290960D02*
X20051015Y-16271912D01*
X20051015Y-16271912D02*
X20051015Y-16100484D01*
X20231968Y-16290960D02*
X20212920Y-16300484D01*
X20212920Y-16300484D02*
X20174825Y-16300484D01*
X20174825Y-16300484D02*
X20155777Y-16290960D01*
X20155777Y-16290960D02*
X20146253Y-16271912D01*
X20146253Y-16271912D02*
X20146253Y-16195722D01*
X20146253Y-16195722D02*
X20155777Y-16176674D01*
X20155777Y-16176674D02*
X20174825Y-16167150D01*
X20174825Y-16167150D02*
X20212920Y-16167150D01*
X20212920Y-16167150D02*
X20231968Y-16176674D01*
X20231968Y-16176674D02*
X20241492Y-16195722D01*
X20241492Y-16195722D02*
X20241492Y-16214769D01*
X20241492Y-16214769D02*
X20146253Y-16233817D01*
X20308158Y-16376674D02*
X20317682Y-16367150D01*
X20317682Y-16367150D02*
X20336730Y-16338579D01*
X20336730Y-16338579D02*
X20346253Y-16319531D01*
X20346253Y-16319531D02*
X20355777Y-16290960D01*
X20355777Y-16290960D02*
X20365301Y-16243341D01*
X20365301Y-16243341D02*
X20365301Y-16205246D01*
X20365301Y-16205246D02*
X20355777Y-16157627D01*
X20355777Y-16157627D02*
X20346253Y-16129055D01*
X20346253Y-16129055D02*
X20336730Y-16110008D01*
X20336730Y-16110008D02*
X20317682Y-16081436D01*
X20317682Y-16081436D02*
X20308158Y-16071912D01*
X20670063Y-16376674D02*
X20660539Y-16367150D01*
X20660539Y-16367150D02*
X20641492Y-16338579D01*
X20641492Y-16338579D02*
X20631968Y-16319531D01*
X20631968Y-16319531D02*
X20622444Y-16290960D01*
X20622444Y-16290960D02*
X20612920Y-16243341D01*
X20612920Y-16243341D02*
X20612920Y-16205246D01*
X20612920Y-16205246D02*
X20622444Y-16157627D01*
X20622444Y-16157627D02*
X20631968Y-16129055D01*
X20631968Y-16129055D02*
X20641492Y-16110008D01*
X20641492Y-16110008D02*
X20660539Y-16081436D01*
X20660539Y-16081436D02*
X20670063Y-16071912D01*
X20746253Y-16167150D02*
X20746253Y-16300484D01*
X20746253Y-16186198D02*
X20755777Y-16176674D01*
X20755777Y-16176674D02*
X20774825Y-16167150D01*
X20774825Y-16167150D02*
X20803396Y-16167150D01*
X20803396Y-16167150D02*
X20822444Y-16176674D01*
X20822444Y-16176674D02*
X20831968Y-16195722D01*
X20831968Y-16195722D02*
X20831968Y-16300484D01*
X20955777Y-16300484D02*
X20936730Y-16290960D01*
X20936730Y-16290960D02*
X20927206Y-16281436D01*
X20927206Y-16281436D02*
X20917682Y-16262388D01*
X20917682Y-16262388D02*
X20917682Y-16205246D01*
X20917682Y-16205246D02*
X20927206Y-16186198D01*
X20927206Y-16186198D02*
X20936730Y-16176674D01*
X20936730Y-16176674D02*
X20955777Y-16167150D01*
X20955777Y-16167150D02*
X20984349Y-16167150D01*
X20984349Y-16167150D02*
X21003396Y-16176674D01*
X21003396Y-16176674D02*
X21012920Y-16186198D01*
X21012920Y-16186198D02*
X21022444Y-16205246D01*
X21022444Y-16205246D02*
X21022444Y-16262388D01*
X21022444Y-16262388D02*
X21012920Y-16281436D01*
X21012920Y-16281436D02*
X21003396Y-16290960D01*
X21003396Y-16290960D02*
X20984349Y-16300484D01*
X20984349Y-16300484D02*
X20955777Y-16300484D01*
X21079587Y-16167150D02*
X21155777Y-16167150D01*
X21108158Y-16100484D02*
X21108158Y-16271912D01*
X21108158Y-16271912D02*
X21117682Y-16290960D01*
X21117682Y-16290960D02*
X21136730Y-16300484D01*
X21136730Y-16300484D02*
X21155777Y-16300484D01*
X21374825Y-16167150D02*
X21374825Y-16367150D01*
X21374825Y-16176674D02*
X21393873Y-16167150D01*
X21393873Y-16167150D02*
X21431968Y-16167150D01*
X21431968Y-16167150D02*
X21451015Y-16176674D01*
X21451015Y-16176674D02*
X21460539Y-16186198D01*
X21460539Y-16186198D02*
X21470063Y-16205246D01*
X21470063Y-16205246D02*
X21470063Y-16262388D01*
X21470063Y-16262388D02*
X21460539Y-16281436D01*
X21460539Y-16281436D02*
X21451015Y-16290960D01*
X21451015Y-16290960D02*
X21431968Y-16300484D01*
X21431968Y-16300484D02*
X21393873Y-16300484D01*
X21393873Y-16300484D02*
X21374825Y-16290960D01*
X21584349Y-16300484D02*
X21565301Y-16290960D01*
X21565301Y-16290960D02*
X21555777Y-16271912D01*
X21555777Y-16271912D02*
X21555777Y-16100484D01*
X21746254Y-16300484D02*
X21746254Y-16195722D01*
X21746254Y-16195722D02*
X21736730Y-16176674D01*
X21736730Y-16176674D02*
X21717682Y-16167150D01*
X21717682Y-16167150D02*
X21679587Y-16167150D01*
X21679587Y-16167150D02*
X21660539Y-16176674D01*
X21746254Y-16290960D02*
X21727206Y-16300484D01*
X21727206Y-16300484D02*
X21679587Y-16300484D01*
X21679587Y-16300484D02*
X21660539Y-16290960D01*
X21660539Y-16290960D02*
X21651015Y-16271912D01*
X21651015Y-16271912D02*
X21651015Y-16252865D01*
X21651015Y-16252865D02*
X21660539Y-16233817D01*
X21660539Y-16233817D02*
X21679587Y-16224293D01*
X21679587Y-16224293D02*
X21727206Y-16224293D01*
X21727206Y-16224293D02*
X21746254Y-16214769D01*
X21812920Y-16167150D02*
X21889111Y-16167150D01*
X21841492Y-16100484D02*
X21841492Y-16271912D01*
X21841492Y-16271912D02*
X21851015Y-16290960D01*
X21851015Y-16290960D02*
X21870063Y-16300484D01*
X21870063Y-16300484D02*
X21889111Y-16300484D01*
X22031968Y-16290960D02*
X22012920Y-16300484D01*
X22012920Y-16300484D02*
X21974825Y-16300484D01*
X21974825Y-16300484D02*
X21955777Y-16290960D01*
X21955777Y-16290960D02*
X21946254Y-16271912D01*
X21946254Y-16271912D02*
X21946254Y-16195722D01*
X21946254Y-16195722D02*
X21955777Y-16176674D01*
X21955777Y-16176674D02*
X21974825Y-16167150D01*
X21974825Y-16167150D02*
X22012920Y-16167150D01*
X22012920Y-16167150D02*
X22031968Y-16176674D01*
X22031968Y-16176674D02*
X22041492Y-16195722D01*
X22041492Y-16195722D02*
X22041492Y-16214769D01*
X22041492Y-16214769D02*
X21946254Y-16233817D01*
X22212920Y-16300484D02*
X22212920Y-16100484D01*
X22212920Y-16290960D02*
X22193873Y-16300484D01*
X22193873Y-16300484D02*
X22155777Y-16300484D01*
X22155777Y-16300484D02*
X22136730Y-16290960D01*
X22136730Y-16290960D02*
X22127206Y-16281436D01*
X22127206Y-16281436D02*
X22117682Y-16262388D01*
X22117682Y-16262388D02*
X22117682Y-16205246D01*
X22117682Y-16205246D02*
X22127206Y-16186198D01*
X22127206Y-16186198D02*
X22136730Y-16176674D01*
X22136730Y-16176674D02*
X22155777Y-16167150D01*
X22155777Y-16167150D02*
X22193873Y-16167150D01*
X22193873Y-16167150D02*
X22212920Y-16176674D01*
X22289111Y-16376674D02*
X22298635Y-16367150D01*
X22298635Y-16367150D02*
X22317682Y-16338579D01*
X22317682Y-16338579D02*
X22327206Y-16319531D01*
X22327206Y-16319531D02*
X22336730Y-16290960D01*
X22336730Y-16290960D02*
X22346254Y-16243341D01*
X22346254Y-16243341D02*
X22346254Y-16205246D01*
X22346254Y-16205246D02*
X22336730Y-16157627D01*
X22336730Y-16157627D02*
X22327206Y-16129055D01*
X22327206Y-16129055D02*
X22317682Y-16110008D01*
X22317682Y-16110008D02*
X22298635Y-16081436D01*
X22298635Y-16081436D02*
X22289111Y-16071912D01*
D13*
X15630000Y-16408000D02*
X15630000Y-16538000D01*
X15565000Y-16473000D02*
X15695000Y-16473000D01*
D11*
X16060539Y-16564484D02*
X15946253Y-16564484D01*
X16003396Y-16564484D02*
X16003396Y-16364484D01*
X16003396Y-16364484D02*
X15984348Y-16393055D01*
X15984348Y-16393055D02*
X15965301Y-16412103D01*
X15965301Y-16412103D02*
X15946253Y-16421627D01*
X16146253Y-16545436D02*
X16155777Y-16554960D01*
X16155777Y-16554960D02*
X16146253Y-16564484D01*
X16146253Y-16564484D02*
X16136729Y-16554960D01*
X16136729Y-16554960D02*
X16146253Y-16545436D01*
X16146253Y-16545436D02*
X16146253Y-16564484D01*
X16222443Y-16364484D02*
X16346253Y-16364484D01*
X16346253Y-16364484D02*
X16279586Y-16440674D01*
X16279586Y-16440674D02*
X16308158Y-16440674D01*
X16308158Y-16440674D02*
X16327205Y-16450198D01*
X16327205Y-16450198D02*
X16336729Y-16459722D01*
X16336729Y-16459722D02*
X16346253Y-16478769D01*
X16346253Y-16478769D02*
X16346253Y-16526388D01*
X16346253Y-16526388D02*
X16336729Y-16545436D01*
X16336729Y-16545436D02*
X16327205Y-16554960D01*
X16327205Y-16554960D02*
X16308158Y-16564484D01*
X16308158Y-16564484D02*
X16251015Y-16564484D01*
X16251015Y-16564484D02*
X16231967Y-16554960D01*
X16231967Y-16554960D02*
X16222443Y-16545436D01*
X16470062Y-16364484D02*
X16489110Y-16364484D01*
X16489110Y-16364484D02*
X16508158Y-16374008D01*
X16508158Y-16374008D02*
X16517682Y-16383531D01*
X16517682Y-16383531D02*
X16527205Y-16402579D01*
X16527205Y-16402579D02*
X16536729Y-16440674D01*
X16536729Y-16440674D02*
X16536729Y-16488293D01*
X16536729Y-16488293D02*
X16527205Y-16526388D01*
X16527205Y-16526388D02*
X16517682Y-16545436D01*
X16517682Y-16545436D02*
X16508158Y-16554960D01*
X16508158Y-16554960D02*
X16489110Y-16564484D01*
X16489110Y-16564484D02*
X16470062Y-16564484D01*
X16470062Y-16564484D02*
X16451015Y-16554960D01*
X16451015Y-16554960D02*
X16441491Y-16545436D01*
X16441491Y-16545436D02*
X16431967Y-16526388D01*
X16431967Y-16526388D02*
X16422443Y-16488293D01*
X16422443Y-16488293D02*
X16422443Y-16440674D01*
X16422443Y-16440674D02*
X16431967Y-16402579D01*
X16431967Y-16402579D02*
X16441491Y-16383531D01*
X16441491Y-16383531D02*
X16451015Y-16374008D01*
X16451015Y-16374008D02*
X16470062Y-16364484D01*
X16660539Y-16364484D02*
X16679586Y-16364484D01*
X16679586Y-16364484D02*
X16698634Y-16374008D01*
X16698634Y-16374008D02*
X16708158Y-16383531D01*
X16708158Y-16383531D02*
X16717682Y-16402579D01*
X16717682Y-16402579D02*
X16727205Y-16440674D01*
X16727205Y-16440674D02*
X16727205Y-16488293D01*
X16727205Y-16488293D02*
X16717682Y-16526388D01*
X16717682Y-16526388D02*
X16708158Y-16545436D01*
X16708158Y-16545436D02*
X16698634Y-16554960D01*
X16698634Y-16554960D02*
X16679586Y-16564484D01*
X16679586Y-16564484D02*
X16660539Y-16564484D01*
X16660539Y-16564484D02*
X16641491Y-16554960D01*
X16641491Y-16554960D02*
X16631967Y-16545436D01*
X16631967Y-16545436D02*
X16622443Y-16526388D01*
X16622443Y-16526388D02*
X16612920Y-16488293D01*
X16612920Y-16488293D02*
X16612920Y-16440674D01*
X16612920Y-16440674D02*
X16622443Y-16402579D01*
X16622443Y-16402579D02*
X16631967Y-16383531D01*
X16631967Y-16383531D02*
X16641491Y-16374008D01*
X16641491Y-16374008D02*
X16660539Y-16364484D01*
X16812920Y-16564484D02*
X16812920Y-16431150D01*
X16812920Y-16450198D02*
X16822444Y-16440674D01*
X16822444Y-16440674D02*
X16841491Y-16431150D01*
X16841491Y-16431150D02*
X16870063Y-16431150D01*
X16870063Y-16431150D02*
X16889110Y-16440674D01*
X16889110Y-16440674D02*
X16898634Y-16459722D01*
X16898634Y-16459722D02*
X16898634Y-16564484D01*
X16898634Y-16459722D02*
X16908158Y-16440674D01*
X16908158Y-16440674D02*
X16927205Y-16431150D01*
X16927205Y-16431150D02*
X16955777Y-16431150D01*
X16955777Y-16431150D02*
X16974825Y-16440674D01*
X16974825Y-16440674D02*
X16984348Y-16459722D01*
X16984348Y-16459722D02*
X16984348Y-16564484D01*
X17079586Y-16564484D02*
X17079586Y-16431150D01*
X17079586Y-16450198D02*
X17089110Y-16440674D01*
X17089110Y-16440674D02*
X17108158Y-16431150D01*
X17108158Y-16431150D02*
X17136729Y-16431150D01*
X17136729Y-16431150D02*
X17155777Y-16440674D01*
X17155777Y-16440674D02*
X17165301Y-16459722D01*
X17165301Y-16459722D02*
X17165301Y-16564484D01*
X17165301Y-16459722D02*
X17174825Y-16440674D01*
X17174825Y-16440674D02*
X17193872Y-16431150D01*
X17193872Y-16431150D02*
X17222444Y-16431150D01*
X17222444Y-16431150D02*
X17241491Y-16440674D01*
X17241491Y-16440674D02*
X17251015Y-16459722D01*
X17251015Y-16459722D02*
X17251015Y-16564484D01*
X17641491Y-16354960D02*
X17470063Y-16612103D01*
X17898634Y-16364484D02*
X17917682Y-16364484D01*
X17917682Y-16364484D02*
X17936729Y-16374008D01*
X17936729Y-16374008D02*
X17946253Y-16383531D01*
X17946253Y-16383531D02*
X17955777Y-16402579D01*
X17955777Y-16402579D02*
X17965301Y-16440674D01*
X17965301Y-16440674D02*
X17965301Y-16488293D01*
X17965301Y-16488293D02*
X17955777Y-16526388D01*
X17955777Y-16526388D02*
X17946253Y-16545436D01*
X17946253Y-16545436D02*
X17936729Y-16554960D01*
X17936729Y-16554960D02*
X17917682Y-16564484D01*
X17917682Y-16564484D02*
X17898634Y-16564484D01*
X17898634Y-16564484D02*
X17879587Y-16554960D01*
X17879587Y-16554960D02*
X17870063Y-16545436D01*
X17870063Y-16545436D02*
X17860539Y-16526388D01*
X17860539Y-16526388D02*
X17851015Y-16488293D01*
X17851015Y-16488293D02*
X17851015Y-16440674D01*
X17851015Y-16440674D02*
X17860539Y-16402579D01*
X17860539Y-16402579D02*
X17870063Y-16383531D01*
X17870063Y-16383531D02*
X17879587Y-16374008D01*
X17879587Y-16374008D02*
X17898634Y-16364484D01*
X18051015Y-16545436D02*
X18060539Y-16554960D01*
X18060539Y-16554960D02*
X18051015Y-16564484D01*
X18051015Y-16564484D02*
X18041491Y-16554960D01*
X18041491Y-16554960D02*
X18051015Y-16545436D01*
X18051015Y-16545436D02*
X18051015Y-16564484D01*
X18184348Y-16364484D02*
X18203396Y-16364484D01*
X18203396Y-16364484D02*
X18222444Y-16374008D01*
X18222444Y-16374008D02*
X18231968Y-16383531D01*
X18231968Y-16383531D02*
X18241491Y-16402579D01*
X18241491Y-16402579D02*
X18251015Y-16440674D01*
X18251015Y-16440674D02*
X18251015Y-16488293D01*
X18251015Y-16488293D02*
X18241491Y-16526388D01*
X18241491Y-16526388D02*
X18231968Y-16545436D01*
X18231968Y-16545436D02*
X18222444Y-16554960D01*
X18222444Y-16554960D02*
X18203396Y-16564484D01*
X18203396Y-16564484D02*
X18184348Y-16564484D01*
X18184348Y-16564484D02*
X18165301Y-16554960D01*
X18165301Y-16554960D02*
X18155777Y-16545436D01*
X18155777Y-16545436D02*
X18146253Y-16526388D01*
X18146253Y-16526388D02*
X18136729Y-16488293D01*
X18136729Y-16488293D02*
X18136729Y-16440674D01*
X18136729Y-16440674D02*
X18146253Y-16402579D01*
X18146253Y-16402579D02*
X18155777Y-16383531D01*
X18155777Y-16383531D02*
X18165301Y-16374008D01*
X18165301Y-16374008D02*
X18184348Y-16364484D01*
X18431968Y-16364484D02*
X18336729Y-16364484D01*
X18336729Y-16364484D02*
X18327206Y-16459722D01*
X18327206Y-16459722D02*
X18336729Y-16450198D01*
X18336729Y-16450198D02*
X18355777Y-16440674D01*
X18355777Y-16440674D02*
X18403396Y-16440674D01*
X18403396Y-16440674D02*
X18422444Y-16450198D01*
X18422444Y-16450198D02*
X18431968Y-16459722D01*
X18431968Y-16459722D02*
X18441491Y-16478769D01*
X18441491Y-16478769D02*
X18441491Y-16526388D01*
X18441491Y-16526388D02*
X18431968Y-16545436D01*
X18431968Y-16545436D02*
X18422444Y-16554960D01*
X18422444Y-16554960D02*
X18403396Y-16564484D01*
X18403396Y-16564484D02*
X18355777Y-16564484D01*
X18355777Y-16564484D02*
X18336729Y-16554960D01*
X18336729Y-16554960D02*
X18327206Y-16545436D01*
X18631968Y-16564484D02*
X18517682Y-16564484D01*
X18574825Y-16564484D02*
X18574825Y-16364484D01*
X18574825Y-16364484D02*
X18555777Y-16393055D01*
X18555777Y-16393055D02*
X18536729Y-16412103D01*
X18536729Y-16412103D02*
X18517682Y-16421627D01*
X18708158Y-16383531D02*
X18717682Y-16374008D01*
X18717682Y-16374008D02*
X18736729Y-16364484D01*
X18736729Y-16364484D02*
X18784349Y-16364484D01*
X18784349Y-16364484D02*
X18803396Y-16374008D01*
X18803396Y-16374008D02*
X18812920Y-16383531D01*
X18812920Y-16383531D02*
X18822444Y-16402579D01*
X18822444Y-16402579D02*
X18822444Y-16421627D01*
X18822444Y-16421627D02*
X18812920Y-16450198D01*
X18812920Y-16450198D02*
X18698634Y-16564484D01*
X18698634Y-16564484D02*
X18822444Y-16564484D01*
X18898634Y-16364484D02*
X18898634Y-16402579D01*
X18974825Y-16364484D02*
X18974825Y-16402579D01*
X19270063Y-16640674D02*
X19260539Y-16631150D01*
X19260539Y-16631150D02*
X19241491Y-16602579D01*
X19241491Y-16602579D02*
X19231968Y-16583531D01*
X19231968Y-16583531D02*
X19222444Y-16554960D01*
X19222444Y-16554960D02*
X19212920Y-16507341D01*
X19212920Y-16507341D02*
X19212920Y-16469246D01*
X19212920Y-16469246D02*
X19222444Y-16421627D01*
X19222444Y-16421627D02*
X19231968Y-16393055D01*
X19231968Y-16393055D02*
X19241491Y-16374008D01*
X19241491Y-16374008D02*
X19260539Y-16345436D01*
X19260539Y-16345436D02*
X19270063Y-16335912D01*
X19336730Y-16383531D02*
X19346253Y-16374008D01*
X19346253Y-16374008D02*
X19365301Y-16364484D01*
X19365301Y-16364484D02*
X19412920Y-16364484D01*
X19412920Y-16364484D02*
X19431968Y-16374008D01*
X19431968Y-16374008D02*
X19441491Y-16383531D01*
X19441491Y-16383531D02*
X19451015Y-16402579D01*
X19451015Y-16402579D02*
X19451015Y-16421627D01*
X19451015Y-16421627D02*
X19441491Y-16450198D01*
X19441491Y-16450198D02*
X19327206Y-16564484D01*
X19327206Y-16564484D02*
X19451015Y-16564484D01*
X19689111Y-16564484D02*
X19689111Y-16364484D01*
X19774825Y-16564484D02*
X19774825Y-16459722D01*
X19774825Y-16459722D02*
X19765301Y-16440674D01*
X19765301Y-16440674D02*
X19746253Y-16431150D01*
X19746253Y-16431150D02*
X19717682Y-16431150D01*
X19717682Y-16431150D02*
X19698634Y-16440674D01*
X19698634Y-16440674D02*
X19689111Y-16450198D01*
X19898634Y-16564484D02*
X19879587Y-16554960D01*
X19879587Y-16554960D02*
X19870063Y-16545436D01*
X19870063Y-16545436D02*
X19860539Y-16526388D01*
X19860539Y-16526388D02*
X19860539Y-16469246D01*
X19860539Y-16469246D02*
X19870063Y-16450198D01*
X19870063Y-16450198D02*
X19879587Y-16440674D01*
X19879587Y-16440674D02*
X19898634Y-16431150D01*
X19898634Y-16431150D02*
X19927206Y-16431150D01*
X19927206Y-16431150D02*
X19946253Y-16440674D01*
X19946253Y-16440674D02*
X19955777Y-16450198D01*
X19955777Y-16450198D02*
X19965301Y-16469246D01*
X19965301Y-16469246D02*
X19965301Y-16526388D01*
X19965301Y-16526388D02*
X19955777Y-16545436D01*
X19955777Y-16545436D02*
X19946253Y-16554960D01*
X19946253Y-16554960D02*
X19927206Y-16564484D01*
X19927206Y-16564484D02*
X19898634Y-16564484D01*
X20079587Y-16564484D02*
X20060539Y-16554960D01*
X20060539Y-16554960D02*
X20051015Y-16535912D01*
X20051015Y-16535912D02*
X20051015Y-16364484D01*
X20231968Y-16554960D02*
X20212920Y-16564484D01*
X20212920Y-16564484D02*
X20174825Y-16564484D01*
X20174825Y-16564484D02*
X20155777Y-16554960D01*
X20155777Y-16554960D02*
X20146253Y-16535912D01*
X20146253Y-16535912D02*
X20146253Y-16459722D01*
X20146253Y-16459722D02*
X20155777Y-16440674D01*
X20155777Y-16440674D02*
X20174825Y-16431150D01*
X20174825Y-16431150D02*
X20212920Y-16431150D01*
X20212920Y-16431150D02*
X20231968Y-16440674D01*
X20231968Y-16440674D02*
X20241492Y-16459722D01*
X20241492Y-16459722D02*
X20241492Y-16478769D01*
X20241492Y-16478769D02*
X20146253Y-16497817D01*
X20317682Y-16554960D02*
X20336730Y-16564484D01*
X20336730Y-16564484D02*
X20374825Y-16564484D01*
X20374825Y-16564484D02*
X20393873Y-16554960D01*
X20393873Y-16554960D02*
X20403396Y-16535912D01*
X20403396Y-16535912D02*
X20403396Y-16526388D01*
X20403396Y-16526388D02*
X20393873Y-16507341D01*
X20393873Y-16507341D02*
X20374825Y-16497817D01*
X20374825Y-16497817D02*
X20346253Y-16497817D01*
X20346253Y-16497817D02*
X20327206Y-16488293D01*
X20327206Y-16488293D02*
X20317682Y-16469246D01*
X20317682Y-16469246D02*
X20317682Y-16459722D01*
X20317682Y-16459722D02*
X20327206Y-16440674D01*
X20327206Y-16440674D02*
X20346253Y-16431150D01*
X20346253Y-16431150D02*
X20374825Y-16431150D01*
X20374825Y-16431150D02*
X20393873Y-16440674D01*
X20470063Y-16640674D02*
X20479587Y-16631150D01*
X20479587Y-16631150D02*
X20498634Y-16602579D01*
X20498634Y-16602579D02*
X20508158Y-16583531D01*
X20508158Y-16583531D02*
X20517682Y-16554960D01*
X20517682Y-16554960D02*
X20527206Y-16507341D01*
X20527206Y-16507341D02*
X20527206Y-16469246D01*
X20527206Y-16469246D02*
X20517682Y-16421627D01*
X20517682Y-16421627D02*
X20508158Y-16393055D01*
X20508158Y-16393055D02*
X20498634Y-16374008D01*
X20498634Y-16374008D02*
X20479587Y-16345436D01*
X20479587Y-16345436D02*
X20470063Y-16335912D01*
X20831968Y-16640674D02*
X20822444Y-16631150D01*
X20822444Y-16631150D02*
X20803396Y-16602579D01*
X20803396Y-16602579D02*
X20793873Y-16583531D01*
X20793873Y-16583531D02*
X20784349Y-16554960D01*
X20784349Y-16554960D02*
X20774825Y-16507341D01*
X20774825Y-16507341D02*
X20774825Y-16469246D01*
X20774825Y-16469246D02*
X20784349Y-16421627D01*
X20784349Y-16421627D02*
X20793873Y-16393055D01*
X20793873Y-16393055D02*
X20803396Y-16374008D01*
X20803396Y-16374008D02*
X20822444Y-16345436D01*
X20822444Y-16345436D02*
X20831968Y-16335912D01*
X20908158Y-16431150D02*
X20908158Y-16564484D01*
X20908158Y-16450198D02*
X20917682Y-16440674D01*
X20917682Y-16440674D02*
X20936730Y-16431150D01*
X20936730Y-16431150D02*
X20965301Y-16431150D01*
X20965301Y-16431150D02*
X20984349Y-16440674D01*
X20984349Y-16440674D02*
X20993873Y-16459722D01*
X20993873Y-16459722D02*
X20993873Y-16564484D01*
X21117682Y-16564484D02*
X21098634Y-16554960D01*
X21098634Y-16554960D02*
X21089111Y-16545436D01*
X21089111Y-16545436D02*
X21079587Y-16526388D01*
X21079587Y-16526388D02*
X21079587Y-16469246D01*
X21079587Y-16469246D02*
X21089111Y-16450198D01*
X21089111Y-16450198D02*
X21098634Y-16440674D01*
X21098634Y-16440674D02*
X21117682Y-16431150D01*
X21117682Y-16431150D02*
X21146254Y-16431150D01*
X21146254Y-16431150D02*
X21165301Y-16440674D01*
X21165301Y-16440674D02*
X21174825Y-16450198D01*
X21174825Y-16450198D02*
X21184349Y-16469246D01*
X21184349Y-16469246D02*
X21184349Y-16526388D01*
X21184349Y-16526388D02*
X21174825Y-16545436D01*
X21174825Y-16545436D02*
X21165301Y-16554960D01*
X21165301Y-16554960D02*
X21146254Y-16564484D01*
X21146254Y-16564484D02*
X21117682Y-16564484D01*
X21241492Y-16431150D02*
X21317682Y-16431150D01*
X21270063Y-16364484D02*
X21270063Y-16535912D01*
X21270063Y-16535912D02*
X21279587Y-16554960D01*
X21279587Y-16554960D02*
X21298634Y-16564484D01*
X21298634Y-16564484D02*
X21317682Y-16564484D01*
X21536730Y-16431150D02*
X21536730Y-16631150D01*
X21536730Y-16440674D02*
X21555777Y-16431150D01*
X21555777Y-16431150D02*
X21593873Y-16431150D01*
X21593873Y-16431150D02*
X21612920Y-16440674D01*
X21612920Y-16440674D02*
X21622444Y-16450198D01*
X21622444Y-16450198D02*
X21631968Y-16469246D01*
X21631968Y-16469246D02*
X21631968Y-16526388D01*
X21631968Y-16526388D02*
X21622444Y-16545436D01*
X21622444Y-16545436D02*
X21612920Y-16554960D01*
X21612920Y-16554960D02*
X21593873Y-16564484D01*
X21593873Y-16564484D02*
X21555777Y-16564484D01*
X21555777Y-16564484D02*
X21536730Y-16554960D01*
X21746254Y-16564484D02*
X21727206Y-16554960D01*
X21727206Y-16554960D02*
X21717682Y-16535912D01*
X21717682Y-16535912D02*
X21717682Y-16364484D01*
X21908158Y-16564484D02*
X21908158Y-16459722D01*
X21908158Y-16459722D02*
X21898635Y-16440674D01*
X21898635Y-16440674D02*
X21879587Y-16431150D01*
X21879587Y-16431150D02*
X21841492Y-16431150D01*
X21841492Y-16431150D02*
X21822444Y-16440674D01*
X21908158Y-16554960D02*
X21889111Y-16564484D01*
X21889111Y-16564484D02*
X21841492Y-16564484D01*
X21841492Y-16564484D02*
X21822444Y-16554960D01*
X21822444Y-16554960D02*
X21812920Y-16535912D01*
X21812920Y-16535912D02*
X21812920Y-16516865D01*
X21812920Y-16516865D02*
X21822444Y-16497817D01*
X21822444Y-16497817D02*
X21841492Y-16488293D01*
X21841492Y-16488293D02*
X21889111Y-16488293D01*
X21889111Y-16488293D02*
X21908158Y-16478769D01*
X21974825Y-16431150D02*
X22051015Y-16431150D01*
X22003396Y-16364484D02*
X22003396Y-16535912D01*
X22003396Y-16535912D02*
X22012920Y-16554960D01*
X22012920Y-16554960D02*
X22031968Y-16564484D01*
X22031968Y-16564484D02*
X22051015Y-16564484D01*
X22193873Y-16554960D02*
X22174825Y-16564484D01*
X22174825Y-16564484D02*
X22136730Y-16564484D01*
X22136730Y-16564484D02*
X22117682Y-16554960D01*
X22117682Y-16554960D02*
X22108158Y-16535912D01*
X22108158Y-16535912D02*
X22108158Y-16459722D01*
X22108158Y-16459722D02*
X22117682Y-16440674D01*
X22117682Y-16440674D02*
X22136730Y-16431150D01*
X22136730Y-16431150D02*
X22174825Y-16431150D01*
X22174825Y-16431150D02*
X22193873Y-16440674D01*
X22193873Y-16440674D02*
X22203396Y-16459722D01*
X22203396Y-16459722D02*
X22203396Y-16478769D01*
X22203396Y-16478769D02*
X22108158Y-16497817D01*
X22374825Y-16564484D02*
X22374825Y-16364484D01*
X22374825Y-16554960D02*
X22355777Y-16564484D01*
X22355777Y-16564484D02*
X22317682Y-16564484D01*
X22317682Y-16564484D02*
X22298635Y-16554960D01*
X22298635Y-16554960D02*
X22289111Y-16545436D01*
X22289111Y-16545436D02*
X22279587Y-16526388D01*
X22279587Y-16526388D02*
X22279587Y-16469246D01*
X22279587Y-16469246D02*
X22289111Y-16450198D01*
X22289111Y-16450198D02*
X22298635Y-16440674D01*
X22298635Y-16440674D02*
X22317682Y-16431150D01*
X22317682Y-16431150D02*
X22355777Y-16431150D01*
X22355777Y-16431150D02*
X22374825Y-16440674D01*
X22451015Y-16640674D02*
X22460539Y-16631150D01*
X22460539Y-16631150D02*
X22479587Y-16602579D01*
X22479587Y-16602579D02*
X22489111Y-16583531D01*
X22489111Y-16583531D02*
X22498634Y-16554960D01*
X22498634Y-16554960D02*
X22508158Y-16507341D01*
X22508158Y-16507341D02*
X22508158Y-16469246D01*
X22508158Y-16469246D02*
X22498634Y-16421627D01*
X22498634Y-16421627D02*
X22489111Y-16393055D01*
X22489111Y-16393055D02*
X22479587Y-16374008D01*
X22479587Y-16374008D02*
X22460539Y-16345436D01*
X22460539Y-16345436D02*
X22451015Y-16335912D01*
M02*
