%TF.GenerationSoftware,KiCad,Pcbnew,8.0.9-8.0.9-0~ubuntu24.04.1*%
%TF.CreationDate,2025-03-18T20:07:38+01:00*%
%TF.ProjectId,jack2bluetooth,6a61636b-3262-46c7-9565-746f6f74682e,v3.0*%
%TF.SameCoordinates,Original*%
%TF.FileFunction,Copper,L4,Bot*%
%TF.FilePolarity,Positive*%
%FSLAX46Y46*%
G04 Gerber Fmt 4.6, Leading zero omitted, Abs format (unit mm)*
G04 Created by KiCad (PCBNEW 8.0.9-8.0.9-0~ubuntu24.04.1) date 2025-03-18 20:07:38*
%MOMM*%
%LPD*%
G01*
G04 APERTURE LIST*
G04 Aperture macros list*
%AMRoundRect*
0 Rectangle with rounded corners*
0 $1 Rounding radius*
0 $2 $3 $4 $5 $6 $7 $8 $9 X,Y pos of 4 corners*
0 Add a 4 corners polygon primitive as box body*
4,1,4,$2,$3,$4,$5,$6,$7,$8,$9,$2,$3,0*
0 Add four circle primitives for the rounded corners*
1,1,$1+$1,$2,$3*
1,1,$1+$1,$4,$5*
1,1,$1+$1,$6,$7*
1,1,$1+$1,$8,$9*
0 Add four rect primitives between the rounded corners*
20,1,$1+$1,$2,$3,$4,$5,0*
20,1,$1+$1,$4,$5,$6,$7,0*
20,1,$1+$1,$6,$7,$8,$9,0*
20,1,$1+$1,$8,$9,$2,$3,0*%
G04 Aperture macros list end*
%TA.AperFunction,ComponentPad*%
%ADD10R,1.700000X1.700000*%
%TD*%
%TA.AperFunction,ComponentPad*%
%ADD11O,1.700000X1.700000*%
%TD*%
%TA.AperFunction,HeatsinkPad*%
%ADD12O,2.100000X1.000000*%
%TD*%
%TA.AperFunction,HeatsinkPad*%
%ADD13O,1.800000X1.000000*%
%TD*%
%TA.AperFunction,ComponentPad*%
%ADD14R,2.160000X2.160000*%
%TD*%
%TA.AperFunction,ComponentPad*%
%ADD15C,2.160000*%
%TD*%
%TA.AperFunction,ComponentPad*%
%ADD16C,2.000000*%
%TD*%
%TA.AperFunction,ComponentPad*%
%ADD17R,2.500000X2.550000*%
%TD*%
%TA.AperFunction,ComponentPad*%
%ADD18C,2.500000*%
%TD*%
%TA.AperFunction,SMDPad,CuDef*%
%ADD19RoundRect,0.250000X0.325000X0.450000X-0.325000X0.450000X-0.325000X-0.450000X0.325000X-0.450000X0*%
%TD*%
%TA.AperFunction,ComponentPad*%
%ADD20O,1.500000X2.600000*%
%TD*%
%TA.AperFunction,SMDPad,CuDef*%
%ADD21RoundRect,0.250000X0.450000X-0.350000X0.450000X0.350000X-0.450000X0.350000X-0.450000X-0.350000X0*%
%TD*%
%TA.AperFunction,SMDPad,CuDef*%
%ADD22RoundRect,0.250000X-0.325000X-0.450000X0.325000X-0.450000X0.325000X0.450000X-0.325000X0.450000X0*%
%TD*%
%TA.AperFunction,SMDPad,CuDef*%
%ADD23RoundRect,0.250000X-0.450000X0.350000X-0.450000X-0.350000X0.450000X-0.350000X0.450000X0.350000X0*%
%TD*%
%TA.AperFunction,ViaPad*%
%ADD24C,1.000000*%
%TD*%
%TA.AperFunction,ViaPad*%
%ADD25C,0.800000*%
%TD*%
%TA.AperFunction,Conductor*%
%ADD26C,0.300000*%
%TD*%
%TA.AperFunction,Conductor*%
%ADD27C,0.500000*%
%TD*%
G04 APERTURE END LIST*
D10*
%TO.P,JP5,1,A*%
%TO.N,HPLOUT*%
X214400000Y-116750000D03*
D11*
%TO.P,JP5,2,B*%
%TO.N,Net-(JP4-B)*%
X216940000Y-116750000D03*
%TD*%
D12*
%TO.P,J2,S1,SHIELD*%
%TO.N,BAT-*%
X233820000Y-143960000D03*
D13*
X238000000Y-143960000D03*
D12*
X233820000Y-135320000D03*
D13*
X238000000Y-135320000D03*
%TD*%
D14*
%TO.P,J4,1,SLEEVE*%
%TO.N,GNDA*%
X237600000Y-113250000D03*
D15*
%TO.P,J4,2,RING*%
%TO.N,jack35_right*%
X229500000Y-114850000D03*
%TO.P,J4,3,TIP*%
%TO.N,jack35_left*%
X232600000Y-109650000D03*
%TD*%
D10*
%TO.P,JP3,1,A*%
%TO.N,HPRCOM*%
X214400000Y-109250000D03*
D11*
%TO.P,JP3,2,B*%
%TO.N,Net-(JP2-B)*%
X216940000Y-109250000D03*
%TD*%
D10*
%TO.P,JP4,1,A*%
%TO.N,HPLCOM*%
X214400000Y-113000000D03*
D11*
%TO.P,JP4,2,B*%
%TO.N,Net-(JP4-B)*%
X216940000Y-113000000D03*
%TD*%
D10*
%TO.P,JP1,1,A*%
%TO.N,Net-(JP1-A)*%
X232725000Y-132500000D03*
D11*
%TO.P,JP1,2,C*%
%TO.N,PSEL*%
X235265000Y-132500000D03*
%TO.P,JP1,3,B*%
%TO.N,BAT-*%
X237805000Y-132500000D03*
%TD*%
D10*
%TO.P,JP2,1,A*%
%TO.N,HPROUT*%
X214400000Y-105500000D03*
D11*
%TO.P,JP2,2,B*%
%TO.N,Net-(JP2-B)*%
X216940000Y-105500000D03*
%TD*%
D16*
%TO.P,SW6,1,1*%
%TO.N,BAT-*%
X184000000Y-143000000D03*
X184000000Y-136500000D03*
%TO.P,SW6,2,2*%
%TO.N,mcu_enable*%
X188500000Y-143000000D03*
X188500000Y-136500000D03*
%TD*%
D10*
%TO.P,J3,1,Pin_1*%
%TO.N,VCC*%
X173000000Y-150750000D03*
D11*
%TO.P,J3,2,Pin_2*%
%TO.N,IO16*%
X170460000Y-150750000D03*
%TO.P,J3,3,Pin_3*%
%TO.N,IO17*%
X167920000Y-150750000D03*
%TO.P,J3,4,Pin_4*%
%TO.N,BAT-*%
X165380000Y-150750000D03*
%TD*%
D10*
%TO.P,J6,1,Pin_1*%
%TO.N,IO4*%
X159250000Y-137420000D03*
D11*
%TO.P,J6,2,Pin_2*%
%TO.N,IO5*%
X159250000Y-139960000D03*
%TO.P,J6,3,Pin_3*%
%TO.N,IO6*%
X159250000Y-142500000D03*
%TO.P,J6,4,Pin_4*%
%TO.N,IO7*%
X159250000Y-145040000D03*
%TD*%
D17*
%TO.P,J1,1,SLEEVE*%
%TO.N,GNDA*%
X237775000Y-126500000D03*
D18*
%TO.P,J1,2,TIP_1*%
%TO.N,jack25_left*%
X232875000Y-124650000D03*
%TO.P,J1,3,TIP_2*%
X232875000Y-128350000D03*
%TO.P,J1,4,RING*%
%TO.N,jack25_right*%
X230875000Y-126500000D03*
%TD*%
D19*
%TO.P,D7,1,K*%
%TO.N,Net-(D7-K)*%
X225125000Y-128500000D03*
%TO.P,D7,2,A*%
%TO.N,led_dac*%
X223075000Y-128500000D03*
%TD*%
D10*
%TO.P,J9,1,Pin_1*%
%TO.N,lcd_blk*%
X192410000Y-103250000D03*
D11*
%TO.P,J9,2,Pin_2*%
%TO.N,BAT-*%
X189870000Y-103250000D03*
%TO.P,J9,3,Pin_3*%
%TO.N,IO17*%
X187330000Y-103250000D03*
%TO.P,J9,4,Pin_4*%
%TO.N,IO15*%
X184790000Y-103250000D03*
%TO.P,J9,5,Pin_5*%
%TO.N,IO16*%
X182250000Y-103250000D03*
%TO.P,J9,6,Pin_6*%
%TO.N,IO3*%
X179710000Y-103250000D03*
%TO.P,J9,7,Pin_7*%
%TO.N,BAT-*%
X177170000Y-103250000D03*
%TO.P,J9,8,Pin_8*%
%TO.N,lcd_blk*%
X174630000Y-103250000D03*
%TD*%
D16*
%TO.P,SW1,1,1*%
%TO.N,IO4*%
X179750000Y-143000000D03*
X179750000Y-136500000D03*
%TO.P,SW1,2,2*%
%TO.N,+3.3V*%
X175250000Y-143000000D03*
X175250000Y-136500000D03*
%TD*%
D20*
%TO.P,SW5,1,A*%
%TO.N,Net-(SW5-A)*%
X224000000Y-116750000D03*
%TO.P,SW5,2,B*%
%TO.N,IO1*%
X224000000Y-119750000D03*
%TO.P,SW5,3,C*%
%TO.N,BAT-*%
X224000000Y-122750000D03*
%TD*%
D10*
%TO.P,J5,1,Pin_1*%
%TO.N,BATTS*%
X209725000Y-150800000D03*
D11*
%TO.P,J5,2,Pin_2*%
%TO.N,BAT-*%
X212265000Y-150800000D03*
%TO.P,J5,3,Pin_3*%
%TO.N,BAT+*%
X214805000Y-150800000D03*
%TD*%
D21*
%TO.P,R30,1*%
%TO.N,IO9*%
X215750000Y-122250000D03*
%TO.P,R30,2*%
%TO.N,led_adc*%
X215750000Y-120250000D03*
%TD*%
D22*
%TO.P,D8,1,K*%
%TO.N,STAT*%
X168225000Y-106750000D03*
%TO.P,D8,2,A*%
%TO.N,Net-(D8-A)*%
X170275000Y-106750000D03*
%TD*%
%TO.P,D1,1,K*%
%TO.N,BAT-*%
X168225000Y-101750000D03*
%TO.P,D1,2,A*%
%TO.N,Net-(D1-A)*%
X170275000Y-101750000D03*
%TD*%
D21*
%TO.P,R8,1*%
%TO.N,Net-(D7-K)*%
X218250000Y-128000000D03*
%TO.P,R8,2*%
%TO.N,BAT-*%
X218250000Y-126000000D03*
%TD*%
D10*
%TO.P,J7,1,Pin_1*%
%TO.N,BAT-*%
X165000000Y-102460000D03*
D11*
%TO.P,J7,2,Pin_2*%
%TO.N,nQON*%
X165000000Y-105000000D03*
%TD*%
D23*
%TO.P,R31,1*%
%TO.N,IO8*%
X215750000Y-126000000D03*
%TO.P,R31,2*%
%TO.N,led_dac*%
X215750000Y-128000000D03*
%TD*%
D16*
%TO.P,SW3,1,1*%
%TO.N,IO5*%
X214750000Y-143000000D03*
X214750000Y-136500000D03*
%TO.P,SW3,2,2*%
%TO.N,+3.3V*%
X210250000Y-143000000D03*
X210250000Y-136500000D03*
%TD*%
%TO.P,SW2,1,1*%
%TO.N,IO0*%
X197250000Y-143000000D03*
X197250000Y-136500000D03*
%TO.P,SW2,2,2*%
%TO.N,+3.3V*%
X192750000Y-143000000D03*
X192750000Y-136500000D03*
%TD*%
D23*
%TO.P,R7,1*%
%TO.N,Net-(D4-K)*%
X218250000Y-120250000D03*
%TO.P,R7,2*%
%TO.N,BAT-*%
X218250000Y-122250000D03*
%TD*%
D19*
%TO.P,D4,1,K*%
%TO.N,Net-(D4-K)*%
X225025000Y-111000000D03*
%TO.P,D4,2,A*%
%TO.N,led_adc*%
X222975000Y-111000000D03*
%TD*%
D24*
%TO.N,IO8*%
X200875000Y-136375000D03*
X200500000Y-119750000D03*
X170500000Y-128500000D03*
%TO.N,IO9*%
X174750000Y-106150000D03*
X199250000Y-116750000D03*
X205040000Y-137000000D03*
X175500000Y-114750000D03*
X177000000Y-109500000D03*
D25*
%TO.N,IO11*%
X220750000Y-139200000D03*
D24*
X172970000Y-128500000D03*
D25*
%TO.N,IO10*%
X219750000Y-138500000D03*
D24*
X171750000Y-128500000D03*
%TO.N,IO4*%
X162750000Y-124750000D03*
X166986980Y-122210938D03*
%TO.N,IO5*%
X168448959Y-121948959D03*
X163894482Y-125110776D03*
%TO.N,IO0*%
X168000000Y-128500000D03*
%TO.N,IO7*%
X193750000Y-116000000D03*
X176745066Y-118772852D03*
D25*
X225750000Y-141750000D03*
D24*
%TO.N,IO1*%
X200625000Y-118375000D03*
%TO.N,IO6*%
X195000000Y-116000000D03*
D25*
X225250000Y-140750000D03*
D24*
X176998335Y-117599882D03*
%TO.N,IO17*%
X167000000Y-143250000D03*
X163828649Y-111376567D03*
%TO.N,IO16*%
X166000000Y-142000000D03*
X162500000Y-111250000D03*
%TO.N,IO15*%
X165350000Y-111243754D03*
%TO.N,mcu_enable*%
X168500000Y-139250000D03*
X165000000Y-135150000D03*
%TO.N,GNDA*%
X199092500Y-104250000D03*
D25*
X203200000Y-111150000D03*
D24*
X208514321Y-127841238D03*
X208500000Y-123750000D03*
X205750000Y-115750000D03*
X205750000Y-106575000D03*
D25*
X199800000Y-111200000D03*
D24*
%TO.N,+3.3V*%
X219500000Y-118750000D03*
X160537500Y-131750000D03*
X165150001Y-129009187D03*
X189500000Y-148500000D03*
X170000000Y-132750000D03*
X171546330Y-103888734D03*
X160250000Y-128750000D03*
X170250000Y-138000000D03*
X191250000Y-114287500D03*
%TO.N,BAT-*%
X158500000Y-128750000D03*
X214500000Y-129400000D03*
X220250000Y-146246625D03*
X189100000Y-146250000D03*
X211500000Y-140750000D03*
X226750000Y-135750000D03*
X225250000Y-151250000D03*
X179750000Y-126250000D03*
X185500000Y-148750000D03*
X183500000Y-146250000D03*
X211000000Y-147946625D03*
X190537500Y-126000000D03*
X174750000Y-140750000D03*
X196500000Y-121250000D03*
X192843276Y-127770307D03*
X197250000Y-115750000D03*
X180750000Y-113750000D03*
X183500000Y-106250000D03*
X201250000Y-126050000D03*
X194250000Y-151250000D03*
X172250000Y-115250000D03*
X203750000Y-144000000D03*
X177750000Y-148500000D03*
X222750000Y-143500000D03*
X191250000Y-112212500D03*
X164758643Y-131900000D03*
X199000000Y-140000000D03*
X158462500Y-131750000D03*
X185000000Y-140000000D03*
X167000000Y-145250000D03*
X181000000Y-119500000D03*
X194500000Y-142500000D03*
X228500000Y-141750000D03*
X170750000Y-118250000D03*
X183250000Y-126250000D03*
X194925000Y-104250000D03*
X159000000Y-107500000D03*
X203500000Y-150750000D03*
%TO.N,+1V8*%
X197000000Y-104250000D03*
X187187500Y-126000000D03*
X194250000Y-119600000D03*
D25*
X196000000Y-108750000D03*
D24*
%TO.N,REGN*%
X227750000Y-134250000D03*
X225000000Y-148900000D03*
X203500000Y-148750000D03*
%TO.N,VCC*%
X230250000Y-142750000D03*
X226750000Y-137000000D03*
X171750000Y-145000000D03*
X231250000Y-137500000D03*
%TO.N,SYSTEM*%
X191500000Y-121250000D03*
X216600000Y-145500000D03*
X199250000Y-150000000D03*
X195250000Y-128000000D03*
X198706604Y-125714862D03*
D25*
%TO.N,STAT*%
X226650000Y-141000000D03*
D24*
%TO.N,Net-(D8-A)*%
X186421933Y-122500000D03*
%TO.N,+3.3VA*%
X201167500Y-104250000D03*
X205750000Y-108650000D03*
X205010000Y-124000000D03*
X206000000Y-113612500D03*
D25*
%TO.N,BATTS*%
X220250000Y-140750000D03*
D24*
%TO.N,Net-(IC2-PMID_GOOD)*%
X230500000Y-148250000D03*
D25*
X226500000Y-143750000D03*
%TO.N,PSEL*%
X225750000Y-144500000D03*
%TO.N,nQON*%
X218750000Y-141250000D03*
D24*
%TO.N,Net-(D1-A)*%
X226000000Y-133500000D03*
%TD*%
D26*
%TO.N,IO8*%
X203650000Y-122900000D02*
X212650000Y-122900000D01*
X175500000Y-133500000D02*
X198000000Y-133500000D01*
X170500000Y-128500000D02*
X175500000Y-133500000D01*
X198000000Y-133500000D02*
X200875000Y-136375000D01*
X212650000Y-122900000D02*
X215750000Y-126000000D01*
X200500000Y-119750000D02*
X203650000Y-122900000D01*
%TO.N,IO9*%
X177900000Y-121650000D02*
X175500000Y-119250000D01*
X199250000Y-116750000D02*
X200202082Y-116750000D01*
X190150000Y-121650000D02*
X177900000Y-121650000D01*
X177000000Y-113250000D02*
X175500000Y-114750000D01*
X215000000Y-121500000D02*
X215750000Y-122250000D01*
X174750000Y-106250000D02*
X177000000Y-108500000D01*
X194900000Y-126400000D02*
X190150000Y-121650000D01*
X205040000Y-137000000D02*
X205040000Y-135040000D01*
X177000000Y-109500000D02*
X177000000Y-113250000D01*
X174750000Y-106150000D02*
X174750000Y-106250000D01*
X175500000Y-119250000D02*
X175500000Y-114750000D01*
X177000000Y-108500000D02*
X177000000Y-109500000D01*
X205040000Y-135040000D02*
X196400000Y-126400000D01*
X196400000Y-126400000D02*
X194900000Y-126400000D01*
X200202082Y-116750000D02*
X204952082Y-121500000D01*
X204952082Y-121500000D02*
X215000000Y-121500000D01*
%TO.N,IO11*%
X204457106Y-138000000D02*
X219189339Y-138000000D01*
X173000000Y-128500000D02*
X177000000Y-132500000D01*
X220060661Y-137750000D02*
X220750000Y-138439339D01*
X198957106Y-132500000D02*
X204457106Y-138000000D01*
X220750000Y-138439339D02*
X220750000Y-139200000D01*
X177000000Y-132500000D02*
X198957106Y-132500000D01*
X219439339Y-137750000D02*
X220060661Y-137750000D01*
X172970000Y-128500000D02*
X173000000Y-128500000D01*
X219189339Y-138000000D02*
X219439339Y-137750000D01*
%TO.N,IO10*%
X171750000Y-128750000D02*
X176000000Y-133000000D01*
X176000000Y-133000000D02*
X198750000Y-133000000D01*
X171750000Y-128500000D02*
X171750000Y-128750000D01*
X198750000Y-133000000D02*
X204250000Y-138500000D01*
X204250000Y-138500000D02*
X219750000Y-138500000D01*
%TO.N,IO4*%
X166986980Y-122210938D02*
X167000000Y-122223958D01*
X161387500Y-126112500D02*
X161387500Y-135282500D01*
X178250000Y-138000000D02*
X179750000Y-136500000D01*
X167000000Y-131800000D02*
X173200000Y-138000000D01*
X173200000Y-138000000D02*
X178250000Y-138000000D01*
X162750000Y-124750000D02*
X161387500Y-126112500D01*
X167000000Y-122223958D02*
X167000000Y-131800000D01*
X161387500Y-135282500D02*
X159250000Y-137420000D01*
%TO.N,IO5*%
X211852082Y-139900000D02*
X214750000Y-142797918D01*
X163894482Y-125110776D02*
X161887500Y-127117758D01*
X168500000Y-122000000D02*
X168500000Y-127750000D01*
X202900000Y-139900000D02*
X211852082Y-139900000D01*
X174750000Y-134000000D02*
X197000000Y-134000000D01*
X168500000Y-127750000D02*
X174750000Y-134000000D01*
X197000000Y-134000000D02*
X202900000Y-139900000D01*
X214750000Y-142797918D02*
X214750000Y-143000000D01*
X161887500Y-127117758D02*
X161887500Y-137322500D01*
X161887500Y-137322500D02*
X159250000Y-139960000D01*
X168448959Y-121948959D02*
X168500000Y-122000000D01*
%TO.N,IO0*%
X174150000Y-134650000D02*
X195400000Y-134650000D01*
X168000000Y-128500000D02*
X174150000Y-134650000D01*
X195400000Y-134650000D02*
X197250000Y-136500000D01*
%TO.N,IO7*%
X215750000Y-131250000D02*
X223750000Y-139250000D01*
X225189339Y-141750000D02*
X225750000Y-141750000D01*
X223750000Y-139250000D02*
X223750000Y-140310661D01*
X193750000Y-116000000D02*
X193797918Y-116000000D01*
X180250000Y-116000000D02*
X193750000Y-116000000D01*
X193797918Y-116000000D02*
X209047918Y-131250000D01*
X177477148Y-118772852D02*
X180250000Y-116000000D01*
X223750000Y-140310661D02*
X225189339Y-141750000D01*
X176745066Y-118772852D02*
X177477148Y-118772852D01*
X209047918Y-131250000D02*
X215750000Y-131250000D01*
%TO.N,IO1*%
X217544544Y-121300000D02*
X222450000Y-121300000D01*
X217200000Y-121644544D02*
X217544544Y-121300000D01*
X216805456Y-123250000D02*
X217200000Y-122855456D01*
X213707106Y-123250000D02*
X216805456Y-123250000D01*
X222450000Y-121300000D02*
X224000000Y-119750000D01*
X200625000Y-118375000D02*
X204650000Y-122400000D01*
X217200000Y-122855456D02*
X217200000Y-121644544D01*
X212857106Y-122400000D02*
X213707106Y-123250000D01*
X204650000Y-122400000D02*
X212857106Y-122400000D01*
%TO.N,IO6*%
X195000000Y-116452082D02*
X195000000Y-116000000D01*
X216250000Y-130750000D02*
X209297918Y-130750000D01*
X209297918Y-130750000D02*
X195000000Y-116452082D01*
X225250000Y-140750000D02*
X225250000Y-139750000D01*
X177650118Y-117599882D02*
X180100000Y-115150000D01*
X176998335Y-117599882D02*
X177650118Y-117599882D01*
X180100000Y-115150000D02*
X194150000Y-115150000D01*
X225250000Y-139750000D02*
X216250000Y-130750000D01*
X194150000Y-115150000D02*
X195000000Y-116000000D01*
%TO.N,IO17*%
X163900000Y-138400000D02*
X167000000Y-141500000D01*
X163828649Y-111376567D02*
X166000000Y-113547918D01*
X167000000Y-141500000D02*
X167000000Y-143250000D01*
X163900000Y-129057106D02*
X163900000Y-138400000D01*
X166000000Y-113547918D02*
X166000000Y-126957106D01*
X166000000Y-126957106D02*
X163900000Y-129057106D01*
%TO.N,IO16*%
X163400000Y-139400000D02*
X166000000Y-142000000D01*
X165500000Y-126750000D02*
X163400000Y-128850000D01*
X163400000Y-128850000D02*
X163400000Y-139400000D01*
X162500000Y-111250000D02*
X165500000Y-114250000D01*
X165500000Y-114250000D02*
X165500000Y-126750000D01*
%TO.N,IO15*%
X165350000Y-107150000D02*
X169700000Y-102800000D01*
X165350000Y-111243754D02*
X165350000Y-107150000D01*
X183590000Y-102050000D02*
X184790000Y-103250000D01*
X169700000Y-102800000D02*
X171950000Y-102800000D01*
X172700000Y-102050000D02*
X183590000Y-102050000D01*
X171950000Y-102800000D02*
X172700000Y-102050000D01*
%TO.N,mcu_enable*%
X165000000Y-135750000D02*
X168500000Y-139250000D01*
X165000000Y-135150000D02*
X165000000Y-135750000D01*
D27*
%TO.N,BAT-*%
X225250000Y-131000000D02*
X226575000Y-129675000D01*
X216705635Y-129650000D02*
X218055635Y-131000000D01*
X214750000Y-129650000D02*
X216705635Y-129650000D01*
X165000000Y-102460000D02*
X167515000Y-102460000D01*
X218250000Y-122250000D02*
X223500000Y-122250000D01*
X218055635Y-131000000D02*
X225250000Y-131000000D01*
X226575000Y-125325000D02*
X224000000Y-122750000D01*
X218250000Y-126000000D02*
X220750000Y-126000000D01*
X226575000Y-129675000D02*
X226575000Y-125325000D01*
X223500000Y-122250000D02*
X224000000Y-122750000D01*
X220750000Y-126000000D02*
X224000000Y-122750000D01*
X214500000Y-129400000D02*
X214750000Y-129650000D01*
X167515000Y-102460000D02*
X168225000Y-101750000D01*
D26*
%TO.N,led_adc*%
X222975000Y-113025000D02*
X222975000Y-111000000D01*
X215750000Y-120250000D02*
X222975000Y-113025000D01*
%TO.N,led_dac*%
X216450000Y-128000000D02*
X217700000Y-129250000D01*
X222325000Y-129250000D02*
X223075000Y-128500000D01*
X215750000Y-128000000D02*
X216450000Y-128000000D01*
X217700000Y-129250000D02*
X222325000Y-129250000D01*
%TO.N,Net-(D7-K)*%
X218250000Y-128000000D02*
X219250000Y-127000000D01*
X219250000Y-127000000D02*
X224000000Y-127000000D01*
X224000000Y-127000000D02*
X225125000Y-128125000D01*
X225125000Y-128125000D02*
X225125000Y-128500000D01*
%TO.N,STAT*%
X209505024Y-130250000D02*
X195850000Y-116594976D01*
X171800000Y-104700000D02*
X171500000Y-105000000D01*
X195850000Y-116594976D02*
X195850000Y-115647918D01*
X195850000Y-115647918D02*
X193452082Y-113250000D01*
X169975000Y-105000000D02*
X168225000Y-106750000D01*
X193452082Y-113250000D02*
X183202082Y-113250000D01*
X174652082Y-104700000D02*
X171800000Y-104700000D01*
X226650000Y-141000000D02*
X226650000Y-140442893D01*
X226650000Y-140442893D02*
X216457107Y-130250000D01*
X171500000Y-105000000D02*
X169975000Y-105000000D01*
X216457107Y-130250000D02*
X209505024Y-130250000D01*
X183202082Y-113250000D02*
X174652082Y-104700000D01*
%TO.N,Net-(D8-A)*%
X177500000Y-122500000D02*
X170275000Y-115275000D01*
X170275000Y-115275000D02*
X170275000Y-106725000D01*
X186421933Y-122500000D02*
X177500000Y-122500000D01*
%TO.N,Net-(D4-K)*%
X225025000Y-112022918D02*
X225025000Y-111000000D01*
X218250000Y-118797918D02*
X225025000Y-112022918D01*
X225400000Y-111400000D02*
X225400000Y-111000000D01*
X218250000Y-120250000D02*
X218250000Y-118797918D01*
%TO.N,BATTS*%
X220250000Y-141500000D02*
X217800000Y-143950000D01*
X220250000Y-140750000D02*
X220250000Y-141500000D01*
X217800000Y-145950000D02*
X214550000Y-149200000D01*
X214550000Y-149200000D02*
X211325000Y-149200000D01*
X211325000Y-149200000D02*
X209725000Y-150800000D01*
X217800000Y-143950000D02*
X217800000Y-145950000D01*
%TO.N,Net-(IC2-PMID_GOOD)*%
X229250000Y-148250000D02*
X226500000Y-145500000D01*
X226500000Y-145500000D02*
X226500000Y-143750000D01*
X230500000Y-148250000D02*
X229250000Y-148250000D01*
%TO.N,PSEL*%
X232917918Y-134470000D02*
X233295000Y-134470000D01*
X225750000Y-144500000D02*
X225750000Y-143000000D01*
X225750000Y-143000000D02*
X228500000Y-140250000D01*
X233295000Y-134470000D02*
X235265000Y-132500000D01*
X228500000Y-138887918D02*
X232917918Y-134470000D01*
X228500000Y-140250000D02*
X228500000Y-138887918D01*
%TO.N,nQON*%
X165000000Y-105000000D02*
X161250000Y-108750000D01*
X215250000Y-144750000D02*
X218750000Y-141250000D01*
X161250000Y-108750000D02*
X161250000Y-111750000D01*
X161250000Y-111750000D02*
X164800000Y-115300000D01*
X209300000Y-147300000D02*
X211850000Y-144750000D01*
X167500000Y-147300000D02*
X209300000Y-147300000D01*
X211850000Y-144750000D02*
X215250000Y-144750000D01*
X162750000Y-128750000D02*
X162750000Y-142550000D01*
X164800000Y-126700000D02*
X162750000Y-128750000D01*
X164800000Y-115300000D02*
X164800000Y-126700000D01*
X162750000Y-142550000D02*
X167500000Y-147300000D01*
%TO.N,Net-(D1-A)*%
X227750000Y-131750000D02*
X227750000Y-118250000D01*
X227000000Y-117500000D02*
X227000000Y-109975395D01*
X170775000Y-101250000D02*
X170275000Y-101750000D01*
X227000000Y-109975395D02*
X218274605Y-101250000D01*
X218274605Y-101250000D02*
X170775000Y-101250000D01*
X227750000Y-118250000D02*
X227000000Y-117500000D01*
X226000000Y-133500000D02*
X227750000Y-131750000D01*
%TD*%
%TA.AperFunction,Conductor*%
%TO.N,GNDA*%
G36*
X239742539Y-100220185D02*
G01*
X239788294Y-100272989D01*
X239799500Y-100324500D01*
X239799500Y-130676000D01*
X239779815Y-130743039D01*
X239727011Y-130788794D01*
X239675500Y-130800000D01*
X228524500Y-130800000D01*
X228457461Y-130780315D01*
X228411706Y-130727511D01*
X228400500Y-130676000D01*
X228400500Y-126499995D01*
X229119592Y-126499995D01*
X229119592Y-126500004D01*
X229139196Y-126761620D01*
X229139197Y-126761625D01*
X229197576Y-127017402D01*
X229197578Y-127017411D01*
X229197580Y-127017416D01*
X229293432Y-127261643D01*
X229424614Y-127488857D01*
X229553520Y-127650500D01*
X229588198Y-127693985D01*
X229737567Y-127832578D01*
X229780521Y-127872433D01*
X229997296Y-128020228D01*
X229997301Y-128020230D01*
X229997302Y-128020231D01*
X229997303Y-128020232D01*
X230113108Y-128076000D01*
X230233673Y-128134061D01*
X230233674Y-128134061D01*
X230233677Y-128134063D01*
X230484385Y-128211396D01*
X230743818Y-128250500D01*
X230997080Y-128250500D01*
X231064119Y-128270185D01*
X231109874Y-128322989D01*
X231120733Y-128365234D01*
X231139196Y-128611620D01*
X231139197Y-128611625D01*
X231197576Y-128867402D01*
X231197578Y-128867411D01*
X231197580Y-128867416D01*
X231293432Y-129111643D01*
X231424614Y-129338857D01*
X231533583Y-129475500D01*
X231588198Y-129543985D01*
X231745564Y-129689998D01*
X231780521Y-129722433D01*
X231997296Y-129870228D01*
X231997301Y-129870230D01*
X231997302Y-129870231D01*
X231997303Y-129870232D01*
X232084410Y-129912180D01*
X232233673Y-129984061D01*
X232233674Y-129984061D01*
X232233677Y-129984063D01*
X232484385Y-130061396D01*
X232743818Y-130100500D01*
X233006182Y-130100500D01*
X233265615Y-130061396D01*
X233516323Y-129984063D01*
X233703111Y-129894110D01*
X233752696Y-129870232D01*
X233752696Y-129870231D01*
X233752704Y-129870228D01*
X233969479Y-129722433D01*
X234161805Y-129543981D01*
X234325386Y-129338857D01*
X234456568Y-129111643D01*
X234552420Y-128867416D01*
X234610802Y-128611630D01*
X234618958Y-128502797D01*
X234630408Y-128350004D01*
X234630408Y-128349995D01*
X234610803Y-128088379D01*
X234610802Y-128088374D01*
X234610802Y-128088370D01*
X234552420Y-127832584D01*
X234456568Y-127588357D01*
X234325386Y-127361143D01*
X234161805Y-127156019D01*
X234161804Y-127156018D01*
X234161801Y-127156014D01*
X233969479Y-126977567D01*
X233918356Y-126942712D01*
X233752704Y-126829772D01*
X233752700Y-126829770D01*
X233752697Y-126829768D01*
X233752696Y-126829767D01*
X233516325Y-126715938D01*
X233516327Y-126715938D01*
X233265623Y-126638606D01*
X233265619Y-126638605D01*
X233265615Y-126638604D01*
X233159534Y-126622614D01*
X233096178Y-126593158D01*
X233058805Y-126534124D01*
X233059280Y-126464256D01*
X233082707Y-126428343D01*
X234647500Y-126428343D01*
X234647500Y-126571656D01*
X234675455Y-126712196D01*
X234675457Y-126712204D01*
X234730296Y-126844596D01*
X234730301Y-126844606D01*
X234809913Y-126963753D01*
X234809916Y-126963757D01*
X234911242Y-127065083D01*
X234911246Y-127065086D01*
X235030393Y-127144698D01*
X235030397Y-127144700D01*
X235030400Y-127144702D01*
X235162796Y-127199543D01*
X235303343Y-127227499D01*
X235303347Y-127227500D01*
X235303348Y-127227500D01*
X235446653Y-127227500D01*
X235446654Y-127227499D01*
X235587204Y-127199543D01*
X235719600Y-127144702D01*
X235832109Y-127069525D01*
X235898786Y-127048648D01*
X235966167Y-127067132D01*
X236012857Y-127119111D01*
X236025000Y-127172628D01*
X236025000Y-127822844D01*
X236031401Y-127882372D01*
X236031403Y-127882379D01*
X236081645Y-128017086D01*
X236081649Y-128017093D01*
X236167809Y-128132187D01*
X236167812Y-128132190D01*
X236282906Y-128218350D01*
X236282913Y-128218354D01*
X236417620Y-128268596D01*
X236417627Y-128268598D01*
X236477155Y-128274999D01*
X236477172Y-128275000D01*
X237525000Y-128275000D01*
X237525000Y-127316480D01*
X237527064Y-127317335D01*
X237691282Y-127350000D01*
X237858718Y-127350000D01*
X238022936Y-127317335D01*
X238025000Y-127316480D01*
X238025000Y-128275000D01*
X239072828Y-128275000D01*
X239072844Y-128274999D01*
X239132372Y-128268598D01*
X239132379Y-128268596D01*
X239267086Y-128218354D01*
X239267093Y-128218350D01*
X239382187Y-128132190D01*
X239382190Y-128132187D01*
X239468350Y-128017093D01*
X239468354Y-128017086D01*
X239518596Y-127882379D01*
X239518598Y-127882372D01*
X239524999Y-127822844D01*
X239525000Y-127822827D01*
X239525000Y-126750000D01*
X238591480Y-126750000D01*
X238592335Y-126747936D01*
X238625000Y-126583718D01*
X238625000Y-126416282D01*
X238592335Y-126252064D01*
X238591480Y-126250000D01*
X239525000Y-126250000D01*
X239525000Y-125177172D01*
X239524999Y-125177155D01*
X239518598Y-125117627D01*
X239518596Y-125117620D01*
X239468354Y-124982913D01*
X239468350Y-124982906D01*
X239382190Y-124867812D01*
X239382187Y-124867809D01*
X239267093Y-124781649D01*
X239267086Y-124781645D01*
X239132379Y-124731403D01*
X239132372Y-124731401D01*
X239072844Y-124725000D01*
X238025000Y-124725000D01*
X238025000Y-125683519D01*
X238022936Y-125682665D01*
X237858718Y-125650000D01*
X237691282Y-125650000D01*
X237527064Y-125682665D01*
X237525000Y-125683519D01*
X237525000Y-124725000D01*
X236477155Y-124725000D01*
X236417627Y-124731401D01*
X236417620Y-124731403D01*
X236282913Y-124781645D01*
X236282906Y-124781649D01*
X236167812Y-124867809D01*
X236167809Y-124867812D01*
X236081649Y-124982906D01*
X236081645Y-124982913D01*
X236031403Y-125117620D01*
X236031401Y-125117627D01*
X236025000Y-125177155D01*
X236025000Y-125827371D01*
X236005315Y-125894410D01*
X235952511Y-125940165D01*
X235883353Y-125950109D01*
X235832110Y-125930473D01*
X235719611Y-125855304D01*
X235719596Y-125855296D01*
X235587204Y-125800457D01*
X235587196Y-125800455D01*
X235446656Y-125772500D01*
X235446652Y-125772500D01*
X235303348Y-125772500D01*
X235303343Y-125772500D01*
X235162803Y-125800455D01*
X235162795Y-125800457D01*
X235030403Y-125855296D01*
X235030393Y-125855301D01*
X234911246Y-125934913D01*
X234911242Y-125934916D01*
X234809916Y-126036242D01*
X234809913Y-126036246D01*
X234730301Y-126155393D01*
X234730296Y-126155403D01*
X234675457Y-126287795D01*
X234675455Y-126287803D01*
X234647500Y-126428343D01*
X233082707Y-126428343D01*
X233097454Y-126405737D01*
X233159534Y-126377385D01*
X233265615Y-126361396D01*
X233516323Y-126284063D01*
X233752704Y-126170228D01*
X233969479Y-126022433D01*
X234149608Y-125855298D01*
X234161801Y-125843985D01*
X234161801Y-125843983D01*
X234161805Y-125843981D01*
X234325386Y-125638857D01*
X234456568Y-125411643D01*
X234552420Y-125167416D01*
X234610802Y-124911630D01*
X234616476Y-124835913D01*
X234630408Y-124650004D01*
X234630408Y-124649995D01*
X234610803Y-124388379D01*
X234610802Y-124388374D01*
X234610802Y-124388370D01*
X234552420Y-124132584D01*
X234456568Y-123888357D01*
X234325386Y-123661143D01*
X234161805Y-123456019D01*
X234161804Y-123456018D01*
X234161801Y-123456014D01*
X233969479Y-123277567D01*
X233752704Y-123129772D01*
X233752700Y-123129770D01*
X233752697Y-123129768D01*
X233752696Y-123129767D01*
X233516325Y-123015938D01*
X233516327Y-123015938D01*
X233265623Y-122938606D01*
X233265619Y-122938605D01*
X233265615Y-122938604D01*
X233140823Y-122919794D01*
X233006187Y-122899500D01*
X233006182Y-122899500D01*
X232743818Y-122899500D01*
X232743812Y-122899500D01*
X232582247Y-122923853D01*
X232484385Y-122938604D01*
X232484382Y-122938605D01*
X232484376Y-122938606D01*
X232233673Y-123015938D01*
X231997303Y-123129767D01*
X231997302Y-123129768D01*
X231780520Y-123277567D01*
X231588198Y-123456014D01*
X231424614Y-123661143D01*
X231293432Y-123888356D01*
X231197582Y-124132578D01*
X231197576Y-124132597D01*
X231139197Y-124388374D01*
X231139196Y-124388379D01*
X231120733Y-124634766D01*
X231096094Y-124700147D01*
X231040019Y-124741828D01*
X230997080Y-124749500D01*
X230743812Y-124749500D01*
X230582247Y-124773853D01*
X230484385Y-124788604D01*
X230484382Y-124788605D01*
X230484376Y-124788606D01*
X230233673Y-124865938D01*
X229997303Y-124979767D01*
X229997302Y-124979768D01*
X229780520Y-125127567D01*
X229588198Y-125306014D01*
X229424614Y-125511143D01*
X229293432Y-125738356D01*
X229197582Y-125982578D01*
X229197576Y-125982597D01*
X229139197Y-126238374D01*
X229139196Y-126238379D01*
X229119592Y-126499995D01*
X228400500Y-126499995D01*
X228400500Y-118185928D01*
X228375502Y-118060261D01*
X228375501Y-118060260D01*
X228375501Y-118060256D01*
X228326465Y-117941873D01*
X228326464Y-117941872D01*
X228326461Y-117941866D01*
X228255277Y-117835332D01*
X228228070Y-117808125D01*
X228164669Y-117744724D01*
X227947444Y-117527499D01*
X227686819Y-117266873D01*
X227653334Y-117205550D01*
X227650500Y-117179192D01*
X227650500Y-116673418D01*
X235722500Y-116673418D01*
X235722500Y-116826581D01*
X235752376Y-116976780D01*
X235752379Y-116976789D01*
X235810984Y-117118277D01*
X235810991Y-117118290D01*
X235896075Y-117245626D01*
X235896078Y-117245630D01*
X236004369Y-117353921D01*
X236004373Y-117353924D01*
X236131709Y-117439008D01*
X236131722Y-117439015D01*
X236237838Y-117482968D01*
X236273212Y-117497621D01*
X236273214Y-117497621D01*
X236273219Y-117497623D01*
X236423418Y-117527499D01*
X236423421Y-117527500D01*
X236423423Y-117527500D01*
X236576579Y-117527500D01*
X236576580Y-117527499D01*
X236626647Y-117517540D01*
X236726780Y-117497623D01*
X236726783Y-117497621D01*
X236726788Y-117497621D01*
X236868284Y-117439012D01*
X236995627Y-117353924D01*
X237103924Y-117245627D01*
X237189012Y-117118284D01*
X237247621Y-116976788D01*
X237277500Y-116826577D01*
X237277500Y-116673423D01*
X237277500Y-116673420D01*
X237277499Y-116673418D01*
X237247623Y-116523219D01*
X237247620Y-116523210D01*
X237246225Y-116519843D01*
X237203158Y-116415867D01*
X237189015Y-116381722D01*
X237189008Y-116381709D01*
X237103924Y-116254373D01*
X237103921Y-116254369D01*
X236995630Y-116146078D01*
X236995626Y-116146075D01*
X236868290Y-116060991D01*
X236868277Y-116060984D01*
X236726789Y-116002379D01*
X236726780Y-116002376D01*
X236576580Y-115972500D01*
X236576577Y-115972500D01*
X236423423Y-115972500D01*
X236423420Y-115972500D01*
X236273219Y-116002376D01*
X236273210Y-116002379D01*
X236131722Y-116060984D01*
X236131709Y-116060991D01*
X236004373Y-116146075D01*
X236004369Y-116146078D01*
X235896078Y-116254369D01*
X235896075Y-116254373D01*
X235810991Y-116381709D01*
X235810984Y-116381722D01*
X235752379Y-116523210D01*
X235752376Y-116523219D01*
X235722500Y-116673418D01*
X227650500Y-116673418D01*
X227650500Y-114850000D01*
X227914613Y-114850000D01*
X227934132Y-115098012D01*
X227992204Y-115339902D01*
X227992208Y-115339914D01*
X228087409Y-115569751D01*
X228217391Y-115781861D01*
X228217392Y-115781864D01*
X228255584Y-115826581D01*
X228378962Y-115971038D01*
X228497374Y-116072171D01*
X228568135Y-116132607D01*
X228568138Y-116132608D01*
X228780248Y-116262590D01*
X228837574Y-116286335D01*
X229010088Y-116357793D01*
X229251991Y-116415868D01*
X229500000Y-116435387D01*
X229748009Y-116415868D01*
X229989912Y-116357793D01*
X230219751Y-116262590D01*
X230431867Y-116132605D01*
X230621038Y-115971038D01*
X230782605Y-115781867D01*
X230912590Y-115569751D01*
X231007793Y-115339912D01*
X231065868Y-115098009D01*
X231085387Y-114850000D01*
X231065868Y-114601991D01*
X231007793Y-114360088D01*
X230930727Y-114174035D01*
X230912590Y-114130248D01*
X230782608Y-113918138D01*
X230782607Y-113918135D01*
X230742687Y-113871395D01*
X230621038Y-113728962D01*
X230459561Y-113591048D01*
X230431864Y-113567392D01*
X230431861Y-113567391D01*
X230219751Y-113437409D01*
X229989914Y-113342208D01*
X229989916Y-113342208D01*
X229989912Y-113342207D01*
X229989908Y-113342206D01*
X229989902Y-113342204D01*
X229748012Y-113284132D01*
X229500000Y-113264613D01*
X229251987Y-113284132D01*
X229010097Y-113342204D01*
X229010085Y-113342208D01*
X228780248Y-113437409D01*
X228568138Y-113567391D01*
X228568135Y-113567392D01*
X228378962Y-113728962D01*
X228217392Y-113918135D01*
X228217391Y-113918138D01*
X228087409Y-114130248D01*
X227992208Y-114360085D01*
X227992204Y-114360097D01*
X227934132Y-114601987D01*
X227914613Y-114850000D01*
X227650500Y-114850000D01*
X227650500Y-112122155D01*
X236020000Y-112122155D01*
X236020000Y-113000000D01*
X236924231Y-113000000D01*
X236907669Y-113039984D01*
X236880000Y-113179086D01*
X236880000Y-113320914D01*
X236907669Y-113460016D01*
X236924231Y-113500000D01*
X236020000Y-113500000D01*
X236020000Y-114377844D01*
X236026401Y-114437372D01*
X236026403Y-114437379D01*
X236076645Y-114572086D01*
X236076649Y-114572093D01*
X236162809Y-114687187D01*
X236162812Y-114687190D01*
X236277906Y-114773350D01*
X236277913Y-114773354D01*
X236412620Y-114823596D01*
X236412627Y-114823598D01*
X236472155Y-114829999D01*
X236472172Y-114830000D01*
X237350000Y-114830000D01*
X237350000Y-113925769D01*
X237389984Y-113942331D01*
X237529086Y-113970000D01*
X237670914Y-113970000D01*
X237810016Y-113942331D01*
X237850000Y-113925769D01*
X237850000Y-114830000D01*
X238727828Y-114830000D01*
X238727844Y-114829999D01*
X238787372Y-114823598D01*
X238787379Y-114823596D01*
X238922086Y-114773354D01*
X238922093Y-114773350D01*
X239037187Y-114687190D01*
X239037190Y-114687187D01*
X239123350Y-114572093D01*
X239123354Y-114572086D01*
X239173596Y-114437379D01*
X239173598Y-114437372D01*
X239179999Y-114377844D01*
X239180000Y-114377827D01*
X239180000Y-113500000D01*
X238275769Y-113500000D01*
X238292331Y-113460016D01*
X238320000Y-113320914D01*
X238320000Y-113179086D01*
X238292331Y-113039984D01*
X238275769Y-113000000D01*
X239180000Y-113000000D01*
X239180000Y-112122172D01*
X239179999Y-112122155D01*
X239173598Y-112062627D01*
X239173596Y-112062620D01*
X239123354Y-111927913D01*
X239123350Y-111927906D01*
X239037190Y-111812812D01*
X239037187Y-111812809D01*
X238922093Y-111726649D01*
X238922086Y-111726645D01*
X238787379Y-111676403D01*
X238787372Y-111676401D01*
X238727844Y-111670000D01*
X237850000Y-111670000D01*
X237850000Y-112574230D01*
X237810016Y-112557669D01*
X237670914Y-112530000D01*
X237529086Y-112530000D01*
X237389984Y-112557669D01*
X237350000Y-112574230D01*
X237350000Y-111670000D01*
X236472155Y-111670000D01*
X236412627Y-111676401D01*
X236412620Y-111676403D01*
X236277913Y-111726645D01*
X236277906Y-111726649D01*
X236162812Y-111812809D01*
X236162809Y-111812812D01*
X236076649Y-111927906D01*
X236076645Y-111927913D01*
X236026403Y-112062620D01*
X236026401Y-112062627D01*
X236020000Y-112122155D01*
X227650500Y-112122155D01*
X227650500Y-109911323D01*
X227625502Y-109785656D01*
X227625501Y-109785655D01*
X227625501Y-109785651D01*
X227576465Y-109667268D01*
X227564927Y-109650000D01*
X231014613Y-109650000D01*
X231034132Y-109898012D01*
X231092204Y-110139902D01*
X231092208Y-110139914D01*
X231187409Y-110369751D01*
X231317391Y-110581861D01*
X231317392Y-110581864D01*
X231327835Y-110594091D01*
X231478962Y-110771038D01*
X231625398Y-110896106D01*
X231668135Y-110932607D01*
X231668138Y-110932608D01*
X231880248Y-111062590D01*
X231961508Y-111096248D01*
X232110088Y-111157793D01*
X232351991Y-111215868D01*
X232600000Y-111235387D01*
X232848009Y-111215868D01*
X233089912Y-111157793D01*
X233319751Y-111062590D01*
X233531867Y-110932605D01*
X233721038Y-110771038D01*
X233882605Y-110581867D01*
X234012590Y-110369751D01*
X234093914Y-110173418D01*
X235722500Y-110173418D01*
X235722500Y-110326581D01*
X235752376Y-110476780D01*
X235752379Y-110476789D01*
X235810984Y-110618277D01*
X235810991Y-110618290D01*
X235896075Y-110745626D01*
X235896078Y-110745630D01*
X236004369Y-110853921D01*
X236004373Y-110853924D01*
X236131709Y-110939008D01*
X236131722Y-110939015D01*
X236237838Y-110982968D01*
X236273212Y-110997621D01*
X236273214Y-110997621D01*
X236273219Y-110997623D01*
X236423418Y-111027499D01*
X236423421Y-111027500D01*
X236423423Y-111027500D01*
X236576579Y-111027500D01*
X236576580Y-111027499D01*
X236626647Y-111017540D01*
X236726780Y-110997623D01*
X236726783Y-110997621D01*
X236726788Y-110997621D01*
X236868284Y-110939012D01*
X236995627Y-110853924D01*
X237103924Y-110745627D01*
X237189012Y-110618284D01*
X237247621Y-110476788D01*
X237251449Y-110457547D01*
X237268912Y-110369751D01*
X237277500Y-110326577D01*
X237277500Y-110173423D01*
X237277500Y-110173420D01*
X237277499Y-110173418D01*
X237247623Y-110023219D01*
X237247620Y-110023210D01*
X237189015Y-109881722D01*
X237189008Y-109881709D01*
X237103924Y-109754373D01*
X237103921Y-109754369D01*
X236995629Y-109646077D01*
X236995626Y-109646075D01*
X236868290Y-109560991D01*
X236868277Y-109560984D01*
X236726789Y-109502379D01*
X236726780Y-109502376D01*
X236576580Y-109472500D01*
X236576577Y-109472500D01*
X236423423Y-109472500D01*
X236423420Y-109472500D01*
X236273219Y-109502376D01*
X236273210Y-109502379D01*
X236131722Y-109560984D01*
X236131709Y-109560991D01*
X236004373Y-109646075D01*
X236004371Y-109646077D01*
X235896078Y-109754369D01*
X235896075Y-109754373D01*
X235810991Y-109881709D01*
X235810984Y-109881722D01*
X235752379Y-110023210D01*
X235752376Y-110023219D01*
X235722500Y-110173418D01*
X234093914Y-110173418D01*
X234107793Y-110139912D01*
X234165868Y-109898009D01*
X234185387Y-109650000D01*
X234165868Y-109401991D01*
X234107793Y-109160088D01*
X234012590Y-108930249D01*
X234012590Y-108930248D01*
X233882608Y-108718138D01*
X233882607Y-108718135D01*
X233786268Y-108605337D01*
X233721038Y-108528962D01*
X233595968Y-108422142D01*
X233531864Y-108367392D01*
X233531861Y-108367391D01*
X233319751Y-108237409D01*
X233089914Y-108142208D01*
X233089916Y-108142208D01*
X233089912Y-108142207D01*
X233089908Y-108142206D01*
X233089902Y-108142204D01*
X232848012Y-108084132D01*
X232600000Y-108064613D01*
X232351987Y-108084132D01*
X232110097Y-108142204D01*
X232110085Y-108142208D01*
X231880248Y-108237409D01*
X231668138Y-108367391D01*
X231668135Y-108367392D01*
X231478962Y-108528962D01*
X231317392Y-108718135D01*
X231317391Y-108718138D01*
X231187409Y-108930248D01*
X231092208Y-109160085D01*
X231092204Y-109160097D01*
X231034132Y-109401987D01*
X231014613Y-109650000D01*
X227564927Y-109650000D01*
X227562305Y-109646076D01*
X227505277Y-109560726D01*
X227505275Y-109560724D01*
X227505273Y-109560721D01*
X220944552Y-103000000D01*
X234794778Y-103000000D01*
X234813644Y-103287837D01*
X234813646Y-103287849D01*
X234869917Y-103570745D01*
X234869921Y-103570760D01*
X234962642Y-103843905D01*
X235090219Y-104102606D01*
X235090223Y-104102613D01*
X235250478Y-104342452D01*
X235440672Y-104559327D01*
X235657547Y-104749521D01*
X235745874Y-104808539D01*
X235897389Y-104909778D01*
X236156098Y-105037359D01*
X236429247Y-105130081D01*
X236712161Y-105186356D01*
X237000000Y-105205222D01*
X237287839Y-105186356D01*
X237570753Y-105130081D01*
X237843902Y-105037359D01*
X238102611Y-104909778D01*
X238342454Y-104749520D01*
X238559327Y-104559327D01*
X238749520Y-104342454D01*
X238909778Y-104102611D01*
X239037359Y-103843902D01*
X239130081Y-103570753D01*
X239186356Y-103287839D01*
X239205222Y-103000000D01*
X239186356Y-102712161D01*
X239130081Y-102429247D01*
X239037359Y-102156098D01*
X238909778Y-101897389D01*
X238814821Y-101755276D01*
X238749521Y-101657547D01*
X238559327Y-101440672D01*
X238342452Y-101250478D01*
X238102613Y-101090223D01*
X238102606Y-101090219D01*
X237843905Y-100962642D01*
X237570760Y-100869921D01*
X237570754Y-100869919D01*
X237570753Y-100869919D01*
X237570751Y-100869918D01*
X237570745Y-100869917D01*
X237287849Y-100813646D01*
X237287839Y-100813644D01*
X237000000Y-100794778D01*
X236712161Y-100813644D01*
X236712155Y-100813645D01*
X236712150Y-100813646D01*
X236429254Y-100869917D01*
X236429239Y-100869921D01*
X236156094Y-100962642D01*
X235897393Y-101090219D01*
X235897386Y-101090223D01*
X235657547Y-101250478D01*
X235440672Y-101440672D01*
X235250478Y-101657547D01*
X235090223Y-101897386D01*
X235090219Y-101897393D01*
X234962642Y-102156094D01*
X234869921Y-102429239D01*
X234869917Y-102429254D01*
X234813646Y-102712150D01*
X234813644Y-102712162D01*
X234794778Y-103000000D01*
X220944552Y-103000000D01*
X218689278Y-100744726D01*
X218689274Y-100744723D01*
X218582732Y-100673535D01*
X218464349Y-100624499D01*
X218464343Y-100624497D01*
X218338676Y-100599500D01*
X218338674Y-100599500D01*
X198124000Y-100599500D01*
X198056961Y-100579815D01*
X198011206Y-100527011D01*
X198000000Y-100475500D01*
X198000000Y-100324500D01*
X198019685Y-100257461D01*
X198072489Y-100211706D01*
X198124000Y-100200500D01*
X239675500Y-100200500D01*
X239742539Y-100220185D01*
G37*
%TD.AperFunction*%
%TA.AperFunction,Conductor*%
G36*
X212396231Y-123570185D02*
G01*
X212416873Y-123586819D01*
X214513181Y-125683127D01*
X214546666Y-125744450D01*
X214549500Y-125770808D01*
X214549500Y-126400001D01*
X214549501Y-126400019D01*
X214560000Y-126502796D01*
X214560001Y-126502799D01*
X214615185Y-126669331D01*
X214615187Y-126669336D01*
X214707289Y-126818657D01*
X214800951Y-126912319D01*
X214834436Y-126973642D01*
X214829452Y-127043334D01*
X214800951Y-127087681D01*
X214707289Y-127181342D01*
X214615187Y-127330663D01*
X214615185Y-127330668D01*
X214613921Y-127334484D01*
X214560001Y-127497203D01*
X214560001Y-127497204D01*
X214560000Y-127497204D01*
X214549500Y-127599983D01*
X214549500Y-128076000D01*
X214529815Y-128143039D01*
X214477011Y-128188794D01*
X214425500Y-128200000D01*
X211800000Y-128200000D01*
X211800000Y-129475500D01*
X211780315Y-129542539D01*
X211727511Y-129588294D01*
X211676000Y-129599500D01*
X209825831Y-129599500D01*
X209758792Y-129579815D01*
X209738150Y-129563181D01*
X205317785Y-125142816D01*
X205284300Y-125081493D01*
X205289284Y-125011801D01*
X205331156Y-124955868D01*
X205369471Y-124936475D01*
X205394727Y-124928814D01*
X205568538Y-124835910D01*
X205720883Y-124710883D01*
X205845910Y-124558538D01*
X205907533Y-124443249D01*
X205938811Y-124384733D01*
X205938811Y-124384732D01*
X205938814Y-124384727D01*
X205996024Y-124196132D01*
X206015341Y-124000000D01*
X205996024Y-123803868D01*
X205967700Y-123710496D01*
X205967076Y-123640629D01*
X206004324Y-123581516D01*
X206067618Y-123551925D01*
X206086360Y-123550500D01*
X212329192Y-123550500D01*
X212396231Y-123570185D01*
G37*
%TD.AperFunction*%
%TA.AperFunction,Conductor*%
G36*
X218020836Y-101920185D02*
G01*
X218041478Y-101936819D01*
X225748817Y-109644158D01*
X225782302Y-109705481D01*
X225777318Y-109775173D01*
X225735446Y-109831106D01*
X225669982Y-109855523D01*
X225622133Y-109849545D01*
X225502797Y-109810001D01*
X225502795Y-109810000D01*
X225400010Y-109799500D01*
X224649998Y-109799500D01*
X224649980Y-109799501D01*
X224547203Y-109810000D01*
X224547200Y-109810001D01*
X224380668Y-109865185D01*
X224380663Y-109865187D01*
X224231342Y-109957289D01*
X224107285Y-110081346D01*
X224105537Y-110084182D01*
X224103829Y-110085717D01*
X224102807Y-110087011D01*
X224102585Y-110086836D01*
X224053589Y-110130905D01*
X223984626Y-110142126D01*
X223920544Y-110114282D01*
X223894463Y-110084182D01*
X223892714Y-110081346D01*
X223768657Y-109957289D01*
X223768656Y-109957288D01*
X223619334Y-109865186D01*
X223452797Y-109810001D01*
X223452795Y-109810000D01*
X223350010Y-109799500D01*
X222599998Y-109799500D01*
X222599980Y-109799501D01*
X222497203Y-109810000D01*
X222497200Y-109810001D01*
X222330668Y-109865185D01*
X222330663Y-109865187D01*
X222181342Y-109957289D01*
X222057289Y-110081342D01*
X221965187Y-110230663D01*
X221965186Y-110230666D01*
X221910001Y-110397203D01*
X221910001Y-110397204D01*
X221910000Y-110397204D01*
X221899500Y-110499983D01*
X221899500Y-111500001D01*
X221899501Y-111500019D01*
X221910000Y-111602796D01*
X221910001Y-111602799D01*
X221965185Y-111769331D01*
X221965186Y-111769334D01*
X222050512Y-111907671D01*
X222057289Y-111918657D01*
X222181345Y-112042713D01*
X222181348Y-112042715D01*
X222265595Y-112094678D01*
X222312321Y-112146625D01*
X222324500Y-112200217D01*
X222324500Y-112704191D01*
X222304815Y-112771230D01*
X222288181Y-112791872D01*
X218486458Y-116593594D01*
X218425135Y-116627079D01*
X218355443Y-116622095D01*
X218299510Y-116580223D01*
X218276442Y-116519843D01*
X218276002Y-116519921D01*
X218275598Y-116517635D01*
X218275249Y-116516719D01*
X218275063Y-116514597D01*
X218275063Y-116514592D01*
X218213903Y-116286337D01*
X218114035Y-116072171D01*
X218101427Y-116054164D01*
X217978494Y-115878597D01*
X217811402Y-115711506D01*
X217811395Y-115711501D01*
X217617834Y-115575967D01*
X217617830Y-115575965D01*
X217550555Y-115544594D01*
X217403663Y-115476097D01*
X217403659Y-115476096D01*
X217403655Y-115476094D01*
X217175413Y-115414938D01*
X217175403Y-115414936D01*
X216940001Y-115394341D01*
X216939999Y-115394341D01*
X216704596Y-115414936D01*
X216704586Y-115414938D01*
X216476344Y-115476094D01*
X216476335Y-115476098D01*
X216262171Y-115575964D01*
X216262169Y-115575965D01*
X216068600Y-115711503D01*
X215946673Y-115833430D01*
X215885350Y-115866914D01*
X215815658Y-115861930D01*
X215759725Y-115820058D01*
X215742810Y-115789081D01*
X215693797Y-115657671D01*
X215693793Y-115657664D01*
X215607547Y-115542455D01*
X215607544Y-115542452D01*
X215492335Y-115456206D01*
X215492328Y-115456202D01*
X215357482Y-115405908D01*
X215357483Y-115405908D01*
X215297883Y-115399501D01*
X215297881Y-115399500D01*
X215297873Y-115399500D01*
X215297864Y-115399500D01*
X213502129Y-115399500D01*
X213502123Y-115399501D01*
X213442516Y-115405908D01*
X213307671Y-115456202D01*
X213307664Y-115456206D01*
X213192455Y-115542452D01*
X213192452Y-115542455D01*
X213106206Y-115657664D01*
X213106202Y-115657671D01*
X213055908Y-115792517D01*
X213049501Y-115852116D01*
X213049500Y-115852135D01*
X213049500Y-117647870D01*
X213049501Y-117647876D01*
X213055908Y-117707483D01*
X213106202Y-117842328D01*
X213106206Y-117842335D01*
X213192452Y-117957544D01*
X213192455Y-117957547D01*
X213307664Y-118043793D01*
X213307671Y-118043797D01*
X213442517Y-118094091D01*
X213442516Y-118094091D01*
X213449444Y-118094835D01*
X213502127Y-118100500D01*
X215297872Y-118100499D01*
X215357483Y-118094091D01*
X215492331Y-118043796D01*
X215607546Y-117957546D01*
X215693796Y-117842331D01*
X215742810Y-117710916D01*
X215784681Y-117654984D01*
X215850145Y-117630566D01*
X215918418Y-117645417D01*
X215946673Y-117666569D01*
X216068599Y-117788495D01*
X216165384Y-117856265D01*
X216262165Y-117924032D01*
X216262167Y-117924033D01*
X216262170Y-117924035D01*
X216476337Y-118023903D01*
X216704592Y-118085063D01*
X216706719Y-118085249D01*
X216707596Y-118085592D01*
X216709921Y-118086002D01*
X216709838Y-118086469D01*
X216771788Y-118110700D01*
X216812767Y-118167291D01*
X216816646Y-118237053D01*
X216783594Y-118296458D01*
X215966871Y-119113181D01*
X215905548Y-119146666D01*
X215879190Y-119149500D01*
X215249998Y-119149500D01*
X215249980Y-119149501D01*
X215147203Y-119160000D01*
X215147200Y-119160001D01*
X214980668Y-119215185D01*
X214980663Y-119215187D01*
X214831342Y-119307289D01*
X214707289Y-119431342D01*
X214615187Y-119580663D01*
X214615185Y-119580668D01*
X214613448Y-119585910D01*
X214560001Y-119747203D01*
X214560001Y-119747204D01*
X214560000Y-119747204D01*
X214549500Y-119849983D01*
X214549500Y-120650001D01*
X214549501Y-120650019D01*
X214555925Y-120712899D01*
X214543155Y-120781592D01*
X214495274Y-120832476D01*
X214432567Y-120849500D01*
X205272890Y-120849500D01*
X205205851Y-120829815D01*
X205185209Y-120813181D01*
X200616756Y-116244727D01*
X200616755Y-116244726D01*
X200537039Y-116191462D01*
X200510209Y-116173535D01*
X200443917Y-116146076D01*
X200391826Y-116124499D01*
X200391820Y-116124497D01*
X200266153Y-116099500D01*
X200266151Y-116099500D01*
X200069086Y-116099500D01*
X200002047Y-116079815D01*
X199973232Y-116054164D01*
X199960882Y-116039116D01*
X199808539Y-115914090D01*
X199808532Y-115914086D01*
X199634729Y-115821186D01*
X199592306Y-115808317D01*
X199541002Y-115777717D01*
X198036699Y-114286382D01*
X198002949Y-114225204D01*
X198000000Y-114198322D01*
X198000000Y-113612500D01*
X204994659Y-113612500D01*
X205013975Y-113808629D01*
X205013976Y-113808632D01*
X205060171Y-113960917D01*
X205071188Y-113997233D01*
X205164086Y-114171032D01*
X205164090Y-114171039D01*
X205289116Y-114323383D01*
X205441460Y-114448409D01*
X205441467Y-114448413D01*
X205615266Y-114541311D01*
X205615269Y-114541311D01*
X205615273Y-114541314D01*
X205803868Y-114598524D01*
X206000000Y-114617841D01*
X206196132Y-114598524D01*
X206384727Y-114541314D01*
X206558538Y-114448410D01*
X206710883Y-114323383D01*
X206835910Y-114171038D01*
X206928814Y-113997227D01*
X206986024Y-113808632D01*
X207005341Y-113612500D01*
X206986024Y-113416368D01*
X206928814Y-113227773D01*
X206928811Y-113227769D01*
X206928811Y-113227766D01*
X206835913Y-113053967D01*
X206835909Y-113053960D01*
X206710883Y-112901616D01*
X206558539Y-112776590D01*
X206558532Y-112776586D01*
X206384733Y-112683688D01*
X206384727Y-112683686D01*
X206196132Y-112626476D01*
X206196129Y-112626475D01*
X206000000Y-112607159D01*
X205803870Y-112626475D01*
X205615266Y-112683688D01*
X205441467Y-112776586D01*
X205441460Y-112776590D01*
X205289116Y-112901616D01*
X205164090Y-113053960D01*
X205164086Y-113053967D01*
X205071188Y-113227766D01*
X205013975Y-113416370D01*
X204994659Y-113612500D01*
X198000000Y-113612500D01*
X198000000Y-112102135D01*
X213049500Y-112102135D01*
X213049500Y-113897870D01*
X213049501Y-113897876D01*
X213055908Y-113957483D01*
X213106202Y-114092328D01*
X213106206Y-114092335D01*
X213192452Y-114207544D01*
X213192455Y-114207547D01*
X213307664Y-114293793D01*
X213307671Y-114293797D01*
X213442517Y-114344091D01*
X213442516Y-114344091D01*
X213449444Y-114344835D01*
X213502127Y-114350500D01*
X215297872Y-114350499D01*
X215357483Y-114344091D01*
X215492331Y-114293796D01*
X215607546Y-114207546D01*
X215693796Y-114092331D01*
X215742810Y-113960916D01*
X215784681Y-113904984D01*
X215850145Y-113880566D01*
X215918418Y-113895417D01*
X215946673Y-113916569D01*
X216068599Y-114038495D01*
X216165384Y-114106265D01*
X216262165Y-114174032D01*
X216262167Y-114174033D01*
X216262170Y-114174035D01*
X216476337Y-114273903D01*
X216704592Y-114335063D01*
X216881034Y-114350500D01*
X216939999Y-114355659D01*
X216940000Y-114355659D01*
X216940001Y-114355659D01*
X216998966Y-114350500D01*
X217175408Y-114335063D01*
X217403663Y-114273903D01*
X217617830Y-114174035D01*
X217811401Y-114038495D01*
X217978495Y-113871401D01*
X218114035Y-113677830D01*
X218213903Y-113463663D01*
X218275063Y-113235408D01*
X218295659Y-113000000D01*
X218275063Y-112764592D01*
X218213903Y-112536337D01*
X218114035Y-112322171D01*
X218037357Y-112212662D01*
X217978494Y-112128597D01*
X217811402Y-111961506D01*
X217811395Y-111961501D01*
X217617834Y-111825967D01*
X217617830Y-111825965D01*
X217589617Y-111812809D01*
X217403663Y-111726097D01*
X217403659Y-111726096D01*
X217403655Y-111726094D01*
X217175413Y-111664938D01*
X217175403Y-111664936D01*
X216940001Y-111644341D01*
X216939999Y-111644341D01*
X216704596Y-111664936D01*
X216704586Y-111664938D01*
X216476344Y-111726094D01*
X216476335Y-111726098D01*
X216262171Y-111825964D01*
X216262169Y-111825965D01*
X216068600Y-111961503D01*
X215946673Y-112083430D01*
X215885350Y-112116914D01*
X215815658Y-112111930D01*
X215759725Y-112070058D01*
X215742810Y-112039081D01*
X215693797Y-111907671D01*
X215693793Y-111907664D01*
X215607547Y-111792455D01*
X215607544Y-111792452D01*
X215492335Y-111706206D01*
X215492328Y-111706202D01*
X215357482Y-111655908D01*
X215357483Y-111655908D01*
X215297883Y-111649501D01*
X215297881Y-111649500D01*
X215297873Y-111649500D01*
X215297864Y-111649500D01*
X213502129Y-111649500D01*
X213502123Y-111649501D01*
X213442516Y-111655908D01*
X213307671Y-111706202D01*
X213307664Y-111706206D01*
X213192455Y-111792452D01*
X213192452Y-111792455D01*
X213106206Y-111907664D01*
X213106202Y-111907671D01*
X213055908Y-112042517D01*
X213049501Y-112102116D01*
X213049500Y-112102135D01*
X198000000Y-112102135D01*
X198000000Y-108650000D01*
X204744659Y-108650000D01*
X204763975Y-108846129D01*
X204821188Y-109034733D01*
X204914086Y-109208532D01*
X204914090Y-109208539D01*
X205039116Y-109360883D01*
X205191460Y-109485909D01*
X205191467Y-109485913D01*
X205365266Y-109578811D01*
X205365269Y-109578811D01*
X205365273Y-109578814D01*
X205553868Y-109636024D01*
X205750000Y-109655341D01*
X205946132Y-109636024D01*
X206134727Y-109578814D01*
X206168072Y-109560991D01*
X206221632Y-109532362D01*
X206308538Y-109485910D01*
X206460883Y-109360883D01*
X206585910Y-109208538D01*
X206678814Y-109034727D01*
X206736024Y-108846132D01*
X206755341Y-108650000D01*
X206736024Y-108453868D01*
X206705163Y-108352135D01*
X213049500Y-108352135D01*
X213049500Y-110147870D01*
X213049501Y-110147876D01*
X213055908Y-110207483D01*
X213106202Y-110342328D01*
X213106206Y-110342335D01*
X213192452Y-110457544D01*
X213192455Y-110457547D01*
X213307664Y-110543793D01*
X213307671Y-110543797D01*
X213442517Y-110594091D01*
X213442516Y-110594091D01*
X213449444Y-110594835D01*
X213502127Y-110600500D01*
X215297872Y-110600499D01*
X215357483Y-110594091D01*
X215492331Y-110543796D01*
X215607546Y-110457546D01*
X215693796Y-110342331D01*
X215742810Y-110210916D01*
X215784681Y-110154984D01*
X215850145Y-110130566D01*
X215918418Y-110145417D01*
X215946673Y-110166569D01*
X216068599Y-110288495D01*
X216165384Y-110356265D01*
X216262165Y-110424032D01*
X216262167Y-110424033D01*
X216262170Y-110424035D01*
X216476337Y-110523903D01*
X216704592Y-110585063D01*
X216881034Y-110600500D01*
X216939999Y-110605659D01*
X216940000Y-110605659D01*
X216940001Y-110605659D01*
X216998966Y-110600500D01*
X217175408Y-110585063D01*
X217403663Y-110523903D01*
X217617830Y-110424035D01*
X217811401Y-110288495D01*
X217978495Y-110121401D01*
X218114035Y-109927830D01*
X218213903Y-109713663D01*
X218275063Y-109485408D01*
X218295659Y-109250000D01*
X218275063Y-109014592D01*
X218213903Y-108786337D01*
X218114035Y-108572171D01*
X217978495Y-108378599D01*
X217978494Y-108378597D01*
X217811402Y-108211506D01*
X217811395Y-108211501D01*
X217617834Y-108075967D01*
X217617830Y-108075965D01*
X217617828Y-108075964D01*
X217403663Y-107976097D01*
X217403659Y-107976096D01*
X217403655Y-107976094D01*
X217175413Y-107914938D01*
X217175403Y-107914936D01*
X216940001Y-107894341D01*
X216939999Y-107894341D01*
X216704596Y-107914936D01*
X216704586Y-107914938D01*
X216476344Y-107976094D01*
X216476335Y-107976098D01*
X216262171Y-108075964D01*
X216262169Y-108075965D01*
X216068600Y-108211503D01*
X215946673Y-108333430D01*
X215885350Y-108366914D01*
X215815658Y-108361930D01*
X215759725Y-108320058D01*
X215742810Y-108289081D01*
X215693797Y-108157671D01*
X215693793Y-108157664D01*
X215607547Y-108042455D01*
X215607544Y-108042452D01*
X215492335Y-107956206D01*
X215492328Y-107956202D01*
X215357482Y-107905908D01*
X215357483Y-107905908D01*
X215297883Y-107899501D01*
X215297881Y-107899500D01*
X215297873Y-107899500D01*
X215297864Y-107899500D01*
X213502129Y-107899500D01*
X213502123Y-107899501D01*
X213442516Y-107905908D01*
X213307671Y-107956202D01*
X213307664Y-107956206D01*
X213192455Y-108042452D01*
X213192452Y-108042455D01*
X213106206Y-108157664D01*
X213106202Y-108157671D01*
X213055908Y-108292517D01*
X213049501Y-108352116D01*
X213049500Y-108352135D01*
X206705163Y-108352135D01*
X206678814Y-108265273D01*
X206678811Y-108265269D01*
X206678811Y-108265266D01*
X206585913Y-108091467D01*
X206585909Y-108091460D01*
X206460883Y-107939116D01*
X206308539Y-107814090D01*
X206308532Y-107814086D01*
X206134733Y-107721188D01*
X206134727Y-107721186D01*
X205946132Y-107663976D01*
X205946129Y-107663975D01*
X205750000Y-107644659D01*
X205553870Y-107663975D01*
X205365266Y-107721188D01*
X205191467Y-107814086D01*
X205191460Y-107814090D01*
X205039116Y-107939116D01*
X204914090Y-108091460D01*
X204914086Y-108091467D01*
X204821188Y-108265266D01*
X204763975Y-108453870D01*
X204744659Y-108650000D01*
X198000000Y-108650000D01*
X198000000Y-104310320D01*
X198000597Y-104298166D01*
X198005341Y-104250000D01*
X200162159Y-104250000D01*
X200181475Y-104446129D01*
X200181476Y-104446132D01*
X200236826Y-104628597D01*
X200238688Y-104634733D01*
X200331586Y-104808532D01*
X200331590Y-104808539D01*
X200456616Y-104960883D01*
X200608960Y-105085909D01*
X200608967Y-105085913D01*
X200782766Y-105178811D01*
X200782769Y-105178811D01*
X200782773Y-105178814D01*
X200971368Y-105236024D01*
X201167500Y-105255341D01*
X201363632Y-105236024D01*
X201552227Y-105178814D01*
X201726038Y-105085910D01*
X201878383Y-104960883D01*
X202003410Y-104808538D01*
X202049862Y-104721632D01*
X202096311Y-104634733D01*
X202096311Y-104634732D01*
X202096314Y-104634727D01*
X202106201Y-104602135D01*
X213049500Y-104602135D01*
X213049500Y-106397870D01*
X213049501Y-106397876D01*
X213055908Y-106457483D01*
X213106202Y-106592328D01*
X213106206Y-106592335D01*
X213192452Y-106707544D01*
X213192455Y-106707547D01*
X213307664Y-106793793D01*
X213307671Y-106793797D01*
X213442517Y-106844091D01*
X213442516Y-106844091D01*
X213449444Y-106844835D01*
X213502127Y-106850500D01*
X215297872Y-106850499D01*
X215357483Y-106844091D01*
X215492331Y-106793796D01*
X215607546Y-106707546D01*
X215693796Y-106592331D01*
X215742810Y-106460916D01*
X215784681Y-106404984D01*
X215850145Y-106380566D01*
X215918418Y-106395417D01*
X215946673Y-106416569D01*
X216068599Y-106538495D01*
X216165384Y-106606265D01*
X216262165Y-106674032D01*
X216262167Y-106674033D01*
X216262170Y-106674035D01*
X216476337Y-106773903D01*
X216704592Y-106835063D01*
X216881034Y-106850500D01*
X216939999Y-106855659D01*
X216940000Y-106855659D01*
X216940001Y-106855659D01*
X216998966Y-106850500D01*
X217175408Y-106835063D01*
X217403663Y-106773903D01*
X217617830Y-106674035D01*
X217811401Y-106538495D01*
X217978495Y-106371401D01*
X218114035Y-106177830D01*
X218213903Y-105963663D01*
X218275063Y-105735408D01*
X218295659Y-105500000D01*
X218275063Y-105264592D01*
X218213903Y-105036337D01*
X218114035Y-104822171D01*
X218104490Y-104808538D01*
X217978494Y-104628597D01*
X217811402Y-104461506D01*
X217811395Y-104461501D01*
X217617834Y-104325967D01*
X217617830Y-104325965D01*
X217558215Y-104298166D01*
X217403663Y-104226097D01*
X217403659Y-104226096D01*
X217403655Y-104226094D01*
X217175413Y-104164938D01*
X217175403Y-104164936D01*
X216940001Y-104144341D01*
X216939999Y-104144341D01*
X216704596Y-104164936D01*
X216704586Y-104164938D01*
X216476344Y-104226094D01*
X216476335Y-104226098D01*
X216262171Y-104325964D01*
X216262169Y-104325965D01*
X216068600Y-104461503D01*
X215946673Y-104583430D01*
X215885350Y-104616914D01*
X215815658Y-104611930D01*
X215759725Y-104570058D01*
X215742810Y-104539081D01*
X215693797Y-104407671D01*
X215693793Y-104407664D01*
X215607547Y-104292455D01*
X215607544Y-104292452D01*
X215492335Y-104206206D01*
X215492328Y-104206202D01*
X215357482Y-104155908D01*
X215357483Y-104155908D01*
X215297883Y-104149501D01*
X215297881Y-104149500D01*
X215297873Y-104149500D01*
X215297864Y-104149500D01*
X213502129Y-104149500D01*
X213502123Y-104149501D01*
X213442516Y-104155908D01*
X213307671Y-104206202D01*
X213307664Y-104206206D01*
X213192455Y-104292452D01*
X213192452Y-104292455D01*
X213106206Y-104407664D01*
X213106202Y-104407671D01*
X213055908Y-104542517D01*
X213049501Y-104602116D01*
X213049500Y-104602135D01*
X202106201Y-104602135D01*
X202153524Y-104446132D01*
X202172841Y-104250000D01*
X202153524Y-104053868D01*
X202096314Y-103865273D01*
X202096311Y-103865269D01*
X202096311Y-103865266D01*
X202003413Y-103691467D01*
X202003409Y-103691460D01*
X201878383Y-103539116D01*
X201726039Y-103414090D01*
X201726032Y-103414086D01*
X201552233Y-103321188D01*
X201552227Y-103321186D01*
X201363632Y-103263976D01*
X201363629Y-103263975D01*
X201167500Y-103244659D01*
X200971370Y-103263975D01*
X200782766Y-103321188D01*
X200608967Y-103414086D01*
X200608960Y-103414090D01*
X200456616Y-103539116D01*
X200331590Y-103691460D01*
X200331586Y-103691467D01*
X200238688Y-103865266D01*
X200181475Y-104053870D01*
X200162159Y-104250000D01*
X198005341Y-104250000D01*
X198000597Y-104201832D01*
X198000000Y-104189678D01*
X198000000Y-102024500D01*
X198019685Y-101957461D01*
X198072489Y-101911706D01*
X198124000Y-101900500D01*
X217953797Y-101900500D01*
X218020836Y-101920185D01*
G37*
%TD.AperFunction*%
%TD*%
%TA.AperFunction,Conductor*%
%TO.N,BAT-*%
G36*
X197437539Y-100220185D02*
G01*
X197483294Y-100272989D01*
X197494500Y-100324500D01*
X197494500Y-100475500D01*
X197474815Y-100542539D01*
X197422011Y-100588294D01*
X197370500Y-100599500D01*
X170892007Y-100599500D01*
X170853003Y-100593206D01*
X170851028Y-100592551D01*
X170752797Y-100560001D01*
X170752795Y-100560000D01*
X170650010Y-100549500D01*
X169899998Y-100549500D01*
X169899980Y-100549501D01*
X169797203Y-100560000D01*
X169797200Y-100560001D01*
X169630668Y-100615185D01*
X169630663Y-100615187D01*
X169481342Y-100707289D01*
X169357288Y-100831343D01*
X169357283Y-100831349D01*
X169355241Y-100834661D01*
X169353247Y-100836453D01*
X169352807Y-100837011D01*
X169352711Y-100836935D01*
X169303291Y-100881383D01*
X169234328Y-100892602D01*
X169170247Y-100864755D01*
X169144168Y-100834656D01*
X169142319Y-100831659D01*
X169142316Y-100831655D01*
X169018345Y-100707684D01*
X168869124Y-100615643D01*
X168869119Y-100615641D01*
X168702697Y-100560494D01*
X168702690Y-100560493D01*
X168599986Y-100550000D01*
X168475000Y-100550000D01*
X168475000Y-102958441D01*
X168498330Y-103001167D01*
X168493346Y-103070859D01*
X168464845Y-103115206D01*
X166561744Y-105018308D01*
X166500421Y-105051793D01*
X166430729Y-105046809D01*
X166374796Y-105004937D01*
X166350535Y-104941435D01*
X166335063Y-104764592D01*
X166273903Y-104536337D01*
X166174035Y-104322171D01*
X166093729Y-104207482D01*
X166038496Y-104128600D01*
X165994760Y-104084864D01*
X165916179Y-104006283D01*
X165882696Y-103944963D01*
X165887680Y-103875271D01*
X165929551Y-103819337D01*
X165960529Y-103802422D01*
X166092086Y-103753354D01*
X166092093Y-103753350D01*
X166207187Y-103667190D01*
X166207190Y-103667187D01*
X166293350Y-103552093D01*
X166293354Y-103552086D01*
X166343596Y-103417379D01*
X166343598Y-103417372D01*
X166349999Y-103357844D01*
X166350000Y-103357827D01*
X166350000Y-102710000D01*
X165433012Y-102710000D01*
X165465925Y-102652993D01*
X165500000Y-102525826D01*
X165500000Y-102394174D01*
X165465925Y-102267007D01*
X165456098Y-102249986D01*
X167150001Y-102249986D01*
X167160494Y-102352697D01*
X167215641Y-102519119D01*
X167215643Y-102519124D01*
X167307684Y-102668345D01*
X167431654Y-102792315D01*
X167580875Y-102884356D01*
X167580880Y-102884358D01*
X167747302Y-102939505D01*
X167747309Y-102939506D01*
X167850019Y-102949999D01*
X167974999Y-102949999D01*
X167975000Y-102949998D01*
X167975000Y-102000000D01*
X167150001Y-102000000D01*
X167150001Y-102249986D01*
X165456098Y-102249986D01*
X165433012Y-102210000D01*
X166350000Y-102210000D01*
X166350000Y-101562172D01*
X166349999Y-101562155D01*
X166343598Y-101502627D01*
X166343596Y-101502620D01*
X166293354Y-101367913D01*
X166293350Y-101367906D01*
X166207190Y-101252812D01*
X166207187Y-101252809D01*
X166203452Y-101250013D01*
X167150000Y-101250013D01*
X167150000Y-101500000D01*
X167975000Y-101500000D01*
X167975000Y-100550000D01*
X167850027Y-100550000D01*
X167850012Y-100550001D01*
X167747302Y-100560494D01*
X167580880Y-100615641D01*
X167580875Y-100615643D01*
X167431654Y-100707684D01*
X167307684Y-100831654D01*
X167215643Y-100980875D01*
X167215641Y-100980880D01*
X167160494Y-101147302D01*
X167160493Y-101147309D01*
X167150000Y-101250013D01*
X166203452Y-101250013D01*
X166092093Y-101166649D01*
X166092086Y-101166645D01*
X165957379Y-101116403D01*
X165957372Y-101116401D01*
X165897844Y-101110000D01*
X165250000Y-101110000D01*
X165250000Y-102026988D01*
X165192993Y-101994075D01*
X165065826Y-101960000D01*
X164934174Y-101960000D01*
X164807007Y-101994075D01*
X164750000Y-102026988D01*
X164750000Y-101110000D01*
X164102155Y-101110000D01*
X164042627Y-101116401D01*
X164042620Y-101116403D01*
X163907913Y-101166645D01*
X163907906Y-101166649D01*
X163792812Y-101252809D01*
X163792809Y-101252812D01*
X163706649Y-101367906D01*
X163706645Y-101367913D01*
X163656403Y-101502620D01*
X163656401Y-101502627D01*
X163650000Y-101562155D01*
X163650000Y-102210000D01*
X164566988Y-102210000D01*
X164534075Y-102267007D01*
X164500000Y-102394174D01*
X164500000Y-102525826D01*
X164534075Y-102652993D01*
X164566988Y-102710000D01*
X163650000Y-102710000D01*
X163650000Y-103357844D01*
X163656401Y-103417372D01*
X163656403Y-103417379D01*
X163706645Y-103552086D01*
X163706649Y-103552093D01*
X163792809Y-103667187D01*
X163792812Y-103667190D01*
X163907906Y-103753350D01*
X163907913Y-103753354D01*
X164039470Y-103802421D01*
X164095403Y-103844292D01*
X164119821Y-103909756D01*
X164104970Y-103978029D01*
X164083819Y-104006284D01*
X163961503Y-104128600D01*
X163825965Y-104322169D01*
X163825964Y-104322171D01*
X163726098Y-104536335D01*
X163726094Y-104536344D01*
X163664938Y-104764586D01*
X163664936Y-104764596D01*
X163644341Y-104999999D01*
X163644341Y-105000000D01*
X163664936Y-105235403D01*
X163664939Y-105235416D01*
X163684384Y-105307989D01*
X163682721Y-105377839D01*
X163652290Y-105427762D01*
X160744727Y-108335325D01*
X160744721Y-108335332D01*
X160691719Y-108414656D01*
X160691720Y-108414657D01*
X160673534Y-108441874D01*
X160624499Y-108560255D01*
X160624497Y-108560261D01*
X160599500Y-108685928D01*
X160599500Y-108685931D01*
X160599500Y-111814069D01*
X160616693Y-111900500D01*
X160624499Y-111939744D01*
X160673535Y-112058127D01*
X160741591Y-112159981D01*
X160744726Y-112164673D01*
X160744727Y-112164674D01*
X164113181Y-115533126D01*
X164146666Y-115594449D01*
X164149500Y-115620807D01*
X164149500Y-123993738D01*
X164129815Y-124060777D01*
X164077011Y-124106532D01*
X164013347Y-124117141D01*
X163894483Y-124105435D01*
X163894482Y-124105435D01*
X163698350Y-124124751D01*
X163698347Y-124124752D01*
X163643771Y-124141307D01*
X163573904Y-124141930D01*
X163514792Y-124104680D01*
X163511925Y-124101311D01*
X163460883Y-124039116D01*
X163308539Y-123914090D01*
X163308532Y-123914086D01*
X163134733Y-123821188D01*
X163134727Y-123821186D01*
X162946132Y-123763976D01*
X162946129Y-123763975D01*
X162750000Y-123744659D01*
X162553870Y-123763975D01*
X162365266Y-123821188D01*
X162191467Y-123914086D01*
X162191460Y-123914090D01*
X162039116Y-124039116D01*
X161914090Y-124191460D01*
X161914086Y-124191467D01*
X161821188Y-124365266D01*
X161763975Y-124553870D01*
X161744659Y-124749999D01*
X161746567Y-124769372D01*
X161733548Y-124838019D01*
X161710845Y-124869207D01*
X160882226Y-125697826D01*
X160870859Y-125714838D01*
X160819179Y-125792184D01*
X160811035Y-125804373D01*
X160811034Y-125804373D01*
X160761999Y-125922755D01*
X160761997Y-125922761D01*
X160737000Y-126048428D01*
X160737000Y-127685015D01*
X160717315Y-127752054D01*
X160664511Y-127797809D01*
X160595353Y-127807753D01*
X160577005Y-127803676D01*
X160446130Y-127763975D01*
X160250000Y-127744659D01*
X160053870Y-127763975D01*
X159865266Y-127821188D01*
X159691467Y-127914086D01*
X159691460Y-127914090D01*
X159539116Y-128039116D01*
X159414090Y-128191460D01*
X159414086Y-128191467D01*
X159321188Y-128365266D01*
X159263975Y-128553870D01*
X159245568Y-128740766D01*
X159244659Y-128750000D01*
X159247078Y-128774561D01*
X159263975Y-128946129D01*
X159321188Y-129134733D01*
X159414086Y-129308532D01*
X159414090Y-129308539D01*
X159539116Y-129460883D01*
X159691460Y-129585909D01*
X159691467Y-129585913D01*
X159865266Y-129678811D01*
X159865269Y-129678811D01*
X159865273Y-129678814D01*
X160053868Y-129736024D01*
X160250000Y-129755341D01*
X160446132Y-129736024D01*
X160577004Y-129696323D01*
X160646871Y-129695700D01*
X160705984Y-129732948D01*
X160735575Y-129796242D01*
X160737000Y-129814984D01*
X160737000Y-130627495D01*
X160717315Y-130694534D01*
X160664511Y-130740289D01*
X160600846Y-130750897D01*
X160537500Y-130744659D01*
X160341370Y-130763975D01*
X160152766Y-130821188D01*
X159978967Y-130914086D01*
X159978960Y-130914090D01*
X159826616Y-131039116D01*
X159701590Y-131191460D01*
X159701586Y-131191467D01*
X159608688Y-131365266D01*
X159551475Y-131553870D01*
X159532159Y-131750000D01*
X159551475Y-131946129D01*
X159608688Y-132134733D01*
X159701586Y-132308532D01*
X159701590Y-132308539D01*
X159826616Y-132460883D01*
X159978960Y-132585909D01*
X159978967Y-132585913D01*
X160152766Y-132678811D01*
X160152769Y-132678811D01*
X160152773Y-132678814D01*
X160341368Y-132736024D01*
X160537500Y-132755341D01*
X160600846Y-132749102D01*
X160669492Y-132762121D01*
X160720202Y-132810186D01*
X160737000Y-132872505D01*
X160737000Y-134961691D01*
X160717315Y-135028730D01*
X160700681Y-135049372D01*
X159716871Y-136033181D01*
X159655548Y-136066666D01*
X159629190Y-136069500D01*
X158352129Y-136069500D01*
X158352123Y-136069501D01*
X158292516Y-136075908D01*
X158157671Y-136126202D01*
X158157664Y-136126206D01*
X158042455Y-136212452D01*
X158042452Y-136212455D01*
X157956206Y-136327664D01*
X157956202Y-136327671D01*
X157905908Y-136462517D01*
X157899501Y-136522116D01*
X157899500Y-136522135D01*
X157899500Y-138317870D01*
X157899501Y-138317876D01*
X157905908Y-138377483D01*
X157956202Y-138512328D01*
X157956206Y-138512335D01*
X158042452Y-138627544D01*
X158042455Y-138627547D01*
X158157664Y-138713793D01*
X158157671Y-138713797D01*
X158289081Y-138762810D01*
X158345015Y-138804681D01*
X158369432Y-138870145D01*
X158354580Y-138938418D01*
X158333430Y-138966673D01*
X158211503Y-139088600D01*
X158075965Y-139282169D01*
X158075964Y-139282171D01*
X157976098Y-139496335D01*
X157976094Y-139496344D01*
X157914938Y-139724586D01*
X157914936Y-139724596D01*
X157894341Y-139959999D01*
X157894341Y-139960000D01*
X157914936Y-140195403D01*
X157914938Y-140195413D01*
X157976094Y-140423655D01*
X157976096Y-140423659D01*
X157976097Y-140423663D01*
X158052178Y-140586819D01*
X158075965Y-140637830D01*
X158075967Y-140637834D01*
X158211501Y-140831395D01*
X158211506Y-140831402D01*
X158378597Y-140998493D01*
X158378603Y-140998498D01*
X158564158Y-141128425D01*
X158607783Y-141183002D01*
X158614977Y-141252500D01*
X158583454Y-141314855D01*
X158564158Y-141331575D01*
X158378597Y-141461505D01*
X158211505Y-141628597D01*
X158075965Y-141822169D01*
X158075964Y-141822171D01*
X157976098Y-142036335D01*
X157976094Y-142036344D01*
X157914938Y-142264586D01*
X157914936Y-142264596D01*
X157894341Y-142499999D01*
X157894341Y-142500000D01*
X157914936Y-142735403D01*
X157914938Y-142735413D01*
X157976094Y-142963655D01*
X157976096Y-142963659D01*
X157976097Y-142963663D01*
X158075965Y-143177830D01*
X158075967Y-143177834D01*
X158211501Y-143371395D01*
X158211506Y-143371402D01*
X158378597Y-143538493D01*
X158378603Y-143538498D01*
X158564158Y-143668425D01*
X158607783Y-143723002D01*
X158614977Y-143792500D01*
X158583454Y-143854855D01*
X158564158Y-143871575D01*
X158378597Y-144001505D01*
X158211505Y-144168597D01*
X158075965Y-144362169D01*
X158075964Y-144362171D01*
X157976098Y-144576335D01*
X157976094Y-144576344D01*
X157914938Y-144804586D01*
X157914936Y-144804596D01*
X157894341Y-145039999D01*
X157894341Y-145040000D01*
X157914936Y-145275403D01*
X157914938Y-145275413D01*
X157976094Y-145503655D01*
X157976096Y-145503659D01*
X157976097Y-145503663D01*
X158062868Y-145689744D01*
X158075965Y-145717830D01*
X158075967Y-145717834D01*
X158184281Y-145872521D01*
X158211505Y-145911401D01*
X158378599Y-146078495D01*
X158445732Y-146125502D01*
X158572165Y-146214032D01*
X158572167Y-146214033D01*
X158572170Y-146214035D01*
X158786337Y-146313903D01*
X159014592Y-146375063D01*
X159202918Y-146391539D01*
X159249999Y-146395659D01*
X159250000Y-146395659D01*
X159250001Y-146395659D01*
X159289234Y-146392226D01*
X159485408Y-146375063D01*
X159713663Y-146313903D01*
X159927830Y-146214035D01*
X160121401Y-146078495D01*
X160288495Y-145911401D01*
X160424035Y-145717830D01*
X160523903Y-145503663D01*
X160585063Y-145275408D01*
X160605659Y-145040000D01*
X160585063Y-144804592D01*
X160534334Y-144615266D01*
X160523905Y-144576344D01*
X160523904Y-144576343D01*
X160523903Y-144576337D01*
X160424035Y-144362171D01*
X160376027Y-144293607D01*
X160288494Y-144168597D01*
X160121402Y-144001506D01*
X160121396Y-144001501D01*
X159935842Y-143871575D01*
X159892217Y-143816998D01*
X159885023Y-143747500D01*
X159916546Y-143685145D01*
X159935842Y-143668425D01*
X159983959Y-143634733D01*
X160121401Y-143538495D01*
X160288495Y-143371401D01*
X160424035Y-143177830D01*
X160523903Y-142963663D01*
X160585063Y-142735408D01*
X160605659Y-142500000D01*
X160585063Y-142264592D01*
X160523903Y-142036337D01*
X160424035Y-141822171D01*
X160423346Y-141821186D01*
X160288494Y-141628597D01*
X160121402Y-141461506D01*
X160121396Y-141461501D01*
X159935842Y-141331575D01*
X159892217Y-141276998D01*
X159885023Y-141207500D01*
X159916546Y-141145145D01*
X159935842Y-141128425D01*
X159997386Y-141085331D01*
X160121401Y-140998495D01*
X160288495Y-140831401D01*
X160424035Y-140637830D01*
X160523903Y-140423663D01*
X160585063Y-140195408D01*
X160605659Y-139960000D01*
X160585063Y-139724592D01*
X160565614Y-139652007D01*
X160567277Y-139582162D01*
X160597706Y-139532238D01*
X161887820Y-138242124D01*
X161949142Y-138208641D01*
X162018834Y-138213625D01*
X162074767Y-138255497D01*
X162099184Y-138320961D01*
X162099500Y-138329807D01*
X162099500Y-142614069D01*
X162099500Y-142614071D01*
X162099499Y-142614071D01*
X162124497Y-142739738D01*
X162124499Y-142739744D01*
X162170391Y-142850538D01*
X162173535Y-142858127D01*
X162244723Y-142964669D01*
X162244726Y-142964673D01*
X167085327Y-147805274D01*
X167175124Y-147865274D01*
X167175125Y-147865275D01*
X167191864Y-147876460D01*
X167191872Y-147876464D01*
X167191873Y-147876465D01*
X167310256Y-147925501D01*
X167310260Y-147925501D01*
X167310261Y-147925502D01*
X167435928Y-147950500D01*
X167435931Y-147950500D01*
X188453975Y-147950500D01*
X188521014Y-147970185D01*
X188566769Y-148022989D01*
X188576713Y-148092147D01*
X188572635Y-148110496D01*
X188513976Y-148303865D01*
X188494659Y-148500000D01*
X188513975Y-148696129D01*
X188513976Y-148696132D01*
X188548074Y-148808539D01*
X188571188Y-148884733D01*
X188664086Y-149058532D01*
X188664090Y-149058539D01*
X188789116Y-149210883D01*
X188941460Y-149335909D01*
X188941467Y-149335913D01*
X189115266Y-149428811D01*
X189115269Y-149428811D01*
X189115273Y-149428814D01*
X189303868Y-149486024D01*
X189500000Y-149505341D01*
X189696132Y-149486024D01*
X189884727Y-149428814D01*
X189913975Y-149413181D01*
X190058532Y-149335913D01*
X190058538Y-149335910D01*
X190210883Y-149210883D01*
X190335910Y-149058538D01*
X190420383Y-148900500D01*
X190428811Y-148884733D01*
X190428811Y-148884732D01*
X190428814Y-148884727D01*
X190486024Y-148696132D01*
X190505341Y-148500000D01*
X190486024Y-148303868D01*
X190451214Y-148189116D01*
X190427365Y-148110496D01*
X190426741Y-148040629D01*
X190463989Y-147981516D01*
X190527283Y-147951925D01*
X190546025Y-147950500D01*
X202599666Y-147950500D01*
X202666705Y-147970185D01*
X202712460Y-148022989D01*
X202722404Y-148092147D01*
X202695519Y-148153165D01*
X202664091Y-148191460D01*
X202664086Y-148191467D01*
X202571188Y-148365266D01*
X202513975Y-148553870D01*
X202494659Y-148750000D01*
X202513975Y-148946129D01*
X202513976Y-148946132D01*
X202556377Y-149085910D01*
X202571188Y-149134733D01*
X202664086Y-149308532D01*
X202664090Y-149308539D01*
X202789116Y-149460883D01*
X202941460Y-149585909D01*
X202941467Y-149585913D01*
X203115266Y-149678811D01*
X203115269Y-149678811D01*
X203115273Y-149678814D01*
X203303868Y-149736024D01*
X203500000Y-149755341D01*
X203696132Y-149736024D01*
X203884727Y-149678814D01*
X203924287Y-149657669D01*
X204046295Y-149592454D01*
X204058538Y-149585910D01*
X204210883Y-149460883D01*
X204335910Y-149308538D01*
X204428814Y-149134727D01*
X204486024Y-148946132D01*
X204505341Y-148750000D01*
X204486024Y-148553868D01*
X204428814Y-148365273D01*
X204428811Y-148365269D01*
X204428811Y-148365266D01*
X204335913Y-148191467D01*
X204335911Y-148191465D01*
X204335910Y-148191462D01*
X204325351Y-148178596D01*
X204304481Y-148153165D01*
X204277168Y-148088855D01*
X204288959Y-148019987D01*
X204336111Y-147968427D01*
X204400334Y-147950500D01*
X209364071Y-147950500D01*
X209448615Y-147933682D01*
X209489744Y-147925501D01*
X209608127Y-147876465D01*
X209608132Y-147876461D01*
X209608135Y-147876460D01*
X209624875Y-147865275D01*
X209624877Y-147865274D01*
X209692068Y-147820378D01*
X209714669Y-147805277D01*
X212083127Y-145436819D01*
X212144450Y-145403334D01*
X212170808Y-145400500D01*
X215314071Y-145400500D01*
X215445718Y-145374313D01*
X215446244Y-145376960D01*
X215504415Y-145376385D01*
X215563564Y-145413576D01*
X215593216Y-145476841D01*
X215594659Y-145495702D01*
X215594659Y-145499999D01*
X215613975Y-145696129D01*
X215613976Y-145696132D01*
X215656377Y-145835910D01*
X215671188Y-145884733D01*
X215764086Y-146058532D01*
X215764090Y-146058539D01*
X215889116Y-146210883D01*
X216041460Y-146335909D01*
X216041467Y-146335913D01*
X216189009Y-146414776D01*
X216238853Y-146463738D01*
X216254314Y-146531876D01*
X216230483Y-146597555D01*
X216218237Y-146611815D01*
X214316873Y-148513181D01*
X214255550Y-148546666D01*
X214229192Y-148549500D01*
X211260929Y-148549500D01*
X211135261Y-148574497D01*
X211135255Y-148574499D01*
X211016874Y-148623534D01*
X210910326Y-148694726D01*
X210191871Y-149413181D01*
X210130548Y-149446666D01*
X210104190Y-149449500D01*
X208827129Y-149449500D01*
X208827123Y-149449501D01*
X208767516Y-149455908D01*
X208632671Y-149506202D01*
X208632664Y-149506206D01*
X208517455Y-149592452D01*
X208517452Y-149592455D01*
X208431206Y-149707664D01*
X208431202Y-149707671D01*
X208380908Y-149842517D01*
X208374501Y-149902116D01*
X208374500Y-149902135D01*
X208374500Y-151697870D01*
X208374501Y-151697876D01*
X208380908Y-151757483D01*
X208431202Y-151892328D01*
X208431206Y-151892335D01*
X208517452Y-152007544D01*
X208517455Y-152007547D01*
X208632664Y-152093793D01*
X208632671Y-152093797D01*
X208767517Y-152144091D01*
X208767516Y-152144091D01*
X208774444Y-152144835D01*
X208827127Y-152150500D01*
X210622872Y-152150499D01*
X210682483Y-152144091D01*
X210817331Y-152093796D01*
X210932546Y-152007546D01*
X211018796Y-151892331D01*
X211068002Y-151760401D01*
X211109872Y-151704468D01*
X211175337Y-151680050D01*
X211243610Y-151694901D01*
X211271865Y-151716053D01*
X211393917Y-151838105D01*
X211587421Y-151973600D01*
X211801507Y-152073429D01*
X211801516Y-152073433D01*
X212015000Y-152130634D01*
X212015000Y-151233012D01*
X212072007Y-151265925D01*
X212199174Y-151300000D01*
X212330826Y-151300000D01*
X212457993Y-151265925D01*
X212515000Y-151233012D01*
X212515000Y-152130633D01*
X212728483Y-152073433D01*
X212728492Y-152073429D01*
X212942578Y-151973600D01*
X213136082Y-151838105D01*
X213303105Y-151671082D01*
X213433119Y-151485405D01*
X213487696Y-151441781D01*
X213557195Y-151434588D01*
X213619549Y-151466110D01*
X213636269Y-151485405D01*
X213766505Y-151671401D01*
X213933599Y-151838495D01*
X214030384Y-151906265D01*
X214127165Y-151974032D01*
X214127167Y-151974033D01*
X214127170Y-151974035D01*
X214341337Y-152073903D01*
X214341343Y-152073904D01*
X214341344Y-152073905D01*
X214382980Y-152085061D01*
X214569592Y-152135063D01*
X214746034Y-152150500D01*
X214804999Y-152155659D01*
X214805000Y-152155659D01*
X214805001Y-152155659D01*
X214863966Y-152150500D01*
X215040408Y-152135063D01*
X215268663Y-152073903D01*
X215482830Y-151974035D01*
X215676401Y-151838495D01*
X215843495Y-151671401D01*
X215979035Y-151477830D01*
X216078903Y-151263663D01*
X216140063Y-151035408D01*
X216160659Y-150800000D01*
X216140063Y-150564592D01*
X216087774Y-150369446D01*
X216078905Y-150336344D01*
X216078904Y-150336343D01*
X216078903Y-150336337D01*
X215979035Y-150122171D01*
X215974303Y-150115412D01*
X215893491Y-150000000D01*
X234794778Y-150000000D01*
X234801842Y-150107783D01*
X234813644Y-150287837D01*
X234813646Y-150287849D01*
X234869917Y-150570745D01*
X234869921Y-150570760D01*
X234962642Y-150843905D01*
X235090219Y-151102606D01*
X235090223Y-151102613D01*
X235250478Y-151342452D01*
X235440672Y-151559327D01*
X235657547Y-151749521D01*
X235724815Y-151794468D01*
X235897389Y-151909778D01*
X236156098Y-152037359D01*
X236429247Y-152130081D01*
X236712161Y-152186356D01*
X237000000Y-152205222D01*
X237287839Y-152186356D01*
X237570753Y-152130081D01*
X237843902Y-152037359D01*
X238102611Y-151909778D01*
X238342454Y-151749520D01*
X238559327Y-151559327D01*
X238749520Y-151342454D01*
X238909778Y-151102611D01*
X239037359Y-150843902D01*
X239130081Y-150570753D01*
X239186356Y-150287839D01*
X239205222Y-150000000D01*
X239186356Y-149712161D01*
X239130081Y-149429247D01*
X239037359Y-149156098D01*
X238909778Y-148897389D01*
X238862388Y-148826465D01*
X238749521Y-148657547D01*
X238559327Y-148440672D01*
X238342452Y-148250478D01*
X238102613Y-148090223D01*
X238102606Y-148090219D01*
X237843905Y-147962642D01*
X237570760Y-147869921D01*
X237570754Y-147869919D01*
X237570753Y-147869919D01*
X237570751Y-147869918D01*
X237570745Y-147869917D01*
X237287849Y-147813646D01*
X237287839Y-147813644D01*
X237000000Y-147794778D01*
X236712161Y-147813644D01*
X236712155Y-147813645D01*
X236712150Y-147813646D01*
X236429254Y-147869917D01*
X236429239Y-147869921D01*
X236156094Y-147962642D01*
X235897393Y-148090219D01*
X235897386Y-148090223D01*
X235657547Y-148250478D01*
X235440672Y-148440672D01*
X235250478Y-148657547D01*
X235090223Y-148897386D01*
X235090219Y-148897393D01*
X234962642Y-149156094D01*
X234869921Y-149429239D01*
X234869917Y-149429254D01*
X234814537Y-149707671D01*
X234813644Y-149712161D01*
X234794778Y-150000000D01*
X215893491Y-150000000D01*
X215843494Y-149928597D01*
X215676402Y-149761506D01*
X215676395Y-149761501D01*
X215482834Y-149625967D01*
X215482830Y-149625965D01*
X215344038Y-149561245D01*
X215291599Y-149515072D01*
X215272447Y-149447879D01*
X215292663Y-149380998D01*
X215308757Y-149361187D01*
X215769944Y-148900000D01*
X223994659Y-148900000D01*
X224013975Y-149096129D01*
X224013976Y-149096132D01*
X224062271Y-149255340D01*
X224071188Y-149284733D01*
X224164086Y-149458532D01*
X224164090Y-149458539D01*
X224289116Y-149610883D01*
X224441460Y-149735909D01*
X224441467Y-149735913D01*
X224615266Y-149828811D01*
X224615269Y-149828811D01*
X224615273Y-149828814D01*
X224803868Y-149886024D01*
X225000000Y-149905341D01*
X225196132Y-149886024D01*
X225384727Y-149828814D01*
X225558538Y-149735910D01*
X225710883Y-149610883D01*
X225835910Y-149458538D01*
X225887948Y-149361182D01*
X225928811Y-149284733D01*
X225928811Y-149284732D01*
X225928814Y-149284727D01*
X225986024Y-149096132D01*
X226005341Y-148900000D01*
X225986024Y-148703868D01*
X225928814Y-148515273D01*
X225928811Y-148515269D01*
X225928811Y-148515266D01*
X225835913Y-148341467D01*
X225835909Y-148341460D01*
X225710883Y-148189116D01*
X225558539Y-148064090D01*
X225558532Y-148064086D01*
X225384733Y-147971188D01*
X225384727Y-147971186D01*
X225196132Y-147913976D01*
X225196129Y-147913975D01*
X225000000Y-147894659D01*
X224803870Y-147913975D01*
X224615266Y-147971188D01*
X224441467Y-148064086D01*
X224441460Y-148064090D01*
X224289116Y-148189116D01*
X224164090Y-148341460D01*
X224164086Y-148341467D01*
X224071188Y-148515266D01*
X224013975Y-148703870D01*
X223994659Y-148900000D01*
X215769944Y-148900000D01*
X218305277Y-146364669D01*
X218376465Y-146258127D01*
X218425501Y-146139744D01*
X218428334Y-146125501D01*
X218450500Y-146014069D01*
X218450500Y-144270807D01*
X218470185Y-144203768D01*
X218486819Y-144183126D01*
X220755273Y-141914672D01*
X220755276Y-141914669D01*
X220826465Y-141808127D01*
X220875501Y-141689744D01*
X220878854Y-141672888D01*
X220900500Y-141564069D01*
X220900500Y-141420921D01*
X220920185Y-141353882D01*
X220932351Y-141337948D01*
X220982533Y-141282216D01*
X221077179Y-141118284D01*
X221135674Y-140938256D01*
X221155460Y-140750000D01*
X221135674Y-140561744D01*
X221077179Y-140381716D01*
X221002951Y-140253149D01*
X220989114Y-140229182D01*
X220972641Y-140161281D01*
X220995494Y-140095255D01*
X221046060Y-140053905D01*
X221202730Y-139984151D01*
X221355871Y-139872888D01*
X221482533Y-139732216D01*
X221577179Y-139568284D01*
X221635674Y-139388256D01*
X221655460Y-139200000D01*
X221635674Y-139011744D01*
X221577179Y-138831716D01*
X221482533Y-138667784D01*
X221432350Y-138612050D01*
X221402120Y-138549058D01*
X221400500Y-138529078D01*
X221400500Y-138375267D01*
X221375502Y-138249600D01*
X221375501Y-138249599D01*
X221375501Y-138249595D01*
X221374247Y-138246567D01*
X221340324Y-138164669D01*
X221326469Y-138131220D01*
X221326468Y-138131219D01*
X221326466Y-138131213D01*
X221291706Y-138079191D01*
X221251893Y-138019605D01*
X221253596Y-138018466D01*
X221229943Y-137962770D01*
X221241737Y-137893902D01*
X221288890Y-137842344D01*
X221356433Y-137824463D01*
X221422921Y-137845937D01*
X221440791Y-137860737D01*
X223063181Y-139483127D01*
X223096666Y-139544450D01*
X223099500Y-139570808D01*
X223099500Y-140374730D01*
X223099500Y-140374732D01*
X223099499Y-140374732D01*
X223117625Y-140465849D01*
X223117625Y-140465850D01*
X223124496Y-140500398D01*
X223124498Y-140500403D01*
X223159090Y-140583914D01*
X223173535Y-140618788D01*
X223239681Y-140717784D01*
X223244726Y-140725334D01*
X223244727Y-140725335D01*
X224010101Y-141490708D01*
X224774670Y-142255277D01*
X224775079Y-142255550D01*
X224830587Y-142292639D01*
X224830589Y-142292640D01*
X224830592Y-142292642D01*
X224881212Y-142326465D01*
X224999595Y-142375501D01*
X225084119Y-142392314D01*
X225138502Y-142419577D01*
X225138872Y-142419069D01*
X225141952Y-142421306D01*
X225142904Y-142421784D01*
X225144122Y-142422881D01*
X225144129Y-142422888D01*
X225144136Y-142422893D01*
X225188462Y-142455098D01*
X225231128Y-142510427D01*
X225237107Y-142580041D01*
X225218681Y-142624304D01*
X225173811Y-142691460D01*
X225173767Y-142691526D01*
X225173535Y-142691873D01*
X225167944Y-142705371D01*
X225124499Y-142810255D01*
X225124497Y-142810261D01*
X225099500Y-142935928D01*
X225099500Y-143829078D01*
X225079815Y-143896117D01*
X225067650Y-143912050D01*
X225017466Y-143967785D01*
X224922821Y-144131715D01*
X224922818Y-144131722D01*
X224873920Y-144282216D01*
X224864326Y-144311744D01*
X224844540Y-144500000D01*
X224864326Y-144688256D01*
X224864327Y-144688259D01*
X224922818Y-144868277D01*
X224922821Y-144868284D01*
X225017467Y-145032216D01*
X225144129Y-145172888D01*
X225297265Y-145284148D01*
X225297270Y-145284151D01*
X225470192Y-145361142D01*
X225470197Y-145361144D01*
X225655354Y-145400500D01*
X225655355Y-145400500D01*
X225725500Y-145400500D01*
X225792539Y-145420185D01*
X225838294Y-145472989D01*
X225849500Y-145524500D01*
X225849500Y-145564069D01*
X225864977Y-145641873D01*
X225874499Y-145689744D01*
X225923535Y-145808127D01*
X225992540Y-145911402D01*
X225994726Y-145914673D01*
X228835327Y-148755274D01*
X228915044Y-148808539D01*
X228915043Y-148808539D01*
X228935187Y-148821997D01*
X228941873Y-148826465D01*
X229060256Y-148875501D01*
X229060260Y-148875501D01*
X229060261Y-148875502D01*
X229185928Y-148900500D01*
X229185931Y-148900500D01*
X229680914Y-148900500D01*
X229747953Y-148920185D01*
X229776768Y-148945836D01*
X229789117Y-148960883D01*
X229941460Y-149085909D01*
X229941467Y-149085913D01*
X230115266Y-149178811D01*
X230115269Y-149178811D01*
X230115273Y-149178814D01*
X230303868Y-149236024D01*
X230500000Y-149255341D01*
X230696132Y-149236024D01*
X230884727Y-149178814D01*
X231058538Y-149085910D01*
X231210883Y-148960883D01*
X231335910Y-148808538D01*
X231396744Y-148694726D01*
X231428811Y-148634733D01*
X231428811Y-148634732D01*
X231428814Y-148634727D01*
X231486024Y-148446132D01*
X231505341Y-148250000D01*
X231486024Y-148053868D01*
X231428814Y-147865273D01*
X231428811Y-147865269D01*
X231428811Y-147865266D01*
X231335913Y-147691467D01*
X231335909Y-147691460D01*
X231210883Y-147539116D01*
X231058539Y-147414090D01*
X231058532Y-147414086D01*
X230884733Y-147321188D01*
X230884727Y-147321186D01*
X230696132Y-147263976D01*
X230696129Y-147263975D01*
X230500000Y-147244659D01*
X230303870Y-147263975D01*
X230115266Y-147321188D01*
X229941467Y-147414086D01*
X229941460Y-147414090D01*
X229789117Y-147539116D01*
X229776768Y-147554164D01*
X229719022Y-147593499D01*
X229680914Y-147599500D01*
X229570808Y-147599500D01*
X229503769Y-147579815D01*
X229483127Y-147563181D01*
X227186819Y-145266873D01*
X227153334Y-145205550D01*
X227150500Y-145179192D01*
X227150500Y-144420921D01*
X227170185Y-144353882D01*
X227182351Y-144337948D01*
X227204266Y-144313609D01*
X227232533Y-144282216D01*
X227327179Y-144118284D01*
X227385674Y-143938256D01*
X227405460Y-143750000D01*
X227385674Y-143561744D01*
X227327179Y-143381716D01*
X227232533Y-143217784D01*
X227105871Y-143077112D01*
X227099398Y-143072409D01*
X226952734Y-142965851D01*
X226952730Y-142965849D01*
X226945511Y-142962635D01*
X226892277Y-142917387D01*
X226871955Y-142850538D01*
X226891000Y-142783314D01*
X226908263Y-142761681D01*
X226919944Y-142750000D01*
X229244659Y-142750000D01*
X229263975Y-142946129D01*
X229321188Y-143134733D01*
X229414086Y-143308532D01*
X229414090Y-143308539D01*
X229539116Y-143460883D01*
X229691460Y-143585909D01*
X229691467Y-143585913D01*
X229865266Y-143678811D01*
X229865269Y-143678811D01*
X229865273Y-143678814D01*
X230053868Y-143736024D01*
X230250000Y-143755341D01*
X230446132Y-143736024D01*
X230531921Y-143710000D01*
X232300138Y-143710000D01*
X233103012Y-143710000D01*
X233085795Y-143719940D01*
X233029940Y-143775795D01*
X232990444Y-143844204D01*
X232970000Y-143920504D01*
X232970000Y-143999496D01*
X232990444Y-144075796D01*
X233029940Y-144144205D01*
X233085795Y-144200060D01*
X233103012Y-144210000D01*
X232300138Y-144210000D01*
X232308430Y-144251690D01*
X232308430Y-144251692D01*
X232383807Y-144433671D01*
X232383814Y-144433684D01*
X232493248Y-144597462D01*
X232493251Y-144597466D01*
X232632533Y-144736748D01*
X232632537Y-144736751D01*
X232796315Y-144846185D01*
X232796328Y-144846192D01*
X232978306Y-144921569D01*
X232978318Y-144921572D01*
X233171504Y-144959999D01*
X233171508Y-144960000D01*
X233570000Y-144960000D01*
X233570000Y-144260000D01*
X234070000Y-144260000D01*
X234070000Y-144960000D01*
X234468492Y-144960000D01*
X234468495Y-144959999D01*
X234661681Y-144921572D01*
X234661693Y-144921569D01*
X234843671Y-144846192D01*
X234843684Y-144846185D01*
X235007462Y-144736751D01*
X235007466Y-144736748D01*
X235146748Y-144597466D01*
X235146751Y-144597462D01*
X235256185Y-144433684D01*
X235256192Y-144433671D01*
X235331569Y-144251692D01*
X235331569Y-144251690D01*
X235339862Y-144210000D01*
X234536988Y-144210000D01*
X234554205Y-144200060D01*
X234610060Y-144144205D01*
X234649556Y-144075796D01*
X234670000Y-143999496D01*
X234670000Y-143920504D01*
X234649556Y-143844204D01*
X234610060Y-143775795D01*
X234554205Y-143719940D01*
X234536988Y-143710000D01*
X235339862Y-143710000D01*
X236630138Y-143710000D01*
X237433012Y-143710000D01*
X237415795Y-143719940D01*
X237359940Y-143775795D01*
X237320444Y-143844204D01*
X237300000Y-143920504D01*
X237300000Y-143999496D01*
X237320444Y-144075796D01*
X237359940Y-144144205D01*
X237415795Y-144200060D01*
X237433012Y-144210000D01*
X236630138Y-144210000D01*
X236638430Y-144251690D01*
X236638430Y-144251692D01*
X236713807Y-144433671D01*
X236713814Y-144433684D01*
X236823248Y-144597462D01*
X236823251Y-144597466D01*
X236962533Y-144736748D01*
X236962537Y-144736751D01*
X237126315Y-144846185D01*
X237126328Y-144846192D01*
X237308306Y-144921569D01*
X237308318Y-144921572D01*
X237501504Y-144959999D01*
X237501508Y-144960000D01*
X237750000Y-144960000D01*
X237750000Y-144260000D01*
X238250000Y-144260000D01*
X238250000Y-144960000D01*
X238498492Y-144960000D01*
X238498495Y-144959999D01*
X238691681Y-144921572D01*
X238691693Y-144921569D01*
X238873671Y-144846192D01*
X238873684Y-144846185D01*
X239037462Y-144736751D01*
X239037466Y-144736748D01*
X239176748Y-144597466D01*
X239176751Y-144597462D01*
X239286185Y-144433684D01*
X239286192Y-144433671D01*
X239361569Y-144251692D01*
X239361569Y-144251690D01*
X239369862Y-144210000D01*
X238566988Y-144210000D01*
X238584205Y-144200060D01*
X238640060Y-144144205D01*
X238679556Y-144075796D01*
X238700000Y-143999496D01*
X238700000Y-143920504D01*
X238679556Y-143844204D01*
X238640060Y-143775795D01*
X238584205Y-143719940D01*
X238566988Y-143710000D01*
X239369862Y-143710000D01*
X239361569Y-143668309D01*
X239361569Y-143668307D01*
X239286192Y-143486328D01*
X239286185Y-143486315D01*
X239176751Y-143322537D01*
X239176748Y-143322533D01*
X239037466Y-143183251D01*
X239037462Y-143183248D01*
X238873684Y-143073814D01*
X238873671Y-143073807D01*
X238691693Y-142998430D01*
X238691681Y-142998427D01*
X238498495Y-142960000D01*
X238250000Y-142960000D01*
X238250000Y-143660000D01*
X237750000Y-143660000D01*
X237750000Y-142960000D01*
X237501504Y-142960000D01*
X237308318Y-142998427D01*
X237308306Y-142998430D01*
X237126328Y-143073807D01*
X237126315Y-143073814D01*
X236962537Y-143183248D01*
X236962533Y-143183251D01*
X236823251Y-143322533D01*
X236823248Y-143322537D01*
X236713814Y-143486315D01*
X236713807Y-143486328D01*
X236638430Y-143668307D01*
X236638430Y-143668309D01*
X236630138Y-143710000D01*
X235339862Y-143710000D01*
X235331569Y-143668309D01*
X235331569Y-143668307D01*
X235256192Y-143486328D01*
X235256185Y-143486315D01*
X235146751Y-143322537D01*
X235146748Y-143322533D01*
X235007466Y-143183251D01*
X235007462Y-143183248D01*
X234843684Y-143073814D01*
X234843675Y-143073809D01*
X234712801Y-143019600D01*
X234658398Y-142975759D01*
X234636333Y-142909465D01*
X234653612Y-142841766D01*
X234672572Y-142817359D01*
X234682090Y-142807842D01*
X234741663Y-142704659D01*
X234772500Y-142589573D01*
X234772500Y-142470427D01*
X234741663Y-142355341D01*
X234682090Y-142252158D01*
X234597842Y-142167910D01*
X234532381Y-142130116D01*
X234494660Y-142108337D01*
X234437116Y-142092918D01*
X234379573Y-142077500D01*
X234260427Y-142077500D01*
X234145339Y-142108337D01*
X234042158Y-142167910D01*
X234042155Y-142167912D01*
X233957912Y-142252155D01*
X233957910Y-142252158D01*
X233898337Y-142355339D01*
X233867500Y-142470427D01*
X233867500Y-142589572D01*
X233898337Y-142704660D01*
X233898748Y-142705371D01*
X233957910Y-142807842D01*
X233957911Y-142807843D01*
X233957912Y-142807844D01*
X234033681Y-142883613D01*
X234067166Y-142944936D01*
X234070000Y-142971294D01*
X234070000Y-143660000D01*
X233570000Y-143660000D01*
X233570000Y-142960000D01*
X233171504Y-142960000D01*
X232978318Y-142998427D01*
X232978306Y-142998430D01*
X232796328Y-143073807D01*
X232796315Y-143073814D01*
X232632537Y-143183248D01*
X232632533Y-143183251D01*
X232493251Y-143322533D01*
X232493248Y-143322537D01*
X232383814Y-143486315D01*
X232383807Y-143486328D01*
X232308430Y-143668307D01*
X232308430Y-143668309D01*
X232300138Y-143710000D01*
X230531921Y-143710000D01*
X230634727Y-143678814D01*
X230654164Y-143668425D01*
X230808532Y-143585913D01*
X230808538Y-143585910D01*
X230960883Y-143460883D01*
X231085910Y-143308538D01*
X231178814Y-143134727D01*
X231236024Y-142946132D01*
X231255341Y-142750000D01*
X231236024Y-142553868D01*
X231178814Y-142365273D01*
X231178811Y-142365269D01*
X231178811Y-142365266D01*
X231085913Y-142191467D01*
X231085909Y-142191460D01*
X230960883Y-142039116D01*
X230808539Y-141914090D01*
X230808532Y-141914086D01*
X230634733Y-141821188D01*
X230634727Y-141821186D01*
X230446132Y-141763976D01*
X230446129Y-141763975D01*
X230250000Y-141744659D01*
X230053870Y-141763975D01*
X229865266Y-141821188D01*
X229691467Y-141914086D01*
X229691460Y-141914090D01*
X229539116Y-142039116D01*
X229414090Y-142191460D01*
X229414086Y-142191467D01*
X229321188Y-142365266D01*
X229263975Y-142553870D01*
X229244659Y-142750000D01*
X226919944Y-142750000D01*
X229005276Y-140664670D01*
X229063780Y-140577112D01*
X229076464Y-140558129D01*
X229079624Y-140550500D01*
X229125501Y-140439744D01*
X229132357Y-140405276D01*
X229147901Y-140327135D01*
X229150500Y-140314070D01*
X229150500Y-139208725D01*
X229170185Y-139141686D01*
X229186814Y-139121048D01*
X230243080Y-138064782D01*
X230304403Y-138031298D01*
X230374095Y-138036282D01*
X230426614Y-138073799D01*
X230539116Y-138210883D01*
X230691460Y-138335909D01*
X230691467Y-138335913D01*
X230865266Y-138428811D01*
X230865269Y-138428811D01*
X230865273Y-138428814D01*
X231053868Y-138486024D01*
X231250000Y-138505341D01*
X231446132Y-138486024D01*
X231634727Y-138428814D01*
X231808538Y-138335910D01*
X231960883Y-138210883D01*
X232085910Y-138058538D01*
X232178814Y-137884727D01*
X232236024Y-137696132D01*
X232255341Y-137500000D01*
X232236024Y-137303868D01*
X232178814Y-137115273D01*
X232178811Y-137115269D01*
X232178811Y-137115266D01*
X232085913Y-136941467D01*
X232085909Y-136941460D01*
X231960883Y-136789116D01*
X231823798Y-136676613D01*
X231784464Y-136618867D01*
X231782593Y-136549023D01*
X231814779Y-136493083D01*
X231987863Y-136319999D01*
X233173552Y-136319999D01*
X233173553Y-136320000D01*
X233830984Y-136320000D01*
X233898023Y-136339685D01*
X233943778Y-136392489D01*
X233953722Y-136461647D01*
X233938371Y-136506001D01*
X233898337Y-136575339D01*
X233893036Y-136595123D01*
X233867500Y-136690427D01*
X233867500Y-136809573D01*
X233875039Y-136837708D01*
X233898337Y-136924660D01*
X233908037Y-136941460D01*
X233957910Y-137027842D01*
X234042158Y-137112090D01*
X234145341Y-137171663D01*
X234260427Y-137202500D01*
X234260429Y-137202500D01*
X234379571Y-137202500D01*
X234379573Y-137202500D01*
X234494659Y-137171663D01*
X234597842Y-137112090D01*
X234682090Y-137027842D01*
X234741663Y-136924659D01*
X234772500Y-136809573D01*
X234772500Y-136690427D01*
X234741663Y-136575341D01*
X234682090Y-136472158D01*
X234597842Y-136387910D01*
X234537283Y-136352946D01*
X234494658Y-136328336D01*
X234487155Y-136325229D01*
X234488073Y-136323010D01*
X234444017Y-136297568D01*
X233820000Y-135673552D01*
X233819999Y-135673552D01*
X233173552Y-136319999D01*
X231987863Y-136319999D01*
X232334147Y-135973716D01*
X232395465Y-135940234D01*
X232465157Y-135945218D01*
X232509504Y-135973719D01*
X232632533Y-136096748D01*
X232632541Y-136096754D01*
X232666800Y-136119646D01*
X232666802Y-136119645D01*
X233179983Y-135606463D01*
X233230504Y-135620000D01*
X234409496Y-135620000D01*
X234460015Y-135606463D01*
X234973197Y-136119645D01*
X234973199Y-136119646D01*
X235007458Y-136096754D01*
X235007466Y-136096748D01*
X235146748Y-135957466D01*
X235146751Y-135957462D01*
X235256185Y-135793684D01*
X235256192Y-135793671D01*
X235331569Y-135611693D01*
X235331572Y-135611681D01*
X235369999Y-135418495D01*
X235370000Y-135418492D01*
X235370000Y-135221508D01*
X235369999Y-135221504D01*
X235339863Y-135070000D01*
X236630138Y-135070000D01*
X237433012Y-135070000D01*
X237415795Y-135079940D01*
X237359940Y-135135795D01*
X237320444Y-135204204D01*
X237300000Y-135280504D01*
X237300000Y-135359496D01*
X237320444Y-135435796D01*
X237359940Y-135504205D01*
X237415795Y-135560060D01*
X237433012Y-135570000D01*
X236630138Y-135570000D01*
X236638430Y-135611690D01*
X236638430Y-135611692D01*
X236713807Y-135793671D01*
X236713814Y-135793684D01*
X236823248Y-135957462D01*
X236823251Y-135957466D01*
X236962533Y-136096748D01*
X236962537Y-136096751D01*
X237126315Y-136206185D01*
X237126328Y-136206192D01*
X237308306Y-136281569D01*
X237308318Y-136281572D01*
X237501504Y-136319999D01*
X237501508Y-136320000D01*
X237750000Y-136320000D01*
X237750000Y-135620000D01*
X238250000Y-135620000D01*
X238250000Y-136320000D01*
X238498492Y-136320000D01*
X238498495Y-136319999D01*
X238691681Y-136281572D01*
X238691693Y-136281569D01*
X238873671Y-136206192D01*
X238873684Y-136206185D01*
X239037462Y-136096751D01*
X239037466Y-136096748D01*
X239176748Y-135957466D01*
X239176751Y-135957462D01*
X239286185Y-135793684D01*
X239286192Y-135793671D01*
X239361569Y-135611692D01*
X239361569Y-135611690D01*
X239369862Y-135570000D01*
X238566988Y-135570000D01*
X238584205Y-135560060D01*
X238640060Y-135504205D01*
X238679556Y-135435796D01*
X238700000Y-135359496D01*
X238700000Y-135280504D01*
X238679556Y-135204204D01*
X238640060Y-135135795D01*
X238584205Y-135079940D01*
X238566988Y-135070000D01*
X239369862Y-135070000D01*
X239361569Y-135028309D01*
X239361569Y-135028307D01*
X239286192Y-134846328D01*
X239286185Y-134846315D01*
X239176751Y-134682537D01*
X239176748Y-134682533D01*
X239037466Y-134543251D01*
X239037462Y-134543248D01*
X238873684Y-134433814D01*
X238873671Y-134433807D01*
X238691693Y-134358430D01*
X238691681Y-134358427D01*
X238498495Y-134320000D01*
X238250000Y-134320000D01*
X238250000Y-135020000D01*
X237750000Y-135020000D01*
X237750000Y-134320000D01*
X237501504Y-134320000D01*
X237308318Y-134358427D01*
X237308306Y-134358430D01*
X237126328Y-134433807D01*
X237126315Y-134433814D01*
X236962537Y-134543248D01*
X236962533Y-134543251D01*
X236823251Y-134682533D01*
X236823248Y-134682537D01*
X236713814Y-134846315D01*
X236713807Y-134846328D01*
X236638430Y-135028307D01*
X236638430Y-135028309D01*
X236630138Y-135070000D01*
X235339863Y-135070000D01*
X235331572Y-135028318D01*
X235331569Y-135028306D01*
X235256192Y-134846328D01*
X235256185Y-134846315D01*
X235146751Y-134682537D01*
X235146748Y-134682533D01*
X235007466Y-134543251D01*
X235007462Y-134543248D01*
X234973197Y-134520353D01*
X234973196Y-134520353D01*
X234460013Y-135033535D01*
X234409496Y-135020000D01*
X233766448Y-135020000D01*
X234467768Y-134318678D01*
X234460955Y-134255305D01*
X234492229Y-134192826D01*
X234495267Y-134189678D01*
X234837238Y-133847706D01*
X234898559Y-133814223D01*
X234957006Y-133815613D01*
X235029592Y-133835063D01*
X235206034Y-133850500D01*
X235264999Y-133855659D01*
X235265000Y-133855659D01*
X235265001Y-133855659D01*
X235323966Y-133850500D01*
X235500408Y-133835063D01*
X235728663Y-133773903D01*
X235942830Y-133674035D01*
X236136401Y-133538495D01*
X236303495Y-133371401D01*
X236433730Y-133185405D01*
X236488307Y-133141781D01*
X236557805Y-133134587D01*
X236620160Y-133166110D01*
X236636879Y-133185405D01*
X236766890Y-133371078D01*
X236933917Y-133538105D01*
X237127421Y-133673600D01*
X237341507Y-133773429D01*
X237341516Y-133773433D01*
X237555000Y-133830634D01*
X237555000Y-132933012D01*
X237612007Y-132965925D01*
X237739174Y-133000000D01*
X237870826Y-133000000D01*
X237997993Y-132965925D01*
X238055000Y-132933012D01*
X238055000Y-133830633D01*
X238268483Y-133773433D01*
X238268492Y-133773429D01*
X238482578Y-133673600D01*
X238676082Y-133538105D01*
X238843105Y-133371082D01*
X238978600Y-133177578D01*
X239078429Y-132963492D01*
X239078432Y-132963486D01*
X239135636Y-132750000D01*
X238238012Y-132750000D01*
X238270925Y-132692993D01*
X238305000Y-132565826D01*
X238305000Y-132434174D01*
X238270925Y-132307007D01*
X238238012Y-132250000D01*
X239135636Y-132250000D01*
X239135635Y-132249999D01*
X239078432Y-132036513D01*
X239078429Y-132036507D01*
X238978600Y-131822422D01*
X238978599Y-131822420D01*
X238843113Y-131628926D01*
X238843108Y-131628920D01*
X238731369Y-131517181D01*
X238697884Y-131455858D01*
X238702868Y-131386166D01*
X238744740Y-131330233D01*
X238810204Y-131305816D01*
X238819050Y-131305500D01*
X239675500Y-131305500D01*
X239742539Y-131325185D01*
X239788294Y-131377989D01*
X239799500Y-131429500D01*
X239799500Y-152675500D01*
X239779815Y-152742539D01*
X239727011Y-152788294D01*
X239675500Y-152799500D01*
X157324500Y-152799500D01*
X157257461Y-152779815D01*
X157211706Y-152727011D01*
X157200500Y-152675500D01*
X157200500Y-150000000D01*
X157794778Y-150000000D01*
X157801842Y-150107783D01*
X157813644Y-150287837D01*
X157813646Y-150287849D01*
X157869917Y-150570745D01*
X157869921Y-150570760D01*
X157962642Y-150843905D01*
X158090219Y-151102606D01*
X158090223Y-151102613D01*
X158250478Y-151342452D01*
X158440672Y-151559327D01*
X158657547Y-151749521D01*
X158724815Y-151794468D01*
X158897389Y-151909778D01*
X159156098Y-152037359D01*
X159429247Y-152130081D01*
X159712161Y-152186356D01*
X160000000Y-152205222D01*
X160287839Y-152186356D01*
X160570753Y-152130081D01*
X160843902Y-152037359D01*
X161102611Y-151909778D01*
X161342454Y-151749520D01*
X161559327Y-151559327D01*
X161749520Y-151342454D01*
X161909778Y-151102611D01*
X162037359Y-150843902D01*
X162130081Y-150570753D01*
X162144155Y-150499999D01*
X164049364Y-150499999D01*
X164049364Y-150500000D01*
X164946988Y-150500000D01*
X164914075Y-150557007D01*
X164880000Y-150684174D01*
X164880000Y-150815826D01*
X164914075Y-150942993D01*
X164946988Y-151000000D01*
X164049364Y-151000000D01*
X164106567Y-151213486D01*
X164106570Y-151213492D01*
X164206399Y-151427578D01*
X164341894Y-151621082D01*
X164508917Y-151788105D01*
X164702421Y-151923600D01*
X164916507Y-152023429D01*
X164916516Y-152023433D01*
X165130000Y-152080634D01*
X165130000Y-151183012D01*
X165187007Y-151215925D01*
X165314174Y-151250000D01*
X165445826Y-151250000D01*
X165572993Y-151215925D01*
X165630000Y-151183012D01*
X165630000Y-152080633D01*
X165843483Y-152023433D01*
X165843492Y-152023429D01*
X166057578Y-151923600D01*
X166251082Y-151788105D01*
X166418105Y-151621082D01*
X166548119Y-151435405D01*
X166602696Y-151391781D01*
X166672195Y-151384588D01*
X166734549Y-151416110D01*
X166751269Y-151435405D01*
X166881505Y-151621401D01*
X167048599Y-151788495D01*
X167145384Y-151856265D01*
X167242165Y-151924032D01*
X167242167Y-151924033D01*
X167242170Y-151924035D01*
X167456337Y-152023903D01*
X167684592Y-152085063D01*
X167861034Y-152100500D01*
X167919999Y-152105659D01*
X167920000Y-152105659D01*
X167920001Y-152105659D01*
X167978966Y-152100500D01*
X168155408Y-152085063D01*
X168383663Y-152023903D01*
X168597830Y-151924035D01*
X168791401Y-151788495D01*
X168958495Y-151621401D01*
X169088425Y-151435842D01*
X169143002Y-151392217D01*
X169212500Y-151385023D01*
X169274855Y-151416546D01*
X169291575Y-151435842D01*
X169421281Y-151621082D01*
X169421505Y-151621401D01*
X169588599Y-151788495D01*
X169685384Y-151856265D01*
X169782165Y-151924032D01*
X169782167Y-151924033D01*
X169782170Y-151924035D01*
X169996337Y-152023903D01*
X170224592Y-152085063D01*
X170401034Y-152100500D01*
X170459999Y-152105659D01*
X170460000Y-152105659D01*
X170460001Y-152105659D01*
X170518966Y-152100500D01*
X170695408Y-152085063D01*
X170923663Y-152023903D01*
X171137830Y-151924035D01*
X171331401Y-151788495D01*
X171453329Y-151666566D01*
X171514648Y-151633084D01*
X171584340Y-151638068D01*
X171640274Y-151679939D01*
X171657189Y-151710917D01*
X171706202Y-151842328D01*
X171706206Y-151842335D01*
X171792452Y-151957544D01*
X171792455Y-151957547D01*
X171907664Y-152043793D01*
X171907671Y-152043797D01*
X172042517Y-152094091D01*
X172042516Y-152094091D01*
X172049444Y-152094835D01*
X172102127Y-152100500D01*
X173897872Y-152100499D01*
X173957483Y-152094091D01*
X174092331Y-152043796D01*
X174207546Y-151957546D01*
X174293796Y-151842331D01*
X174344091Y-151707483D01*
X174350500Y-151647873D01*
X174350499Y-150000000D01*
X198244659Y-150000000D01*
X198263975Y-150196129D01*
X198321188Y-150384733D01*
X198414086Y-150558532D01*
X198414090Y-150558539D01*
X198539116Y-150710883D01*
X198691460Y-150835909D01*
X198691467Y-150835913D01*
X198865266Y-150928811D01*
X198865269Y-150928811D01*
X198865273Y-150928814D01*
X199053868Y-150986024D01*
X199250000Y-151005341D01*
X199446132Y-150986024D01*
X199634727Y-150928814D01*
X199643734Y-150924000D01*
X199721632Y-150882362D01*
X199808538Y-150835910D01*
X199960883Y-150710883D01*
X200085910Y-150558538D01*
X200178814Y-150384727D01*
X200236024Y-150196132D01*
X200255341Y-150000000D01*
X200236024Y-149803868D01*
X200178814Y-149615273D01*
X200178811Y-149615269D01*
X200178811Y-149615266D01*
X200085913Y-149441467D01*
X200085909Y-149441460D01*
X199960883Y-149289116D01*
X199808539Y-149164090D01*
X199808532Y-149164086D01*
X199634733Y-149071188D01*
X199634727Y-149071186D01*
X199446132Y-149013976D01*
X199446129Y-149013975D01*
X199250000Y-148994659D01*
X199053870Y-149013975D01*
X198865266Y-149071188D01*
X198691467Y-149164086D01*
X198691460Y-149164090D01*
X198539116Y-149289116D01*
X198414090Y-149441460D01*
X198414086Y-149441467D01*
X198321188Y-149615266D01*
X198263975Y-149803870D01*
X198244659Y-150000000D01*
X174350499Y-150000000D01*
X174350499Y-149852128D01*
X174344091Y-149792517D01*
X174342810Y-149789083D01*
X174293797Y-149657671D01*
X174293793Y-149657664D01*
X174207547Y-149542455D01*
X174207544Y-149542452D01*
X174092335Y-149456206D01*
X174092328Y-149456202D01*
X173957482Y-149405908D01*
X173957483Y-149405908D01*
X173897883Y-149399501D01*
X173897881Y-149399500D01*
X173897873Y-149399500D01*
X173897864Y-149399500D01*
X172102129Y-149399500D01*
X172102123Y-149399501D01*
X172042516Y-149405908D01*
X171907671Y-149456202D01*
X171907664Y-149456206D01*
X171792455Y-149542452D01*
X171792452Y-149542455D01*
X171706206Y-149657664D01*
X171706203Y-149657669D01*
X171657189Y-149789083D01*
X171615317Y-149845016D01*
X171549853Y-149869433D01*
X171481580Y-149854581D01*
X171453326Y-149833430D01*
X171331402Y-149711506D01*
X171331395Y-149711501D01*
X171325922Y-149707669D01*
X171292521Y-149684281D01*
X171137834Y-149575967D01*
X171137830Y-149575965D01*
X171106263Y-149561245D01*
X170923663Y-149476097D01*
X170923659Y-149476096D01*
X170923655Y-149476094D01*
X170695413Y-149414938D01*
X170695403Y-149414936D01*
X170460001Y-149394341D01*
X170459999Y-149394341D01*
X170224596Y-149414936D01*
X170224586Y-149414938D01*
X169996344Y-149476094D01*
X169996335Y-149476098D01*
X169782171Y-149575964D01*
X169782169Y-149575965D01*
X169588597Y-149711505D01*
X169421505Y-149878597D01*
X169291575Y-150064158D01*
X169236998Y-150107783D01*
X169167500Y-150114977D01*
X169105145Y-150083454D01*
X169088425Y-150064158D01*
X168958494Y-149878597D01*
X168791402Y-149711506D01*
X168791395Y-149711501D01*
X168785922Y-149707669D01*
X168752521Y-149684281D01*
X168597834Y-149575967D01*
X168597830Y-149575965D01*
X168566263Y-149561245D01*
X168383663Y-149476097D01*
X168383659Y-149476096D01*
X168383655Y-149476094D01*
X168155413Y-149414938D01*
X168155403Y-149414936D01*
X167920001Y-149394341D01*
X167919999Y-149394341D01*
X167684596Y-149414936D01*
X167684586Y-149414938D01*
X167456344Y-149476094D01*
X167456335Y-149476098D01*
X167242171Y-149575964D01*
X167242169Y-149575965D01*
X167048597Y-149711505D01*
X166881508Y-149878594D01*
X166751269Y-150064595D01*
X166696692Y-150108219D01*
X166627193Y-150115412D01*
X166564839Y-150083890D01*
X166548119Y-150064594D01*
X166418113Y-149878926D01*
X166418108Y-149878920D01*
X166251082Y-149711894D01*
X166057578Y-149576399D01*
X165843492Y-149476570D01*
X165843486Y-149476567D01*
X165630000Y-149419364D01*
X165630000Y-150316988D01*
X165572993Y-150284075D01*
X165445826Y-150250000D01*
X165314174Y-150250000D01*
X165187007Y-150284075D01*
X165130000Y-150316988D01*
X165130000Y-149419364D01*
X165129999Y-149419364D01*
X164916513Y-149476567D01*
X164916507Y-149476570D01*
X164702422Y-149576399D01*
X164702420Y-149576400D01*
X164508926Y-149711886D01*
X164508920Y-149711891D01*
X164341891Y-149878920D01*
X164341886Y-149878926D01*
X164206400Y-150072420D01*
X164206399Y-150072422D01*
X164106570Y-150286507D01*
X164106567Y-150286513D01*
X164049364Y-150499999D01*
X162144155Y-150499999D01*
X162186356Y-150287839D01*
X162205222Y-150000000D01*
X162186356Y-149712161D01*
X162130081Y-149429247D01*
X162037359Y-149156098D01*
X161909778Y-148897389D01*
X161862388Y-148826465D01*
X161749521Y-148657547D01*
X161559327Y-148440672D01*
X161342452Y-148250478D01*
X161102613Y-148090223D01*
X161102606Y-148090219D01*
X160843905Y-147962642D01*
X160570760Y-147869921D01*
X160570754Y-147869919D01*
X160570753Y-147869919D01*
X160570751Y-147869918D01*
X160570745Y-147869917D01*
X160287849Y-147813646D01*
X160287839Y-147813644D01*
X160000000Y-147794778D01*
X159712161Y-147813644D01*
X159712155Y-147813645D01*
X159712150Y-147813646D01*
X159429254Y-147869917D01*
X159429239Y-147869921D01*
X159156094Y-147962642D01*
X158897393Y-148090219D01*
X158897386Y-148090223D01*
X158657547Y-148250478D01*
X158440672Y-148440672D01*
X158250478Y-148657547D01*
X158090223Y-148897386D01*
X158090219Y-148897393D01*
X157962642Y-149156094D01*
X157869921Y-149429239D01*
X157869917Y-149429254D01*
X157814537Y-149707671D01*
X157813644Y-149712161D01*
X157794778Y-150000000D01*
X157200500Y-150000000D01*
X157200500Y-103000000D01*
X157794778Y-103000000D01*
X157806849Y-103184174D01*
X157813644Y-103287837D01*
X157813646Y-103287849D01*
X157869917Y-103570745D01*
X157869921Y-103570760D01*
X157962642Y-103843905D01*
X158090219Y-104102606D01*
X158090223Y-104102613D01*
X158250478Y-104342452D01*
X158440672Y-104559327D01*
X158657547Y-104749521D01*
X158745874Y-104808539D01*
X158897389Y-104909778D01*
X159156098Y-105037359D01*
X159429247Y-105130081D01*
X159712161Y-105186356D01*
X160000000Y-105205222D01*
X160287839Y-105186356D01*
X160570753Y-105130081D01*
X160843902Y-105037359D01*
X161102611Y-104909778D01*
X161342454Y-104749520D01*
X161559327Y-104559327D01*
X161749520Y-104342454D01*
X161909778Y-104102611D01*
X162037359Y-103843902D01*
X162130081Y-103570753D01*
X162186356Y-103287839D01*
X162205222Y-103000000D01*
X162186356Y-102712161D01*
X162130081Y-102429247D01*
X162037359Y-102156098D01*
X161909778Y-101897389D01*
X161749520Y-101657546D01*
X161665879Y-101562172D01*
X161559327Y-101440672D01*
X161342452Y-101250478D01*
X161102613Y-101090223D01*
X161102606Y-101090219D01*
X160843905Y-100962642D01*
X160570760Y-100869921D01*
X160570754Y-100869919D01*
X160570753Y-100869919D01*
X160570751Y-100869918D01*
X160570745Y-100869917D01*
X160287849Y-100813646D01*
X160287839Y-100813644D01*
X160000000Y-100794778D01*
X159712161Y-100813644D01*
X159712155Y-100813645D01*
X159712150Y-100813646D01*
X159429254Y-100869917D01*
X159429239Y-100869921D01*
X159156094Y-100962642D01*
X158897393Y-101090219D01*
X158897386Y-101090223D01*
X158657547Y-101250478D01*
X158440672Y-101440672D01*
X158250478Y-101657547D01*
X158090223Y-101897386D01*
X158090219Y-101897393D01*
X157962642Y-102156094D01*
X157869921Y-102429239D01*
X157869917Y-102429254D01*
X157815400Y-102703334D01*
X157813644Y-102712161D01*
X157794778Y-103000000D01*
X157200500Y-103000000D01*
X157200500Y-100324500D01*
X157220185Y-100257461D01*
X157272989Y-100211706D01*
X157324500Y-100200500D01*
X197370500Y-100200500D01*
X197437539Y-100220185D01*
G37*
%TD.AperFunction*%
%TA.AperFunction,Conductor*%
G36*
X166278016Y-129225195D02*
G01*
X166330410Y-129271419D01*
X166349500Y-129337525D01*
X166349500Y-131864069D01*
X166365824Y-131946132D01*
X166372773Y-131981070D01*
X166374499Y-131989745D01*
X166423534Y-132108125D01*
X166423535Y-132108127D01*
X166479217Y-132191462D01*
X166494726Y-132214673D01*
X172785328Y-138505275D01*
X172785331Y-138505277D01*
X172837613Y-138540210D01*
X172891873Y-138576465D01*
X173010256Y-138625501D01*
X173010260Y-138625501D01*
X173010261Y-138625502D01*
X173135928Y-138650500D01*
X173135931Y-138650500D01*
X178314071Y-138650500D01*
X178429473Y-138627544D01*
X178439744Y-138625501D01*
X178558127Y-138576465D01*
X178612387Y-138540210D01*
X178664669Y-138505277D01*
X179199091Y-137970853D01*
X179260412Y-137937370D01*
X179327032Y-137941254D01*
X179351520Y-137949661D01*
X179380385Y-137959571D01*
X179625665Y-138000500D01*
X179874335Y-138000500D01*
X180119614Y-137959571D01*
X180354810Y-137878828D01*
X180573509Y-137760474D01*
X180769744Y-137607738D01*
X180938164Y-137424785D01*
X181074173Y-137216607D01*
X181174063Y-136988881D01*
X181235108Y-136747821D01*
X181239864Y-136690427D01*
X181255643Y-136500005D01*
X181255643Y-136499994D01*
X181235109Y-136252187D01*
X181235107Y-136252175D01*
X181174063Y-136011118D01*
X181074173Y-135783393D01*
X180938163Y-135575213D01*
X180876733Y-135508483D01*
X180845810Y-135445829D01*
X180853670Y-135376403D01*
X180897817Y-135322247D01*
X180964234Y-135300556D01*
X180967962Y-135300500D01*
X183102692Y-135300500D01*
X183169731Y-135320185D01*
X183190373Y-135336819D01*
X183829766Y-135976212D01*
X183787708Y-135987482D01*
X183662292Y-136059890D01*
X183559890Y-136162292D01*
X183487482Y-136287708D01*
X183476212Y-136329766D01*
X182776563Y-135630117D01*
X182676267Y-135783633D01*
X182676265Y-135783637D01*
X182576412Y-136011282D01*
X182515387Y-136252261D01*
X182515385Y-136252270D01*
X182494859Y-136499994D01*
X182494859Y-136500005D01*
X182515385Y-136747729D01*
X182515387Y-136747738D01*
X182576412Y-136988717D01*
X182676267Y-137216367D01*
X182776562Y-137369881D01*
X183476212Y-136670233D01*
X183487482Y-136712292D01*
X183559890Y-136837708D01*
X183662292Y-136940110D01*
X183787708Y-137012518D01*
X183829766Y-137023787D01*
X183129943Y-137723609D01*
X183176768Y-137760055D01*
X183176771Y-137760057D01*
X183395385Y-137878364D01*
X183395396Y-137878369D01*
X183630506Y-137959083D01*
X183875707Y-138000000D01*
X184124293Y-138000000D01*
X184369493Y-137959083D01*
X184604603Y-137878369D01*
X184604614Y-137878364D01*
X184823230Y-137760056D01*
X184823236Y-137760051D01*
X184870055Y-137723610D01*
X184870056Y-137723609D01*
X184170233Y-137023787D01*
X184212292Y-137012518D01*
X184337708Y-136940110D01*
X184440110Y-136837708D01*
X184512518Y-136712292D01*
X184523787Y-136670233D01*
X185223435Y-137369882D01*
X185323733Y-137216364D01*
X185423587Y-136988717D01*
X185484612Y-136747738D01*
X185484614Y-136747729D01*
X185505141Y-136500005D01*
X185505141Y-136499994D01*
X185484614Y-136252270D01*
X185484612Y-136252261D01*
X185423587Y-136011282D01*
X185323732Y-135783632D01*
X185223435Y-135630116D01*
X184523787Y-136329765D01*
X184512518Y-136287708D01*
X184440110Y-136162292D01*
X184337708Y-136059890D01*
X184212292Y-135987482D01*
X184170233Y-135976212D01*
X184809627Y-135336819D01*
X184870950Y-135303334D01*
X184897308Y-135300500D01*
X187282038Y-135300500D01*
X187349077Y-135320185D01*
X187394832Y-135372989D01*
X187404776Y-135442147D01*
X187375751Y-135505703D01*
X187373267Y-135508483D01*
X187311836Y-135575213D01*
X187175826Y-135783393D01*
X187075936Y-136011118D01*
X187014892Y-136252175D01*
X187014890Y-136252187D01*
X186994357Y-136499994D01*
X186994357Y-136500005D01*
X187014890Y-136747812D01*
X187014892Y-136747824D01*
X187075936Y-136988881D01*
X187175826Y-137216606D01*
X187311833Y-137424782D01*
X187311836Y-137424785D01*
X187480256Y-137607738D01*
X187676491Y-137760474D01*
X187676493Y-137760475D01*
X187894332Y-137878364D01*
X187895190Y-137878828D01*
X188105900Y-137951165D01*
X188128964Y-137959083D01*
X188130386Y-137959571D01*
X188375665Y-138000500D01*
X188624335Y-138000500D01*
X188869614Y-137959571D01*
X189104810Y-137878828D01*
X189323509Y-137760474D01*
X189519744Y-137607738D01*
X189688164Y-137424785D01*
X189824173Y-137216607D01*
X189924063Y-136988881D01*
X189985108Y-136747821D01*
X189989864Y-136690427D01*
X190005643Y-136500005D01*
X190005643Y-136499994D01*
X189985109Y-136252187D01*
X189985107Y-136252175D01*
X189924063Y-136011118D01*
X189824173Y-135783393D01*
X189688163Y-135575213D01*
X189626733Y-135508483D01*
X189595810Y-135445829D01*
X189603670Y-135376403D01*
X189647817Y-135322247D01*
X189714234Y-135300556D01*
X189717962Y-135300500D01*
X191532038Y-135300500D01*
X191599077Y-135320185D01*
X191644832Y-135372989D01*
X191654776Y-135442147D01*
X191625751Y-135505703D01*
X191623267Y-135508483D01*
X191561836Y-135575213D01*
X191425826Y-135783393D01*
X191325936Y-136011118D01*
X191264892Y-136252175D01*
X191264890Y-136252187D01*
X191244357Y-136499994D01*
X191244357Y-136500005D01*
X191264890Y-136747812D01*
X191264892Y-136747824D01*
X191325936Y-136988881D01*
X191425826Y-137216606D01*
X191561833Y-137424782D01*
X191561836Y-137424785D01*
X191730256Y-137607738D01*
X191926491Y-137760474D01*
X191926493Y-137760475D01*
X192144332Y-137878364D01*
X192145190Y-137878828D01*
X192355900Y-137951165D01*
X192378964Y-137959083D01*
X192380386Y-137959571D01*
X192625665Y-138000500D01*
X192874335Y-138000500D01*
X193119614Y-137959571D01*
X193354810Y-137878828D01*
X193573509Y-137760474D01*
X193769744Y-137607738D01*
X193938164Y-137424785D01*
X194074173Y-137216607D01*
X194174063Y-136988881D01*
X194235108Y-136747821D01*
X194239864Y-136690427D01*
X194255643Y-136500005D01*
X194255643Y-136499994D01*
X194235109Y-136252187D01*
X194235107Y-136252175D01*
X194174063Y-136011118D01*
X194074173Y-135783393D01*
X193938163Y-135575213D01*
X193876733Y-135508483D01*
X193845810Y-135445829D01*
X193853670Y-135376403D01*
X193897817Y-135322247D01*
X193964234Y-135300556D01*
X193967962Y-135300500D01*
X195079192Y-135300500D01*
X195146231Y-135320185D01*
X195166873Y-135336819D01*
X195779194Y-135949140D01*
X195812679Y-136010463D01*
X195811719Y-136067261D01*
X195764892Y-136252174D01*
X195764890Y-136252187D01*
X195744357Y-136499994D01*
X195744357Y-136500005D01*
X195764890Y-136747812D01*
X195764892Y-136747824D01*
X195825936Y-136988881D01*
X195925826Y-137216606D01*
X196061833Y-137424782D01*
X196061836Y-137424785D01*
X196230256Y-137607738D01*
X196426491Y-137760474D01*
X196426493Y-137760475D01*
X196644332Y-137878364D01*
X196645190Y-137878828D01*
X196855900Y-137951165D01*
X196878964Y-137959083D01*
X196880386Y-137959571D01*
X197125665Y-138000500D01*
X197374335Y-138000500D01*
X197619614Y-137959571D01*
X197854810Y-137878828D01*
X198073509Y-137760474D01*
X198269744Y-137607738D01*
X198438164Y-137424785D01*
X198574173Y-137216607D01*
X198674063Y-136988881D01*
X198700280Y-136885351D01*
X198735818Y-136825198D01*
X198798238Y-136793805D01*
X198867721Y-136801143D01*
X198908166Y-136828112D01*
X202485325Y-140405272D01*
X202485328Y-140405275D01*
X202485331Y-140405277D01*
X202540102Y-140441873D01*
X202591873Y-140476465D01*
X202710256Y-140525501D01*
X202710260Y-140525501D01*
X202710261Y-140525502D01*
X202835928Y-140550500D01*
X202835931Y-140550500D01*
X211531274Y-140550500D01*
X211598313Y-140570185D01*
X211618955Y-140586819D01*
X213332290Y-142300154D01*
X213365775Y-142361477D01*
X213360791Y-142431169D01*
X213358165Y-142437644D01*
X213325938Y-142511116D01*
X213325936Y-142511120D01*
X213264892Y-142752175D01*
X213264890Y-142752187D01*
X213244357Y-142999994D01*
X213244357Y-143000005D01*
X213264890Y-143247812D01*
X213264892Y-143247824D01*
X213325936Y-143488881D01*
X213425826Y-143716606D01*
X213550660Y-143907679D01*
X213570847Y-143974568D01*
X213551667Y-144041754D01*
X213499209Y-144087904D01*
X213446851Y-144099500D01*
X211785929Y-144099500D01*
X211660261Y-144124497D01*
X211660251Y-144124500D01*
X211611220Y-144144810D01*
X211541881Y-144173530D01*
X211541864Y-144173540D01*
X211540942Y-144174156D01*
X211540385Y-144174330D01*
X211536500Y-144176407D01*
X211536105Y-144175669D01*
X211474263Y-144195028D01*
X211406884Y-144176538D01*
X211360199Y-144124555D01*
X211349028Y-144055584D01*
X211376919Y-143991523D01*
X211380807Y-143987091D01*
X211438164Y-143924785D01*
X211574173Y-143716607D01*
X211674063Y-143488881D01*
X211735108Y-143247821D01*
X211738052Y-143212292D01*
X211755643Y-143000005D01*
X211755643Y-142999994D01*
X211735109Y-142752187D01*
X211735107Y-142752175D01*
X211674063Y-142511118D01*
X211574173Y-142283393D01*
X211438166Y-142075217D01*
X211404933Y-142039117D01*
X211269744Y-141892262D01*
X211073509Y-141739526D01*
X211073507Y-141739525D01*
X211073506Y-141739524D01*
X210854811Y-141621172D01*
X210854802Y-141621169D01*
X210619616Y-141540429D01*
X210374335Y-141499500D01*
X210125665Y-141499500D01*
X209880383Y-141540429D01*
X209645197Y-141621169D01*
X209645188Y-141621172D01*
X209426493Y-141739524D01*
X209230257Y-141892261D01*
X209061833Y-142075217D01*
X208925826Y-142283393D01*
X208825936Y-142511118D01*
X208764892Y-142752175D01*
X208764890Y-142752187D01*
X208744357Y-142999994D01*
X208744357Y-143000005D01*
X208764890Y-143247812D01*
X208764892Y-143247824D01*
X208825936Y-143488881D01*
X208925826Y-143716606D01*
X209061833Y-143924782D01*
X209061836Y-143924785D01*
X209230256Y-144107738D01*
X209426491Y-144260474D01*
X209426493Y-144260475D01*
X209644332Y-144378364D01*
X209645190Y-144378828D01*
X209827651Y-144441467D01*
X209878964Y-144459083D01*
X209880386Y-144459571D01*
X210125665Y-144500500D01*
X210374335Y-144500500D01*
X210619614Y-144459571D01*
X210854810Y-144378828D01*
X211073509Y-144260474D01*
X211073510Y-144260472D01*
X211078019Y-144258033D01*
X211078962Y-144259775D01*
X211137679Y-144242024D01*
X211204874Y-144261172D01*
X211251049Y-144313609D01*
X211261545Y-144382686D01*
X211233029Y-144446471D01*
X211226351Y-144453701D01*
X209066873Y-146613181D01*
X209005550Y-146646666D01*
X208979192Y-146649500D01*
X167820808Y-146649500D01*
X167753769Y-146629815D01*
X167733127Y-146613181D01*
X166119946Y-145000000D01*
X170744659Y-145000000D01*
X170763975Y-145196129D01*
X170763976Y-145196132D01*
X170818655Y-145376385D01*
X170821188Y-145384733D01*
X170914086Y-145558532D01*
X170914090Y-145558539D01*
X171039116Y-145710883D01*
X171191460Y-145835909D01*
X171191467Y-145835913D01*
X171365266Y-145928811D01*
X171365269Y-145928811D01*
X171365273Y-145928814D01*
X171553868Y-145986024D01*
X171750000Y-146005341D01*
X171946132Y-145986024D01*
X172134727Y-145928814D01*
X172161191Y-145914669D01*
X172308532Y-145835913D01*
X172308538Y-145835910D01*
X172460883Y-145710883D01*
X172585910Y-145558538D01*
X172663394Y-145413576D01*
X172678811Y-145384733D01*
X172678811Y-145384732D01*
X172678814Y-145384727D01*
X172736024Y-145196132D01*
X172755341Y-145000000D01*
X172736024Y-144803868D01*
X172678814Y-144615273D01*
X172678811Y-144615269D01*
X172678811Y-144615266D01*
X172585913Y-144441467D01*
X172585909Y-144441460D01*
X172460883Y-144289116D01*
X172308539Y-144164090D01*
X172308532Y-144164086D01*
X172134733Y-144071188D01*
X172134727Y-144071186D01*
X171946132Y-144013976D01*
X171946129Y-144013975D01*
X171750000Y-143994659D01*
X171553870Y-144013975D01*
X171365266Y-144071188D01*
X171191467Y-144164086D01*
X171191460Y-144164090D01*
X171039116Y-144289116D01*
X170914090Y-144441460D01*
X170914086Y-144441467D01*
X170821188Y-144615266D01*
X170763975Y-144803870D01*
X170744659Y-145000000D01*
X166119946Y-145000000D01*
X163436819Y-142316873D01*
X163403334Y-142255550D01*
X163400500Y-142229192D01*
X163400500Y-140619808D01*
X163420185Y-140552769D01*
X163472989Y-140507014D01*
X163542147Y-140497070D01*
X163605703Y-140526095D01*
X163612181Y-140532127D01*
X164960845Y-141880791D01*
X164994330Y-141942114D01*
X164996567Y-141980625D01*
X164994659Y-141999999D01*
X165013975Y-142196129D01*
X165013976Y-142196132D01*
X165040446Y-142283393D01*
X165071188Y-142384733D01*
X165164086Y-142558532D01*
X165164090Y-142558539D01*
X165289116Y-142710883D01*
X165441460Y-142835909D01*
X165441467Y-142835913D01*
X165615266Y-142928811D01*
X165615269Y-142928811D01*
X165615273Y-142928814D01*
X165803868Y-142986024D01*
X165895172Y-142995016D01*
X165959959Y-143021176D01*
X166000318Y-143078211D01*
X166006421Y-143130573D01*
X165994659Y-143249999D01*
X166013975Y-143446129D01*
X166013976Y-143446132D01*
X166056377Y-143585910D01*
X166071188Y-143634733D01*
X166164086Y-143808532D01*
X166164090Y-143808539D01*
X166289116Y-143960883D01*
X166441460Y-144085909D01*
X166441467Y-144085913D01*
X166615266Y-144178811D01*
X166615269Y-144178811D01*
X166615273Y-144178814D01*
X166803868Y-144236024D01*
X167000000Y-144255341D01*
X167196132Y-144236024D01*
X167384727Y-144178814D01*
X167389231Y-144176407D01*
X167486347Y-144124497D01*
X167558538Y-144085910D01*
X167710883Y-143960883D01*
X167835910Y-143808538D01*
X167905251Y-143678811D01*
X167928811Y-143634733D01*
X167928811Y-143634732D01*
X167928814Y-143634727D01*
X167986024Y-143446132D01*
X168005341Y-143250000D01*
X167986024Y-143053868D01*
X167969681Y-142999994D01*
X173744357Y-142999994D01*
X173744357Y-143000005D01*
X173764890Y-143247812D01*
X173764892Y-143247824D01*
X173825936Y-143488881D01*
X173925826Y-143716606D01*
X174061833Y-143924782D01*
X174061836Y-143924785D01*
X174230256Y-144107738D01*
X174426491Y-144260474D01*
X174426493Y-144260475D01*
X174644332Y-144378364D01*
X174645190Y-144378828D01*
X174827651Y-144441467D01*
X174878964Y-144459083D01*
X174880386Y-144459571D01*
X175125665Y-144500500D01*
X175374335Y-144500500D01*
X175619614Y-144459571D01*
X175854810Y-144378828D01*
X176073509Y-144260474D01*
X176269744Y-144107738D01*
X176438164Y-143924785D01*
X176574173Y-143716607D01*
X176674063Y-143488881D01*
X176735108Y-143247821D01*
X176738052Y-143212292D01*
X176755643Y-143000005D01*
X176755643Y-142999994D01*
X178244357Y-142999994D01*
X178244357Y-143000005D01*
X178264890Y-143247812D01*
X178264892Y-143247824D01*
X178325936Y-143488881D01*
X178425826Y-143716606D01*
X178561833Y-143924782D01*
X178561836Y-143924785D01*
X178730256Y-144107738D01*
X178926491Y-144260474D01*
X178926493Y-144260475D01*
X179144332Y-144378364D01*
X179145190Y-144378828D01*
X179327651Y-144441467D01*
X179378964Y-144459083D01*
X179380386Y-144459571D01*
X179625665Y-144500500D01*
X179874335Y-144500500D01*
X180119614Y-144459571D01*
X180354810Y-144378828D01*
X180573509Y-144260474D01*
X180769744Y-144107738D01*
X180938164Y-143924785D01*
X181074173Y-143716607D01*
X181174063Y-143488881D01*
X181235108Y-143247821D01*
X181238052Y-143212292D01*
X181255643Y-143000005D01*
X181255643Y-142999994D01*
X182494859Y-142999994D01*
X182494859Y-143000005D01*
X182515385Y-143247729D01*
X182515387Y-143247738D01*
X182576412Y-143488717D01*
X182676267Y-143716367D01*
X182776562Y-143869881D01*
X183476212Y-143170233D01*
X183487482Y-143212292D01*
X183559890Y-143337708D01*
X183662292Y-143440110D01*
X183787708Y-143512518D01*
X183829766Y-143523787D01*
X183129943Y-144223609D01*
X183176768Y-144260055D01*
X183176771Y-144260057D01*
X183395385Y-144378364D01*
X183395396Y-144378369D01*
X183630506Y-144459083D01*
X183875707Y-144500000D01*
X184124293Y-144500000D01*
X184369493Y-144459083D01*
X184604603Y-144378369D01*
X184604614Y-144378364D01*
X184823230Y-144260056D01*
X184823236Y-144260051D01*
X184870055Y-144223610D01*
X184870056Y-144223609D01*
X184170233Y-143523787D01*
X184212292Y-143512518D01*
X184337708Y-143440110D01*
X184440110Y-143337708D01*
X184512518Y-143212292D01*
X184523787Y-143170233D01*
X185223435Y-143869882D01*
X185323733Y-143716364D01*
X185423587Y-143488717D01*
X185484612Y-143247738D01*
X185484614Y-143247729D01*
X185505141Y-143000005D01*
X185505141Y-142999994D01*
X186994357Y-142999994D01*
X186994357Y-143000005D01*
X187014890Y-143247812D01*
X187014892Y-143247824D01*
X187075936Y-143488881D01*
X187175826Y-143716606D01*
X187311833Y-143924782D01*
X187311836Y-143924785D01*
X187480256Y-144107738D01*
X187676491Y-144260474D01*
X187676493Y-144260475D01*
X187894332Y-144378364D01*
X187895190Y-144378828D01*
X188077651Y-144441467D01*
X188128964Y-144459083D01*
X188130386Y-144459571D01*
X188375665Y-144500500D01*
X188624335Y-144500500D01*
X188869614Y-144459571D01*
X189104810Y-144378828D01*
X189323509Y-144260474D01*
X189519744Y-144107738D01*
X189688164Y-143924785D01*
X189824173Y-143716607D01*
X189924063Y-143488881D01*
X189985108Y-143247821D01*
X189988052Y-143212292D01*
X190005643Y-143000005D01*
X190005643Y-142999994D01*
X191244357Y-142999994D01*
X191244357Y-143000005D01*
X191264890Y-143247812D01*
X191264892Y-143247824D01*
X191325936Y-143488881D01*
X191425826Y-143716606D01*
X191561833Y-143924782D01*
X191561836Y-143924785D01*
X191730256Y-144107738D01*
X191926491Y-144260474D01*
X191926493Y-144260475D01*
X192144332Y-144378364D01*
X192145190Y-144378828D01*
X192327651Y-144441467D01*
X192378964Y-144459083D01*
X192380386Y-144459571D01*
X192625665Y-144500500D01*
X192874335Y-144500500D01*
X193119614Y-144459571D01*
X193354810Y-144378828D01*
X193573509Y-144260474D01*
X193769744Y-144107738D01*
X193938164Y-143924785D01*
X194074173Y-143716607D01*
X194174063Y-143488881D01*
X194235108Y-143247821D01*
X194238052Y-143212292D01*
X194255643Y-143000005D01*
X194255643Y-142999994D01*
X195744357Y-142999994D01*
X195744357Y-143000005D01*
X195764890Y-143247812D01*
X195764892Y-143247824D01*
X195825936Y-143488881D01*
X195925826Y-143716606D01*
X196061833Y-143924782D01*
X196061836Y-143924785D01*
X196230256Y-144107738D01*
X196426491Y-144260474D01*
X196426493Y-144260475D01*
X196644332Y-144378364D01*
X196645190Y-144378828D01*
X196827651Y-144441467D01*
X196878964Y-144459083D01*
X196880386Y-144459571D01*
X197125665Y-144500500D01*
X197374335Y-144500500D01*
X197619614Y-144459571D01*
X197854810Y-144378828D01*
X198073509Y-144260474D01*
X198269744Y-144107738D01*
X198438164Y-143924785D01*
X198574173Y-143716607D01*
X198674063Y-143488881D01*
X198735108Y-143247821D01*
X198738052Y-143212292D01*
X198755643Y-143000005D01*
X198755643Y-142999994D01*
X198735109Y-142752187D01*
X198735107Y-142752175D01*
X198674063Y-142511118D01*
X198574173Y-142283393D01*
X198438166Y-142075217D01*
X198404933Y-142039117D01*
X198269744Y-141892262D01*
X198073509Y-141739526D01*
X198073507Y-141739525D01*
X198073506Y-141739524D01*
X197854811Y-141621172D01*
X197854802Y-141621169D01*
X197619616Y-141540429D01*
X197374335Y-141499500D01*
X197125665Y-141499500D01*
X196880383Y-141540429D01*
X196645197Y-141621169D01*
X196645188Y-141621172D01*
X196426493Y-141739524D01*
X196230257Y-141892261D01*
X196061833Y-142075217D01*
X195925826Y-142283393D01*
X195825936Y-142511118D01*
X195764892Y-142752175D01*
X195764890Y-142752187D01*
X195744357Y-142999994D01*
X194255643Y-142999994D01*
X194235109Y-142752187D01*
X194235107Y-142752175D01*
X194174063Y-142511118D01*
X194074173Y-142283393D01*
X193938166Y-142075217D01*
X193904933Y-142039117D01*
X193769744Y-141892262D01*
X193573509Y-141739526D01*
X193573507Y-141739525D01*
X193573506Y-141739524D01*
X193354811Y-141621172D01*
X193354802Y-141621169D01*
X193119616Y-141540429D01*
X192874335Y-141499500D01*
X192625665Y-141499500D01*
X192380383Y-141540429D01*
X192145197Y-141621169D01*
X192145188Y-141621172D01*
X191926493Y-141739524D01*
X191730257Y-141892261D01*
X191561833Y-142075217D01*
X191425826Y-142283393D01*
X191325936Y-142511118D01*
X191264892Y-142752175D01*
X191264890Y-142752187D01*
X191244357Y-142999994D01*
X190005643Y-142999994D01*
X189985109Y-142752187D01*
X189985107Y-142752175D01*
X189924063Y-142511118D01*
X189824173Y-142283393D01*
X189688166Y-142075217D01*
X189654933Y-142039117D01*
X189519744Y-141892262D01*
X189323509Y-141739526D01*
X189323507Y-141739525D01*
X189323506Y-141739524D01*
X189104811Y-141621172D01*
X189104802Y-141621169D01*
X188869616Y-141540429D01*
X188624335Y-141499500D01*
X188375665Y-141499500D01*
X188130383Y-141540429D01*
X187895197Y-141621169D01*
X187895188Y-141621172D01*
X187676493Y-141739524D01*
X187480257Y-141892261D01*
X187311833Y-142075217D01*
X187175826Y-142283393D01*
X187075936Y-142511118D01*
X187014892Y-142752175D01*
X187014890Y-142752187D01*
X186994357Y-142999994D01*
X185505141Y-142999994D01*
X185484614Y-142752270D01*
X185484612Y-142752261D01*
X185423587Y-142511282D01*
X185323732Y-142283632D01*
X185223435Y-142130116D01*
X184523787Y-142829765D01*
X184512518Y-142787708D01*
X184440110Y-142662292D01*
X184337708Y-142559890D01*
X184212292Y-142487482D01*
X184170233Y-142476212D01*
X184870055Y-141776389D01*
X184870055Y-141776388D01*
X184823236Y-141739947D01*
X184823231Y-141739944D01*
X184604614Y-141621635D01*
X184604603Y-141621630D01*
X184369493Y-141540916D01*
X184124293Y-141500000D01*
X183875707Y-141500000D01*
X183630506Y-141540916D01*
X183395396Y-141621630D01*
X183395385Y-141621635D01*
X183176770Y-141739943D01*
X183129943Y-141776389D01*
X183829766Y-142476212D01*
X183787708Y-142487482D01*
X183662292Y-142559890D01*
X183559890Y-142662292D01*
X183487482Y-142787708D01*
X183476212Y-142829766D01*
X182776563Y-142130117D01*
X182676267Y-142283633D01*
X182676265Y-142283637D01*
X182576412Y-142511282D01*
X182515387Y-142752261D01*
X182515385Y-142752270D01*
X182494859Y-142999994D01*
X181255643Y-142999994D01*
X181235109Y-142752187D01*
X181235107Y-142752175D01*
X181174063Y-142511118D01*
X181074173Y-142283393D01*
X180938166Y-142075217D01*
X180904933Y-142039117D01*
X180769744Y-141892262D01*
X180573509Y-141739526D01*
X180573507Y-141739525D01*
X180573506Y-141739524D01*
X180354811Y-141621172D01*
X180354802Y-141621169D01*
X180119616Y-141540429D01*
X179874335Y-141499500D01*
X179625665Y-141499500D01*
X179380383Y-141540429D01*
X179145197Y-141621169D01*
X179145188Y-141621172D01*
X178926493Y-141739524D01*
X178730257Y-141892261D01*
X178561833Y-142075217D01*
X178425826Y-142283393D01*
X178325936Y-142511118D01*
X178264892Y-142752175D01*
X178264890Y-142752187D01*
X178244357Y-142999994D01*
X176755643Y-142999994D01*
X176735109Y-142752187D01*
X176735107Y-142752175D01*
X176674063Y-142511118D01*
X176574173Y-142283393D01*
X176438166Y-142075217D01*
X176404933Y-142039117D01*
X176269744Y-141892262D01*
X176073509Y-141739526D01*
X176073507Y-141739525D01*
X176073506Y-141739524D01*
X175854811Y-141621172D01*
X175854802Y-141621169D01*
X175619616Y-141540429D01*
X175374335Y-141499500D01*
X175125665Y-141499500D01*
X174880383Y-141540429D01*
X174645197Y-141621169D01*
X174645188Y-141621172D01*
X174426493Y-141739524D01*
X174230257Y-141892261D01*
X174061833Y-142075217D01*
X173925826Y-142283393D01*
X173825936Y-142511118D01*
X173764892Y-142752175D01*
X173764890Y-142752187D01*
X173744357Y-142999994D01*
X167969681Y-142999994D01*
X167928814Y-142865273D01*
X167928811Y-142865269D01*
X167928811Y-142865266D01*
X167835913Y-142691467D01*
X167835909Y-142691460D01*
X167710884Y-142539118D01*
X167695833Y-142526765D01*
X167656500Y-142469019D01*
X167650500Y-142430914D01*
X167650500Y-141435928D01*
X167625502Y-141310261D01*
X167625501Y-141310260D01*
X167625501Y-141310256D01*
X167576465Y-141191873D01*
X167575308Y-141190142D01*
X167557902Y-141164091D01*
X167557900Y-141164089D01*
X167505277Y-141085331D01*
X167505275Y-141085329D01*
X167505273Y-141085326D01*
X164586819Y-138166872D01*
X164553334Y-138105549D01*
X164550500Y-138079191D01*
X164550500Y-136519808D01*
X164570185Y-136452769D01*
X164622989Y-136407014D01*
X164692147Y-136397070D01*
X164755703Y-136426095D01*
X164762181Y-136432127D01*
X167460845Y-139130791D01*
X167494330Y-139192114D01*
X167496567Y-139230625D01*
X167494659Y-139250000D01*
X167497028Y-139274054D01*
X167513975Y-139446129D01*
X167513976Y-139446132D01*
X167555240Y-139582162D01*
X167571188Y-139634733D01*
X167664086Y-139808532D01*
X167664090Y-139808539D01*
X167789116Y-139960883D01*
X167941460Y-140085909D01*
X167941467Y-140085913D01*
X168115266Y-140178811D01*
X168115269Y-140178811D01*
X168115273Y-140178814D01*
X168303868Y-140236024D01*
X168500000Y-140255341D01*
X168696132Y-140236024D01*
X168884727Y-140178814D01*
X169058538Y-140085910D01*
X169210883Y-139960883D01*
X169335910Y-139808538D01*
X169428814Y-139634727D01*
X169486024Y-139446132D01*
X169505341Y-139250000D01*
X169486024Y-139053868D01*
X169448554Y-138930349D01*
X169447931Y-138860484D01*
X169485178Y-138801371D01*
X169548472Y-138771780D01*
X169617717Y-138781105D01*
X169645880Y-138798502D01*
X169691460Y-138835909D01*
X169691467Y-138835913D01*
X169865266Y-138928811D01*
X169865269Y-138928811D01*
X169865273Y-138928814D01*
X170053868Y-138986024D01*
X170250000Y-139005341D01*
X170446132Y-138986024D01*
X170634727Y-138928814D01*
X170808538Y-138835910D01*
X170960883Y-138710883D01*
X171085910Y-138558538D01*
X171178814Y-138384727D01*
X171236024Y-138196132D01*
X171255341Y-138000000D01*
X171236024Y-137803868D01*
X171178814Y-137615273D01*
X171178811Y-137615269D01*
X171178811Y-137615266D01*
X171085913Y-137441467D01*
X171085909Y-137441460D01*
X170960883Y-137289116D01*
X170808539Y-137164090D01*
X170808532Y-137164086D01*
X170634733Y-137071188D01*
X170634727Y-137071186D01*
X170446132Y-137013976D01*
X170446129Y-137013975D01*
X170250000Y-136994659D01*
X170053870Y-137013975D01*
X169865266Y-137071188D01*
X169691467Y-137164086D01*
X169691460Y-137164090D01*
X169539116Y-137289116D01*
X169414090Y-137441460D01*
X169414086Y-137441467D01*
X169321188Y-137615266D01*
X169263975Y-137803870D01*
X169244659Y-138000000D01*
X169263975Y-138196129D01*
X169263976Y-138196132D01*
X169301445Y-138319650D01*
X169302068Y-138389515D01*
X169264820Y-138448628D01*
X169201526Y-138478219D01*
X169132282Y-138468894D01*
X169104119Y-138451497D01*
X169058539Y-138414090D01*
X169058532Y-138414086D01*
X168884733Y-138321188D01*
X168884727Y-138321186D01*
X168696132Y-138263976D01*
X168696129Y-138263975D01*
X168500000Y-138244659D01*
X168480625Y-138246567D01*
X168411979Y-138233547D01*
X168380791Y-138210845D01*
X165915768Y-135745822D01*
X165882283Y-135684499D01*
X165887267Y-135614807D01*
X165894092Y-135599686D01*
X165928814Y-135534727D01*
X165986024Y-135346132D01*
X166005341Y-135150000D01*
X165986024Y-134953868D01*
X165928814Y-134765273D01*
X165928811Y-134765269D01*
X165928811Y-134765266D01*
X165835913Y-134591467D01*
X165835909Y-134591460D01*
X165710883Y-134439116D01*
X165558539Y-134314090D01*
X165558532Y-134314086D01*
X165384733Y-134221188D01*
X165384727Y-134221186D01*
X165196132Y-134163976D01*
X165196129Y-134163975D01*
X165000000Y-134144659D01*
X164803869Y-134163975D01*
X164710495Y-134192300D01*
X164640628Y-134192923D01*
X164581515Y-134155674D01*
X164551924Y-134092380D01*
X164550500Y-134073639D01*
X164550500Y-130030083D01*
X164570185Y-129963044D01*
X164622989Y-129917289D01*
X164692147Y-129907345D01*
X164732954Y-129920725D01*
X164765274Y-129938001D01*
X164953869Y-129995211D01*
X165150001Y-130014528D01*
X165346133Y-129995211D01*
X165534728Y-129938001D01*
X165573478Y-129917289D01*
X165708533Y-129845100D01*
X165708539Y-129845097D01*
X165860884Y-129720070D01*
X165985911Y-129567725D01*
X166078815Y-129393914D01*
X166106840Y-129301528D01*
X166145137Y-129243091D01*
X166208949Y-129214635D01*
X166278016Y-129225195D01*
G37*
%TD.AperFunction*%
%TA.AperFunction,Conductor*%
G36*
X231357756Y-131325185D02*
G01*
X231403511Y-131377989D01*
X231413455Y-131447147D01*
X231406899Y-131472833D01*
X231380908Y-131542517D01*
X231374501Y-131602116D01*
X231374500Y-131602135D01*
X231374500Y-133397870D01*
X231374501Y-133397876D01*
X231380908Y-133457483D01*
X231431202Y-133592328D01*
X231431206Y-133592335D01*
X231517452Y-133707544D01*
X231517455Y-133707547D01*
X231632664Y-133793793D01*
X231632671Y-133793797D01*
X231767517Y-133844091D01*
X231767516Y-133844091D01*
X231774444Y-133844835D01*
X231827127Y-133850500D01*
X232318110Y-133850499D01*
X232385148Y-133870183D01*
X232430903Y-133922987D01*
X232440847Y-133992146D01*
X232411822Y-134055702D01*
X232405790Y-134062180D01*
X227994724Y-138473246D01*
X227950711Y-138539118D01*
X227923535Y-138579790D01*
X227874499Y-138698173D01*
X227874497Y-138698179D01*
X227849500Y-138823846D01*
X227849500Y-139929191D01*
X227829815Y-139996230D01*
X227813181Y-140016872D01*
X227489546Y-140340506D01*
X227428223Y-140373991D01*
X227358531Y-140369007D01*
X227302598Y-140327135D01*
X227280248Y-140277016D01*
X227275501Y-140253149D01*
X227247658Y-140185931D01*
X227226466Y-140134767D01*
X227221060Y-140126677D01*
X227155278Y-140028225D01*
X227155272Y-140028218D01*
X224127053Y-137000000D01*
X225744659Y-137000000D01*
X225763975Y-137196129D01*
X225768459Y-137210909D01*
X225817702Y-137373243D01*
X225821188Y-137384733D01*
X225914086Y-137558532D01*
X225914090Y-137558539D01*
X226039116Y-137710883D01*
X226191460Y-137835909D01*
X226191467Y-137835913D01*
X226365266Y-137928811D01*
X226365269Y-137928811D01*
X226365273Y-137928814D01*
X226553868Y-137986024D01*
X226750000Y-138005341D01*
X226946132Y-137986024D01*
X227134727Y-137928814D01*
X227308538Y-137835910D01*
X227460883Y-137710883D01*
X227585910Y-137558538D01*
X227648486Y-137441467D01*
X227678811Y-137384733D01*
X227678811Y-137384732D01*
X227678814Y-137384727D01*
X227736024Y-137196132D01*
X227755341Y-137000000D01*
X227736024Y-136803868D01*
X227678814Y-136615273D01*
X227678811Y-136615269D01*
X227678811Y-136615266D01*
X227585913Y-136441467D01*
X227585909Y-136441460D01*
X227460883Y-136289116D01*
X227308539Y-136164090D01*
X227308532Y-136164086D01*
X227134733Y-136071188D01*
X227134727Y-136071186D01*
X226946132Y-136013976D01*
X226946129Y-136013975D01*
X226750000Y-135994659D01*
X226553870Y-136013975D01*
X226365266Y-136071188D01*
X226191467Y-136164086D01*
X226191460Y-136164090D01*
X226039116Y-136289116D01*
X225914090Y-136441460D01*
X225914086Y-136441467D01*
X225821188Y-136615266D01*
X225763975Y-136803870D01*
X225744659Y-137000000D01*
X224127053Y-137000000D01*
X221206441Y-134079388D01*
X221172956Y-134018065D01*
X221177940Y-133948373D01*
X221219812Y-133892440D01*
X221285276Y-133868023D01*
X221290453Y-133867762D01*
X224937871Y-133760485D01*
X225005460Y-133778190D01*
X225052747Y-133829626D01*
X225060176Y-133848434D01*
X225071186Y-133884729D01*
X225164086Y-134058532D01*
X225164090Y-134058539D01*
X225289116Y-134210883D01*
X225441460Y-134335909D01*
X225441467Y-134335913D01*
X225615266Y-134428811D01*
X225615269Y-134428811D01*
X225615273Y-134428814D01*
X225803868Y-134486024D01*
X226000000Y-134505341D01*
X226196132Y-134486024D01*
X226384727Y-134428814D01*
X226558538Y-134335910D01*
X226558839Y-134335662D01*
X226559238Y-134335336D01*
X226559675Y-134335150D01*
X226563601Y-134332527D01*
X226564098Y-134333271D01*
X226623547Y-134308022D01*
X226692415Y-134319812D01*
X226743976Y-134366964D01*
X226761307Y-134419034D01*
X226763975Y-134446129D01*
X226821188Y-134634733D01*
X226914086Y-134808532D01*
X226914090Y-134808539D01*
X227039116Y-134960883D01*
X227191460Y-135085909D01*
X227191467Y-135085913D01*
X227365266Y-135178811D01*
X227365269Y-135178811D01*
X227365273Y-135178814D01*
X227553868Y-135236024D01*
X227750000Y-135255341D01*
X227946132Y-135236024D01*
X228134727Y-135178814D01*
X228178764Y-135155276D01*
X228243825Y-135120500D01*
X228308538Y-135085910D01*
X228460883Y-134960883D01*
X228585910Y-134808538D01*
X228678814Y-134634727D01*
X228736024Y-134446132D01*
X228755341Y-134250000D01*
X228736024Y-134053868D01*
X228678814Y-133865273D01*
X228678811Y-133865269D01*
X228678811Y-133865266D01*
X228585913Y-133691467D01*
X228585909Y-133691460D01*
X228460883Y-133539116D01*
X228308539Y-133414090D01*
X228308532Y-133414086D01*
X228134733Y-133321188D01*
X228134727Y-133321186D01*
X227946132Y-133263976D01*
X227946129Y-133263975D01*
X227750000Y-133244659D01*
X227553869Y-133263975D01*
X227456429Y-133293534D01*
X227386562Y-133294157D01*
X227327450Y-133256909D01*
X227297859Y-133193615D01*
X227307184Y-133124370D01*
X227332753Y-133087192D01*
X227657825Y-132762121D01*
X228255277Y-132164669D01*
X228326465Y-132058127D01*
X228339737Y-132026086D01*
X228375501Y-131939744D01*
X228388479Y-131874500D01*
X228400500Y-131814071D01*
X228400500Y-131429500D01*
X228420185Y-131362461D01*
X228472989Y-131316706D01*
X228524500Y-131305500D01*
X231290717Y-131305500D01*
X231357756Y-131325185D01*
G37*
%TD.AperFunction*%
%TA.AperFunction,Conductor*%
G36*
X192997953Y-116670185D02*
G01*
X193026768Y-116695836D01*
X193039117Y-116710883D01*
X193191460Y-116835909D01*
X193191467Y-116835913D01*
X193365266Y-116928811D01*
X193365269Y-116928811D01*
X193365273Y-116928814D01*
X193553868Y-116986024D01*
X193750000Y-117005341D01*
X193812996Y-116999136D01*
X193881640Y-117012154D01*
X193912830Y-117034858D01*
X203623325Y-126745353D01*
X203656810Y-126806676D01*
X203651826Y-126876368D01*
X203623608Y-126918069D01*
X203624786Y-126919203D01*
X203621716Y-126922392D01*
X203529606Y-127032918D01*
X203472361Y-127164923D01*
X203454871Y-127229021D01*
X203454268Y-127231012D01*
X203453967Y-127232339D01*
X203436680Y-127371525D01*
X203436235Y-127375111D01*
X203463888Y-128813055D01*
X203486515Y-129989688D01*
X203486515Y-129989694D01*
X203492254Y-130288106D01*
X203492254Y-130288109D01*
X203504767Y-130390568D01*
X203504770Y-130390586D01*
X203515953Y-130439712D01*
X203549024Y-130537503D01*
X203626809Y-130658537D01*
X203626817Y-130658548D01*
X203672561Y-130711340D01*
X203672564Y-130711343D01*
X203672568Y-130711347D01*
X203781302Y-130805567D01*
X203781305Y-130805568D01*
X203781306Y-130805569D01*
X203876174Y-130848895D01*
X203912179Y-130865338D01*
X203979218Y-130885023D01*
X203979222Y-130885024D01*
X204121638Y-130905500D01*
X204121641Y-130905500D01*
X206978629Y-130905500D01*
X206996611Y-130905179D01*
X206996621Y-130905178D01*
X206996656Y-130905178D01*
X207005502Y-130904862D01*
X207023519Y-130903896D01*
X207164111Y-130873312D01*
X207229575Y-130848895D01*
X207355850Y-130779944D01*
X207419205Y-130716589D01*
X207480528Y-130683107D01*
X207550219Y-130688093D01*
X207594565Y-130716593D01*
X208633243Y-131755272D01*
X208633244Y-131755273D01*
X208633247Y-131755275D01*
X208633249Y-131755277D01*
X208739791Y-131826465D01*
X208858174Y-131875501D01*
X208858178Y-131875501D01*
X208858179Y-131875502D01*
X208983846Y-131900500D01*
X208983849Y-131900500D01*
X215429192Y-131900500D01*
X215496231Y-131920185D01*
X215516873Y-131936819D01*
X220639262Y-137059208D01*
X220672747Y-137120531D01*
X220667763Y-137190223D01*
X220625891Y-137246156D01*
X220560427Y-137270573D01*
X220492154Y-137255721D01*
X220480542Y-137247887D01*
X220480395Y-137248108D01*
X220475332Y-137244725D01*
X220475330Y-137244723D01*
X220368788Y-137173535D01*
X220364266Y-137171662D01*
X220250405Y-137124499D01*
X220250399Y-137124497D01*
X220124732Y-137099500D01*
X220124730Y-137099500D01*
X219375270Y-137099500D01*
X219375268Y-137099500D01*
X219249600Y-137124497D01*
X219249594Y-137124499D01*
X219131209Y-137173535D01*
X219024670Y-137244722D01*
X219024669Y-137244723D01*
X218998820Y-137270573D01*
X218956210Y-137313182D01*
X218894890Y-137346666D01*
X218868531Y-137349500D01*
X216205677Y-137349500D01*
X216138638Y-137329815D01*
X216092883Y-137277011D01*
X216082939Y-137207853D01*
X216092121Y-137175690D01*
X216174063Y-136988881D01*
X216200280Y-136885354D01*
X216235108Y-136747821D01*
X216239864Y-136690427D01*
X216255643Y-136500005D01*
X216255643Y-136499994D01*
X216235109Y-136252187D01*
X216235107Y-136252175D01*
X216174063Y-136011118D01*
X216074173Y-135783393D01*
X215938166Y-135575217D01*
X215876733Y-135508483D01*
X215769744Y-135392262D01*
X215573509Y-135239526D01*
X215573507Y-135239525D01*
X215573506Y-135239524D01*
X215354811Y-135121172D01*
X215354802Y-135121169D01*
X215119616Y-135040429D01*
X214874335Y-134999500D01*
X214625665Y-134999500D01*
X214380383Y-135040429D01*
X214145197Y-135121169D01*
X214145188Y-135121172D01*
X213926493Y-135239524D01*
X213730257Y-135392261D01*
X213561833Y-135575217D01*
X213425826Y-135783393D01*
X213325936Y-136011118D01*
X213264892Y-136252175D01*
X213264890Y-136252187D01*
X213244357Y-136499994D01*
X213244357Y-136500005D01*
X213264890Y-136747812D01*
X213264892Y-136747824D01*
X213325936Y-136988881D01*
X213407879Y-137175690D01*
X213416782Y-137244990D01*
X213386805Y-137308102D01*
X213327466Y-137344989D01*
X213294323Y-137349500D01*
X211705677Y-137349500D01*
X211638638Y-137329815D01*
X211592883Y-137277011D01*
X211582939Y-137207853D01*
X211592121Y-137175690D01*
X211674063Y-136988881D01*
X211700280Y-136885354D01*
X211735108Y-136747821D01*
X211739864Y-136690427D01*
X211755643Y-136500005D01*
X211755643Y-136499994D01*
X211735109Y-136252187D01*
X211735107Y-136252175D01*
X211674063Y-136011118D01*
X211574173Y-135783393D01*
X211438166Y-135575217D01*
X211376733Y-135508483D01*
X211269744Y-135392262D01*
X211073509Y-135239526D01*
X211073507Y-135239525D01*
X211073506Y-135239524D01*
X210854811Y-135121172D01*
X210854802Y-135121169D01*
X210619616Y-135040429D01*
X210374335Y-134999500D01*
X210125665Y-134999500D01*
X209880383Y-135040429D01*
X209645197Y-135121169D01*
X209645188Y-135121172D01*
X209426493Y-135239524D01*
X209230257Y-135392261D01*
X209061833Y-135575217D01*
X208925826Y-135783393D01*
X208825936Y-136011118D01*
X208764892Y-136252175D01*
X208764890Y-136252187D01*
X208744357Y-136499994D01*
X208744357Y-136500005D01*
X208764890Y-136747812D01*
X208764892Y-136747824D01*
X208825936Y-136988881D01*
X208907879Y-137175690D01*
X208916782Y-137244990D01*
X208886805Y-137308102D01*
X208827466Y-137344989D01*
X208794323Y-137349500D01*
X206146612Y-137349500D01*
X206079573Y-137329815D01*
X206033818Y-137277011D01*
X206023874Y-137207853D01*
X206024994Y-137201312D01*
X206026021Y-137196139D01*
X206026024Y-137196132D01*
X206045341Y-137000000D01*
X206026024Y-136803868D01*
X205968814Y-136615273D01*
X205968811Y-136615269D01*
X205968811Y-136615266D01*
X205875913Y-136441467D01*
X205875909Y-136441460D01*
X205750884Y-136289118D01*
X205735833Y-136276765D01*
X205696500Y-136219019D01*
X205690500Y-136180914D01*
X205690500Y-134975928D01*
X205665502Y-134850261D01*
X205665501Y-134850260D01*
X205665501Y-134850256D01*
X205616465Y-134731873D01*
X205616464Y-134731872D01*
X205616461Y-134731866D01*
X205545277Y-134625332D01*
X205511405Y-134591460D01*
X205454669Y-134534724D01*
X203354119Y-132434174D01*
X196814674Y-125894727D01*
X196814673Y-125894726D01*
X196814193Y-125894405D01*
X196708127Y-125823535D01*
X196691191Y-125816520D01*
X196589744Y-125774499D01*
X196589738Y-125774497D01*
X196464071Y-125749500D01*
X196464069Y-125749500D01*
X195220808Y-125749500D01*
X195153769Y-125729815D01*
X195135213Y-125714862D01*
X197701263Y-125714862D01*
X197720579Y-125910991D01*
X197777792Y-126099595D01*
X197870690Y-126273394D01*
X197870694Y-126273401D01*
X197995720Y-126425745D01*
X198148064Y-126550771D01*
X198148071Y-126550775D01*
X198321870Y-126643673D01*
X198321873Y-126643673D01*
X198321877Y-126643676D01*
X198510472Y-126700886D01*
X198706604Y-126720203D01*
X198902736Y-126700886D01*
X199091331Y-126643676D01*
X199265142Y-126550772D01*
X199417487Y-126425745D01*
X199542514Y-126273400D01*
X199627604Y-126114208D01*
X199635415Y-126099595D01*
X199635415Y-126099594D01*
X199635418Y-126099589D01*
X199692628Y-125910994D01*
X199711945Y-125714862D01*
X199692628Y-125518730D01*
X199635418Y-125330135D01*
X199635415Y-125330131D01*
X199635415Y-125330128D01*
X199542517Y-125156329D01*
X199542513Y-125156322D01*
X199417487Y-125003978D01*
X199265143Y-124878952D01*
X199265136Y-124878948D01*
X199091337Y-124786050D01*
X199091331Y-124786048D01*
X198902736Y-124728838D01*
X198902733Y-124728837D01*
X198706604Y-124709521D01*
X198510474Y-124728837D01*
X198321870Y-124786050D01*
X198148071Y-124878948D01*
X198148064Y-124878952D01*
X197995720Y-125003978D01*
X197870694Y-125156322D01*
X197870690Y-125156329D01*
X197777792Y-125330128D01*
X197720579Y-125518732D01*
X197701263Y-125714862D01*
X195135213Y-125714862D01*
X195133127Y-125713181D01*
X191811604Y-122391658D01*
X191778119Y-122330335D01*
X191783103Y-122260643D01*
X191824975Y-122204710D01*
X191863288Y-122185317D01*
X191884727Y-122178814D01*
X192058538Y-122085910D01*
X192210883Y-121960883D01*
X192335910Y-121808538D01*
X192428814Y-121634727D01*
X192486024Y-121446132D01*
X192505341Y-121250000D01*
X192486024Y-121053868D01*
X192428814Y-120865273D01*
X192428811Y-120865269D01*
X192428811Y-120865266D01*
X192335913Y-120691467D01*
X192335909Y-120691460D01*
X192210883Y-120539116D01*
X192058539Y-120414090D01*
X192058532Y-120414086D01*
X191884733Y-120321188D01*
X191884727Y-120321186D01*
X191696132Y-120263976D01*
X191696129Y-120263975D01*
X191500000Y-120244659D01*
X191303870Y-120263975D01*
X191115266Y-120321188D01*
X190941467Y-120414086D01*
X190941460Y-120414090D01*
X190789116Y-120539116D01*
X190664090Y-120691460D01*
X190664086Y-120691467D01*
X190571186Y-120865271D01*
X190542156Y-120960969D01*
X190503859Y-121019407D01*
X190440046Y-121047864D01*
X190376045Y-121039535D01*
X190357891Y-121032016D01*
X190339744Y-121024499D01*
X190339742Y-121024498D01*
X190339738Y-121024497D01*
X190214071Y-120999500D01*
X190214069Y-120999500D01*
X178220808Y-120999500D01*
X178153769Y-120979815D01*
X178133127Y-120963181D01*
X177077989Y-119908043D01*
X177044504Y-119846720D01*
X177049488Y-119777028D01*
X177091360Y-119721095D01*
X177124337Y-119704403D01*
X177124169Y-119703996D01*
X177129533Y-119701774D01*
X177129678Y-119701700D01*
X177129793Y-119701666D01*
X177303604Y-119608762D01*
X177314280Y-119600000D01*
X193244659Y-119600000D01*
X193263975Y-119796129D01*
X193321188Y-119984733D01*
X193414086Y-120158532D01*
X193414090Y-120158539D01*
X193539116Y-120310883D01*
X193691460Y-120435909D01*
X193691467Y-120435913D01*
X193865266Y-120528811D01*
X193865269Y-120528811D01*
X193865273Y-120528814D01*
X194053868Y-120586024D01*
X194250000Y-120605341D01*
X194446132Y-120586024D01*
X194634727Y-120528814D01*
X194808538Y-120435910D01*
X194960883Y-120310883D01*
X195085910Y-120158538D01*
X195178814Y-119984727D01*
X195236024Y-119796132D01*
X195255341Y-119600000D01*
X195236024Y-119403868D01*
X195178814Y-119215273D01*
X195178811Y-119215269D01*
X195178811Y-119215266D01*
X195085913Y-119041467D01*
X195085909Y-119041460D01*
X194960883Y-118889116D01*
X194808539Y-118764090D01*
X194808532Y-118764086D01*
X194634733Y-118671188D01*
X194634727Y-118671186D01*
X194446132Y-118613976D01*
X194446129Y-118613975D01*
X194250000Y-118594659D01*
X194053870Y-118613975D01*
X193865266Y-118671188D01*
X193691467Y-118764086D01*
X193691460Y-118764090D01*
X193539116Y-118889116D01*
X193414090Y-119041460D01*
X193414086Y-119041467D01*
X193321188Y-119215266D01*
X193263975Y-119403870D01*
X193244659Y-119600000D01*
X177314280Y-119600000D01*
X177455949Y-119483735D01*
X177470389Y-119466139D01*
X177528132Y-119426805D01*
X177542052Y-119423186D01*
X177559549Y-119419705D01*
X177666892Y-119398353D01*
X177785275Y-119349317D01*
X177812105Y-119331390D01*
X177891817Y-119278129D01*
X180483127Y-116686819D01*
X180544450Y-116653334D01*
X180570808Y-116650500D01*
X192930914Y-116650500D01*
X192997953Y-116670185D01*
G37*
%TD.AperFunction*%
%TA.AperFunction,Conductor*%
G36*
X167068833Y-106453624D02*
G01*
X167124767Y-106495496D01*
X167149184Y-106560960D01*
X167149500Y-106569806D01*
X167149500Y-107250001D01*
X167149501Y-107250019D01*
X167160000Y-107352796D01*
X167160001Y-107352799D01*
X167170051Y-107383126D01*
X167215186Y-107519334D01*
X167307288Y-107668656D01*
X167431344Y-107792712D01*
X167580666Y-107884814D01*
X167747203Y-107939999D01*
X167849991Y-107950500D01*
X168600008Y-107950499D01*
X168600016Y-107950498D01*
X168600019Y-107950498D01*
X168656302Y-107944748D01*
X168702797Y-107939999D01*
X168869334Y-107884814D01*
X169018656Y-107792712D01*
X169142712Y-107668656D01*
X169144461Y-107665819D01*
X169146169Y-107664283D01*
X169147193Y-107662989D01*
X169147414Y-107663163D01*
X169196406Y-107619096D01*
X169265368Y-107607872D01*
X169329451Y-107635713D01*
X169355537Y-107665817D01*
X169357288Y-107668656D01*
X169357289Y-107668657D01*
X169357290Y-107668658D01*
X169481345Y-107792713D01*
X169481348Y-107792715D01*
X169565595Y-107844678D01*
X169612321Y-107896625D01*
X169624500Y-107950217D01*
X169624500Y-115339070D01*
X169624644Y-115339793D01*
X169641168Y-115422861D01*
X169648192Y-115458173D01*
X169649499Y-115464744D01*
X169692718Y-115569085D01*
X169698535Y-115583127D01*
X169706100Y-115594449D01*
X169769726Y-115689673D01*
X177085328Y-123005275D01*
X177165044Y-123058539D01*
X177165043Y-123058539D01*
X177182501Y-123070203D01*
X177191873Y-123076465D01*
X177310256Y-123125501D01*
X177310260Y-123125501D01*
X177310261Y-123125502D01*
X177435928Y-123150500D01*
X177435931Y-123150500D01*
X185602847Y-123150500D01*
X185669886Y-123170185D01*
X185698701Y-123195836D01*
X185711050Y-123210883D01*
X185863393Y-123335909D01*
X185863400Y-123335913D01*
X186037199Y-123428811D01*
X186037202Y-123428811D01*
X186037206Y-123428814D01*
X186225801Y-123486024D01*
X186421933Y-123505341D01*
X186618065Y-123486024D01*
X186806660Y-123428814D01*
X186980471Y-123335910D01*
X187132816Y-123210883D01*
X187257843Y-123058538D01*
X187310143Y-122960691D01*
X187350744Y-122884733D01*
X187350744Y-122884732D01*
X187350747Y-122884727D01*
X187407957Y-122696132D01*
X187427274Y-122500000D01*
X187421035Y-122436653D01*
X187434054Y-122368008D01*
X187482119Y-122317298D01*
X187544438Y-122300500D01*
X189829192Y-122300500D01*
X189896231Y-122320185D01*
X189916873Y-122336819D01*
X194485324Y-126905271D01*
X194485327Y-126905274D01*
X194574994Y-126965187D01*
X194574993Y-126965187D01*
X194591872Y-126976464D01*
X194591873Y-126976465D01*
X194618859Y-126987643D01*
X194673262Y-127031482D01*
X194695328Y-127097776D01*
X194678050Y-127165476D01*
X194650072Y-127198057D01*
X194539116Y-127289116D01*
X194414090Y-127441460D01*
X194414086Y-127441467D01*
X194321188Y-127615266D01*
X194263975Y-127803870D01*
X194244659Y-128000000D01*
X194263975Y-128196129D01*
X194321188Y-128384733D01*
X194414086Y-128558532D01*
X194414090Y-128558539D01*
X194539116Y-128710883D01*
X194691460Y-128835909D01*
X194691467Y-128835913D01*
X194865266Y-128928811D01*
X194865269Y-128928811D01*
X194865273Y-128928814D01*
X195053868Y-128986024D01*
X195250000Y-129005341D01*
X195446132Y-128986024D01*
X195634727Y-128928814D01*
X195808538Y-128835910D01*
X195960883Y-128710883D01*
X196085910Y-128558538D01*
X196178814Y-128384727D01*
X196236024Y-128196132D01*
X196255341Y-128000000D01*
X196236024Y-127803868D01*
X196178814Y-127615273D01*
X196178811Y-127615269D01*
X196178811Y-127615266D01*
X196085913Y-127441467D01*
X196085909Y-127441460D01*
X195960883Y-127289116D01*
X195938020Y-127270353D01*
X195898686Y-127212607D01*
X195896815Y-127142762D01*
X195933003Y-127082994D01*
X195995759Y-127052278D01*
X196016685Y-127050500D01*
X196079192Y-127050500D01*
X196146231Y-127070185D01*
X196166873Y-127086819D01*
X204353181Y-135273126D01*
X204386666Y-135334449D01*
X204389500Y-135360807D01*
X204389500Y-136180914D01*
X204369815Y-136247953D01*
X204344167Y-136276765D01*
X204329115Y-136289118D01*
X204204090Y-136441460D01*
X204204088Y-136441464D01*
X204148597Y-136545279D01*
X204099634Y-136595123D01*
X204031496Y-136610583D01*
X203965817Y-136586751D01*
X203951558Y-136574506D01*
X199371780Y-131994727D01*
X199371779Y-131994726D01*
X199371775Y-131994723D01*
X199265233Y-131923535D01*
X199257145Y-131920185D01*
X199146850Y-131874499D01*
X199146844Y-131874497D01*
X199021177Y-131849500D01*
X199021175Y-131849500D01*
X177320808Y-131849500D01*
X177253769Y-131829815D01*
X177233127Y-131813181D01*
X174011660Y-128591714D01*
X173978175Y-128530391D01*
X173975341Y-128504033D01*
X173975341Y-128500001D01*
X173956024Y-128303870D01*
X173956024Y-128303868D01*
X173898814Y-128115273D01*
X173898811Y-128115269D01*
X173898811Y-128115266D01*
X173805913Y-127941467D01*
X173805909Y-127941460D01*
X173680883Y-127789116D01*
X173528539Y-127664090D01*
X173528532Y-127664086D01*
X173354733Y-127571188D01*
X173354727Y-127571186D01*
X173166132Y-127513976D01*
X173166129Y-127513975D01*
X172970000Y-127494659D01*
X172773870Y-127513975D01*
X172585266Y-127571188D01*
X172418453Y-127660352D01*
X172350050Y-127674594D01*
X172301547Y-127660352D01*
X172134733Y-127571188D01*
X172134727Y-127571186D01*
X171946132Y-127513976D01*
X171946129Y-127513975D01*
X171750000Y-127494659D01*
X171553870Y-127513975D01*
X171365266Y-127571188D01*
X171186089Y-127666961D01*
X171185150Y-127665205D01*
X171127203Y-127683344D01*
X171064370Y-127666101D01*
X171063911Y-127666961D01*
X171060122Y-127664935D01*
X171059824Y-127664854D01*
X171059107Y-127664393D01*
X170884733Y-127571188D01*
X170884727Y-127571186D01*
X170696132Y-127513976D01*
X170696129Y-127513975D01*
X170500000Y-127494659D01*
X170303870Y-127513975D01*
X170115266Y-127571188D01*
X169941467Y-127664086D01*
X169941460Y-127664090D01*
X169789116Y-127789116D01*
X169727136Y-127864640D01*
X169669390Y-127903974D01*
X169599546Y-127905845D01*
X169543602Y-127873656D01*
X169186819Y-127516873D01*
X169153334Y-127455550D01*
X169150500Y-127429192D01*
X169150500Y-126000000D01*
X186182159Y-126000000D01*
X186201475Y-126196129D01*
X186201476Y-126196132D01*
X186255583Y-126374499D01*
X186258688Y-126384733D01*
X186351586Y-126558532D01*
X186351590Y-126558539D01*
X186476616Y-126710883D01*
X186628960Y-126835909D01*
X186628967Y-126835913D01*
X186802766Y-126928811D01*
X186802769Y-126928811D01*
X186802773Y-126928814D01*
X186991368Y-126986024D01*
X187187500Y-127005341D01*
X187383632Y-126986024D01*
X187572227Y-126928814D01*
X187592330Y-126918069D01*
X187746032Y-126835913D01*
X187746038Y-126835910D01*
X187898383Y-126710883D01*
X188023410Y-126558538D01*
X188091819Y-126430554D01*
X188116311Y-126384733D01*
X188116311Y-126384732D01*
X188116314Y-126384727D01*
X188173524Y-126196132D01*
X188192841Y-126000000D01*
X188173524Y-125803868D01*
X188116314Y-125615273D01*
X188116311Y-125615269D01*
X188116311Y-125615266D01*
X188023413Y-125441467D01*
X188023409Y-125441460D01*
X187898383Y-125289116D01*
X187746039Y-125164090D01*
X187746032Y-125164086D01*
X187572233Y-125071188D01*
X187572227Y-125071186D01*
X187383632Y-125013976D01*
X187383629Y-125013975D01*
X187187500Y-124994659D01*
X186991370Y-125013975D01*
X186802766Y-125071188D01*
X186628967Y-125164086D01*
X186628960Y-125164090D01*
X186476616Y-125289116D01*
X186351590Y-125441460D01*
X186351586Y-125441467D01*
X186258688Y-125615266D01*
X186201475Y-125803870D01*
X186182159Y-126000000D01*
X169150500Y-126000000D01*
X169150500Y-122715593D01*
X169170185Y-122648554D01*
X169178647Y-122636928D01*
X169278321Y-122515476D01*
X169284869Y-122507497D01*
X169346786Y-122391658D01*
X169377770Y-122333692D01*
X169377770Y-122333691D01*
X169377773Y-122333686D01*
X169434983Y-122145091D01*
X169454300Y-121948959D01*
X169434983Y-121752827D01*
X169377773Y-121564232D01*
X169377770Y-121564228D01*
X169377770Y-121564225D01*
X169284872Y-121390426D01*
X169284868Y-121390419D01*
X169159842Y-121238075D01*
X169007498Y-121113049D01*
X169007491Y-121113045D01*
X168833692Y-121020147D01*
X168833686Y-121020145D01*
X168645091Y-120962935D01*
X168645088Y-120962934D01*
X168448959Y-120943618D01*
X168252829Y-120962934D01*
X168064225Y-121020147D01*
X167890426Y-121113045D01*
X167890419Y-121113049D01*
X167738078Y-121238073D01*
X167665797Y-121326147D01*
X167608051Y-121365481D01*
X167538206Y-121367350D01*
X167511491Y-121356839D01*
X167371713Y-121282126D01*
X167371707Y-121282124D01*
X167199466Y-121229875D01*
X167183109Y-121224913D01*
X166986980Y-121205597D01*
X166786654Y-121225327D01*
X166718008Y-121212308D01*
X166667298Y-121164243D01*
X166650500Y-121101924D01*
X166650500Y-113483846D01*
X166625502Y-113358179D01*
X166625501Y-113358178D01*
X166625501Y-113358174D01*
X166576465Y-113239791D01*
X166534030Y-113176282D01*
X166519653Y-113154765D01*
X166505279Y-113133251D01*
X165729048Y-112357020D01*
X165695563Y-112295697D01*
X165700547Y-112226005D01*
X165742419Y-112170072D01*
X165758276Y-112159981D01*
X165908532Y-112079667D01*
X165908538Y-112079664D01*
X166060883Y-111954637D01*
X166185910Y-111802292D01*
X166278814Y-111628481D01*
X166336024Y-111439886D01*
X166355341Y-111243754D01*
X166336024Y-111047622D01*
X166278814Y-110859027D01*
X166278811Y-110859023D01*
X166278811Y-110859020D01*
X166185913Y-110685221D01*
X166185909Y-110685214D01*
X166060884Y-110532872D01*
X166045833Y-110520519D01*
X166006500Y-110462773D01*
X166000500Y-110424668D01*
X166000500Y-107470807D01*
X166020185Y-107403768D01*
X166036814Y-107383130D01*
X166937821Y-106482123D01*
X166999142Y-106448640D01*
X167068833Y-106453624D01*
G37*
%TD.AperFunction*%
%TA.AperFunction,Conductor*%
G36*
X218158993Y-130692271D02*
G01*
X218208405Y-130714838D01*
X218275444Y-130734523D01*
X218275448Y-130734524D01*
X218417864Y-130755000D01*
X218417867Y-130755000D01*
X219876000Y-130755000D01*
X219943039Y-130774685D01*
X219988794Y-130827489D01*
X220000000Y-130879000D01*
X220000000Y-131166704D01*
X219980315Y-131233743D01*
X219927511Y-131279498D01*
X219915159Y-131284358D01*
X219862502Y-131301883D01*
X219862496Y-131301886D01*
X219741462Y-131379671D01*
X219741451Y-131379679D01*
X219688659Y-131425423D01*
X219594433Y-131534164D01*
X219594430Y-131534168D01*
X219534664Y-131665034D01*
X219514976Y-131732082D01*
X219503188Y-131814071D01*
X219494501Y-131874497D01*
X219494500Y-131874501D01*
X219494500Y-132068085D01*
X219474815Y-132135124D01*
X219422011Y-132180879D01*
X219352853Y-132190823D01*
X219289297Y-132161798D01*
X219282819Y-132155766D01*
X218019800Y-130892747D01*
X217986315Y-130831424D01*
X217991299Y-130761732D01*
X218033171Y-130705799D01*
X218098635Y-130681382D01*
X218158993Y-130692271D01*
G37*
%TD.AperFunction*%
%TA.AperFunction,Conductor*%
G36*
X214536367Y-128694170D02*
G01*
X214602713Y-128698905D01*
X214658654Y-128740766D01*
X214664938Y-128749997D01*
X214707285Y-128818652D01*
X214707288Y-128818656D01*
X214831344Y-128942712D01*
X214980666Y-129034814D01*
X215147203Y-129089999D01*
X215249991Y-129100500D01*
X215376001Y-129100499D01*
X215443039Y-129120183D01*
X215488794Y-129172987D01*
X215500000Y-129224499D01*
X215500000Y-129475500D01*
X215480315Y-129542539D01*
X215427511Y-129588294D01*
X215376000Y-129599500D01*
X212429500Y-129599500D01*
X212362461Y-129579815D01*
X212316706Y-129527011D01*
X212305500Y-129475500D01*
X212305500Y-128829500D01*
X212325185Y-128762461D01*
X212377989Y-128716706D01*
X212429500Y-128705500D01*
X214425490Y-128705500D01*
X214425500Y-128705500D01*
X214532956Y-128693947D01*
X214533024Y-128693932D01*
X214533038Y-128693933D01*
X214536245Y-128693414D01*
X214536367Y-128694170D01*
G37*
%TD.AperFunction*%
%TA.AperFunction,Conductor*%
G36*
X197437539Y-101920185D02*
G01*
X197483294Y-101972989D01*
X197494500Y-102024500D01*
X197494500Y-103187290D01*
X197474815Y-103254329D01*
X197422011Y-103300084D01*
X197352853Y-103310028D01*
X197334505Y-103305951D01*
X197196130Y-103263975D01*
X197000000Y-103244659D01*
X196803870Y-103263975D01*
X196615266Y-103321188D01*
X196441467Y-103414086D01*
X196441460Y-103414090D01*
X196289116Y-103539116D01*
X196164090Y-103691460D01*
X196164086Y-103691467D01*
X196071188Y-103865266D01*
X196013975Y-104053870D01*
X195994659Y-104250000D01*
X196013975Y-104446129D01*
X196013976Y-104446132D01*
X196051349Y-104569335D01*
X196071188Y-104634733D01*
X196164086Y-104808532D01*
X196164090Y-104808539D01*
X196289116Y-104960883D01*
X196441460Y-105085909D01*
X196441467Y-105085913D01*
X196615266Y-105178811D01*
X196615269Y-105178811D01*
X196615273Y-105178814D01*
X196803868Y-105236024D01*
X197000000Y-105255341D01*
X197196132Y-105236024D01*
X197334504Y-105194048D01*
X197404371Y-105193425D01*
X197463484Y-105230673D01*
X197493075Y-105293967D01*
X197494500Y-105312709D01*
X197494500Y-114198313D01*
X197497515Y-114253441D01*
X197497515Y-114253448D01*
X197500466Y-114280343D01*
X197509469Y-114334787D01*
X197509472Y-114334796D01*
X197560328Y-114469367D01*
X197560334Y-114469381D01*
X197592872Y-114528362D01*
X197593705Y-114529948D01*
X197594088Y-114530566D01*
X197626546Y-114573535D01*
X197680807Y-114645368D01*
X197680809Y-114645370D01*
X198747023Y-115702392D01*
X198780773Y-115763570D01*
X198776090Y-115833282D01*
X198734461Y-115889396D01*
X198718177Y-115899809D01*
X198691468Y-115914085D01*
X198691460Y-115914090D01*
X198539116Y-116039116D01*
X198414090Y-116191460D01*
X198414086Y-116191467D01*
X198321188Y-116365266D01*
X198263975Y-116553870D01*
X198244659Y-116750000D01*
X198263975Y-116946129D01*
X198321188Y-117134733D01*
X198414086Y-117308532D01*
X198414090Y-117308539D01*
X198539116Y-117460883D01*
X198691460Y-117585909D01*
X198691467Y-117585913D01*
X198865266Y-117678811D01*
X198865269Y-117678811D01*
X198865273Y-117678814D01*
X199053868Y-117736024D01*
X199250000Y-117755341D01*
X199446132Y-117736024D01*
X199620301Y-117683189D01*
X199690168Y-117682566D01*
X199749281Y-117719814D01*
X199778872Y-117783108D01*
X199769547Y-117852352D01*
X199765656Y-117860303D01*
X199696187Y-117990271D01*
X199638975Y-118178870D01*
X199619659Y-118375000D01*
X199638975Y-118571129D01*
X199638976Y-118571132D01*
X199685319Y-118723905D01*
X199696188Y-118759733D01*
X199784217Y-118924424D01*
X199798459Y-118992827D01*
X199773459Y-119058071D01*
X199770712Y-119061542D01*
X199664091Y-119191460D01*
X199664086Y-119191467D01*
X199639222Y-119237985D01*
X199590260Y-119287829D01*
X199522122Y-119303290D01*
X199456442Y-119279458D01*
X199442183Y-119267213D01*
X196536819Y-116361849D01*
X196503334Y-116300526D01*
X196500500Y-116274168D01*
X196500500Y-115583846D01*
X196475502Y-115458179D01*
X196475501Y-115458178D01*
X196475501Y-115458174D01*
X196426465Y-115339791D01*
X196426464Y-115339790D01*
X196426461Y-115339784D01*
X196355277Y-115233250D01*
X196355276Y-115233249D01*
X196264669Y-115142642D01*
X195675895Y-114553868D01*
X193866756Y-112744727D01*
X193866755Y-112744726D01*
X193866751Y-112744723D01*
X193760209Y-112673535D01*
X193641826Y-112624499D01*
X193624869Y-112621126D01*
X193516153Y-112599500D01*
X193516151Y-112599500D01*
X183522890Y-112599500D01*
X183455851Y-112579815D01*
X183435209Y-112563181D01*
X179622028Y-108750000D01*
X195094540Y-108750000D01*
X195114326Y-108938256D01*
X195114327Y-108938259D01*
X195172818Y-109118277D01*
X195172821Y-109118284D01*
X195267467Y-109282216D01*
X195394129Y-109422888D01*
X195547265Y-109534148D01*
X195547270Y-109534151D01*
X195720192Y-109611142D01*
X195720197Y-109611144D01*
X195905354Y-109650500D01*
X195905355Y-109650500D01*
X196094644Y-109650500D01*
X196094646Y-109650500D01*
X196279803Y-109611144D01*
X196452730Y-109534151D01*
X196605871Y-109422888D01*
X196732533Y-109282216D01*
X196827179Y-109118284D01*
X196885674Y-108938256D01*
X196905460Y-108750000D01*
X196885674Y-108561744D01*
X196827179Y-108381716D01*
X196732533Y-108217784D01*
X196605871Y-108077112D01*
X196605870Y-108077111D01*
X196452734Y-107965851D01*
X196452729Y-107965848D01*
X196279807Y-107888857D01*
X196279802Y-107888855D01*
X196134001Y-107857865D01*
X196094646Y-107849500D01*
X195905354Y-107849500D01*
X195872897Y-107856398D01*
X195720197Y-107888855D01*
X195720192Y-107888857D01*
X195547270Y-107965848D01*
X195547265Y-107965851D01*
X195394129Y-108077111D01*
X195267466Y-108217785D01*
X195172821Y-108381715D01*
X195172818Y-108381722D01*
X195153274Y-108441874D01*
X195114326Y-108561744D01*
X195094540Y-108750000D01*
X179622028Y-108750000D01*
X175405403Y-104533375D01*
X175371918Y-104472052D01*
X175376902Y-104402360D01*
X175418774Y-104346427D01*
X175421938Y-104344135D01*
X175501401Y-104288495D01*
X175668495Y-104121401D01*
X175798730Y-103935405D01*
X175853307Y-103891781D01*
X175922805Y-103884587D01*
X175985160Y-103916110D01*
X176001879Y-103935405D01*
X176055072Y-104011372D01*
X176055073Y-104011372D01*
X176687037Y-103379408D01*
X176704075Y-103442993D01*
X176769901Y-103557007D01*
X176862993Y-103650099D01*
X176977007Y-103715925D01*
X177040591Y-103732962D01*
X176408626Y-104364926D01*
X176492417Y-104423598D01*
X176492421Y-104423600D01*
X176706507Y-104523429D01*
X176706516Y-104523433D01*
X176934673Y-104584567D01*
X176934684Y-104584569D01*
X177169998Y-104605157D01*
X177170002Y-104605157D01*
X177405315Y-104584569D01*
X177405326Y-104584567D01*
X177633483Y-104523433D01*
X177633492Y-104523429D01*
X177847580Y-104423599D01*
X177931371Y-104364925D01*
X177299408Y-103732962D01*
X177362993Y-103715925D01*
X177477007Y-103650099D01*
X177570099Y-103557007D01*
X177635925Y-103442993D01*
X177652962Y-103379408D01*
X178284925Y-104011371D01*
X178338120Y-103935404D01*
X178392697Y-103891780D01*
X178462196Y-103884588D01*
X178524550Y-103916111D01*
X178541268Y-103935404D01*
X178671505Y-104121401D01*
X178838599Y-104288495D01*
X178918038Y-104344119D01*
X179032165Y-104424032D01*
X179032167Y-104424033D01*
X179032170Y-104424035D01*
X179246337Y-104523903D01*
X179474592Y-104585063D01*
X179651034Y-104600500D01*
X179709999Y-104605659D01*
X179710000Y-104605659D01*
X179710001Y-104605659D01*
X179768966Y-104600500D01*
X179945408Y-104585063D01*
X180173663Y-104523903D01*
X180387830Y-104424035D01*
X180581401Y-104288495D01*
X180748495Y-104121401D01*
X180878425Y-103935842D01*
X180933002Y-103892217D01*
X181002500Y-103885023D01*
X181064855Y-103916546D01*
X181081575Y-103935842D01*
X181198344Y-104102606D01*
X181211505Y-104121401D01*
X181378599Y-104288495D01*
X181458038Y-104344119D01*
X181572165Y-104424032D01*
X181572167Y-104424033D01*
X181572170Y-104424035D01*
X181786337Y-104523903D01*
X182014592Y-104585063D01*
X182191034Y-104600500D01*
X182249999Y-104605659D01*
X182250000Y-104605659D01*
X182250001Y-104605659D01*
X182308966Y-104600500D01*
X182485408Y-104585063D01*
X182713663Y-104523903D01*
X182927830Y-104424035D01*
X183121401Y-104288495D01*
X183288495Y-104121401D01*
X183418425Y-103935842D01*
X183473002Y-103892217D01*
X183542500Y-103885023D01*
X183604855Y-103916546D01*
X183621575Y-103935842D01*
X183738344Y-104102606D01*
X183751505Y-104121401D01*
X183918599Y-104288495D01*
X183998038Y-104344119D01*
X184112165Y-104424032D01*
X184112167Y-104424033D01*
X184112170Y-104424035D01*
X184326337Y-104523903D01*
X184554592Y-104585063D01*
X184731034Y-104600500D01*
X184789999Y-104605659D01*
X184790000Y-104605659D01*
X184790001Y-104605659D01*
X184848966Y-104600500D01*
X185025408Y-104585063D01*
X185253663Y-104523903D01*
X185467830Y-104424035D01*
X185661401Y-104288495D01*
X185828495Y-104121401D01*
X185958425Y-103935842D01*
X186013002Y-103892217D01*
X186082500Y-103885023D01*
X186144855Y-103916546D01*
X186161575Y-103935842D01*
X186278344Y-104102606D01*
X186291505Y-104121401D01*
X186458599Y-104288495D01*
X186538038Y-104344119D01*
X186652165Y-104424032D01*
X186652167Y-104424033D01*
X186652170Y-104424035D01*
X186866337Y-104523903D01*
X187094592Y-104585063D01*
X187271034Y-104600500D01*
X187329999Y-104605659D01*
X187330000Y-104605659D01*
X187330001Y-104605659D01*
X187388966Y-104600500D01*
X187565408Y-104585063D01*
X187793663Y-104523903D01*
X188007830Y-104424035D01*
X188201401Y-104288495D01*
X188368495Y-104121401D01*
X188498730Y-103935405D01*
X188553307Y-103891781D01*
X188622805Y-103884587D01*
X188685160Y-103916110D01*
X188701879Y-103935405D01*
X188755072Y-104011372D01*
X188755073Y-104011372D01*
X189387037Y-103379408D01*
X189404075Y-103442993D01*
X189469901Y-103557007D01*
X189562993Y-103650099D01*
X189677007Y-103715925D01*
X189740591Y-103732962D01*
X189108626Y-104364926D01*
X189192417Y-104423598D01*
X189192421Y-104423600D01*
X189406507Y-104523429D01*
X189406516Y-104523433D01*
X189634673Y-104584567D01*
X189634684Y-104584569D01*
X189869998Y-104605157D01*
X189870002Y-104605157D01*
X190105315Y-104584569D01*
X190105326Y-104584567D01*
X190333483Y-104523433D01*
X190333492Y-104523429D01*
X190547580Y-104423599D01*
X190631371Y-104364925D01*
X189999408Y-103732962D01*
X190062993Y-103715925D01*
X190177007Y-103650099D01*
X190270099Y-103557007D01*
X190335925Y-103442993D01*
X190352962Y-103379408D01*
X191023181Y-104049627D01*
X191056666Y-104110950D01*
X191059500Y-104137299D01*
X191059500Y-104147865D01*
X191059501Y-104147876D01*
X191065908Y-104207483D01*
X191116202Y-104342328D01*
X191116206Y-104342335D01*
X191202452Y-104457544D01*
X191202455Y-104457547D01*
X191317664Y-104543793D01*
X191317671Y-104543797D01*
X191452517Y-104594091D01*
X191452516Y-104594091D01*
X191459444Y-104594835D01*
X191512127Y-104600500D01*
X193307872Y-104600499D01*
X193367483Y-104594091D01*
X193502331Y-104543796D01*
X193617546Y-104457546D01*
X193703796Y-104342331D01*
X193754091Y-104207483D01*
X193760500Y-104147873D01*
X193760499Y-102352128D01*
X193754091Y-102292517D01*
X193744576Y-102267007D01*
X193703797Y-102157671D01*
X193703795Y-102157668D01*
X193702617Y-102156094D01*
X193659734Y-102098810D01*
X193635317Y-102033348D01*
X193650168Y-101965075D01*
X193699573Y-101915669D01*
X193759001Y-101900500D01*
X197370500Y-101900500D01*
X197437539Y-101920185D01*
G37*
%TD.AperFunction*%
%TA.AperFunction,Conductor*%
G36*
X173916705Y-105370185D02*
G01*
X173962460Y-105422989D01*
X173972404Y-105492147D01*
X173945519Y-105553165D01*
X173914091Y-105591460D01*
X173914086Y-105591467D01*
X173821188Y-105765266D01*
X173763975Y-105953870D01*
X173744659Y-106150000D01*
X173763975Y-106346129D01*
X173763976Y-106346132D01*
X173811361Y-106502340D01*
X173821188Y-106534733D01*
X173914086Y-106708532D01*
X173914090Y-106708539D01*
X174039116Y-106860883D01*
X174191460Y-106985909D01*
X174191467Y-106985913D01*
X174365266Y-107078811D01*
X174365269Y-107078811D01*
X174365273Y-107078814D01*
X174553868Y-107136024D01*
X174689644Y-107149396D01*
X174754432Y-107175556D01*
X174765172Y-107185118D01*
X176245731Y-108665677D01*
X176279216Y-108727000D01*
X176274232Y-108796692D01*
X176253904Y-108832022D01*
X176164090Y-108941461D01*
X176164086Y-108941467D01*
X176071188Y-109115266D01*
X176013975Y-109303870D01*
X175994659Y-109500000D01*
X176013975Y-109696129D01*
X176071188Y-109884733D01*
X176164086Y-110058532D01*
X176164090Y-110058539D01*
X176289116Y-110210883D01*
X176304161Y-110223229D01*
X176343498Y-110280973D01*
X176349500Y-110319085D01*
X176349500Y-112929191D01*
X176329815Y-112996230D01*
X176313181Y-113016872D01*
X175619208Y-113710845D01*
X175557885Y-113744330D01*
X175519374Y-113746567D01*
X175500000Y-113744659D01*
X175303870Y-113763975D01*
X175115266Y-113821188D01*
X174941467Y-113914086D01*
X174941460Y-113914090D01*
X174789116Y-114039116D01*
X174664090Y-114191460D01*
X174664086Y-114191467D01*
X174571188Y-114365266D01*
X174513975Y-114553870D01*
X174494659Y-114750000D01*
X174513975Y-114946129D01*
X174571188Y-115134733D01*
X174664086Y-115308532D01*
X174664090Y-115308539D01*
X174789116Y-115460883D01*
X174804161Y-115473229D01*
X174843498Y-115530973D01*
X174849500Y-115569085D01*
X174849500Y-118630192D01*
X174829815Y-118697231D01*
X174777011Y-118742986D01*
X174707853Y-118752930D01*
X174644297Y-118723905D01*
X174637819Y-118717873D01*
X170961819Y-115041873D01*
X170928334Y-114980550D01*
X170925500Y-114954192D01*
X170925500Y-107950217D01*
X170945185Y-107883178D01*
X170984405Y-107844678D01*
X171068651Y-107792715D01*
X171068654Y-107792713D01*
X171068653Y-107792713D01*
X171068656Y-107792712D01*
X171192712Y-107668656D01*
X171284814Y-107519334D01*
X171339999Y-107352797D01*
X171350500Y-107250009D01*
X171350499Y-106249992D01*
X171339999Y-106147203D01*
X171284814Y-105980666D01*
X171197802Y-105839596D01*
X171179362Y-105772204D01*
X171200285Y-105705541D01*
X171253927Y-105660771D01*
X171303341Y-105650500D01*
X171564071Y-105650500D01*
X171648615Y-105633682D01*
X171689744Y-105625501D01*
X171808127Y-105576465D01*
X171848482Y-105549501D01*
X171914669Y-105505277D01*
X172033128Y-105386817D01*
X172094449Y-105353334D01*
X172120808Y-105350500D01*
X173849666Y-105350500D01*
X173916705Y-105370185D01*
G37*
%TD.AperFunction*%
%TA.AperFunction,Conductor*%
G36*
X178146494Y-109125968D02*
G01*
X178183673Y-109151537D01*
X182787407Y-113755272D01*
X182787414Y-113755278D01*
X182849960Y-113797069D01*
X182849962Y-113797070D01*
X182849965Y-113797072D01*
X182893955Y-113826465D01*
X183012338Y-113875501D01*
X183012342Y-113875501D01*
X183012343Y-113875502D01*
X183138010Y-113900500D01*
X183138013Y-113900500D01*
X190154681Y-113900500D01*
X190221720Y-113920185D01*
X190267475Y-113972989D01*
X190277419Y-114042147D01*
X190273341Y-114060497D01*
X190263975Y-114091367D01*
X190244659Y-114287500D01*
X190252129Y-114363346D01*
X190239110Y-114431992D01*
X190191045Y-114482702D01*
X190128726Y-114499500D01*
X180035929Y-114499500D01*
X179910261Y-114524497D01*
X179910255Y-114524499D01*
X179791870Y-114573535D01*
X179685331Y-114644722D01*
X179685324Y-114644728D01*
X177627902Y-116702150D01*
X177566579Y-116735635D01*
X177496887Y-116730651D01*
X177481768Y-116723827D01*
X177383067Y-116671070D01*
X177383064Y-116671069D01*
X177383062Y-116671068D01*
X177194467Y-116613858D01*
X177194464Y-116613857D01*
X176998335Y-116594541D01*
X176802205Y-116613857D01*
X176613601Y-116671070D01*
X176439802Y-116763968D01*
X176439796Y-116763972D01*
X176353164Y-116835069D01*
X176288854Y-116862381D01*
X176219987Y-116850590D01*
X176168427Y-116803437D01*
X176150500Y-116739215D01*
X176150500Y-115569085D01*
X176170185Y-115502046D01*
X176195839Y-115473229D01*
X176210883Y-115460883D01*
X176242088Y-115422860D01*
X176335910Y-115308538D01*
X176424583Y-115142643D01*
X176428811Y-115134733D01*
X176428811Y-115134732D01*
X176428814Y-115134727D01*
X176486024Y-114946132D01*
X176505341Y-114750000D01*
X176503432Y-114730624D01*
X176516449Y-114661982D01*
X176539151Y-114630793D01*
X177505276Y-113664670D01*
X177576465Y-113558127D01*
X177625501Y-113439744D01*
X177627169Y-113431359D01*
X177650500Y-113314069D01*
X177650500Y-110319085D01*
X177670185Y-110252046D01*
X177695839Y-110223229D01*
X177710883Y-110210883D01*
X177835909Y-110058539D01*
X177835913Y-110058532D01*
X177928811Y-109884733D01*
X177928811Y-109884732D01*
X177928814Y-109884727D01*
X177986024Y-109696132D01*
X178005341Y-109500000D01*
X177986024Y-109303868D01*
X177977331Y-109275214D01*
X177976707Y-109205348D01*
X178013955Y-109146234D01*
X178077249Y-109116643D01*
X178146494Y-109125968D01*
G37*
%TD.AperFunction*%
%TA.AperFunction,Conductor*%
G36*
X189117394Y-101920185D02*
G01*
X189163149Y-101972989D01*
X189173093Y-102042147D01*
X189144068Y-102105703D01*
X189121478Y-102126075D01*
X189108627Y-102135073D01*
X189108626Y-102135073D01*
X189740591Y-102767037D01*
X189677007Y-102784075D01*
X189562993Y-102849901D01*
X189469901Y-102942993D01*
X189404075Y-103057007D01*
X189387037Y-103120590D01*
X188755073Y-102488626D01*
X188755072Y-102488627D01*
X188701880Y-102564595D01*
X188647303Y-102608220D01*
X188577805Y-102615414D01*
X188515450Y-102583891D01*
X188498730Y-102564595D01*
X188368494Y-102378597D01*
X188201402Y-102211506D01*
X188201401Y-102211505D01*
X188124514Y-102157668D01*
X188079393Y-102126074D01*
X188035770Y-102071498D01*
X188028577Y-102001999D01*
X188060099Y-101939645D01*
X188120329Y-101904231D01*
X188150518Y-101900500D01*
X189050355Y-101900500D01*
X189117394Y-101920185D01*
G37*
%TD.AperFunction*%
%TA.AperFunction,Conductor*%
G36*
X191128038Y-101920185D02*
G01*
X191173793Y-101972989D01*
X191183737Y-102042147D01*
X191160265Y-102098810D01*
X191155106Y-102105703D01*
X191116204Y-102157668D01*
X191116202Y-102157671D01*
X191065908Y-102292517D01*
X191059734Y-102349953D01*
X191059501Y-102352123D01*
X191059500Y-102352135D01*
X191059500Y-102362690D01*
X191039815Y-102429729D01*
X191023181Y-102450371D01*
X190352962Y-103120590D01*
X190335925Y-103057007D01*
X190270099Y-102942993D01*
X190177007Y-102849901D01*
X190062993Y-102784075D01*
X189999409Y-102767037D01*
X190631372Y-102135073D01*
X190618521Y-102126075D01*
X190574896Y-102071498D01*
X190567704Y-102001999D01*
X190599226Y-101939645D01*
X190659456Y-101904231D01*
X190689645Y-101900500D01*
X191060999Y-101900500D01*
X191128038Y-101920185D01*
G37*
%TD.AperFunction*%
%TD*%
M02*
