%TF.GenerationSoftware,KiCad,Pcbnew,8.0.9-8.0.9-0~ubuntu24.04.1*%
%TF.CreationDate,2025-02-24T19:38:21+01:00*%
%TF.ProjectId,jack2bluetooth,6a61636b-3262-46c7-9565-746f6f74682e,v3.0*%
%TF.SameCoordinates,Original*%
%TF.FileFunction,Soldermask,Top*%
%TF.FilePolarity,Negative*%
%FSLAX46Y46*%
G04 Gerber Fmt 4.6, Leading zero omitted, Abs format (unit mm)*
G04 Created by KiCad (PCBNEW 8.0.9-8.0.9-0~ubuntu24.04.1) date 2025-02-24 19:38:21*
%MOMM*%
%LPD*%
G01*
G04 APERTURE LIST*
G04 Aperture macros list*
%AMRoundRect*
0 Rectangle with rounded corners*
0 $1 Rounding radius*
0 $2 $3 $4 $5 $6 $7 $8 $9 X,Y pos of 4 corners*
0 Add a 4 corners polygon primitive as box body*
4,1,4,$2,$3,$4,$5,$6,$7,$8,$9,$2,$3,0*
0 Add four circle primitives for the rounded corners*
1,1,$1+$1,$2,$3*
1,1,$1+$1,$4,$5*
1,1,$1+$1,$6,$7*
1,1,$1+$1,$8,$9*
0 Add four rect primitives between the rounded corners*
20,1,$1+$1,$2,$3,$4,$5,0*
20,1,$1+$1,$4,$5,$6,$7,0*
20,1,$1+$1,$6,$7,$8,$9,0*
20,1,$1+$1,$8,$9,$2,$3,0*%
G04 Aperture macros list end*
%ADD10RoundRect,0.271166X0.479634X-0.379634X0.479634X0.379634X-0.479634X0.379634X-0.479634X-0.379634X0*%
%ADD11RoundRect,0.274190X0.301610X0.376610X-0.301610X0.376610X-0.301610X-0.376610X0.301610X-0.376610X0*%
%ADD12RoundRect,0.271166X-0.379634X-0.479634X0.379634X-0.479634X0.379634X0.479634X-0.379634X0.479634X0*%
%ADD13RoundRect,0.271617X0.366683X0.504183X-0.366683X0.504183X-0.366683X-0.504183X0.366683X-0.504183X0*%
%ADD14RoundRect,0.050800X0.425000X-0.150000X0.425000X0.150000X-0.425000X0.150000X-0.425000X-0.150000X0*%
%ADD15RoundRect,0.050800X-0.150000X-0.425000X0.150000X-0.425000X0.150000X0.425000X-0.150000X0.425000X0*%
%ADD16RoundRect,0.050800X-1.775000X-1.775000X1.775000X-1.775000X1.775000X1.775000X-1.775000X1.775000X0*%
%ADD17RoundRect,0.271617X0.504183X-0.366683X0.504183X0.366683X-0.504183X0.366683X-0.504183X-0.366683X0*%
%ADD18RoundRect,0.271166X-0.479634X0.379634X-0.479634X-0.379634X0.479634X-0.379634X0.479634X0.379634X0*%
%ADD19RoundRect,0.050800X0.850000X-0.850000X0.850000X0.850000X-0.850000X0.850000X-0.850000X-0.850000X0*%
%ADD20O,1.801600X1.801600*%
%ADD21RoundRect,0.050800X0.575000X-0.300000X0.575000X0.300000X-0.575000X0.300000X-0.575000X-0.300000X0*%
%ADD22RoundRect,0.271166X0.379634X0.479634X-0.379634X0.479634X-0.379634X-0.479634X0.379634X-0.479634X0*%
%ADD23RoundRect,0.271617X-0.366683X-0.504183X0.366683X-0.504183X0.366683X0.504183X-0.366683X0.504183X0*%
%ADD24RoundRect,0.271617X-0.504183X0.366683X-0.504183X-0.366683X0.504183X-0.366683X0.504183X0.366683X0*%
%ADD25C,0.751600*%
%ADD26RoundRect,0.175400X0.450400X-0.175400X0.450400X0.175400X-0.450400X0.175400X-0.450400X-0.175400X0*%
%ADD27RoundRect,0.100400X0.525400X-0.100400X0.525400X0.100400X-0.525400X0.100400X-0.525400X-0.100400X0*%
%ADD28O,2.201600X1.101600*%
%ADD29O,1.901600X1.101600*%
%ADD30RoundRect,0.244150X-0.244150X-0.406650X0.244150X-0.406650X0.244150X0.406650X-0.244150X0.406650X0*%
%ADD31C,1.701600*%
%ADD32RoundRect,0.050800X1.612500X1.612500X-1.612500X1.612500X-1.612500X-1.612500X1.612500X-1.612500X0*%
%ADD33C,3.326600*%
%ADD34C,2.396600*%
%ADD35RoundRect,0.050800X0.550000X0.750000X-0.550000X0.750000X-0.550000X-0.750000X0.550000X-0.750000X0*%
%ADD36RoundRect,0.050800X0.625000X-0.300000X0.625000X0.300000X-0.625000X0.300000X-0.625000X-0.300000X0*%
%ADD37RoundRect,0.200400X0.350400X-0.200400X0.350400X0.200400X-0.350400X0.200400X-0.350400X-0.200400X0*%
%ADD38RoundRect,0.175400X0.175400X-0.225400X0.175400X0.225400X-0.175400X0.225400X-0.175400X-0.225400X0*%
%ADD39RoundRect,0.050800X-0.400000X0.150000X-0.400000X-0.150000X0.400000X-0.150000X0.400000X0.150000X0*%
%ADD40RoundRect,0.050800X0.150000X0.400000X-0.150000X0.400000X-0.150000X-0.400000X0.150000X-0.400000X0*%
%ADD41RoundRect,0.050800X1.400000X1.400000X-1.400000X1.400000X-1.400000X-1.400000X1.400000X-1.400000X0*%
%ADD42C,2.101600*%
%ADD43RoundRect,0.050800X-0.850000X0.850000X-0.850000X-0.850000X0.850000X-0.850000X0.850000X0.850000X0*%
%ADD44RoundRect,0.050800X-0.850000X-0.850000X0.850000X-0.850000X0.850000X0.850000X-0.850000X0.850000X0*%
%ADD45RoundRect,0.200400X-0.200400X-0.350400X0.200400X-0.350400X0.200400X0.350400X-0.200400X0.350400X0*%
%ADD46RoundRect,0.175400X-0.225400X-0.175400X0.225400X-0.175400X0.225400X0.175400X-0.225400X0.175400X0*%
%ADD47RoundRect,0.050800X0.450000X0.750000X-0.450000X0.750000X-0.450000X-0.750000X0.450000X-0.750000X0*%
%ADD48RoundRect,0.050800X0.400000X0.400000X-0.400000X0.400000X-0.400000X-0.400000X0.400000X-0.400000X0*%
%ADD49C,1.301600*%
%ADD50RoundRect,0.050800X1.250000X1.275000X-1.250000X1.275000X-1.250000X-1.275000X1.250000X-1.275000X0*%
%ADD51C,2.601600*%
%ADD52RoundRect,0.050800X0.600000X-0.300000X0.600000X0.300000X-0.600000X0.300000X-0.600000X-0.300000X0*%
%ADD53O,1.601600X2.701600*%
%ADD54RoundRect,0.050800X0.850000X0.850000X-0.850000X0.850000X-0.850000X-0.850000X0.850000X-0.850000X0*%
G04 APERTURE END LIST*
D10*
%TO.C,R37*%
X196750000Y-124750000D03*
X196750000Y-122750000D03*
%TD*%
D11*
%TO.C,L1*%
X218900000Y-148000000D03*
X216600000Y-148000000D03*
%TD*%
D12*
%TO.C,R3*%
X211500000Y-140750000D03*
X213500000Y-140750000D03*
%TD*%
D13*
%TO.C,C7*%
X197000000Y-106150000D03*
X194925000Y-106150000D03*
%TD*%
D14*
%TO.C,IC1*%
X196230000Y-109650000D03*
X196230000Y-110150000D03*
X196230000Y-110650000D03*
X196230000Y-111150000D03*
X196230000Y-111650000D03*
X196230000Y-112150000D03*
X196230000Y-112650000D03*
X196230000Y-113150000D03*
D15*
X196930000Y-113850000D03*
X197430000Y-113850000D03*
X197930000Y-113850000D03*
X198430000Y-113850000D03*
X198930000Y-113850000D03*
X199430000Y-113850000D03*
X199930000Y-113850000D03*
X200430000Y-113850000D03*
D14*
X201130000Y-113150000D03*
X201130000Y-112650000D03*
X201130000Y-112150000D03*
X201130000Y-111650000D03*
X201130000Y-111150000D03*
X201130000Y-110650000D03*
X201130000Y-110150000D03*
X201130000Y-109650000D03*
D15*
X200430000Y-108950000D03*
X199930000Y-108950000D03*
X199430000Y-108950000D03*
X198930000Y-108950000D03*
X198430000Y-108950000D03*
X197930000Y-108950000D03*
X197430000Y-108950000D03*
X196930000Y-108950000D03*
D16*
X198680000Y-111400000D03*
%TD*%
D13*
%TO.C,C32*%
X194287500Y-129250000D03*
X192212500Y-129250000D03*
%TD*%
D17*
%TO.C,C8*%
X221250000Y-127787500D03*
X221250000Y-125712500D03*
%TD*%
%TO.C,C18*%
X207630000Y-108650000D03*
X207630000Y-106575000D03*
%TD*%
D18*
%TO.C,R10*%
X224750000Y-130250000D03*
X224750000Y-132250000D03*
%TD*%
D13*
%TO.C,C4*%
X197000000Y-102650000D03*
X194925000Y-102650000D03*
%TD*%
D18*
%TO.C,R9*%
X224712500Y-125750000D03*
X224712500Y-127750000D03*
%TD*%
D19*
%TO.C,JP5*%
X214400000Y-115600000D03*
D20*
X216940000Y-115600000D03*
%TD*%
D21*
%TO.C,Q1*%
X170300000Y-102040000D03*
X170300000Y-103960000D03*
X172500000Y-103000000D03*
%TD*%
D22*
%TO.C,R39*%
X202750000Y-146750000D03*
X200750000Y-146750000D03*
%TD*%
D23*
%TO.C,C30*%
X162712500Y-133250000D03*
X164787500Y-133250000D03*
%TD*%
D17*
%TO.C,C9*%
X221250000Y-132287500D03*
X221250000Y-130212500D03*
%TD*%
%TO.C,C16*%
X223750000Y-150037500D03*
X223750000Y-147962500D03*
%TD*%
D10*
%TO.C,R4*%
X224750000Y-136750000D03*
X224750000Y-134750000D03*
%TD*%
D17*
%TO.C,C14*%
X204130000Y-108650000D03*
X204130000Y-106575000D03*
%TD*%
D13*
%TO.C,C33*%
X197825000Y-151250000D03*
X195750000Y-151250000D03*
%TD*%
D17*
%TO.C,C11*%
X168000000Y-103787500D03*
X168000000Y-101712500D03*
%TD*%
D12*
%TO.C,R1*%
X176500000Y-140750000D03*
X178500000Y-140750000D03*
%TD*%
D17*
%TO.C,C26*%
X218750000Y-145287500D03*
X218750000Y-143212500D03*
%TD*%
D24*
%TO.C,C21*%
X222000000Y-111000000D03*
X222000000Y-113075000D03*
%TD*%
D22*
%TO.C,R14*%
X207000000Y-150750000D03*
X205000000Y-150750000D03*
%TD*%
D12*
%TO.C,R23*%
X210750000Y-129500000D03*
X212750000Y-129500000D03*
%TD*%
D22*
%TO.C,R38*%
X207000000Y-146750000D03*
X205000000Y-146750000D03*
%TD*%
D24*
%TO.C,C25*%
X221000000Y-121212500D03*
X221000000Y-123287500D03*
%TD*%
D25*
%TO.C,J2*%
X234320000Y-142530000D03*
X234320000Y-136750000D03*
D26*
X233245000Y-142840000D03*
X233245000Y-142040000D03*
D27*
X233245000Y-140890000D03*
X233245000Y-139890000D03*
X233245000Y-139390000D03*
X233245000Y-138390000D03*
D26*
X233245000Y-137240000D03*
X233245000Y-136440000D03*
X233245000Y-136440000D03*
X233245000Y-137240000D03*
D27*
X233245000Y-137890000D03*
X233245000Y-138890000D03*
X233245000Y-140390000D03*
X233245000Y-141390000D03*
D26*
X233245000Y-142040000D03*
X233245000Y-142840000D03*
D28*
X233820000Y-143960000D03*
D29*
X238000000Y-143960000D03*
D28*
X233820000Y-135320000D03*
D29*
X238000000Y-135320000D03*
%TD*%
D23*
%TO.C,C3*%
X211462500Y-138250000D03*
X213537500Y-138250000D03*
%TD*%
D24*
%TO.C,C19*%
X207630000Y-113612500D03*
X207630000Y-115687500D03*
%TD*%
D10*
%TO.C,R15*%
X229000000Y-150000000D03*
X229000000Y-148000000D03*
%TD*%
D30*
%TO.C,L3*%
X190937500Y-148750000D03*
X193062500Y-148750000D03*
%TD*%
D22*
%TO.C,R6*%
X235750000Y-146500000D03*
X233750000Y-146500000D03*
%TD*%
D31*
%TO.C,J4*%
X236750000Y-113350000D03*
X230750000Y-113350000D03*
D32*
X237350000Y-110750000D03*
D33*
X230550000Y-110750000D03*
X234450000Y-115750000D03*
D34*
X228650000Y-115550000D03*
%TD*%
D23*
%TO.C,C37*%
X190925000Y-151250000D03*
X193000000Y-151250000D03*
%TD*%
D17*
%TO.C,C6*%
X193130000Y-114287500D03*
X193130000Y-112212500D03*
%TD*%
D13*
%TO.C,C12*%
X201167500Y-106150000D03*
X199092500Y-106150000D03*
%TD*%
D22*
%TO.C,R5*%
X230250000Y-136000000D03*
X228250000Y-136000000D03*
%TD*%
D12*
%TO.C,R19*%
X168250000Y-136500000D03*
X170250000Y-136500000D03*
%TD*%
D35*
%TO.C,IC6*%
X205040000Y-135100000D03*
X202500000Y-135100000D03*
X202500000Y-144000000D03*
X205040000Y-144000000D03*
%TD*%
D18*
%TO.C,R36*%
X194250000Y-121000000D03*
X194250000Y-123000000D03*
%TD*%
D22*
%TO.C,R11*%
X191500000Y-122500000D03*
X189500000Y-122500000D03*
%TD*%
D19*
%TO.C,JP3*%
X214400000Y-109600000D03*
D20*
X216940000Y-109600000D03*
%TD*%
D36*
%TO.C,IC4*%
X191750000Y-125050000D03*
X191750000Y-126000000D03*
X191750000Y-126950000D03*
X194250000Y-126950000D03*
X194250000Y-126000000D03*
X194250000Y-125050000D03*
%TD*%
D37*
%TO.C,D5*%
X228450000Y-140500000D03*
D38*
X230150000Y-140500000D03*
X230150000Y-138500000D03*
X228250000Y-138500000D03*
%TD*%
D17*
%TO.C,C20*%
X222000000Y-109000000D03*
X222000000Y-106925000D03*
%TD*%
D22*
%TO.C,R40*%
X193000000Y-146250000D03*
X191000000Y-146250000D03*
%TD*%
D30*
%TO.C,L2*%
X187187500Y-127250000D03*
X189312500Y-127250000D03*
%TD*%
D19*
%TO.C,JP4*%
X214400000Y-112600000D03*
D20*
X216940000Y-112600000D03*
%TD*%
D23*
%TO.C,C17*%
X226962500Y-145712500D03*
X229037500Y-145712500D03*
%TD*%
D39*
%TO.C,IC2*%
X224750000Y-144712500D03*
X224750000Y-144212500D03*
X224750000Y-143712500D03*
X224750000Y-143212500D03*
X224750000Y-142712500D03*
X224750000Y-142212500D03*
D40*
X224000000Y-141462500D03*
X223500000Y-141462500D03*
X223000000Y-141462500D03*
X222500000Y-141462500D03*
X222000000Y-141462500D03*
X221500000Y-141462500D03*
D39*
X220750000Y-142212500D03*
X220750000Y-142712500D03*
X220750000Y-143212500D03*
X220750000Y-143712500D03*
X220750000Y-144212500D03*
X220750000Y-144712500D03*
D40*
X221500000Y-145462500D03*
X222000000Y-145462500D03*
X222500000Y-145462500D03*
X223000000Y-145462500D03*
X223500000Y-145462500D03*
X224000000Y-145462500D03*
D41*
X222750000Y-143462500D03*
%TD*%
D19*
%TO.C,JP1*%
X232725000Y-132500000D03*
D20*
X235265000Y-132500000D03*
X237805000Y-132500000D03*
%TD*%
D19*
%TO.C,JP2*%
X214400000Y-106600000D03*
D20*
X216940000Y-106600000D03*
%TD*%
D18*
%TO.C,R16*%
X224750000Y-107000000D03*
X224750000Y-109000000D03*
%TD*%
D42*
%TO.C,SW6*%
X184000000Y-143000000D03*
X184000000Y-136500000D03*
X188500000Y-143000000D03*
X188500000Y-136500000D03*
%TD*%
D18*
%TO.C,R25*%
X207250000Y-125000000D03*
X207250000Y-127000000D03*
%TD*%
D13*
%TO.C,C13*%
X201167500Y-102650000D03*
X199092500Y-102650000D03*
%TD*%
%TO.C,C27*%
X160575000Y-130500000D03*
X158500000Y-130500000D03*
%TD*%
D18*
%TO.C,R35*%
X200750000Y-148750000D03*
X200750000Y-150750000D03*
%TD*%
D12*
%TO.C,R13*%
X205000000Y-148750000D03*
X207000000Y-148750000D03*
%TD*%
%TO.C,R26*%
X205010000Y-129250000D03*
X207010000Y-129250000D03*
%TD*%
%TO.C,R2*%
X194000000Y-140750000D03*
X196000000Y-140750000D03*
%TD*%
D43*
%TO.C,J3*%
X173000000Y-150750000D03*
D20*
X170460000Y-150750000D03*
X167920000Y-150750000D03*
X165380000Y-150750000D03*
%TD*%
D44*
%TO.C,J6*%
X159250000Y-137420000D03*
D20*
X159250000Y-139960000D03*
X159250000Y-142500000D03*
X159250000Y-145040000D03*
%TD*%
D12*
%TO.C,R33*%
X189500000Y-120000000D03*
X191500000Y-120000000D03*
%TD*%
D22*
%TO.C,R24*%
X164750000Y-130500000D03*
X162750000Y-130500000D03*
%TD*%
D36*
%TO.C,IC5*%
X195500000Y-147100000D03*
X195500000Y-148050000D03*
X195500000Y-149000000D03*
X198000000Y-149000000D03*
X198000000Y-148050000D03*
X198000000Y-147100000D03*
%TD*%
D45*
%TO.C,D6*%
X168250000Y-145200000D03*
D46*
X168250000Y-146900000D03*
X170250000Y-146900000D03*
X170250000Y-145000000D03*
%TD*%
D10*
%TO.C,R17*%
X224750000Y-113037500D03*
X224750000Y-111037500D03*
%TD*%
D23*
%TO.C,C1*%
X176462500Y-138500000D03*
X178537500Y-138500000D03*
%TD*%
D13*
%TO.C,C29*%
X187287500Y-146250000D03*
X185212500Y-146250000D03*
%TD*%
D23*
%TO.C,C2*%
X193962500Y-138250000D03*
X196037500Y-138250000D03*
%TD*%
D47*
%TO.C,IC3*%
X159000000Y-127000000D03*
X160270000Y-127000000D03*
X161540000Y-127000000D03*
X162810000Y-127000000D03*
X164080000Y-127000000D03*
X165350000Y-127000000D03*
X166620000Y-127000000D03*
X167890000Y-127000000D03*
X169160000Y-127000000D03*
X170430000Y-127000000D03*
X171700000Y-127000000D03*
X172970000Y-127000000D03*
X174240000Y-127000000D03*
X175510000Y-127000000D03*
X175510000Y-109500000D03*
X174240000Y-109500000D03*
X172970000Y-109500000D03*
X171700000Y-109500000D03*
X170430000Y-109500000D03*
X169160000Y-109500000D03*
X167890000Y-109500000D03*
X166620000Y-109500000D03*
X165350000Y-109500000D03*
X164080000Y-109500000D03*
X162810000Y-109500000D03*
X161540000Y-109500000D03*
X160270000Y-109500000D03*
X159000000Y-109500000D03*
D48*
X164720000Y-119755000D03*
X163470000Y-121005000D03*
X164720000Y-121005000D03*
X165970000Y-121005000D03*
X165970000Y-119755000D03*
X165970000Y-118505000D03*
X164720000Y-118505000D03*
X163470000Y-118505000D03*
X163470000Y-119755000D03*
%TD*%
D17*
%TO.C,C22*%
X226500000Y-150037500D03*
X226500000Y-147962500D03*
%TD*%
D18*
%TO.C,R29*%
X173750000Y-130750000D03*
X173750000Y-132750000D03*
%TD*%
D23*
%TO.C,C36*%
X187212500Y-124750000D03*
X189287500Y-124750000D03*
%TD*%
D17*
%TO.C,C23*%
X221000000Y-150037500D03*
X221000000Y-147962500D03*
%TD*%
D18*
%TO.C,R21*%
X168750000Y-130750000D03*
X168750000Y-132750000D03*
%TD*%
D22*
%TO.C,R18*%
X173250000Y-105750000D03*
X171250000Y-105750000D03*
%TD*%
D18*
%TO.C,R32*%
X171250000Y-130750000D03*
X171250000Y-132750000D03*
%TD*%
D12*
%TO.C,R34*%
X167500000Y-105750000D03*
X169500000Y-105750000D03*
%TD*%
D24*
%TO.C,C28*%
X200000000Y-124462500D03*
X200000000Y-126537500D03*
%TD*%
D13*
%TO.C,C10*%
X214537500Y-148000000D03*
X212462500Y-148000000D03*
%TD*%
D17*
%TO.C,C5*%
X189630000Y-114287500D03*
X189630000Y-112212500D03*
%TD*%
D22*
%TO.C,R20*%
X166000000Y-136500000D03*
X164000000Y-136500000D03*
%TD*%
D49*
%TO.C,J1*%
X235375000Y-126500000D03*
D50*
X237775000Y-126500000D03*
D51*
X232875000Y-124650000D03*
X232875000Y-128350000D03*
X230875000Y-126500000D03*
%TD*%
D52*
%TO.C,U1*%
X202500000Y-125100000D03*
X202500000Y-126050000D03*
X202500000Y-127000000D03*
X205000000Y-127000000D03*
X205000000Y-125100000D03*
%TD*%
D24*
%TO.C,C15*%
X204130000Y-113612500D03*
X204130000Y-115687500D03*
%TD*%
D12*
%TO.C,R12*%
X228250000Y-132750000D03*
X230250000Y-132750000D03*
%TD*%
D18*
%TO.C,R22*%
X221000000Y-117000000D03*
X221000000Y-119000000D03*
%TD*%
D23*
%TO.C,C31*%
X205212500Y-122750000D03*
X207287500Y-122750000D03*
%TD*%
D13*
%TO.C,C24*%
X160537500Y-133250000D03*
X158462500Y-133250000D03*
%TD*%
D19*
%TO.C,J9*%
X192410000Y-103250000D03*
D20*
X189870000Y-103250000D03*
X187330000Y-103250000D03*
X184790000Y-103250000D03*
X182250000Y-103250000D03*
X179710000Y-103250000D03*
X177170000Y-103250000D03*
X174630000Y-103250000D03*
%TD*%
D42*
%TO.C,SW1*%
X179750000Y-143000000D03*
X179750000Y-136500000D03*
X175250000Y-143000000D03*
X175250000Y-136500000D03*
%TD*%
D53*
%TO.C,SW5*%
X224000000Y-116750000D03*
X224000000Y-119750000D03*
X224000000Y-122750000D03*
%TD*%
D43*
%TO.C,J5*%
X209725000Y-150800000D03*
D20*
X212265000Y-150800000D03*
X214805000Y-150800000D03*
%TD*%
D54*
%TO.C,J7*%
X165000000Y-102460000D03*
D20*
X165000000Y-105000000D03*
%TD*%
D42*
%TO.C,SW3*%
X214750000Y-143000000D03*
X214750000Y-136500000D03*
X210250000Y-143000000D03*
X210250000Y-136500000D03*
%TD*%
%TO.C,SW2*%
X197250000Y-143000000D03*
X197250000Y-136500000D03*
X192750000Y-143000000D03*
X192750000Y-136500000D03*
%TD*%
M02*
