M48
; DRILL file {KiCad 8.0.9-8.0.9-0~ubuntu24.04.1} date 2025-02-24T19:32:27+0100
; FORMAT={-:-/ absolute / inch / decimal}
; #@! TF.CreationDate,2025-02-24T19:32:27+01:00
; #@! TF.GenerationSoftware,Kicad,Pcbnew,8.0.9-8.0.9-0~ubuntu24.04.1
; #@! TF.FileFunction,Plated,1,4,PTH
FMAT,2
INCH
; #@! TA.AperFunction,Plated,PTH,ViaDrill
T1C0.0157
; #@! TA.AperFunction,Plated,PTH,ViaDrill
T2C0.0236
; #@! TA.AperFunction,Plated,PTH,ComponentDrill
T3C0.0236
; #@! TA.AperFunction,Plated,PTH,ComponentDrill
T4C0.0394
; #@! TA.AperFunction,Plated,PTH,ComponentDrill
T5C0.0433
; #@! TA.AperFunction,Plated,PTH,ComponentDrill
T6C0.0602
; #@! TA.AperFunction,Plated,PTH,ComponentDrill
T7C0.0669
; #@! TA.AperFunction,Plated,PTH,ComponentDrill
T8C0.0846
%
G90
G05
T1
X7.7165Y-4.2815
X7.8661Y-4.378
X8.0Y-4.376
X8.6122Y-5.561
X8.6516Y-5.4528
X8.6713Y-5.5413
X8.6909Y-5.4803
X8.8681Y-5.5413
X8.8878Y-5.5807
X8.8878Y-5.689
X8.9173Y-5.6594
X8.9232Y-5.5512
T2
X6.2402Y-5.1378
X6.2402Y-5.2461
X6.2598Y-4.311
X6.3189Y-5.2461
X6.3204Y-5.1378
X6.4075Y-4.9976
X6.4098Y-4.311
X6.4561Y-4.9963
X6.4598Y-4.311
X6.4862Y-5.1378
X6.4877Y-5.2461
X6.4902Y-4.7148
X6.4961Y-5.3209
X6.5098Y-4.311
X6.5354Y-5.5906
X6.5393Y-4.8464
X6.5748Y-5.6398
X6.6004Y-4.8287
X6.6098Y-5.0
X6.6181Y-5.7165
X6.623Y-4.0059
X6.6339Y-5.4823
X6.6516Y-5.2185
X6.7028Y-4.0945
X6.7028Y-5.374
X6.7087Y-5.7087
X6.7098Y-5.0
X6.7381Y-5.2304
X6.7598Y-5.0
X6.8098Y-5.0
X6.811Y-4.1634
X6.9094Y-4.5177
X6.9098Y-4.311
X6.9488Y-5.5413
X6.9585Y-4.6761
X6.9684Y-4.6299
X7.2918Y-5.7579
X7.3394Y-4.8228
X7.3706Y-4.9114
X7.372Y-5.0098
X7.4523Y-4.9114
X7.4606Y-4.4193
X7.4705Y-4.498
X7.5167Y-5.8858
X7.5197Y-5.7579
X7.5394Y-4.7736
X7.5674Y-5.0886
X7.6035Y-4.4178
X7.6035Y-4.4995
X7.628Y-4.5669
X7.6378Y-5.5413
X7.6476Y-4.7638
X7.6476Y-5.9547
X7.6491Y-5.0886
X7.6742Y-4.0581
X7.6742Y-4.1791
X7.6772Y-4.5669
X7.7461Y-4.8327
X7.7559Y-4.0581
X7.7559Y-4.1791
X7.7953Y-5.8819
X7.8383Y-4.0748
X7.8383Y-4.1791
X7.8445Y-4.5965
X7.874Y-4.9016
X7.874Y-4.9724
X7.8937Y-4.7146
X7.8986Y-4.6604
X7.9085Y-5.3691
X7.92Y-4.0748
X7.92Y-4.1791
X7.9724Y-5.6746
X8.0315Y-4.4783
X8.0315Y-4.5571
X8.0366Y-4.1959
X8.0366Y-4.2776
X8.0709Y-5.8563
X8.0709Y-5.935
X8.0717Y-5.6693
X8.0724Y-5.3189
X8.1594Y-4.9213
X8.1693Y-4.2815
X8.1744Y-4.4729
X8.1744Y-4.5546
X8.1791Y-4.1929
X8.2087Y-4.872
X8.2972Y-5.0945
X8.3268Y-5.5413
X8.3661Y-5.8268
X8.376Y-5.0945
X8.5276Y-5.7283
X8.622Y-5.72
X8.7008Y-4.685
X8.7697Y-5.6496
X8.8091Y-5.8253
X8.8091Y-5.9055
X8.8484Y-5.3051
X8.8583Y-5.3937
X8.9173Y-5.907
X8.9862Y-5.2264
X8.9862Y-5.3543
X8.9961Y-5.5807
X9.0157Y-5.8268
X9.065Y-5.6201
X9.1043Y-5.4134
T4
X6.2697Y-5.4102
X6.2697Y-5.5102
X6.2697Y-5.6102
X6.2697Y-5.7102
X6.4961Y-4.0339
X6.4961Y-4.1339
X6.511Y-5.935
X6.611Y-5.935
X6.711Y-5.935
X6.811Y-5.935
X6.8752Y-4.065
X6.9752Y-4.065
X7.0752Y-4.065
X7.1752Y-4.065
X7.2752Y-4.065
X7.3752Y-4.065
X7.4752Y-4.065
X7.5752Y-4.065
X8.2569Y-5.937
X8.3569Y-5.937
X8.4409Y-4.1969
X8.4409Y-4.315
X8.4409Y-4.4331
X8.4409Y-4.5512
X8.4569Y-5.937
X8.5409Y-4.1969
X8.5409Y-4.315
X8.5409Y-4.4331
X8.5409Y-4.5512
X9.1624Y-5.2165
X9.2624Y-5.2165
X9.3624Y-5.2165
T5
X6.8996Y-5.374
X6.8996Y-5.6299
X7.0768Y-5.374
X7.0768Y-5.6299
X7.2441Y-5.374
X7.2441Y-5.6299
X7.4213Y-5.374
X7.4213Y-5.6299
X7.5886Y-5.374
X7.5886Y-5.6299
X7.7657Y-5.374
X7.7657Y-5.6299
X8.2776Y-5.374
X8.2776Y-5.6299
X8.4547Y-5.374
X8.4547Y-5.6299
T6
X9.002Y-4.5492
T7
X9.0896Y-4.9803
X9.1683Y-4.9075
X9.1683Y-5.0531
X9.3612Y-4.9803
T8
X9.0768Y-4.3602
X9.2303Y-4.5571
X9.3445Y-4.3602
T3
G00X9.1839Y-5.3276
M15
G01X9.2272Y-5.3276
M16
G05
G00X9.1839Y-5.6677
M15
G01X9.2272Y-5.6677
M16
G05
G00X9.3543Y-5.3276
M15
G01X9.3858Y-5.3276
M16
G05
G00X9.3543Y-5.6677
M15
G01X9.3858Y-5.6677
M16
G05
T4
G00X8.8189Y-4.5748
M15
G01X8.8189Y-4.6181
M16
G05
G00X8.8189Y-4.6929
M15
G01X8.8189Y-4.7362
M16
G05
G00X8.8189Y-4.811
M15
G01X8.8189Y-4.8543
M16
G05
M30
